<svg xmlns="http://www.w3.org/2000/svg" xmlns:xlink="http://www.w3.org/1999/xlink" viewBox="0 0 96.37 76.15"><defs><linearGradient id="linear-gradient" x1="305.66" y1="320.53" x2="314.83" y2="331.72" xlink:href="#radial-gradient"/><linearGradient id="linear-gradient-2" x1="309.09" y1="322.99" x2="313.96" y2="325.29" gradientUnits="userSpaceOnUse"><stop offset="0" stop-color="#ffb1b4"/><stop offset=".3" stop-color="#fea6a8"/><stop offset=".85" stop-color="#fa898a"/><stop offset="1" stop-color="#f98080"/></linearGradient><linearGradient id="linear-gradient-3" x1="309.11" y1="323" x2="313.96" y2="325.29" gradientUnits="userSpaceOnUse"><stop offset="0" stop-color="#fe8181"/><stop offset="1" stop-color="#ff6568"/></linearGradient><linearGradient id="linear-gradient-4" x1="342.39" y1="318.57" x2="339.61" y2="331.41" xlink:href="#radial-gradient"/><linearGradient id="linear-gradient-5" x1="344.21" y1="323.04" x2="334.75" y2="327.2" xlink:href="#linear-gradient-2"/><linearGradient id="linear-gradient-6" x1="343.99" y1="323.13" x2="334.76" y2="327.19" xlink:href="#linear-gradient-3"/><linearGradient id="linear-gradient-7" x1="327.46" y1="374.29" x2="335.31" y2="376.93" gradientUnits="userSpaceOnUse"><stop offset="0" stop-color="#f3a957"/><stop offset="1" stop-color="#de812b"/></linearGradient><linearGradient id="linear-gradient-8" x1="332.15" y1="369.67" x2="341.25" y2="373.3" gradientUnits="userSpaceOnUse"><stop offset="0" stop-color="#984400"/><stop offset="1" stop-color="#601f04"/></linearGradient><linearGradient id="linear-gradient-9" x1="331.79" y1="370.56" x2="340.89" y2="374.19" xlink:href="#linear-gradient-8"/><linearGradient id="linear-gradient-10" x1="330.56" y1="373.65" x2="339.66" y2="377.28" xlink:href="#linear-gradient-8"/><linearGradient id="linear-gradient-11" x1="329.18" y1="377.11" x2="338.28" y2="380.74" xlink:href="#linear-gradient-8"/><linearGradient id="linear-gradient-12" x1="328.43" y1="379" x2="337.53" y2="382.63" xlink:href="#linear-gradient-8"/><linearGradient id="linear-gradient-13" x1="342.37" y1="350.91" x2="343.55" y2="365.42" xlink:href="#radial-gradient"/><linearGradient id="linear-gradient-14" x1="396.55" y1="363.64" x2="400.65" y2="363.64" xlink:href="#radial-gradient"/><linearGradient id="linear-gradient-15" x1="375.2" y1="353.91" x2="382.05" y2="386.59" xlink:href="#linear-gradient-8"/><linearGradient id="linear-gradient-16" x1="377.52" y1="353.42" x2="384.37" y2="386.1" xlink:href="#linear-gradient-8"/><linearGradient id="linear-gradient-17" x1="377.9" y1="353.34" x2="384.75" y2="386.02" xlink:href="#linear-gradient-8"/><linearGradient id="linear-gradient-18" x1="379.07" y1="353.1" x2="385.92" y2="385.78" xlink:href="#linear-gradient-8"/><linearGradient id="linear-gradient-19" x1="378.29" y1="353.26" x2="385.14" y2="385.94" xlink:href="#linear-gradient-8"/><linearGradient id="linear-gradient-20" x1="378.37" y1="353.25" x2="385.22" y2="385.93" xlink:href="#linear-gradient-8"/><linearGradient id="linear-gradient-21" x1="378.07" y1="353.31" x2="384.92" y2="385.99" xlink:href="#linear-gradient-8"/><linearGradient id="linear-gradient-22" x1="380.46" y1="352.81" x2="387.31" y2="385.49" xlink:href="#linear-gradient-8"/><linearGradient id="linear-gradient-23" x1="382.45" y1="352.39" x2="389.3" y2="385.07" xlink:href="#linear-gradient-8"/><linearGradient id="linear-gradient-24" x1="387.67" y1="351.3" x2="394.52" y2="383.98" xlink:href="#linear-gradient-8"/><linearGradient id="linear-gradient-25" x1="392.11" y1="350.37" x2="398.96" y2="383.05" xlink:href="#linear-gradient-8"/><linearGradient id="linear-gradient-26" x1="393.43" y1="350.09" x2="400.28" y2="382.77" xlink:href="#linear-gradient-8"/><linearGradient id="linear-gradient-27" x1="395.71" y1="349.61" x2="402.56" y2="382.29" xlink:href="#linear-gradient-8"/><linearGradient id="linear-gradient-28" x1="335.26" y1="376.73" x2="345.09" y2="381.71" xlink:href="#linear-gradient-8"/><linearGradient id="linear-gradient-29" x1="336.14" y1="375" x2="345.96" y2="379.98" xlink:href="#linear-gradient-8"/><linearGradient id="linear-gradient-30" x1="337.7" y1="371.93" x2="347.52" y2="376.91" xlink:href="#linear-gradient-8"/><linearGradient id="linear-gradient-31" x1="339.3" y1="368.77" x2="349.13" y2="373.75" xlink:href="#linear-gradient-8"/><linearGradient id="linear-gradient-32" x1="339.83" y1="367.73" x2="349.65" y2="372.71" xlink:href="#linear-gradient-8"/><linearGradient id="linear-gradient-33" x1="341.51" y1="364.42" x2="351.33" y2="369.41" xlink:href="#linear-gradient-8"/><linearGradient id="linear-gradient-34" x1="342.44" y1="362.58" x2="352.27" y2="367.57" gradientTransform="rotate(4.65 340.2 361.425)" xlink:href="#linear-gradient-8"/><linearGradient id="linear-gradient-35" x1="12.09" y1="5.59" x2="36.71" y2="9.84" xlink:href="#linear-gradient-8"/><linearGradient id="linear-gradient-36" x1="338.61" y1="368.23" x2="338.45" y2="364.49" gradientTransform="rotate(8.84 562.788 192.515)" gradientUnits="userSpaceOnUse"><stop offset="0" stop-color="#31a4e5"/><stop offset=".41" stop-color="#0038b1"/><stop offset="1" stop-color="#000013"/></linearGradient><linearGradient id="linear-gradient-37" x1="257.43" y1="450.4" x2="257.43" y2="448.05" gradientTransform="matrix(1.13 .12 -.13 1.18 81.64 -229.93)" gradientUnits="userSpaceOnUse"><stop offset="0" stop-color="#52ffff"/><stop offset=".09" stop-color="#4df0f0"/><stop offset=".27" stop-color="#41c9c9"/><stop offset=".52" stop-color="#2c8a8a"/><stop offset=".83" stop-color="#113434"/><stop offset="1"/></linearGradient><linearGradient id="linear-gradient-38" x1="316.05" y1="342.21" x2="323.53" y2="342.21" xlink:href="#radial-gradient"/><linearGradient id="linear-gradient-39" x1="312.35" y1="338.82" x2="320.65" y2="338.82" xlink:href="#radial-gradient"/><linearGradient id="linear-gradient-40" x1="312.53" y1="336.14" x2="316.6" y2="336.14" gradientUnits="userSpaceOnUse"><stop offset="0" stop-color="#530200"/><stop offset="1" stop-color="#270700"/></linearGradient><linearGradient id="linear-gradient-41" x1="10.46" y1="15.03" x2="35.08" y2="19.28" xlink:href="#linear-gradient-8"/><linearGradient id="linear-gradient-42" x1="317.25" y1="327.55" x2="341.87" y2="331.79" xlink:href="#linear-gradient-8"/><linearGradient id="linear-gradient-43" x1="317.25" y1="327.52" x2="341.87" y2="331.76" xlink:href="#linear-gradient-8"/><linearGradient id="linear-gradient-44" x1="317.81" y1="324.31" x2="342.43" y2="328.55" xlink:href="#linear-gradient-8"/><linearGradient id="linear-gradient-45" x1="318.04" y1="322.95" x2="342.66" y2="327.19" xlink:href="#linear-gradient-8"/><linearGradient id="linear-gradient-46" x1="12.12" y1="5.42" x2="36.74" y2="9.66" xlink:href="#linear-gradient-8"/><linearGradient id="linear-gradient-47" x1="318.47" y1="320.47" x2="343.09" y2="324.72" xlink:href="#linear-gradient-8"/><linearGradient id="linear-gradient-48" x1="318.81" y1="318.49" x2="343.43" y2="322.73" xlink:href="#linear-gradient-8"/><linearGradient id="linear-gradient-49" x1="318.52" y1="320.15" x2="343.14" y2="324.39" xlink:href="#linear-gradient-8"/><linearGradient id="linear-gradient-50" x1="317.62" y1="325.41" x2="342.24" y2="329.65" xlink:href="#linear-gradient-8"/><linearGradient id="linear-gradient-51" x1="317.94" y1="323.51" x2="342.57" y2="327.75" xlink:href="#linear-gradient-8"/><linearGradient id="linear-gradient-52" x1="317.2" y1="327.8" x2="341.83" y2="332.04" xlink:href="#linear-gradient-8"/><linearGradient id="linear-gradient-53" x1="315.56" y1="337.32" x2="340.18" y2="341.57" xlink:href="#linear-gradient-8"/><linearGradient id="linear-gradient-54" x1="315.74" y1="336.29" x2="340.36" y2="340.53" xlink:href="#linear-gradient-8"/><linearGradient id="linear-gradient-55" x1="9.91" y1="18.24" x2="34.53" y2="22.48" xlink:href="#linear-gradient-8"/><linearGradient id="linear-gradient-56" x1="214.68" y1="420.94" x2="239.3" y2="425.19" gradientTransform="matrix(.97 -.62 .47 .74 -91.92 163.59)" xlink:href="#linear-gradient-8"/><linearGradient id="linear-gradient-57" x1="345.65" y1="353.08" x2="383.29" y2="387.36" xlink:href="#linear-gradient-8"/><linearGradient id="linear-gradient-58" x1="347.74" y1="350.8" x2="385.37" y2="385.08" xlink:href="#linear-gradient-8"/><linearGradient id="linear-gradient-59" x1="345.24" y1="353.53" x2="382.88" y2="387.82" xlink:href="#linear-gradient-8"/><linearGradient id="linear-gradient-60" x1="341.84" y1="357.27" x2="379.47" y2="391.55" xlink:href="#linear-gradient-8"/><linearGradient id="linear-gradient-61" x1="339.93" y1="359.37" x2="377.56" y2="393.65" xlink:href="#linear-gradient-8"/><linearGradient id="linear-gradient-62" x1="36.25" y1="40.41" x2="73.88" y2="74.69" xlink:href="#linear-gradient-8"/><linearGradient id="linear-gradient-63" x1="347.76" y1="350.78" x2="385.39" y2="385.06" xlink:href="#linear-gradient-8"/><linearGradient id="linear-gradient-64" x1="347.07" y1="351.53" x2="384.7" y2="385.81" xlink:href="#linear-gradient-8"/><linearGradient id="linear-gradient-65" x1="344.36" y1="354.5" x2="381.99" y2="388.78" xlink:href="#linear-gradient-8"/><linearGradient id="linear-gradient-66" x1="346.57" y1="352.08" x2="384.2" y2="386.36" xlink:href="#linear-gradient-8"/><linearGradient id="linear-gradient-67" x1="344.25" y1="354.62" x2="381.89" y2="388.9" xlink:href="#linear-gradient-8"/><linearGradient id="linear-gradient-68" x1="349.27" y1="349.11" x2="386.9" y2="383.4" xlink:href="#linear-gradient-8"/><linearGradient id="linear-gradient-69" x1="349.74" y1="348.6" x2="387.37" y2="382.88" xlink:href="#linear-gradient-8"/><linearGradient id="linear-gradient-70" x1="351.19" y1="347.01" x2="388.82" y2="381.29" xlink:href="#linear-gradient-8"/><linearGradient id="linear-gradient-71" x1="354.57" y1="343.3" x2="392.2" y2="377.58" xlink:href="#linear-gradient-8"/><linearGradient id="linear-gradient-72" x1="357.17" y1="340.44" x2="394.8" y2="374.72" xlink:href="#linear-gradient-8"/><linearGradient id="linear-gradient-73" x1="356.47" y1="341.21" x2="394.1" y2="375.49" xlink:href="#linear-gradient-8"/><linearGradient id="linear-gradient-74" x1="353.87" y1="344.06" x2="391.51" y2="378.34" xlink:href="#linear-gradient-8"/><linearGradient id="linear-gradient-75" x1="353.37" y1="344.61" x2="391" y2="378.89" xlink:href="#linear-gradient-8"/><linearGradient id="linear-gradient-76" x1="351.01" y1="347.21" x2="388.64" y2="381.49" xlink:href="#linear-gradient-8"/><linearGradient id="linear-gradient-77" x1="351.6" y1="346.56" x2="389.23" y2="380.84" xlink:href="#linear-gradient-8"/><linearGradient id="linear-gradient-78" x1="355.44" y1="342.34" x2="393.07" y2="376.62" xlink:href="#linear-gradient-8"/><linearGradient id="linear-gradient-79" x1="357.66" y1="339.9" x2="395.29" y2="374.18" xlink:href="#linear-gradient-8"/><linearGradient id="linear-gradient-80" x1="366.98" y1="359.49" x2="387.31" y2="364.51" xlink:href="#linear-gradient-8"/><linearGradient id="linear-gradient-81" x1="365.49" y1="365.54" x2="385.81" y2="370.56" xlink:href="#linear-gradient-8"/><linearGradient id="linear-gradient-82" x1="365.35" y1="366.1" x2="385.67" y2="371.12" xlink:href="#linear-gradient-8"/><linearGradient id="linear-gradient-83" x1="364.18" y1="370.85" x2="384.5" y2="375.87" xlink:href="#linear-gradient-8"/><linearGradient id="linear-gradient-84" x1="363.58" y1="373.26" x2="383.9" y2="378.29" xlink:href="#linear-gradient-8"/><linearGradient id="linear-gradient-85" x1="362.4" y1="378.04" x2="382.72" y2="383.06" xlink:href="#linear-gradient-8"/><linearGradient id="linear-gradient-86" x1="351.63" y1="346.52" x2="389.26" y2="380.8" xlink:href="#linear-gradient-8"/><linearGradient id="linear-gradient-87" x1="355.09" y1="366.41" x2="357.97" y2="366.41" xlink:href="#linear-gradient-8"/><linearGradient id="linear-gradient-88" x1="359.27" y1="364.66" x2="361.38" y2="364.66" xlink:href="#linear-gradient-8"/><linearGradient id="linear-gradient-89" x1="358.15" y1="369.77" x2="360.69" y2="369.77" xlink:href="#linear-gradient-8"/><linearGradient id="linear-gradient-90" x1="356.34" y1="372.03" x2="357.92" y2="372.03" xlink:href="#linear-gradient-8"/><linearGradient id="linear-gradient-91" x1="359.45" y1="374" x2="361.32" y2="374" xlink:href="#linear-gradient-8"/><linearGradient id="linear-gradient-92" x1="362.58" y1="374.49" x2="363.84" y2="374.49" xlink:href="#linear-gradient-8"/><linearGradient id="linear-gradient-93" x1="359.48" y1="378.29" x2="361.89" y2="378.29" xlink:href="#linear-gradient-8"/><linearGradient id="linear-gradient-94" x1="357.16" y1="379.87" x2="358.72" y2="379.87" xlink:href="#linear-gradient-8"/><linearGradient id="linear-gradient-95" x1="358.23" y1="382.25" x2="359.8" y2="382.25" xlink:href="#linear-gradient-8"/><linearGradient id="linear-gradient-96" x1="355.74" y1="385.14" x2="357.52" y2="385.14" xlink:href="#linear-gradient-8"/><linearGradient id="linear-gradient-97" x1="344.09" y1="381.5" x2="343.88" y2="376.43" gradientTransform="rotate(6.62 752.372 198.932)" xlink:href="#linear-gradient-36"/><linearGradient id="linear-gradient-98" x1="262.19" y1="461.59" x2="262.19" y2="458.41" gradientTransform="matrix(1.13 .08 -.08 1.18 67.16 -232.64)" xlink:href="#linear-gradient-37"/><radialGradient id="radial-gradient" cx="310.49" cy="318.81" r="8.38" gradientUnits="userSpaceOnUse"><stop offset="0" stop-color="#ebdbc6"/><stop offset="1" stop-color="#d8b98e"/></radialGradient><radialGradient id="radial-gradient-2" cx="310.98" cy="317.92" r="7.39" gradientUnits="userSpaceOnUse"><stop offset="0" stop-color="#fff"/><stop offset=".09" stop-color="#dedede"/><stop offset=".28" stop-color="#9c9c9c"/><stop offset=".46" stop-color="#646464"/><stop offset=".63" stop-color="#393939"/><stop offset=".78" stop-color="#1a1a1a"/><stop offset=".91" stop-color="#070707"/><stop offset="1"/></radialGradient><radialGradient id="radial-gradient-3" cx="339.71" cy="319.93" r="8.44" xlink:href="#radial-gradient"/><radialGradient id="radial-gradient-4" cx="340.34" cy="317.62" r="6.14" xlink:href="#radial-gradient-2"/><radialGradient id="radial-gradient-5" cx="326.83" cy="380.45" r="5.7" gradientUnits="userSpaceOnUse"><stop offset="0" stop-color="#ffdeac"/><stop offset=".02" stop-color="#f8d8a7"/><stop offset=".24" stop-color="#ae9775"/><stop offset=".44" stop-color="#70614b"/><stop offset=".62" stop-color="#40372b"/><stop offset=".78" stop-color="#1d1913"/><stop offset=".91" stop-color="#080705"/><stop offset="1"/></radialGradient><radialGradient id="radial-gradient-6" cx="328.35" cy="368.44" r="5.87" xlink:href="#radial-gradient-5"/><radialGradient id="radial-gradient-7" cx="329.44" cy="373.56" r="10.19" xlink:href="#linear-gradient-7"/><radialGradient id="radial-gradient-8" cx="323.37" cy="382.98" r="7.55" xlink:href="#radial-gradient"/><radialGradient id="radial-gradient-9" cx="324.44" cy="385.81" r="2.69" xlink:href="#radial-gradient-2"/><radialGradient id="radial-gradient-10" cx="321.59" cy="383.81" r="2.26" xlink:href="#radial-gradient-2"/><radialGradient id="radial-gradient-11" cx="323.93" cy="382.79" r="5.91" xlink:href="#radial-gradient"/><radialGradient id="radial-gradient-12" cx="351.29" cy="376.61" r="13.9" xlink:href="#linear-gradient-7"/><radialGradient id="radial-gradient-13" cx="351.94" cy="370.15" r="6.48" xlink:href="#radial-gradient-5"/><radialGradient id="radial-gradient-14" cx="354.75" cy="381.49" r="5.5" xlink:href="#radial-gradient-5"/><radialGradient id="radial-gradient-15" cx="352.66" cy="376.61" r="13.2" xlink:href="#linear-gradient-7"/><radialGradient id="radial-gradient-16" cx="323.44" cy="359.27" r="30.13" xlink:href="#radial-gradient"/><radialGradient id="radial-gradient-17" cx="323.97" cy="351.08" r="12.16" xlink:href="#radial-gradient-2"/><radialGradient id="radial-gradient-18" cx="394.43" cy="359.94" r="8.11" xlink:href="#radial-gradient"/><radialGradient id="radial-gradient-19" cx="393.35" cy="360.05" r="5.76" xlink:href="#radial-gradient-2"/><radialGradient id="radial-gradient-20" cx="381.42" cy="350.91" r="19.93" xlink:href="#linear-gradient-7"/><radialGradient id="radial-gradient-21" cx="382.55" cy="353.86" r="18.19" xlink:href="#linear-gradient-7"/><radialGradient id="radial-gradient-22" cx="349.98" cy="343.71" r="37.47" xlink:href="#linear-gradient-7"/><radialGradient id="radial-gradient-23" cx="361.65" cy="344.32" r="12.41" xlink:href="#radial-gradient-5"/><radialGradient id="radial-gradient-24" cx="341.5" cy="342.48" r="10.29" xlink:href="#radial-gradient-5"/><radialGradient id="radial-gradient-25" cx="368.06" cy="377.72" r="9.64" xlink:href="#radial-gradient-5"/><radialGradient id="radial-gradient-26" cx="343.77" cy="358.41" r="12.19" xlink:href="#linear-gradient-7"/><radialGradient id="radial-gradient-27" cx="374.76" cy="357.78" r="21.6" xlink:href="#linear-gradient-7"/><radialGradient id="radial-gradient-28" cx="367.01" cy="387.43" r="4.11" xlink:href="#radial-gradient"/><radialGradient id="radial-gradient-29" cx="367.5" cy="386.76" r="2.87" xlink:href="#radial-gradient-2"/><radialGradient id="radial-gradient-30" cx="367.01" cy="387.74" r="3.96" xlink:href="#radial-gradient"/><radialGradient id="radial-gradient-31" cx="369.8" cy="388.21" r="4.6" xlink:href="#radial-gradient"/><radialGradient id="radial-gradient-32" cx="370.31" cy="386.73" r="3.29" xlink:href="#radial-gradient-2"/><radialGradient id="radial-gradient-33" cx="370.75" cy="387.57" r="3.68" xlink:href="#radial-gradient"/><radialGradient id="radial-gradient-34" cx="373.64" cy="388.52" r="4.63" xlink:href="#radial-gradient"/><radialGradient id="radial-gradient-35" cx="374.03" cy="387.94" r="3.83" xlink:href="#radial-gradient-2"/><radialGradient id="radial-gradient-36" cx="373.64" cy="388.61" r="4.57" xlink:href="#radial-gradient"/><radialGradient id="radial-gradient-37" cx="349.98" cy="343.71" r="37.47" xlink:href="#linear-gradient-7"/><radialGradient id="radial-gradient-38" cx="335.54" cy="367.01" r="7.08" xlink:href="#radial-gradient-5"/><radialGradient id="radial-gradient-39" cx="335.47" cy="380.98" r="5.71" xlink:href="#radial-gradient-5"/><radialGradient id="radial-gradient-40" cx="349.34" cy="343.71" r="37.43" xlink:href="#linear-gradient-7"/><radialGradient id="radial-gradient-41" cx="319.05" cy="325.99" r="30.75" xlink:href="#linear-gradient-7"/><radialGradient id="radial-gradient-42" cx="319.61" cy="318.81" r="10" xlink:href="#radial-gradient-5"/><radialGradient id="radial-gradient-43" cx="326.24" cy="329.14" r="13.52" xlink:href="#linear-gradient-7"/><radialGradient id="radial-gradient-44" cx="313.12" cy="278.04" r="3.03" gradientTransform="matrix(1.08 .19 -.18 1.02 28.42 -17.03)" xlink:href="#linear-gradient-7"/><radialGradient id="radial-gradient-45" cx="2.71" cy="715.67" r=".09" gradientTransform="matrix(24.16 3.82 -4.8 30.66 3686.33 -21619.61)" gradientUnits="userSpaceOnUse"><stop offset="0" stop-color="#fff"/><stop offset=".57" stop-color="#fff"/><stop offset=".66" stop-color="#fff"/><stop offset=".71" stop-color="#f6f6f7"/><stop offset=".79" stop-color="#dddfe3"/><stop offset=".89" stop-color="#b6bac2"/><stop offset=".92" stop-color="#abb0b9"/><stop offset=".95" stop-color="#aeb3bb"/><stop offset=".96" stop-color="#b7bbc3"/><stop offset=".98" stop-color="#c6cad0"/><stop offset=".99" stop-color="#dcdee2"/><stop offset="1" stop-color="#eaecee"/></radialGradient><radialGradient id="radial-gradient-46" cx="-6.36" cy="-14.16" r=".03" gradientTransform="matrix(17.21 1.9 1.93 -17.97 450.96 86.7)" gradientUnits="userSpaceOnUse"><stop offset="0" stop-color="#fff"/><stop offset=".37" stop-color="#fdfdfd"/><stop offset=".51" stop-color="#f6f6f6"/><stop offset=".6" stop-color="#ebebeb"/><stop offset=".68" stop-color="#dadada"/><stop offset=".75" stop-color="#c4c4c4"/><stop offset=".8" stop-color="#a8a8a8"/><stop offset=".86" stop-color="#888"/><stop offset=".91" stop-color="#626262"/><stop offset=".95" stop-color="#373737"/><stop offset=".99" stop-color="#090909"/><stop offset="1"/></radialGradient><radialGradient id="radial-gradient-47" cx="-6.31" cy="-14.26" r=".01" xlink:href="#radial-gradient-46"/><radialGradient id="radial-gradient-48" cx="318.79" cy="342.72" r="5.06" xlink:href="#radial-gradient"/><radialGradient id="radial-gradient-49" cx="320.81" cy="338.1" r="3.77" gradientUnits="userSpaceOnUse"><stop offset=".48" stop-color="#200"/><stop offset=".56" stop-color="#310000"/><stop offset=".86" stop-color="#680000"/><stop offset="1" stop-color="#7d0000"/></radialGradient><radialGradient id="radial-gradient-50" cx="318.8" cy="340.05" r="2.96" gradientUnits="userSpaceOnUse"><stop offset="0" stop-color="#f5b8b8"/><stop offset="1" stop-color="#f99"/></radialGradient><radialGradient id="radial-gradient-51" cx="2.59" cy="5261.56" r=".11" gradientTransform="matrix(-1.93 14.26 9.32 1.26 -48724.09 -6350.07)" gradientUnits="userSpaceOnUse"><stop offset="0" stop-color="#f5b8b8"/><stop offset=".02" stop-color="#e6adad"/><stop offset=".13" stop-color="#aa8080"/><stop offset=".24" stop-color="#765959"/><stop offset=".34" stop-color="#4c3939"/><stop offset=".44" stop-color="#2b2020"/><stop offset=".53" stop-color="#130e0e"/><stop offset=".62" stop-color="#050404"/><stop offset=".69"/><stop offset="1"/></radialGradient><radialGradient id="radial-gradient-52" cx="4.72" cy="5257.69" r=".11" gradientTransform="matrix(.07 15.96 9.91 -.04 -51765.72 503.27)" xlink:href="#radial-gradient-51"/><radialGradient id="radial-gradient-54" cx="314.36" cy="333.94" r="5.15" xlink:href="#radial-gradient-5"/><radialGradient id="radial-gradient-55" cx="320.74" cy="330.32" r="12.32" xlink:href="#linear-gradient-7"/><radialGradient id="radial-gradient-56" cx="314.75" cy="326.33" r="3.03" xlink:href="#linear-gradient-7"/><radialGradient id="radial-gradient-57" cx="314.96" cy="337.68" r="6.29" xlink:href="#radial-gradient"/><radialGradient id="radial-gradient-58" cx="317.35" cy="336.62" r="3.25" xlink:href="#radial-gradient-2"/><radialGradient id="radial-gradient-59" cx="313.07" cy="337.3" r="1.83" xlink:href="#radial-gradient-2"/><radialGradient id="radial-gradient-60" cx="314.19" cy="334.3" r="3.07" gradientUnits="userSpaceOnUse"><stop offset="0" stop-color="#981411"/><stop offset=".52" stop-color="#700a08"/><stop offset="1" stop-color="#4e0100"/></radialGradient><radialGradient id="radial-gradient-61" cx="314.37" cy="335.01" r="1.75" gradientUnits="userSpaceOnUse"><stop offset="0" stop-color="#a1473b"/><stop offset=".03" stop-color="#9a4439"/><stop offset=".27" stop-color="#642c25"/><stop offset=".5" stop-color="#391915"/><stop offset=".71" stop-color="#1a0b09"/><stop offset=".88" stop-color="#070302"/><stop offset="1"/></radialGradient><radialGradient id="radial-gradient-62" cx="348.94" cy="385.47" r="7.32" xlink:href="#radial-gradient"/><radialGradient id="radial-gradient-63" cx="349.76" cy="386.92" r="3.23" xlink:href="#radial-gradient-2"/><radialGradient id="radial-gradient-64" cx="349.21" cy="388.04" r="6.15" xlink:href="#radial-gradient"/><radialGradient id="radial-gradient-65" cx="333.16" cy="385.77" r="6.08" xlink:href="#radial-gradient"/><radialGradient id="radial-gradient-66" cx="330.57" cy="386.95" r="2.63" xlink:href="#radial-gradient-2"/><radialGradient id="radial-gradient-67" cx="333.61" cy="387.71" r="3.2" xlink:href="#radial-gradient-2"/><radialGradient id="radial-gradient-68" cx="333.7" cy="386.25" r="5.49" xlink:href="#radial-gradient"/><radialGradient id="radial-gradient-69" cx="333.7" cy="386.25" r="5.49" xlink:href="#radial-gradient"/><radialGradient id="radial-gradient-70" cx="333.7" cy="386.25" r="5.49" xlink:href="#radial-gradient"/><radialGradient id="radial-gradient-71" cx="306.44" cy="324.98" r="3.58" gradientTransform="matrix(1.09 .04 -.04 1.03 4.63 -18.54)" xlink:href="#linear-gradient-7"/><radialGradient id="radial-gradient-72" cx="2.34" cy="717.05" r=".12" gradientTransform="matrix(24.46 .52 -.62 31.02 710.76 -21915.99)" xlink:href="#radial-gradient-45"/><radialGradient id="radial-gradient-73" cx="-6.04" cy="-14.81" r=".04" gradientTransform="matrix(17.27 1.23 1.23 -18.03 448.14 70.18)" xlink:href="#radial-gradient-46"/><radialGradient id="radial-gradient-74" cx="-5.98" cy="-14.93" r=".02" gradientTransform="matrix(17.27 1.23 1.23 -18.03 448.14 70.18)" xlink:href="#radial-gradient-46"/><style>.cls-88{mix-blend-mode:screen}.cls-82{mix-blend-mode:multiply}.cls-7{fill:#935d38}.cls-82{opacity:.33}.cls-22{fill:#773000}.cls-78{fill:url(#radial-gradient-41)}.cls-86{fill:#001454}.cls-98{fill:#d63a3a}</style></defs><g style="isolation:isolate"><g id="Layer_1" data-name="Layer 1"><path d="M318 319.7a3.78 3.78 0 0 1-4.54-1.2c-1.68-1.93-4.28-2.67-6.22.79a6.88 6.88 0 0 0 .78 8.19c1.81 1.86 4.21 2.46 5.1 2.2 1.5-1.75 4.88-9.98 4.88-9.98Z" transform="translate(-306.14 -316.26)" style="fill:url(#radial-gradient)"/><path d="M313.47 318.5c-1.68-1.93-4.28-2.67-6.22.79-.07.13-.14.26-.2.39-.73 3.11-.18 5.28 2.12 6.75a13.63 13.63 0 0 0 5 1.58c1.63-3 3.82-8.31 3.82-8.31a3.78 3.78 0 0 1-4.52-1.2Z" transform="translate(-306.14 -316.26)" style="fill:url(#radial-gradient-2);mix-blend-mode:screen"/><path d="m307.39 319.06-.14.23a6.88 6.88 0 0 0 .78 8.19c1.81 1.86 4.21 2.46 5.1 2.2a14.41 14.41 0 0 0 1.43-2.37c-2.46 1.45-10.44-.88-7.17-8.25Z" transform="translate(-306.14 -316.26)" style="fill:url(#linear-gradient);mix-blend-mode:multiply;opacity:.3"/><path d="M315.12 322.46c-2-1.51-3.55-2.12-4.5-1.45s-1.51 3.15-.72 5a3.13 3.13 0 0 0 3.23 2.15 57.26 57.26 0 0 0 1.99-5.7Z" transform="translate(-306.14 -316.26)" style="fill:url(#linear-gradient-2)"/><path d="M310.62 321a1.8 1.8 0 0 0-.45.49 1.73 1.73 0 0 1 3 .76c.31 1.56.26 4-1.24 4.69-1.13.55-2.18-1.11-2.36-2.61a4.72 4.72 0 0 0 .37 1.66 3.13 3.13 0 0 0 3.23 2.15 57.26 57.26 0 0 0 2-5.69c-2.01-1.45-3.6-2.11-4.55-1.45Z" transform="translate(-306.14 -316.26)" style="fill:url(#linear-gradient-3);opacity:.36;mix-blend-mode:multiply"/><path class="cls-7" d="M312.85 328.28a3.28 3.28 0 0 1-3.06-2.23c-.79-1.87-.23-4.43.77-5.14s2.52-.17 4.62 1.46h.06v.08a53 53 0 0 1-2 5.71v.06h-.06Zm-1.32-7.43a1.39 1.39 0 0 0-.84.25c-.93.65-1.43 3.12-.69 4.86a3 3 0 0 0 2.85 2.09h.21a58.63 58.63 0 0 0 1.94-5.55 6.46 6.46 0 0 0-3.47-1.65Z" transform="translate(-306.14 -316.26)"/><path class="cls-7" d="M308.34 322.75s1.17-2.63 3.63-2.09l-.05.22c-2.29-.5-3.57 1.84-3.58 1.87Z" transform="translate(-306.14 -316.26)"/><path class="cls-7" d="M312.65 329.85a7.32 7.32 0 0 1-4.7-2.29 7 7 0 0 1-.79-8.32c1.14-2 2.43-2.47 3.31-2.47a4.23 4.23 0 0 1 3.08 1.66 3.57 3.57 0 0 0 2.77 1.45 5.91 5.91 0 0 0 1.66-.29l.22-.06-.09.21c-.14.34-3.41 8.27-4.89 10a1.53 1.53 0 0 1-.57.11ZM310.47 317c-1.18 0-2.26.82-3.12 2.36a6.74 6.74 0 0 0 .76 8 7 7 0 0 0 4.54 2.22 1.76 1.76 0 0 0 .42 0c1.34-1.61 4.21-8.42 4.75-9.71a5.8 5.8 0 0 1-1.5.24 3.8 3.8 0 0 1-2.94-1.53 4 4 0 0 0-2.91-1.58Z" transform="translate(-306.14 -316.26)"/><path d="M331.78 319.94c1.12.34 2.79-.08 4.47-1.48s4.21-3.29 7.15-1.09a8.06 8.06 0 0 1 2.08 9.63c-1.29 2.56-6.14 4.76-8.71 4.69-2.35-1.98-4.99-11.75-4.99-11.75Z" transform="translate(-306.14 -316.26)" style="fill:url(#radial-gradient-3)"/><path d="M343.62 326.05c1.9-1.64 2.39-3.94 1.58-6.6a6.89 6.89 0 0 0-1.8-2.08c-2.94-2.2-5.48-.3-7.15 1.09s-3.35 1.82-4.47 1.48a70.52 70.52 0 0 0 2.75 8.05c3.15.07 6.47.25 9.09-1.94Z" transform="translate(-306.14 -316.26)" style="fill:url(#radial-gradient-4);mix-blend-mode:screen"/><path d="M345.16 319.39c2.81 7.37-5.71 9.69-10.16 9.62a8.64 8.64 0 0 0 1.77 2.68c2.57.07 7.42-2.13 8.71-4.69a8.31 8.31 0 0 0-.32-7.61Z" transform="translate(-306.14 -316.26)" style="fill:url(#linear-gradient-4);mix-blend-mode:multiply;opacity:.3"/><path d="M334.71 324.74c.87-1.61 3.77-4.63 6.4-4a3.87 3.87 0 0 1 2.4 5.39 8.21 8.21 0 0 1-6.95 3.88 28 28 0 0 1-1.85-5.27Z" transform="translate(-306.14 -316.26)" style="fill:url(#linear-gradient-5)"/><path d="M338 328.15a4.2 4.2 0 0 1-1.46-3.68c.64-2.66 3.45-4.77 6.22-2.73a3.57 3.57 0 0 0-1.69-1c-2.63-.67-5.53 2.35-6.4 4a28 28 0 0 0 1.85 5.31 8.21 8.21 0 0 0 6.95-3.88 3.65 3.65 0 0 0 .31-1.05c-.43 2.07-3.59 4.11-5.78 3.03Z" transform="translate(-306.14 -316.26)" style="fill:url(#linear-gradient-6);opacity:.36;mix-blend-mode:multiply"/><path class="cls-7" d="M337 330.18h-.46v-.05a27.9 27.9 0 0 1-1.86-5.34c.77-1.43 3.24-4.12 5.72-4.12a3.44 3.44 0 0 1 .8.1 3.7 3.7 0 0 1 2.46 2 4.28 4.28 0 0 1 0 3.52 8.37 8.37 0 0 1-6.66 3.89Zm-.33-.24h.33a8.26 8.26 0 0 0 6.46-3.83 4 4 0 0 0 0-3.32 3.39 3.39 0 0 0-2.31-1.91 3.08 3.08 0 0 0-.75-.09c-2.37 0-4.73 2.56-5.5 4a27.92 27.92 0 0 0 1.72 5.15Z" transform="translate(-306.14 -316.26)"/><path class="cls-7" d="M344.61 321.71a6.71 6.71 0 0 0-4.86-.86v-.22a6.15 6.15 0 0 1 4.86 1.08Z" transform="translate(-306.14 -316.26)"/><path class="cls-7" d="M336.9 331.8h-.17c-2.35-2-4.92-11.4-5-11.8l-.05-.19.19.06a2.71 2.71 0 0 0 .77.1 5.9 5.9 0 0 0 3.6-1.56 7.29 7.29 0 0 1 4.46-2.12 4.63 4.63 0 0 1 2.82 1 7.43 7.43 0 0 1 2.74 4.59 8.28 8.28 0 0 1-.62 5.17 8.83 8.83 0 0 1-3.84 3.34 11.71 11.71 0 0 1-4.9 1.41Zm-.09-.22h.09c2.69 0 7.28-2.25 8.48-4.63 1.4-2.79.9-7.26-2.05-9.49a4.48 4.48 0 0 0-2.69-1 7.08 7.08 0 0 0-4.32 2.07 6.13 6.13 0 0 1-3.74 1.61 3.24 3.24 0 0 1-.64-.06c.38 1.37 2.76 9.66 4.87 11.5Z" transform="translate(-306.14 -316.26)"/><path d="M327.33 362.56a12.07 12.07 0 0 0 1.29 6.2 4.68 4.68 0 0 1 .63-1.79 56.72 56.72 0 0 1-.93 10c-.6 2.64-2.08 5.77-2.83 6.47.63 1.79 3.28 3.61 5.14 3s2.68-3.17 3.79-6.55 3.39-7.52 3.43-9.53-.45-3.76-2.05-4.25-8.47-3.55-8.47-3.55Z" transform="translate(-306.14 -316.26)" style="fill:url(#linear-gradient-7)"/><path d="M328.32 377c-.6 2.64-2.08 5.77-2.83 6.47a5.43 5.43 0 0 0 3.12 2.9c2.32-2 4-6.32 5.05-9.92a17.3 17.3 0 0 0-4.9-2.19c-.13 1.04-.28 2.01-.44 2.74Z" transform="translate(-306.14 -316.26)" style="fill:url(#radial-gradient-5);opacity:.4;mix-blend-mode:screen"/><path d="M334.52 365.68c-2.54-1-7.19-3.12-7.19-3.12a12.07 12.07 0 0 0 1.29 6.2 4.68 4.68 0 0 1 .63-1.79 49.46 49.46 0 0 1-.42 6.73 19 19 0 0 1 5 2.25c.44-1.52.76-2.87 1-3.82.69-3.41-.24-4.51-.31-6.45Z" transform="translate(-306.14 -316.26)" style="fill:url(#radial-gradient-6);opacity:.76;mix-blend-mode:screen"/><path d="M333.27 369.55c0 1.1-.63 2-1.41 2s-1.42-.88-1.42-2 .64-2 1.42-2 1.41.91 1.41 2Z" transform="translate(-306.14 -316.26)" style="fill:url(#linear-gradient-8)"/><path d="M336.17 372c-.15.92-.8 1.57-1.46 1.46s-1-.94-.9-1.85.81-1.57 1.46-1.46 1.05.97.9 1.85Z" transform="translate(-306.14 -316.26)" style="fill:url(#linear-gradient-9)"/><path d="M333.08 374.45c-.11.68-.59 1.16-1.08 1.08s-.78-.69-.66-1.37.59-1.16 1.08-1.08.78.7.66 1.37Z" transform="translate(-306.14 -316.26)" style="fill:url(#linear-gradient-10)"/><path d="M330.69 377.51c-.12.68-.6 1.16-1.08 1.08s-.78-.7-.67-1.37.6-1.16 1.08-1.08.78.69.67 1.37Z" transform="translate(-306.14 -316.26)" style="fill:url(#linear-gradient-11)"/><path d="M332.66 380.48c-.12.68-.6 1.16-1.08 1.08s-.79-.69-.67-1.37.59-1.16 1.08-1.08.78.7.67 1.37Z" transform="translate(-306.14 -316.26)" style="fill:url(#linear-gradient-12)"/><path d="M335.8 366.15c-.19 0-.46-.15-.78-.27 1.56 5.13-.74 9.71-2.16 13.71-.71 2-1.8 5.73-4.41 6.7a3.27 3.27 0 0 0 2.18.19c1.86-.6 2.68-3.17 3.79-6.55s3.39-7.52 3.43-9.53-.45-3.76-2.05-4.25Z" transform="translate(-306.14 -316.26)" style="fill:url(#radial-gradient-7);opacity:.33;mix-blend-mode:multiply"/><path class="cls-22" d="M329.86 386.7a5.32 5.32 0 0 1-4.47-3.2v-.07l.05-.05a17.62 17.62 0 0 0 2.8-6.42 59.49 59.49 0 0 0 1-9.59 4 4 0 0 0-.43 1.4v.37l-.18-.33a12.36 12.36 0 0 1-1.3-6.25v-.17l.15.07c.07 0 6.88 3.11 8.45 3.59S338 368 338 370.4c0 1.26-.89 3.31-1.82 5.48-.58 1.37-1.18 2.78-1.61 4.08v.17c-1.12 3.4-1.93 5.85-3.82 6.45a2.63 2.63 0 0 1-.89.12Zm-4.24-3.21a5.19 5.19 0 0 0 4.24 3 2.43 2.43 0 0 0 .73-.11c1.78-.57 2.57-3 3.67-6.31l.06-.17c.43-1.31 1-2.73 1.62-4.1.91-2.15 1.77-4.18 1.8-5.39 0-2.34-.62-3.73-2-4.14s-7.3-3.06-8.33-3.53a12.15 12.15 0 0 0 1.12 5.67 5.36 5.36 0 0 1 .6-1.49l.17-.27v.32a55.78 55.78 0 0 1-.93 10.05 18.29 18.29 0 0 1-2.75 6.47Z" transform="translate(-306.14 -316.26)"/><path d="M330.2 387.22c-.58 1.44-3.61 3.42-6.88 1.46-1.25.65-3.24.21-2.87-2.09s1.69-4.34 4.33-3.85 3.17 3.07 6.28 3a10.9 10.9 0 0 0-.86 1.48Z" transform="translate(-306.14 -316.26)" style="fill:url(#radial-gradient-8)"/><path d="M326.5 383.46c-1.68.71-3.81 2.12-3.74 3.51.1 1.77 3.73 2.23 5.09.8a4.85 4.85 0 0 0 1.18-2.46c-1.1-.5-1.52-1.23-2.53-1.85Z" transform="translate(-306.14 -316.26)" style="fill:url(#radial-gradient-9);mix-blend-mode:screen"/><path d="M322.38 387.85c-.82-2.12 2.14-3.71 4.1-4.49a6.57 6.57 0 0 0-1.7-.62c-2.64-.49-4 1.56-4.33 3.85a2.15 2.15 0 0 0 0 .43c.46 1.38 1.85 1.26 1.93.83Z" transform="translate(-306.14 -316.26)" style="fill:url(#radial-gradient-10);mix-blend-mode:screen"/><path d="M329.16 385.38a4.22 4.22 0 0 1-1.37 2.63 4.31 4.31 0 0 1-4.06.34c-1.57-.78-1.07-2.34.41-3.53-1.71.83-1.95 2.05-1.71 3-.36.85-2.58.36-1.84-2-.06.23-.1.46-.14.7-.37 2.3 1.62 2.74 2.87 2.09 3.27 2 6.3 0 6.88-1.46a10.9 10.9 0 0 1 .86-1.49 4.33 4.33 0 0 1-1.9-.28Z" transform="translate(-306.14 -316.26)" style="fill:url(#radial-gradient-11);mix-blend-mode:multiply;opacity:.3"/><path class="cls-7" d="M326.13 389.61a5.53 5.53 0 0 1-2.81-.8 2.69 2.69 0 0 1-1.12.25 1.88 1.88 0 0 1-1.47-.62 2.22 2.22 0 0 1-.39-1.86c.4-2.52 1.78-4 3.69-4a4.11 4.11 0 0 1 .77.08 5.7 5.7 0 0 1 2.74 1.5 4.8 4.8 0 0 0 3.52 1.49h.23l-.14.18a11.06 11.06 0 0 0-.85 1.47 4.66 4.66 0 0 1-4.17 2.31Zm-2.8-1.05h.05a5.35 5.35 0 0 0 2.75.8 4.42 4.42 0 0 0 4-2.21 11.89 11.89 0 0 1 .74-1.33 5.09 5.09 0 0 1-3.44-1.55 5.56 5.56 0 0 0-2.64-1.45 3.75 3.75 0 0 0-.73-.07c-1.79 0-3.09 1.43-3.47 3.83a2 2 0 0 0 .34 1.69 1.67 1.67 0 0 0 1.3.54 2.32 2.32 0 0 0 1.07-.26Z" transform="translate(-306.14 -316.26)"/><path class="cls-7" d="M323.24 388.76a2.09 2.09 0 0 1-.65-1.61 3.6 3.6 0 0 1 1.55-2.33 4 4 0 0 0-1.33 2.35 2 2 0 0 0 .59 1.44Z" transform="translate(-306.14 -316.26)"/><path d="M351.88 366.62c-.19 2.23.2 5 1.56 5.81a2.54 2.54 0 0 1 0-1.57 4.56 4.56 0 0 0 1.3 3 3.39 3.39 0 0 1-.17-1.48 8.68 8.68 0 0 0 2.35 2.57c.87.62.44 1.39.13 2.55a35.1 35.1 0 0 1-2.12 5.45 4.9 4.9 0 0 1-3.46 2.48c-.81 1.15 2.34 5.33 3.77 4 1.65-1.57 2.77-1.86 4-3.42a45 45 0 0 0 4.19-6.57c1.08-2.12 1.67-4.25 1.19-5.8-.37-1.23-2.46-2.16-2.27-4.43s1.49-5.14.67-7.45-10.1 2.24-11.18 3.24-1.35 1.6.04 1.62Z" transform="translate(-306.14 -316.26)" style="fill:url(#radial-gradient-12)"/><path d="M351.88 366.62c-.19 2.23.2 5 1.56 5.81a2.54 2.54 0 0 1 0-1.57 4.56 4.56 0 0 0 1.3 3 3.39 3.39 0 0 1-.17-1.48 8.68 8.68 0 0 0 2.35 2.57 1.21 1.21 0 0 1 .24.21 7.21 7.21 0 0 0 3.22-2.26c-1.68-3.35-.45-6.92-.67-10.5a5.47 5.47 0 0 0-.08-1 29.77 29.77 0 0 0-7.78 3.51c-1.09 1.02-1.36 1.69.03 1.71Z" transform="translate(-306.14 -316.26)" style="fill:url(#radial-gradient-13);opacity:.76;mix-blend-mode:screen"/><path d="M357.16 385.91c2.79-3.24 6.89-8.18 4.1-12.65-.72 1.54-2.4 1.76-3.9 2.26.2.53-.09 1.17-.32 2a35.1 35.1 0 0 1-2.12 5.45 4.9 4.9 0 0 1-3.46 2.48c-.35.5 0 1.55.7 2.48 1.69-.36 4-.76 5-2.02Z" transform="translate(-306.14 -316.26)" style="fill:url(#radial-gradient-14);opacity:.5;mix-blend-mode:screen"/><path d="M364.61 373.64c-.37-1.23-2.46-2.16-2.27-4.43s1.49-5.14.67-7.45c-.28-.79-1.56-.78-3.16-.37.83 3.05-.09 6.33.41 9.53.22 1.45 1.89 1.9 2.23 3.12 1 3.58-1.81 7.6-3.93 10.61a6.23 6.23 0 0 1-5 3.13 7.57 7.57 0 0 1-1.22.4c.88 1.12 2.13 2 2.89 1.25 1.65-1.57 2.77-1.86 4-3.42a45 45 0 0 0 4.19-6.57c1.08-2.12 1.67-4.25 1.19-5.8Z" transform="translate(-306.14 -316.26)" style="fill:url(#radial-gradient-15);opacity:.33;mix-blend-mode:multiply"/><path class="cls-22" d="M354.56 389.81c-1 0-2.3-1.29-2.94-2.54-.42-.81-.51-1.5-.25-1.87a4.76 4.76 0 0 0 3.39-2.43 34.16 34.16 0 0 0 2.1-5.42q.07-.27.15-.51c.26-.87.44-1.44-.24-1.92a8.32 8.32 0 0 1-2.19-2.33 3.51 3.51 0 0 0 .19 1.12l.09.33-.27-.21a3.89 3.89 0 0 1-1.23-2.42 3.13 3.13 0 0 0 .12.84l.07.27-.24-.15c-1.37-.84-1.8-3.5-1.62-5.79-.52 0-.82-.15-.91-.39s.17-.79.92-1.46c.94-.84 7.08-3.88 9.89-3.88.79 0 1.29.25 1.46.72.56 1.58.15 3.38-.24 5.11a17.83 17.83 0 0 0-.43 2.39 4 4 0 0 0 1.35 3 4.08 4.08 0 0 1 .92 1.34c.56 1.83-.35 4.21-1.2 5.89a45.06 45.06 0 0 1-4.2 6.59 9.2 9.2 0 0 1-2.14 1.92 15.88 15.88 0 0 0-1.87 1.51 1.05 1.05 0 0 1-.68.29Zm-3-4.25a1.89 1.89 0 0 0 .29 1.61c.6 1.16 1.82 2.41 2.74 2.41a.84.84 0 0 0 .59-.23 17.66 17.66 0 0 1 1.9-1.53 9.27 9.27 0 0 0 2.1-1.88 45.33 45.33 0 0 0 4.17-6.55c.84-1.64 1.72-4 1.18-5.72a3.63 3.63 0 0 0-.87-1.26 4.14 4.14 0 0 1-1.4-3.21 17.94 17.94 0 0 1 .43-2.42c.39-1.7.78-3.46.25-5-.14-.38-.56-.57-1.25-.57-2.76 0-8.81 3-9.74 3.82s-.91 1.09-.86 1.21.35.24.82.25h.09v.12c-.18 2 .15 4.56 1.27 5.53a2.54 2.54 0 0 1 .06-1.34l.16-.37.06.4a5.1 5.1 0 0 0 1 2.7 3 3 0 0 1-.07-1.16v-.3l.17.26a8.36 8.36 0 0 0 2.31 2.53c.81.58.59 1.28.32 2.17l-.15.5A34.08 34.08 0 0 1 355 383a5.05 5.05 0 0 1-3.47 2.56Z" transform="translate(-306.14 -316.26)"/><path d="M325.53 341.8a7.79 7.79 0 0 1-.17 6c-.78 1.32-2.87 2.57-4 3.21.48.34 1.84 0 1.84 0a5.65 5.65 0 0 0-2.4 4.58 5 5 0 0 1 1.57-1.59 5.58 5.58 0 0 0-.56 4 4.54 4.54 0 0 1 1.23-1.79c-.28 2.35 1.21 6.69 3.25 8.1a3.23 3.23 0 0 1 0-2.46c.84 1.57 6 6.76 13.38 7 4.92.33 6.2-.56 6.2-.56a7.59 7.59 0 0 0 5.28-.07 9.66 9.66 0 0 1-2.54-.67c1.56-.08 3.44-.23 4.63-1.25a4.23 4.23 0 0 1-1.8-.39c2.92-.78 6.9-5.06 11.81-4 1.38-.45 2.65-3.76-4.2-4.56s-13.92 4.86-18.69 2.7-5.95-5.63-6.25-10.34 1.34-9.34-.89-10.19-7.69 2.28-7.69 2.28Z" transform="translate(-306.14 -316.26)" style="fill:url(#radial-gradient-16)"/><path d="M324.12 354.4a11.72 11.72 0 0 0 1.24 7.41 4.85 4.85 0 0 1 .94-2.09c1.52 3.64 5.11 5.15 7.83 6-.9-2.56.48-5.26 1.49-7.72.2-.49-.11-1.1.25-1.57a13.75 13.75 0 0 1-1.78-6.68c-.3-4.7 1.34-9.34-.89-10.19s-7.67 2.2-7.67 2.2a7.79 7.79 0 0 1-.17 6c-.78 1.32-2.87 2.57-4 3.21.48.34 1.84 0 1.84 0a5.65 5.65 0 0 0-2.4 4.58 5 5 0 0 1 1.57-1.59 5.79 5.79 0 0 0-.64 3.55 4.88 4.88 0 0 1 2.39-3.11Z" transform="translate(-306.14 -316.26)" style="fill:url(#radial-gradient-17);mix-blend-mode:screen"/><path d="M359 357.43c-6.85-.8-13.92 4.86-18.69 2.7a11.12 11.12 0 0 1-3.39-2.29c-2.38 1.72-3.39 5.34-2.6 8.28-3.46-1.23-6.63-2.41-8.08-6.09a3.54 3.54 0 0 0-.74 2.4 10.48 10.48 0 0 1-1.56-7.7 4.84 4.84 0 0 0-2.21 3.17v.12a4.54 4.54 0 0 1 1.23-1.79c-.28 2.35 1.21 6.69 3.25 8.1a3.23 3.23 0 0 1 0-2.46c.84 1.57 6 6.76 13.38 7 4.92.33 6.2-.56 6.2-.56a7.59 7.59 0 0 0 5.28-.07 9.66 9.66 0 0 1-2.54-.67c1.56-.08 3.44-.23 4.63-1.25a4.23 4.23 0 0 1-1.8-.39c2.92-.78 6.9-5.06 11.81-4 1.44-.39 2.71-3.7-4.17-4.5Z" transform="translate(-306.14 -316.26)" style="fill:url(#linear-gradient-13);mix-blend-mode:multiply;opacity:.3"/><path class="cls-7" d="M327.74 358.39a2.85 2.85 0 0 0-.71 1.14l-.1.25-.11-.25a7.3 7.3 0 0 1 0-3.39 9.64 9.64 0 0 0 .09 3c.24-.5.57-1 .9-1.09h.15v.15c-.2 3.74 2.19 4.65 2.22 4.66s-2.56-.73-2.44-4.47Z" transform="translate(-306.14 -316.26)"/><path class="cls-7" d="M341.72 369.1c-.64 0-1.34 0-2.07-.08a18.08 18.08 0 0 1-9.22-3 14.9 14.9 0 0 1-4.15-3.87 3.42 3.42 0 0 0 .1 2.19l.12.33-.29-.2c-2-1.39-3.47-5.45-3.33-7.9a4.39 4.39 0 0 0-1 1.54l-.11.33-.1-.34a5.46 5.46 0 0 1 .4-3.72 4.25 4.25 0 0 0-1.2 1.31l-.19.4v-.44a5.77 5.77 0 0 1 2.06-4.39 3.88 3.88 0 0 1-.7.06 1.35 1.35 0 0 1-.75-.16l-.15-.11.16-.08a11.08 11.08 0 0 0 4-3.17 7.76 7.76 0 0 0 .16-5.9l-.05-.09.09-.06c.18-.09 4.25-2.36 6.78-2.36a2.93 2.93 0 0 1 1 .16c1.52.58 1.34 2.75 1.11 5.51a33.72 33.72 0 0 0-.15 4.78c.29 4.59 1.46 8.09 6.19 10.24a5.75 5.75 0 0 0 2.44.48 22.56 22.56 0 0 0 6.53-1.49 27.46 27.46 0 0 1 8.29-1.78 10.59 10.59 0 0 1 1.39.08c4.49.52 5.3 2.06 5.38 2.92a1.81 1.81 0 0 1-1.15 1.85h-.06a7.64 7.64 0 0 0-1.58-.17c-2.61 0-4.92 1.36-6.95 2.56a17 17 0 0 1-2.93 1.5 3.84 3.84 0 0 0 1.28.28h.54l-.28.23a7.14 7.14 0 0 1-4.26 1.25 9.75 9.75 0 0 0 1.43.34l.69.14.41.09-.4.13a9.4 9.4 0 0 1-2.86.51 7.48 7.48 0 0 1-2.44-.43c-.27.03-1.33.53-4.18.53Zm-15.43-7.44.08.16c.78 1.46 5.88 6.7 13.29 7 .73.05 1.42.07 2.06.07 3.13 0 4.06-.61 4.07-.61h.06a7.08 7.08 0 0 0 2.41.44 8.48 8.48 0 0 0 2.38-.38l-.26-.05a6 6 0 0 1-1.9-.55l-.27-.19h.33a8.4 8.4 0 0 0 4.31-1 5.17 5.17 0 0 1-1.52-.41l-.28-.13.3-.08a14.24 14.24 0 0 0 3.17-1.57c2.06-1.21 4.4-2.59 7.07-2.59a7.76 7.76 0 0 1 1.6.17 1.58 1.58 0 0 0 1-1.6c-.06-.65-.69-2.21-5.18-2.73a12.16 12.16 0 0 0-1.37-.08 26.86 26.86 0 0 0-8.22 1.78 22.88 22.88 0 0 1-6.6 1.5 6 6 0 0 1-2.53-.51c-4.84-2.2-6-5.76-6.32-10.43a32.71 32.71 0 0 1 .15-4.81c.22-2.66.39-4.76-1-5.28a2.45 2.45 0 0 0-.91-.14c-2.27 0-5.95 1.94-6.58 2.28a7.92 7.92 0 0 1-.21 6 10.68 10.68 0 0 1-3.87 3.14 1.72 1.72 0 0 0 .44.05 6 6 0 0 0 1.13-.14l.61-.15-.52.35a5.56 5.56 0 0 0-2.35 4.08 5.29 5.29 0 0 1 1.39-1.28l.32-.21-.16.35a5.83 5.83 0 0 0-.64 3.61 4.78 4.78 0 0 1 1.13-1.51l.22-.18v.28c-.27 2.22 1.09 6.22 2.93 7.78a3.14 3.14 0 0 1 .12-2.22Z" transform="translate(-306.14 -316.26)"/><path d="M395.16 369.47a5.08 5.08 0 0 0-1.54-4.66c-2.06-1.93-2-3.74 0-5.06 1.86-1.22 4.77.79 5.47 2.16.14-.81-.76-2-.76-2a4.14 4.14 0 0 1 2.21 4.66c-.39 2.28-2.4 5.24-5.38 4.9Z" transform="translate(-306.14 -316.26)" style="fill:url(#radial-gradient-18)"/><path d="M398.56 363.21a4.71 4.71 0 0 0-1.49-3.22 3.34 3.34 0 0 0-3.42-.24c-2 1.32-2.09 3.13 0 5.06a5 5 0 0 1 1.36 2.11c1.51-.92 3.55-1.62 3.55-3.71Z" transform="translate(-306.14 -316.26)" style="fill:url(#radial-gradient-19);mix-blend-mode:screen"/><path d="M398.36 359.9s.9 1.2.76 2a5.57 5.57 0 0 0-2.57-2.17 6.85 6.85 0 0 1 2.8 3.32c.14-.62.07-1 .18-1.77 1 1.81.15 4.32-.31 6.25a7.19 7.19 0 0 0 1.35-3 4.14 4.14 0 0 0-2.21-4.63Z" transform="translate(-306.14 -316.26)" style="fill:url(#linear-gradient-14);mix-blend-mode:multiply;opacity:.3"/><path class="cls-7" d="M395.62 369.61a3.87 3.87 0 0 1-.48 0H395v-.11a5 5 0 0 0-1.51-4.56 3.87 3.87 0 0 1-1.54-3 3.05 3.05 0 0 1 1.59-2.23 2.48 2.48 0 0 1 1.38-.39 5.64 5.64 0 0 1 4 2.25 4.26 4.26 0 0 0-.73-1.54l-.22-.3.35.13a4.25 4.25 0 0 1 2.28 4.78c-.3 2.03-2.13 4.97-4.98 4.97Zm-.34-.24h.34c2.73 0 4.47-2.84 4.84-4.85a4.17 4.17 0 0 0-1.79-4.38 3 3 0 0 1 .56 1.77l-.06.33-.17-.24a5.34 5.34 0 0 0-4-2.48 2.24 2.24 0 0 0-1.26.36 2.85 2.85 0 0 0-1.49 2.06 3.64 3.64 0 0 0 1.47 2.83 5.16 5.16 0 0 1 1.56 4.6Z" transform="translate(-306.14 -316.26)"/><path d="M371.56 350.94c1.45-.56 3 .53 4.08 2.12a6.28 6.28 0 0 1 .67 5.36c.5-.17 1.14-1.14 1.14-1.14a5.75 5.75 0 0 1-1.11 3c.5 0 1.12-.7 1.12-.7a6.47 6.47 0 0 0-.43 3.52 4.7 4.7 0 0 1 .87-1.65c-.08 2 .19 7.54 2.27 11.3s6.72 7.6 13.84 5.28c5.11-1.73 7.45-7.59 8.34-11.56-.61.34-1 1.25-1.48 1.47a9 9 0 0 0 .48-4.61 6.09 6.09 0 0 0-1.75 3 5.14 5.14 0 0 0-2.48-2.64 4 4 0 0 1 .38 2.29 4 4 0 0 1-2-1.64 10 10 0 0 0-.32 3.14c.17 1.75.11 4.42-2.51 5.53s-6.59 1.17-8.64-4-1.69-13.32-4.87-18-7.68-5.5-10.69-4.41c.05 1.58 3.09 4.34 3.09 4.34Z" transform="translate(-306.14 -316.26)" style="fill:url(#radial-gradient-20)"/><path d="M374.7 348.1c.64.51.9 1.24.58 1.64s-1.09.3-1.72-.21-.89-1.24-.58-1.63 1.09-.3 1.72.2Z" transform="translate(-306.14 -316.26)" style="fill:url(#linear-gradient-15)"/><path d="M377.45 350.5c.48.38.68.93.44 1.23s-.82.22-1.29-.16-.68-.93-.44-1.22.84-.23 1.29.15Z" transform="translate(-306.14 -316.26)" style="fill:url(#linear-gradient-16)"/><path d="M378.85 353.79c.31.69.22 1.41-.22 1.61s-1-.21-1.34-.91-.22-1.41.21-1.61 1.03.21 1.35.91Z" transform="translate(-306.14 -316.26)" style="fill:url(#linear-gradient-17)"/><path d="M380.73 357.34c.15.65-.05 1.25-.46 1.35s-.85-.36-1-1 .05-1.25.45-1.35.85.35 1.01 1Z" transform="translate(-306.14 -316.26)" style="fill:url(#linear-gradient-18)"/><path d="M381.12 362.16c.13.83-.18 1.57-.7 1.66s-1-.53-1.17-1.37.18-1.58.69-1.66 1.06.53 1.18 1.37Z" transform="translate(-306.14 -316.26)" style="fill:url(#linear-gradient-19)"/><path d="M381.91 366.22c.27.67.15 1.35-.27 1.52s-1-.24-1.24-.92-.15-1.35.26-1.52.98.25 1.25.92Z" transform="translate(-306.14 -316.26)" style="fill:url(#linear-gradient-20)"/><path d="M382.62 370.22c.33.83.19 1.67-.33 1.87s-1.19-.3-1.52-1.13-.18-1.66.33-1.86 1.19.3 1.52 1.12Z" transform="translate(-306.14 -316.26)" style="fill:url(#linear-gradient-21)"/><path d="M385.41 372.69c.43.61.47 1.32.1 1.58s-1 0-1.46-.62-.48-1.32-.1-1.58 1.05.01 1.46.62Z" transform="translate(-306.14 -316.26)" style="fill:url(#linear-gradient-22)"/><path d="M387.79 375.41c.78.29 1.27.92 1.09 1.41s-1 .64-1.75.35-1.27-.92-1.09-1.41.96-.64 1.75-.35Z" transform="translate(-306.14 -316.26)" style="fill:url(#linear-gradient-23)"/><path d="M392.5 374.09c.82-.13 1.56.18 1.64.7s-.53 1-1.36 1.16-1.56-.19-1.64-.7.53-1.03 1.36-1.16Z" transform="translate(-306.14 -316.26)" style="fill:url(#linear-gradient-24)"/><path d="M396.3 372.76c.5-.56 1.18-.76 1.53-.45s.21 1-.29 1.57-1.18.76-1.53.45-.21-1.02.29-1.57Z" transform="translate(-306.14 -316.26)" style="fill:url(#linear-gradient-25)"/><path d="M396.56 368.78c.05-.72.45-1.27.9-1.24s.76.64.71 1.35-.46 1.27-.9 1.24-.76-.64-.71-1.35Z" transform="translate(-306.14 -316.26)" style="fill:url(#linear-gradient-26)"/><path d="M399.26 369.56c0-.58.36-1 .71-1s.61.51.57 1.08-.36 1-.72 1-.61-.51-.56-1.08Z" transform="translate(-306.14 -316.26)" style="fill:url(#linear-gradient-27)"/><path d="M400.87 367.9a9 9 0 0 0 .48-4.61 6.09 6.09 0 0 0-1.75 3c-.08-.17-.16-.34-.25-.5a5 5 0 0 0 .2 2 3.42 3.42 0 0 1 1.13-2c.11 1.45-1.23 2.46-1.56 3.8.33-.23.78-.56 1.11-.78-1.56 3.68-3.91 7.25-8.15 8.37-3.24.89-6.25-.33-8.6-2.34-4.35-3.58-4.8-9.94-4.58-15.3-.55.11-.67.56-1 .89.11-1.11 1-1.9.89-3a1.59 1.59 0 0 1-1 .89 4.78 4.78 0 0 0 .67-3.24c-.34.45-.56.9-1 1.12.68-4.61-3.28-6.58-7.17-6.54.68.75 1.28 1.3 1.28 1.3 1.45-.56 3 .53 4.08 2.12a6.28 6.28 0 0 1 .67 5.36c.5-.17 1.14-1.14 1.14-1.14a5.75 5.75 0 0 1-1.11 3c.5 0 1.12-.7 1.12-.7a6.47 6.47 0 0 0-.43 3.52 4.7 4.7 0 0 1 .87-1.65c-.08 2 .19 7.54 2.27 11.3s6.72 7.6 13.84 5.28c5.11-1.73 7.45-7.59 8.34-11.56-.62.28-1.01 1.19-1.49 1.41Z" transform="translate(-306.14 -316.26)" style="fill:url(#radial-gradient-21);opacity:.33;mix-blend-mode:multiply"/><path class="cls-22" d="M389.84 378.81a11.21 11.21 0 0 1-9.77-6.05c-1.93-3.49-2.34-8.52-2.29-11a4.85 4.85 0 0 0-.64 1.33l-.13.45-.09-.46a6.06 6.06 0 0 1 .29-3.15 1.55 1.55 0 0 1-.87.42h-.22l.13-.18a6.43 6.43 0 0 0 1.08-2.53 2.79 2.79 0 0 1-1 .89l-.25.08.12-.24a6.2 6.2 0 0 0-.66-5.25 4.29 4.29 0 0 0-3.19-2.22 2.22 2.22 0 0 0-.76.14h-.06l-.05-.05c-.13-.11-3.08-2.81-3.17-4.4v-.08h.08a7.31 7.31 0 0 1 2.53-.43c3.14 0 6.16 1.78 8.29 4.88 1.89 2.75 2.54 6.7 3.17 10.53a37.68 37.68 0 0 0 1.72 7.45c1.48 3.79 3.91 4.58 5.69 4.58a7.31 7.31 0 0 0 2.8-.6c1.91-.82 2.71-2.59 2.44-5.41a10.1 10.1 0 0 1 .32-3.19l.06-.23.14.2a4.21 4.21 0 0 0 1.84 1.56 3.76 3.76 0 0 0-.38-2.1l-.11-.24.25.08a5.18 5.18 0 0 1 2.41 2.44 6 6 0 0 1 1.73-2.84l.13-.07v.15a8.65 8.65 0 0 1-.39 4.34 4.31 4.31 0 0 0 .38-.44 2.91 2.91 0 0 1 .85-.83l.22-.12-.06.24c-.64 2.86-2.75 9.72-8.42 11.64a13.56 13.56 0 0 1-4.16.71ZM378 361.1v.31c-.08 1.86.18 7.49 2.26 11.24a11 11 0 0 0 9.57 5.93 13.44 13.44 0 0 0 4.13-.69c5.38-1.83 7.5-8.23 8.21-11.2a4.13 4.13 0 0 0-.55.62 2.36 2.36 0 0 1-.72.7l-.23.1.08-.24a8.81 8.81 0 0 0 .51-4.39 6.66 6.66 0 0 0-1.56 2.89l-.08.31-.13-.29a5.54 5.54 0 0 0-2.15-2.47 4 4 0 0 1 .26 2.08v.12h-.11a4 4 0 0 1-2-1.49 9.88 9.88 0 0 0-.26 2.88c.11 1.07.42 4.36-2.58 5.63a7.33 7.33 0 0 1-2.88.62c-1.85 0-4.37-.82-5.9-4.72a37.71 37.71 0 0 1-1.73-7.49c-.63-3.81-1.28-7.74-3.13-10.44-2.09-3-5.05-4.79-8.11-4.79a7.16 7.16 0 0 0-2.38.39c.17 1.4 2.65 3.76 3 4.12a2.22 2.22 0 0 1 .77-.13 4.5 4.5 0 0 1 3.37 2.32 6.65 6.65 0 0 1 .8 5.16 4.46 4.46 0 0 0 .83-.94l.18-.28v.33a5.61 5.61 0 0 1-1 2.8 2.58 2.58 0 0 0 .78-.61l.35-.39-.16.5-.09.29a6 6 0 0 0-.39 2.73 4.68 4.68 0 0 1 .73-1.25Z" transform="translate(-306.14 -316.26)"/><path d="M332.12 340.43a10.5 10.5 0 0 1 .61 5.53c-.39 1.45-2.2 2.82-2.85 3.24a4.41 4.41 0 0 0 2.09-.47c0 .86-2.44 2.87-2.72 5 .43-.24 1.15-1.15 2.16-1.32a4.43 4.43 0 0 0-1 4.09 3.06 3.06 0 0 1 1.12-1.78c0 1.8.69 7.53 5.49 8.6s6.85-.86 8.49-.9 4.13.39 6.21-.63c-.67 0-1.52 0-1.91-.41a18.84 18.84 0 0 0 5.24-1.3c2-.92 3.44-1.23 4.5-.9s4.66 5 6.95 9a29.12 29.12 0 0 1 3.39 11.3 31.92 31.92 0 0 1 0 7c2.16 1.6 5.88 1.26 6.47.41s1.23-5.81 1.46-8.86a31.55 31.55 0 0 0-1.12-10.69c-1.08-3.68-.6-9-4-15.68s-7.64-8.34-11-8.6c-4.77-.37-10.29 1.93-14.59 1.36a3.84 3.84 0 0 0-2.8-1.81 3.65 3.65 0 0 1 2.59-.59c-.67-.71-3.13-.3-3.82-.13a4.92 4.92 0 0 0 1.42-1.46 5.6 5.6 0 0 1-4.24-.55c-1.23-.9-2.68-1.81-3-5.81-3.41-1.23-5.14 6.36-5.14 6.36Z" transform="translate(-306.14 -316.26)" style="fill:url(#radial-gradient-22)"/><path d="M372.35 351c-3.34-6.09-7.4-7.68-10.64-7.93-4.64-.36-10 1.81-14.24 1.4 1.66 2.51 1.14 5.85 2.51 8.59a3.69 3.69 0 0 0 1.34 1.79c5.81 3.13 12.29 4.91 18.87 3.8a2.05 2.05 0 0 0 1.79-1.46 37.83 37.83 0 0 0 .37-6.19Z" transform="translate(-306.14 -316.26)" style="fill:url(#radial-gradient-23);opacity:.76;mix-blend-mode:screen"/><path d="M331.67 350.6c1.23 2.23 1 5.47 3.69 6.14 4.35 1 10 1.34 12.5-2.79 1.72-3 .74-6.51-.77-9.56a3.81 3.81 0 0 0-2.77-1.78 3.65 3.65 0 0 1 2.59-.59c-.67-.71-3.13-.3-3.82-.13a4.92 4.92 0 0 0 1.42-1.46 5.6 5.6 0 0 1-4.24-.55c-1.23-.9-2.68-1.81-3-5.81-3.46-1.23-5.19 6.36-5.19 6.36a10.5 10.5 0 0 1 .61 5.53c-.39 1.45-2.2 2.82-2.85 3.24a4.41 4.41 0 0 0 2.09-.47 3.06 3.06 0 0 1-.75 1.36 1.72 1.72 0 0 1 .49.51Z" transform="translate(-306.14 -316.26)" style="fill:url(#radial-gradient-24);opacity:.4;mix-blend-mode:screen"/><path d="M373.77 363.82a84.6 84.6 0 0 0-8.86 1.76c.57.87 1.11 1.75 1.6 2.6a29.12 29.12 0 0 1 3.39 11.3 31.92 31.92 0 0 1 0 7 8 8 0 0 0 3.46 1.23c3.2-7.45 2.9-17.94.41-23.89Z" transform="translate(-306.14 -316.26)" style="fill:url(#radial-gradient-25);opacity:.5;mix-blend-mode:screen"/><path d="M352.66 360a33.2 33.2 0 0 1-5.58.67c.33.44.89.67 1.23 1.11-2.35-.78-4.69.11-7.15-.11-1.78-.22-4-.53-4.21-2.76a3.58 3.58 0 0 0-2.18 2.8 12.75 12.75 0 0 1-2.95-4.45c.51 2.36 1.88 5.35 5.21 6.09 4.8 1.06 6.85-.86 8.49-.9s4.13.39 6.21-.63c-.67 0-1.52 0-1.91-.41a18.84 18.84 0 0 0 5.24-1.3c1.86-.87 3.25-1.19 4.29-.95 0 0 .55.17.52.14-1.32-1.3-4.97.12-7.21.7Z" transform="translate(-306.14 -316.26)" style="fill:url(#radial-gradient-26);opacity:.33;mix-blend-mode:multiply"/><path d="M376.71 367.34c-1.08-3.68-.6-9-4-15.68l-.28-.53c2.38 7.1 1.14 10.83 2.57 16.21 1.5 5.71.86 7.32.66 11a27.74 27.74 0 0 1-1.67 8.37c-.11.31-.21.62-.3.94a3.67 3.67 0 0 0 2.68-.71c.6-.86 1.23-5.81 1.46-8.86a31.55 31.55 0 0 0-1.12-10.74Z" transform="translate(-306.14 -316.26)" style="fill:url(#radial-gradient-27);opacity:.33;mix-blend-mode:multiply"/><path class="cls-22" d="M373.78 387.71a6.74 6.74 0 0 1-3.95-1.14h-.06v-.07a31.71 31.71 0 0 0 0-7 29 29 0 0 0-3.38-11.25c-2.42-4.25-5.93-8.64-6.89-8.94s-2.42 0-4.41.89a16.55 16.55 0 0 1-4.71 1.22h-.31a3.74 3.74 0 0 0 1.64.23h.48l-.43.21a8.36 8.36 0 0 1-3.7.7h-2.56a5.71 5.71 0 0 0-1.65.42 11.43 11.43 0 0 1-4.09.8 12.51 12.51 0 0 1-2.77-.33 6.45 6.45 0 0 1-4.64-4.08 12.15 12.15 0 0 1-.94-4.41 3.41 3.41 0 0 0-.9 1.61l-.1.29-.11-.29a4.4 4.4 0 0 1 .83-3.95 4.24 4.24 0 0 0-1.37.87 3.69 3.69 0 0 1-.47.37l-.2.11v-.22a8 8 0 0 1 1.82-3.48 6.46 6.46 0 0 0 .87-1.34 4.83 4.83 0 0 1-1.69.42H329.52l.25-.16c.88-.58 2.46-1.89 2.8-3.18a10.5 10.5 0 0 0-.61-5.46v-.06c.06-.27 1.53-6.59 4.55-6.59a2.48 2.48 0 0 1 .79.14h.07v.07c.26 3.81 1.6 4.77 2.78 5.63l.13.1a4.84 4.84 0 0 0 2.7.71 5.55 5.55 0 0 0 1.45-.17l.23-.07-.1.22a3.57 3.57 0 0 1-1.1 1.2 10.82 10.82 0 0 1 1.81-.17 2.28 2.28 0 0 1 1.73.44l.21.21h-.3a4 4 0 0 0-.49 0 3.44 3.44 0 0 0-1.8.44 4.07 4.07 0 0 1 2.57 1.76 10.75 10.75 0 0 0 1.43.09 32.52 32.52 0 0 0 5.78-.73 36.41 36.41 0 0 1 6.23-.76h1.1c4.59.36 8.33 3.27 11.09 8.66a33.28 33.28 0 0 1 3.26 11.61 29.54 29.54 0 0 0 .75 4.09 31.92 31.92 0 0 1 1.11 10.63c-.2 2.65-.83 8-1.47 8.91a3.66 3.66 0 0 1-2.69.8Zm-3.78-1.28a6.62 6.62 0 0 0 3.76 1.06 3.59 3.59 0 0 0 2.5-.67c.57-.81 1.21-5.72 1.43-8.8a31.14 31.14 0 0 0-1.11-10.64 30.48 30.48 0 0 1-.75-4.13 33 33 0 0 0-3.24-11.54c-2.73-5.32-6.4-8.19-10.91-8.54h-1.08a36.08 36.08 0 0 0-6.19.76 32.83 32.83 0 0 1-5.82.73 12 12 0 0 1-1.51-.09 3.82 3.82 0 0 0-2.61-1.75h-.37l.2-.16a3.59 3.59 0 0 1 2.24-.63 3.32 3.32 0 0 0-1.17-.16 11.14 11.14 0 0 0-2.21.26l-.47.12.38-.31.2-.17a5.3 5.3 0 0 0 1.07-1 6.1 6.1 0 0 1-1.26.13 5.05 5.05 0 0 1-2.83-.76l-.13-.1c-1.21-.88-2.58-1.87-2.87-5.72a2 2 0 0 0-.64-.1c-2.73 0-4.21 5.88-4.33 6.38a10.46 10.46 0 0 1 .61 5.56 6.85 6.85 0 0 1-2.62 3.11 5.26 5.26 0 0 0 1.7-.47l.16-.06v.16c0 .39-.41.95-.94 1.65a8.67 8.67 0 0 0-1.73 3.11l.23-.19a3.7 3.7 0 0 1 1.75-1l.27-.05-.16.22a4.67 4.67 0 0 0-1.07 3.68 2.71 2.71 0 0 1 1.05-1.53l.18-.1v.2c0 .07-.08 7.27 5.4 8.49a12.77 12.77 0 0 0 2.73.31 11.3 11.3 0 0 0 4-.78 6.08 6.08 0 0 1 1.72-.43H348.13a8.69 8.69 0 0 0 3.13-.48 2.18 2.18 0 0 1-1.48-.43l-.14-.16h.21l.57-.09A16.69 16.69 0 0 0 355 360c2-1 3.5-1.24 4.57-.9s4.71 5 7 9a29.31 29.31 0 0 1 3.4 11.34 31.69 31.69 0 0 1 .03 6.99Z" transform="translate(-306.14 -316.26)"/><path class="cls-22" d="M348.53 348.76a9.88 9.88 0 0 0-1.79-4.62l.17-.14a8.87 8.87 0 0 1 1.62 4.76Z" transform="translate(-306.14 -316.26)"/><path d="M371.2 386.5a1.54 1.54 0 0 0-2.12-1.18 6.11 6.11 0 0 0-2.71 4.64c0 1 1.62 2.29 3.71 1.28.56-.47 1.12-4.74 1.12-4.74Z" transform="translate(-306.14 -316.26)" style="fill:url(#radial-gradient-28)"/><path d="M368.67 390.55a6 6 0 0 1 2-5 1.48 1.48 0 0 0-1.61-.27 5.86 5.86 0 0 0-2.55 3.83c.2 1.74 1.99 2.02 2.16 1.44Z" transform="translate(-306.14 -316.26)" style="fill:url(#radial-gradient-29);mix-blend-mode:screen"/><path d="M368.78 390.58c-.55.67-2.71.15-2.13-2a6 6 0 0 0-.28 1.4c0 1 1.62 2.29 3.71 1.28.56-.47 1.12-4.74 1.12-4.74a1.68 1.68 0 0 0-.43-.84c-1.1.61-2.25 3.32-1.99 4.9Z" transform="translate(-306.14 -316.26)" style="fill:url(#radial-gradient-30);mix-blend-mode:multiply;opacity:.3"/><path class="cls-7" d="M368.57 391.72a2.57 2.57 0 0 1-1.85-.72 1.47 1.47 0 0 1-.46-1.05 6.24 6.24 0 0 1 2.77-4.73 1.49 1.49 0 0 1 .63-.14 1.72 1.72 0 0 1 1.65 1.39c-.06.44-.58 4.33-1.15 4.82a3.61 3.61 0 0 1-1.59.43Zm1.09-6.42a1.18 1.18 0 0 0-.53.12 6 6 0 0 0-2.65 4.55 1.26 1.26 0 0 0 .4.87 2.35 2.35 0 0 0 1.69.66 3.42 3.42 0 0 0 1.45-.35c.38-.36.85-3 1.07-4.65a1.49 1.49 0 0 0-1.43-1.2Z" transform="translate(-306.14 -316.26)"/><path d="M372.26 385.18a2.53 2.53 0 0 1 2.26 2.42 7 7 0 0 1-.82 3.84c-.57.64-3.2 1.42-4.09.25s.39-6.53 2.65-6.51Z" transform="translate(-306.14 -316.26)" style="fill:url(#radial-gradient-31)"/><path d="M372.3 390.78a7 7 0 0 1 1.67-4.64 2.15 2.15 0 0 0-1.71-1c-1.61 0-2.73 2.71-2.91 4.7a1.63 1.63 0 0 0 2.95.94Z" transform="translate(-306.14 -316.26)" style="fill:url(#radial-gradient-32);mix-blend-mode:screen"/><path d="M372.43 390.82c-.95 1.35-3.65 1.07-2.9-2.07a4.22 4.22 0 0 0 .08 2.94c.89 1.17 3.52.39 4.09-.25a7 7 0 0 0 .82-3.84 2.78 2.78 0 0 0-.45-1.32c-.92.85-1.49 2.27-1.64 4.54Z" transform="translate(-306.14 -316.26)" style="fill:url(#radial-gradient-33);mix-blend-mode:multiply;opacity:.3"/><path class="cls-7" d="M371.15 392.4a2 2 0 0 1-1.63-.64c-.58-.76-.31-3.1.54-4.82.59-1.21 1.37-1.87 2.18-1.87a2.64 2.64 0 0 1 2.37 2.53 7 7 0 0 1-.85 3.92 4.15 4.15 0 0 1-2.61.88Zm1.09-7.1c-.72 0-1.43.61-2 1.74-.81 1.62-1.09 3.89-.56 4.58a1.79 1.79 0 0 0 1.45.56 4 4 0 0 0 2.46-.81 6.93 6.93 0 0 0 .8-3.76 2.4 2.4 0 0 0-2.15-2.31Z" transform="translate(-306.14 -316.26)"/><path d="M375.93 385.47c1.37.14 2.49 3.35 2.34 4.54s-1.26 1.86-2.94 2.12-2.64-.22-2.38-1.89 1.45-4.92 2.98-4.77Z" transform="translate(-306.14 -316.26)" style="fill:url(#radial-gradient-34)"/><path d="M376.75 390.64c1.42-1.22.45-3.95-.46-5.06a1 1 0 0 0-.36-.11c-1.53-.15-2.72 3.09-3 4.77a3.42 3.42 0 0 0 0 .69c.93.91 2.84.59 3.82-.29Z" transform="translate(-306.14 -316.26)" style="fill:url(#radial-gradient-35);mix-blend-mode:screen"/><path d="M376.44 385.67c.77 1 1.61 3 .88 4.49s-4.11 1.87-4.41.66c.17.67-.22 1.47 2.42 1.31 1.69-.1 2.79-.93 2.94-2.12.13-1.01-.7-3.6-1.83-4.34Z" transform="translate(-306.14 -316.26)" style="fill:url(#radial-gradient-36);mix-blend-mode:multiply;opacity:.3"/><path class="cls-7" d="M374.56 392.31a1.79 1.79 0 0 1-1.43-.51 1.9 1.9 0 0 1-.29-1.58c.26-1.7 1.41-4.86 3-4.86h.11a1.77 1.77 0 0 1 1.13.75 6.73 6.73 0 0 1 1.31 3.92c-.14 1.16-1.19 1.93-3 2.21a4.7 4.7 0 0 1-.83.07Zm1.27-6.73c-1.36 0-2.51 3-2.77 4.67a1.71 1.71 0 0 0 .24 1.41c.34.39 1 .52 2 .36 1.76-.27 2.72-.95 2.85-2a6.56 6.56 0 0 0-1.26-3.75 1.55 1.55 0 0 0-1-.67Z" transform="translate(-306.14 -316.26)"/><path d="M344.28 357.59a17.93 17.93 0 0 1 2.52 6.14c.48 3.07-.43 6.48-1.95 10.17a29 29 0 0 0-2 9.09c0 1.31.09 2-.44 2.76-.66.93-1 .64-2 2.32-.44.73-3.95.11-5.57-2.74a66.53 66.53 0 0 0 2.1-10.09 39.44 39.44 0 0 0-.28-10.17 5.77 5.77 0 0 0-.53 2.4c-.67-.67-.7-2.91-.11-4.83-.56.1-.93 1-1.18 1.73-.47-2.63 2.13-5.48 2.13-5.48Z" transform="translate(-306.14 -316.26)" style="fill:url(#radial-gradient-37)"/><path d="m344.11 357.62-7.11 1.27s-2.6 2.85-2.13 5.48c.25-.77.62-1.63 1.18-1.73-.59 1.92-.56 4.16.11 4.83a5.77 5.77 0 0 1 .53-2.4 40.89 40.89 0 0 1 .42 8.42c-.18 1.64 3.15.86 4.59.41 2.6-.83 3-5.44 3.53-8.34s-.44-5.34-1.12-7.94Z" transform="translate(-306.14 -316.26)" style="fill:url(#radial-gradient-38);opacity:.76;mix-blend-mode:screen"/><path d="M342.24 376.13a10 10 0 0 1 .71-2.64c-1.69 1.19-3.91 1.14-5.95.88 0 .28-.05.57-.08.87a66.53 66.53 0 0 1-2.1 10.09 6.12 6.12 0 0 0 1.84 2c1-.32 2.83-.73 3.46-1.49 1.77-2.16 1.34-5.92 2.12-9.71Z" transform="translate(-306.14 -316.26)" style="fill:url(#radial-gradient-39);opacity:.4;mix-blend-mode:screen"/><path d="M341.52 379.52c-.17 1-.81 1.7-1.43 1.59s-1-1-.84-2 .81-1.7 1.43-1.59 1 1.01.84 2Z" transform="translate(-306.14 -316.26)" style="fill:url(#linear-gradient-28)"/><path d="M339.16 376.12c0 .69-.33 1.25-.77 1.26s-.8-.55-.81-1.24.33-1.25.77-1.26.8.55.81 1.24Z" transform="translate(-306.14 -316.26)" style="fill:url(#linear-gradient-29)"/><path d="M341.47 373.33c0 .85-.42 1.54-1 1.55s-1-.67-1-1.52.41-1.54 1-1.55.98.67 1 1.52Z" transform="translate(-306.14 -316.26)" style="fill:url(#linear-gradient-30)"/><path d="M344.29 371.11c-.25.81-.86 1.34-1.38 1.19s-.73-.95-.49-1.76.87-1.34 1.38-1.18.74.94.49 1.75Z" transform="translate(-306.14 -316.26)" style="fill:url(#linear-gradient-31)"/><path d="M340.84 367.46c.1 1.15-.42 2.14-1.15 2.2s-1.4-.83-1.5-2 .43-2.14 1.16-2.2 1.4.85 1.49 2Z" transform="translate(-306.14 -316.26)" style="fill:url(#linear-gradient-32)"/><path d="M345.22 365.53c.09 1.15-.42 2.13-1.15 2.19s-1.4-.83-1.5-2 .42-2.13 1.16-2.19 1.4.84 1.49 2Z" transform="translate(-306.14 -316.26)" style="fill:url(#linear-gradient-33)"/><ellipse cx="340.22" cy="361.46" rx="1.57" ry="2.47" transform="rotate(-4.65 -3707.573 3973.375)" style="fill:url(#linear-gradient-34)"/><path d="M346.8 363.73a17.93 17.93 0 0 0-2.52-6.14c2.41 4.93 1.44 11.11-1.07 16.12-1.67 3.46-.89 7.7-2.12 11.28-.45 1.23-2.12 2.12-3.68 2.23v.51c1.41.73 2.79.78 3.05.34 1-1.68 1.37-1.39 2-2.32.53-.74.42-1.45.44-2.76a29 29 0 0 1 2-9.09c1.47-3.69 2.38-7.1 1.9-10.17Z" transform="translate(-306.14 -316.26)" style="fill:url(#radial-gradient-40);opacity:.33;mix-blend-mode:multiply"/><path class="cls-22" d="M339.57 388.46a6.14 6.14 0 0 1-4.8-3.07v-.07a63 63 0 0 0 2.09-10 38.9 38.9 0 0 0-.23-9.78 6.64 6.64 0 0 0-.36 2v.26l-.18-.18c-.67-.67-.75-2.76-.2-4.73a2.88 2.88 0 0 0-.9 1.58l-.14.42-.08-.43a5.55 5.55 0 0 1 .47-3 7.68 7.68 0 0 1 1.77-2.46s-2.18 2.57-2.07 5c.24-.61.59-1.25 1.1-1.34h.18l-.06.18a7.12 7.12 0 0 0-.08 4.48 5.48 5.48 0 0 1 .52-2.14l.17-.26v.3a39.81 39.81 0 0 1 .28 10.2 63.21 63.21 0 0 1-2.09 10.07 6 6 0 0 0 4.59 2.92.94.94 0 0 0 .77-.22 5.27 5.27 0 0 1 1.34-1.62 3.35 3.35 0 0 0 .69-.71 3.27 3.27 0 0 0 .42-2.06v-.8a29.18 29.18 0 0 1 2-9.14c1.75-4.21 2.37-7.42 1.95-10.11a19.5 19.5 0 0 0-2.41-6.15 15 15 0 0 1 2 3.8 13 13 0 0 1 .6 2.32c.42 2.73-.2 6-2 10.23a28.47 28.47 0 0 0-2 9.05v.64a3.36 3.36 0 0 1-.46 2.19 3.74 3.74 0 0 1-.73.75 5.09 5.09 0 0 0-1.29 1.56c-.07.21-.43.32-.86.32Z" transform="translate(-306.14 -316.26)"/><path class="cls-78" d="M312.67 336.41a5.26 5.26 0 0 1-1.24-5.09c.45-1.94.83-1.84 1.1-4.56a9 9 0 0 1 3.4-6.62 13.9 13.9 0 0 1 11.36-2.88c4.19.88 6.42 3.09 7.42 6.05 1.28 3.76 3.29 5.66 3 10.28-.25 3.49-1.86 5.73-5.21 7.24s-5.58-.33-10 3.76c-3.46 0-2.59-4.23-4.65-5.42s-5.18-2.76-5.18-2.76Z" transform="translate(-306.14 -316.26)"/><path d="M316.54 327.07c.56 2.68 2.51 4.54 5.08 3.09 1.34-.78.91-2.31 1.84-3.69 1.55-2.28 4.56-2 5.53.95.64 1.95.22 3 .89 4.64s3.58 1.45 4.25-.22c1.69-3.93-.56-9.23-1.14-11.56a10.07 10.07 0 0 0-5.7-3 13.9 13.9 0 0 0-11.36 2.88 9 9 0 0 0-3.4 6.62v.38c1.47-2.24 3.66-1.89 4.01-.09Z" transform="translate(-306.14 -316.26)" style="fill:url(#radial-gradient-42);opacity:.76;mix-blend-mode:screen"/><ellipse cx="23.07" cy="7.49" rx="1.04" ry="1.13" style="fill:url(#linear-gradient-35)"/><path d="M323.19 325.93c2-4 6-2.21 6.32 1.25-1.51-2.35-3.84-3.18-6.32-1.25ZM317.08 326c-1.4-2.78-4.16-1.54-4.41.87 1.08-1.66 2.68-2.21 4.41-.87Z" transform="translate(-306.14 -316.26)"/><path d="M334.71 323.31a8.78 8.78 0 0 0-1.54-2.82c.92 1.78 1.07 3.94 1.8 5.94.89 2.44 1.59 4.74 1.39 6.41-.45 3.81-2.68 6.59-6 6.92-3.66.41-7.32 1.56-9.55 4.37a2.75 2.75 0 0 0 1.64.46c4.45-4.09 6.68-2.26 10-3.76s5-3.75 5.21-7.24c.34-4.59-1.66-6.52-2.95-10.28Z" transform="translate(-306.14 -316.26)" style="fill:url(#radial-gradient-43);opacity:.33;mix-blend-mode:multiply"/><path d="M316.47 329.49c-.27 1.72-1.61 2.81-2.47 2.75-1.29-.09-1.93-1.65-1.66-3.38s1.36-3.07 2.64-2.87 1.76 1.77 1.49 3.5Z" transform="translate(-306.14 -316.26)" style="fill:url(#radial-gradient-44)" class="cls-82"/><path d="M316.51 329.82c-.24 1.52-1.38 2.59-2.55 2.41s-1.92-1.56-1.68-3.07 1.37-2.6 2.54-2.41 1.92 1.56 1.69 3.07Z" transform="translate(-306.14 -316.26)"/><path d="M316.43 330a2.14 2.14 0 1 1-1.65-2.94 2.41 2.41 0 0 1 1.65 2.94Z" transform="translate(-306.14 -316.26)" style="fill:url(#radial-gradient-45)"/><path d="M314 332.28a2.76 2.76 0 1 1 2.51-2.33 2.47 2.47 0 0 1-2.51 2.33Zm.81-5.22a2.66 2.66 0 1 0 1.62 2.88 2.36 2.36 0 0 0-1.66-2.88Z" transform="translate(-306.14 -316.26)"/><path d="M315.86 330c-.11 1-.8 1.68-1.55 1.59a1.81 1.81 0 0 1 .37-3.49 1.62 1.62 0 0 1 1.18 1.9Z" transform="translate(-306.14 -316.26)" style="fill:url(#linear-gradient-36)"/><path class="cls-86" d="M314.3 331.62a1.83 1.83 0 1 1 1.58-1.62 1.63 1.63 0 0 1-1.58 1.62Zm.38-3.49c-.74-.09-1.43.62-1.53 1.57a1.39 1.39 0 1 0 1.53-1.57Z" transform="translate(-306.14 -316.26)"/><path d="M315.64 330.22a1.3 1.3 0 0 1-1.25 1.3 1.31 1.31 0 0 1-1-1.54c.09-.78.65-1.36 1.26-1.29a1.29 1.29 0 0 1 .99 1.53Z" transform="translate(-306.14 -316.26)" style="fill:url(#linear-gradient-37);opacity:.7;mix-blend-mode:screen"/><path d="M315.59 330.18c-.07.68-.56 1.19-1.09 1.13a1.28 1.28 0 1 1 1.09-1.13Z" transform="translate(-306.14 -316.26)"/><path d="M314.74 329.22a.52.52 0 0 1-.55.46.52.52 0 0 1 .11-1 .52.52 0 0 1 .44.54Z" transform="translate(-306.14 -316.26)" style="fill:url(#radial-gradient-46)" class="cls-88"/><path d="M315.09 330.92a.22.22 0 0 1-.24.2.23.23 0 0 1-.19-.25.21.21 0 0 1 .24-.2.21.21 0 0 1 .19.25Z" transform="translate(-306.14 -316.26)" style="fill:url(#radial-gradient-47)" class="cls-88"/><path class="cls-22" d="M322.38 344.7c-2.09 0-2.64-1.53-3.16-3a4.17 4.17 0 0 0-1.51-2.42c-2-1.18-5.06-2.74-5.09-2.76a5.4 5.4 0 0 1-1.27-5.21 11.6 11.6 0 0 1 .48-1.58 10.48 10.48 0 0 0 .62-3 9.06 9.06 0 0 1 3.43-6.7 14.09 14.09 0 0 1 8.88-3.16 13 13 0 0 1 2.58.26c3.94.82 6.39 2.83 7.51 6.12a29 29 0 0 0 1.29 3.07 12.93 12.93 0 0 1 1.66 7.25c-.25 3.56-1.88 5.82-5.27 7.34a10.33 10.33 0 0 1-3.39.77 9.71 9.71 0 0 0-6.61 3Zm-9.65-8.38c.23.12 3.12 1.61 5.09 2.75a4.45 4.45 0 0 1 1.61 2.55c.52 1.47 1 2.85 2.95 2.85a9.92 9.92 0 0 1 6.71-3 10.07 10.07 0 0 0 3.32-.75c3.3-1.49 4.89-3.69 5.14-7.15a12.7 12.7 0 0 0-1.64-7.14 26.81 26.81 0 0 1-1.3-3.1c-1.09-3.21-3.49-5.16-7.35-6a12.48 12.48 0 0 0-2.53-.26 14 14 0 0 0-8.73 3.11 8.87 8.87 0 0 0-3.36 6.55 10.86 10.86 0 0 1-.63 3 11.1 11.1 0 0 0-.47 1.55 5.15 5.15 0 0 0 1.19 5.04Z" transform="translate(-306.14 -316.26)"/><path d="M314.14 339.67a3.17 3.17 0 0 1 1.88 2.68c.2 1.9.5 3.46 3.09 3.46s4-1.36 4.35-3.51a5.2 5.2 0 0 0-1.92-5.05c-1.26-.74-7.4 2.42-7.4 2.42Z" transform="translate(-306.14 -316.26)" style="fill:url(#radial-gradient-48)"/><path d="M322.78 338.6a6 6 0 0 1-.41 4.94 4 4 0 0 1-3.29 1.72 2.93 2.93 0 0 1-1.45-.29c-.95-.48-1.2-1.36-1.58-2.34.21 1.77.6 3.18 3.06 3.18s4-1.36 4.35-3.51a5.79 5.79 0 0 0-.68-3.7Z" transform="translate(-306.14 -316.26)" style="fill:url(#linear-gradient-38);mix-blend-mode:multiply;opacity:.3"/><path class="cls-7" d="M319.11 345.92c-2.61 0-3-1.54-3.2-3.56a3 3 0 0 0-1.81-2.58l-.24-.09.23-.12c.2-.1 5-2.54 6.9-2.54a1.22 1.22 0 0 1 .6.12 5.35 5.35 0 0 1 2 5.17c-.38 2.32-1.96 3.6-4.48 3.6Zm-4.71-6.26a3.35 3.35 0 0 1 1.73 2.68c.21 2 .55 3.36 3 3.36s3.9-1.21 4.24-3.41a5.11 5.11 0 0 0-1.87-4.94.92.92 0 0 0-.49-.1c-1.68 0-5.64 1.93-6.61 2.41Z" transform="translate(-306.14 -316.26)"/><path d="M316 340a1.86 1.86 0 0 1 .87 1.63c0 .77-.09 2.08 1.39 2.14a3.19 3.19 0 0 0 3.17-2.81c.43-1.86.39-3-.11-3.81C319.41 338 316 340 316 340Z" transform="translate(-306.14 -316.26)" style="fill:url(#radial-gradient-49)"/><path d="M318.59 341c-.34-.68-1.4-1.25-2.07-.55a1.75 1.75 0 0 1 .37 1.16c0 .77-.09 2.08 1.39 2.14a3.19 3.19 0 0 0 3.17-2.81 1.16 1.16 0 0 0 0-.18c-.78-.47-2.15-.71-2.86.24Z" transform="translate(-306.14 -316.26)" style="fill:url(#radial-gradient-50)"/><g style="opacity:.81;mix-blend-mode:screen"><path d="M318.72 340.85s-.09.1-.13.16c-.34-.68-1.4-1.25-2.07-.55a1.75 1.75 0 0 1 .37 1.16c0 .77-.09 2.08 1.39 2.14h.45a3.47 3.47 0 0 1-.01-2.91Z" transform="translate(-306.14 -316.26)" style="fill:url(#radial-gradient-51)"/><path d="M318.72 340.85a3.47 3.47 0 0 0 0 2.89 3.27 3.27 0 0 0 2.72-2.79 1.16 1.16 0 0 0 0-.18 2.33 2.33 0 0 0-2.72.08Z" transform="translate(-306.14 -316.26)" style="fill:url(#radial-gradient-52)"/></g><path class="cls-98" d="M318.4 343.87h-.12a1.52 1.52 0 0 1-1.11-.45 2.49 2.49 0 0 1-.39-1.81 1.61 1.61 0 0 0-.35-1.08l-.05-.08.06-.07a1.12 1.12 0 0 1 .82-.35 1.75 1.75 0 0 1 1.35.78 1.81 1.81 0 0 1 1.39-.57 3.26 3.26 0 0 1 1.55.43h.07v.27a3.32 3.32 0 0 1-3.22 2.93Zm-1.73-3.4a1.87 1.87 0 0 1 .33 1.16 2.29 2.29 0 0 0 .34 1.64 1.28 1.28 0 0 0 1 .37 3.08 3.08 0 0 0 3-2.71v-.1a2.91 2.91 0 0 0-1.37-.37 1.61 1.61 0 0 0-1.32.61l-.11.15-.08-.16a1.5 1.5 0 0 0-1.23-.81.92.92 0 0 0-.56.22Z" transform="translate(-306.14 -316.26)"/><path class="cls-98" d="m318.69 340.73.15.16a2.29 2.29 0 0 0-.43 1.3s-.2-1 .28-1.46Z" transform="translate(-306.14 -316.26)"/><path class="cls-7" d="M318.4 343.87h-.12a1.52 1.52 0 0 1-1.11-.45 2.49 2.49 0 0 1-.39-1.81 1.8 1.8 0 0 0-.82-1.53l-.15-.1.16-.09s3.41-2 5.32-2.85h.09l.06.08c.52.85.55 2 .12 3.9a3.32 3.32 0 0 1-3.16 2.85Zm-2.17-3.87a2 2 0 0 1 .77 1.63 2.29 2.29 0 0 0 .34 1.64 1.28 1.28 0 0 0 1 .37 3.08 3.08 0 0 0 3-2.71c.41-1.76.4-2.86 0-3.65-1.73.79-4.45 2.34-5.11 2.72Z" transform="translate(-306.14 -316.26)"/><path class="cls-78" d="M315.88 327.34a4.23 4.23 0 0 1 .55 2.3c-.16 1.11-1.29 1.83-2.07 2.46-1.18.95-2.37 2.3-1.73 3.95s4.86 2.57 6.84 2.32 2.79-.78 2.93-2.07-.18-1.92.25-3.52a21.27 21.27 0 0 1 1.34-3.26Z" transform="translate(-306.14 -316.26)"/><path d="M321.68 335.4a9.25 9.25 0 0 1 1.24-4.22c-.64-1.6-4.71-2.75-6.51-1.46-.19 1.06-1.29 1.76-2.05 2.38-1.18.95-2.37 2.3-1.73 3.95.44 1.13 2.56 1.92 4.48 2.22 1.82-.18 4.4-.84 4.57-2.87Z" transform="translate(-306.14 -316.26)" style="fill:url(#radial-gradient-54);opacity:.76;mix-blend-mode:screen"/><path d="M323.46 330.63a8.47 8.47 0 0 0-1.6 4.74c-.17 2.74-4 2.5-5.85 2.68a10.47 10.47 0 0 0 3.46.32c2-.25 2.79-.78 2.93-2.07s-.18-1.92.25-3.52a17.29 17.29 0 0 1 .81-2.15Z" transform="translate(-306.14 -316.26)" style="fill:url(#radial-gradient-55);opacity:.33;mix-blend-mode:multiply"/><path d="m316.41 327.48-.53-.14a4.84 4.84 0 0 1 .56 1.71 3.61 3.61 0 0 0-.03-1.57Z" transform="translate(-306.14 -316.26)" style="fill:url(#radial-gradient-56);opacity:.33;mix-blend-mode:multiply"/><path class="cls-22" d="M318.77 338.52c-2.12 0-5.63-.86-6.24-2.43-.53-1.36 0-2.7 1.76-4.08l.34-.26a3.72 3.72 0 0 0 1.69-2.12 4.91 4.91 0 0 0-.44-2.29 3.78 3.78 0 0 1 .66 2.32 3.94 3.94 0 0 1-1.78 2.27l-.33.25c-1.63 1.32-2.19 2.57-1.69 3.83.63 1.62 4.83 2.49 6.72 2.25s2.7-.77 2.83-2a9.14 9.14 0 0 0 0-1.26 6.36 6.36 0 0 1 .23-2.27 22.06 22.06 0 0 1 1.34-3.29l.2.1a21.27 21.27 0 0 0-1.33 3.24 6.45 6.45 0 0 0-.22 2.22 8.06 8.06 0 0 1 0 1.28c-.14 1.32-1 1.91-3 2.17a5.14 5.14 0 0 1-.74.07Z" transform="translate(-306.14 -316.26)"/><path d="M315.74 334.91c4.65-.2 5.33 2.49 4.73 3.76a3.6 3.6 0 0 1-5.13 1.18c-2.07.19-3.09-.75-3.2-2.49s.34-2 .83-2.21a15.12 15.12 0 0 1 2.77-.24Z" transform="translate(-306.14 -316.26)" style="fill:url(#radial-gradient-57)"/><path d="M314.92 338.2c.78 1.9 3.69 1.56 4.91.22a1.87 1.87 0 0 0 .57-1.68c-.51-1-1.87-1.95-4.66-1.83h-1a10.88 10.88 0 0 0 .18 3.29Z" transform="translate(-306.14 -316.26)" style="fill:url(#radial-gradient-58);mix-blend-mode:screen"/><path d="M314.45 338.61c.51-1 0-2.41 0-3.66a6.64 6.64 0 0 0-1.49.2c-.49.2-1 .48-.83 2.21a3.31 3.31 0 0 0 .28 1.2c.59.58 1.76.7 2.04.05Z" transform="translate(-306.14 -316.26)" style="fill:url(#radial-gradient-59);mix-blend-mode:screen"/><path d="M320.56 337.14a2.71 2.71 0 0 1-.39 1.17 3.59 3.59 0 0 1-2.23 1.34c-1.23.23-2.8-.22-3.24-1.45-.08 1.36-1.94 1.06-2.35.19.4 1.07 1.38 1.61 3 1.46a3.6 3.6 0 0 0 5.13-1.18 2.24 2.24 0 0 0 .08-1.53Z" transform="translate(-306.14 -316.26)" style="fill:url(#linear-gradient-39);mix-blend-mode:multiply;opacity:.3"/><path class="cls-7" d="M315.49 340.08a2.65 2.65 0 0 1-.93-2.56 2.62 2.62 0 0 0 0-.27h.22v.28c0 .67-.08 1.81.81 2.36Z" transform="translate(-306.14 -316.26)"/><path class="cls-7" d="M317.29 340.61a3.35 3.35 0 0 1-2-.65c-2 .18-3.16-.73-3.29-2.59s.34-2.09.9-2.32a15.35 15.35 0 0 1 2.82-.26h.47c2.57 0 3.68.92 4.17 1.68a2.4 2.4 0 0 1 .19 2.25 3.89 3.89 0 0 1-3.26 1.89Zm-1.92-.88a3.22 3.22 0 0 0 1.89.63 3.65 3.65 0 0 0 3.08-1.77 2.18 2.18 0 0 0-.18-2c-.46-.72-1.51-1.57-4-1.57h-.47a14.65 14.65 0 0 0-2.73.23c-.41.18-.88.37-.76 2.11a2.3 2.3 0 0 0 2.57 2.4h.51Z" transform="translate(-306.14 -316.26)"/><path d="M314.6 337.43a2.18 2.18 0 0 0 2-2.21c-.08-.85-1.46-1-2.67-.8s-1.52.69-1.36 1.47a2.25 2.25 0 0 0 2.03 1.54Z" transform="translate(-306.14 -316.26)" style="fill:url(#radial-gradient-60)"/><path d="M316.37 334.76a3.31 3.31 0 0 0-2.44-.34c-1.08.15-1.45.59-1.39 1.24a2.16 2.16 0 0 0 1.93 1.27c.84-.04 2.19-.93 1.9-2.17Z" transform="translate(-306.14 -316.26)" style="opacity:.77;fill:url(#radial-gradient-61);mix-blend-mode:screen"/><path d="M316.6 335.22a.82.82 0 0 0-.14-.36 2 2 0 0 1-1.78 2.14 2.1 2.1 0 0 1-2.15-1.42v.31a2.25 2.25 0 0 0 2 1.54 2.18 2.18 0 0 0 2.07-2.21Z" transform="translate(-306.14 -316.26)" style="fill:url(#linear-gradient-40);opacity:.33;mix-blend-mode:multiply"/><path d="M314.5 337.54a2.36 2.36 0 0 1-2-1.62 1.22 1.22 0 0 1 .13-1 1.81 1.81 0 0 1 1.32-.61 7.55 7.55 0 0 1 .92-.07c1.15 0 1.81.35 1.87 1a2.34 2.34 0 0 1-.65 1.65 2 2 0 0 1-1.45.68h-.11Zm.34-3.07a7 7 0 0 0-.89.06 1.71 1.71 0 0 0-1.17.52 1 1 0 0 0-.1.82 2.17 2.17 0 0 0 1.82 1.45h.11a1.74 1.74 0 0 0 1.29-.61 2.12 2.12 0 0 0 .58-1.48c-.05-.66-1.05-.76-1.64-.76Z" transform="translate(-306.14 -316.26)" style="fill:#100"/><path d="M356.54 388.3c-.55 1-1.06 2.72-3.68 2.8s-3.87-.25-4.72-1.4a3.86 3.86 0 0 1 .36-4c.9-1.28 2.66-.75 3.28-.39a5.43 5.43 0 0 1 2 2.25 2.17 2.17 0 0 0 2.76.74Z" transform="translate(-306.14 -316.26)" style="fill:url(#radial-gradient-62)"/><path d="M352.66 389.57a2.61 2.61 0 0 0 1.1-1.95 5.43 5.43 0 0 0-2-2.25c-.62-.36-2.38-.89-3.28.39a4 4 0 0 0-.47 3.76c1.51.57 3.32.97 4.65.05Z" transform="translate(-306.14 -316.26)" style="fill:url(#radial-gradient-63);mix-blend-mode:screen"/><path d="M353.84 387.74c-.2 1-.42 1.95-1.62 2.27a5.36 5.36 0 0 1-4.16-.45l.08.14c.85 1.15 2.09 1.49 4.72 1.4s3.13-1.76 3.68-2.8a2.21 2.21 0 0 1-2.7-.56Z" transform="translate(-306.14 -316.26)" style="fill:url(#radial-gradient-64);mix-blend-mode:multiply;opacity:.3"/><path class="cls-7" d="M352.14 391.23c-2.19 0-3.3-.4-4.09-1.47a3.93 3.93 0 0 1 .36-4.08 2 2 0 0 1 1.76-.86 3.5 3.5 0 0 1 1.67.44 5.4 5.4 0 0 1 2 2.29 1.66 1.66 0 0 0 1.55.85 3.49 3.49 0 0 0 1.1-.2l.27-.1-.14.25c-.06.12-.11.24-.18.36a3.67 3.67 0 0 1-3.59 2.5Zm-2-6.19a1.79 1.79 0 0 0-1.57.77 3.71 3.71 0 0 0-.37 3.82c.74 1 1.8 1.37 3.91 1.37h.71a3.46 3.46 0 0 0 3.4-2.37l.06-.13a3.41 3.41 0 0 1-.91.14 1.9 1.9 0 0 1-1.74-1 5.41 5.41 0 0 0-1.93-2.21 3.31 3.31 0 0 0-1.53-.43Z" transform="translate(-306.14 -316.26)"/><path class="cls-7" d="M348.26 390a3.15 3.15 0 0 1 1.9-3.7 3.21 3.21 0 0 0-1.68 3.67Z" transform="translate(-306.14 -316.26)"/><path d="M340.85 387.39c-.62 1.54-2 3.74-3.45 4.21a4.66 4.66 0 0 1-4.59-.62 2 2 0 0 1-2.76-1.17c-.82-.11-1.17-1.1-.8-2.59s1.64-3.7 3.93-3.4 5.06 3.84 7.67 3.57Z" transform="translate(-306.14 -316.26)" style="fill:url(#radial-gradient-65)"/><path d="M334 384.26a7.24 7.24 0 0 0-3.53 2.87c-.75 1.28-.72 2.68-.14 3.29s1.72.62 1.62.25a3.4 3.4 0 0 1 .57-2.78 16.44 16.44 0 0 1 3.59-2.38 10 10 0 0 0-2.11-1.25Z" transform="translate(-306.14 -316.26)" style="fill:url(#radial-gradient-66);mix-blend-mode:screen"/><path d="M336.36 385.66a6.63 6.63 0 0 0-3.66 3.07 2.54 2.54 0 0 0-.21 1.47 4.79 4.79 0 0 0 3.38.63c1.59-.26 3-2.54 3.25-3.5a12.32 12.32 0 0 1-2.76-1.67Z" transform="translate(-306.14 -316.26)" style="fill:url(#radial-gradient-67);mix-blend-mode:screen"/><path d="M331.78 385.66a3.59 3.59 0 0 0-2.28 3.87.88.88 0 0 0 .46.26 4.88 4.88 0 0 1 1.82-4.13Z" transform="translate(-306.14 -316.26)" style="fill:url(#radial-gradient-68);mix-blend-mode:multiply;opacity:.3"/><path d="M334.24 386.89a3.41 3.41 0 0 0-1.68 1.11 1.6 1.6 0 1 0 .15 3 2.47 2.47 0 0 1-.2-.74h-.06.06a4 4 0 0 1 1.73-3.37Z" transform="translate(-306.14 -316.26)" style="fill:url(#radial-gradient-69);mix-blend-mode:multiply;opacity:.3"/><path d="M339.34 387.18c-.95 3-3.79 5.14-6.83 3.09a2.47 2.47 0 0 0 .2.74h.1a4.66 4.66 0 0 0 4.59.62c1.49-.47 2.83-2.67 3.45-4.21a3.62 3.62 0 0 1-1.51-.24Z" transform="translate(-306.14 -316.26)" style="fill:url(#radial-gradient-70);mix-blend-mode:multiply;opacity:.3"/><path class="cls-7" d="M335.43 392a3.9 3.9 0 0 1-2.65-.92 2.77 2.77 0 0 1-.89.15 2 2 0 0 1-1.92-1.35 1.1 1.1 0 0 1-.69-.46 2.89 2.89 0 0 1-.14-2.25c.33-1.31 1.46-3.52 3.63-3.52h.42a8.4 8.4 0 0 1 3.3 1.7c1.35.92 2.74 1.88 4.07 1.88h.46l-.07.17c-.54 1.35-1.88 3.76-3.51 4.27a6.75 6.75 0 0 1-2.01.33Zm-2.6-1.18h.05a3.67 3.67 0 0 0 2.55.91 6.61 6.61 0 0 0 1.94-.32c1.31-.41 2.61-2.31 3.31-4h-.12c-1.4 0-2.82-1-4.19-1.93a8.44 8.44 0 0 0-3.21-1.66h-.39c-2 0-3.1 2.11-3.41 3.35a2.68 2.68 0 0 0 .1 2.07.86.86 0 0 0 .61.38h.06v.06a1.74 1.74 0 0 0 1.73 1.26 2.71 2.71 0 0 0 .88-.15Z" transform="translate(-306.14 -316.26)"/><path class="cls-7" d="M332.72 391.05c-1.47-1.95 1.51-4.18 1.51-4.18s-2.68 2.26-1.34 4ZM330.06 390.13c-1-2.37 1.68-4.48 1.68-4.48s-2.45 2.17-1.47 4.39Z" transform="translate(-306.14 -316.26)"/><ellipse cx="11.86" cy="15.27" rx=".85" ry="1.24" style="fill:url(#linear-gradient-41)"/><path d="M319.26 327.84c-.06.61-.48 1.06-.94 1a1 1 0 0 1-.71-1.19c.07-.6.49-1.06.94-1a1 1 0 0 1 .71 1.19Z" transform="translate(-306.14 -316.26)" style="fill:url(#linear-gradient-42)"/><path d="M321.9 328.49a1 1 0 0 1-1.23.76 1.18 1.18 0 1 1 1.23-.76Z" transform="translate(-306.14 -316.26)" style="fill:url(#linear-gradient-43)"/><path d="M320.72 325a.76.76 0 1 1-.34-1.15.86.86 0 0 1 .34 1.15Z" transform="translate(-306.14 -316.26)" style="fill:url(#linear-gradient-44)"/><path d="M318 322.79a.88.88 0 1 1-.87-1 .92.92 0 0 1 .87 1Z" transform="translate(-306.14 -316.26)" style="fill:url(#linear-gradient-45)"/><ellipse cx="17.52" cy="6.35" rx=".67" ry=".91" style="fill:url(#linear-gradient-46)"/><path d="M322.44 319.94a2 2 0 1 1-2.35-.31 1.71 1.71 0 0 1 2.35.31Z" transform="translate(-306.14 -316.26)" style="fill:url(#linear-gradient-47)"/><path d="M328.81 320.07a1.68 1.68 0 0 1-2 1.24c-1-.1-1.8-.82-1.73-1.61a1.71 1.71 0 0 1 2-1.24c1.04.1 1.81.82 1.73 1.61Z" transform="translate(-306.14 -316.26)" style="fill:url(#linear-gradient-48)"/><path d="M333.23 322.45a1.37 1.37 0 1 1-1.36-1.58 1.48 1.48 0 0 1 1.36 1.58Z" transform="translate(-306.14 -316.26)" style="fill:url(#linear-gradient-49)"/><path d="M331.41 327.62a1 1 0 1 1-1-1.19 1.1 1.1 0 0 1 1 1.19Z" transform="translate(-306.14 -316.26)" style="fill:url(#linear-gradient-50)"/><path d="M334.29 326.15a1 1 0 1 1-1-1.27 1.16 1.16 0 0 1 1 1.27Z" transform="translate(-306.14 -316.26)" style="fill:url(#linear-gradient-51)"/><path d="M334 330.53a1 1 0 1 1-1-1 1 1 0 0 1 1 1Z" transform="translate(-306.14 -316.26)" style="fill:url(#linear-gradient-52)"/><path d="M327.12 339.13a1.12 1.12 0 1 1-1.09-.86 1 1 0 0 1 1.09.86Z" transform="translate(-306.14 -316.26)" style="fill:url(#linear-gradient-53)"/><path d="M330.93 338.66c0 .53-.64 1-1.43 1s-1.43-.43-1.43-1 .64-1 1.43-1 1.43.47 1.43 1Z" transform="translate(-306.14 -316.26)" style="fill:url(#linear-gradient-54)"/><ellipse cx="21.44" cy="20.23" rx="1.16" ry=".95" style="fill:url(#linear-gradient-55)"/><path d="M334.4 334.91c.34.54 0 1.38-.8 1.88s-1.7.47-2.05-.06 0-1.38.8-1.88 1.7-.48 2.05.06Z" transform="translate(-306.14 -316.26)" style="fill:url(#linear-gradient-56)"/><path d="M335.5 343c0 .68-.39 1.23-.87 1.23s-.88-.55-.88-1.23.4-1.23.88-1.23.87.59.87 1.23Z" transform="translate(-306.14 -316.26)" style="fill:url(#linear-gradient-57)"/><path d="M340.42 342.69a1.59 1.59 0 1 1-1.58-1.59 1.58 1.58 0 0 1 1.58 1.59Z" transform="translate(-306.14 -316.26)" style="fill:url(#linear-gradient-58)"/><path d="M340.9 347.92a1.83 1.83 0 1 1-1.82-1.75 1.79 1.79 0 0 1 1.82 1.75Z" transform="translate(-306.14 -316.26)" style="fill:url(#linear-gradient-59)"/><path d="M336.51 351.15a1.41 1.41 0 1 1-1.38-1.71 1.58 1.58 0 0 1 1.38 1.71Z" transform="translate(-306.14 -316.26)" style="fill:url(#linear-gradient-60)"/><path d="M337 355.72c0 .83-.49 1.5-1.1 1.5s-1.1-.67-1.1-1.5.49-1.5 1.1-1.5 1.1.67 1.1 1.5Z" transform="translate(-306.14 -316.26)" style="fill:url(#linear-gradient-61)"/><ellipse cx="33.23" cy="37.67" rx="1.23" ry="1.8" style="fill:url(#linear-gradient-62)"/><path d="M344.33 346.65a1.11 1.11 0 1 1-2.2 0 1.11 1.11 0 1 1 2.2 0Z" transform="translate(-306.14 -316.26)" style="fill:url(#linear-gradient-63)"/><path d="M347.73 350.66a1.63 1.63 0 1 1-1.62-1.65 1.63 1.63 0 0 1 1.62 1.65Z" transform="translate(-306.14 -316.26)" style="fill:url(#linear-gradient-64)"/><path d="M345.18 353.18a1.64 1.64 0 1 1-2.5-.84 1.91 1.91 0 0 1 2.5.84Z" transform="translate(-306.14 -316.26)" style="fill:url(#linear-gradient-65)"/><path d="M349.76 353.46c.94.22 1.57 1 1.41 1.66a1.57 1.57 0 0 1-2 .85c-.94-.22-1.57-1-1.41-1.65a1.58 1.58 0 0 1 2-.86Z" transform="translate(-306.14 -316.26)" style="fill:url(#linear-gradient-66)"/><path d="M348.83 358.08a1.11 1.11 0 0 1 1.4.62c.11.49-.34 1-1 1.16a1.12 1.12 0 0 1-1.41-.62c-.11-.49.35-1.01 1.01-1.16Z" transform="translate(-306.14 -316.26)" style="fill:url(#linear-gradient-67)"/><path d="M356.27 354.24c1.39-.31 2.68.14 2.87 1s-.78 1.82-2.18 2.13-2.68-.14-2.87-1 .78-1.82 2.18-2.13Z" transform="translate(-306.14 -316.26)" style="fill:url(#linear-gradient-68)"/><path d="M352.88 350.63c.93-.21 1.79.09 1.92.67s-.52 1.21-1.46 1.42-1.79-.09-1.92-.67.52-1.21 1.46-1.42Z" transform="translate(-306.14 -316.26)" style="fill:url(#linear-gradient-69)"/><path d="M351.86 346.33c1.22-.08 2.26.46 2.32 1.22s-.9 1.45-2.13 1.54-2.27-.46-2.32-1.22.9-1.45 2.13-1.54Z" transform="translate(-306.14 -316.26)" style="fill:url(#linear-gradient-70)"/><path d="M357.91 345.14c1.06 0 1.9.58 1.88 1.23s-.88 1.16-1.94 1.14-1.89-.58-1.88-1.23.89-1.17 1.94-1.14Z" transform="translate(-306.14 -316.26)" style="fill:url(#linear-gradient-71)"/><path d="M362.68 344.4c.88.06 1.56.56 1.52 1.11s-.79.93-1.68.86-1.56-.56-1.51-1.11.79-.93 1.67-.86Z" transform="translate(-306.14 -316.26)" style="fill:url(#linear-gradient-72)"/><path d="M365.69 347.78c1.18.49 1.88 1.48 1.58 2.22s-1.51.92-2.69.42-1.89-1.49-1.58-2.22 1.51-.92 2.69-.42Z" transform="translate(-306.14 -316.26)" style="fill:url(#linear-gradient-73)"/><path d="M361.27 349.4c.78.52 1.15 1.33.83 1.81s-1.21.45-2-.07-1.15-1.33-.83-1.81 1.23-.45 2 .07Z" transform="translate(-306.14 -316.26)" style="fill:url(#linear-gradient-74)"/><path d="M364.22 352.7c1 .66 1.46 1.7 1 2.31s-1.55.58-2.54-.08-1.46-1.7-1.05-2.31 1.6-.62 2.59.08Z" transform="translate(-306.14 -316.26)" style="fill:url(#linear-gradient-75)"/><path d="M362.34 356.37c.64.43.94 1.09.67 1.49s-1 .37-1.63-.06-.94-1.09-.68-1.49 1-.37 1.64.06Z" transform="translate(-306.14 -316.26)" style="fill:url(#linear-gradient-76)"/><path d="M366.38 358.77c.47.72.48 1.54 0 1.82s-1.18-.06-1.65-.78-.47-1.54 0-1.83 1.19.02 1.65.79Z" transform="translate(-306.14 -316.26)" style="fill:url(#linear-gradient-77)"/><path d="M369.92 354.36c.32.79.18 1.6-.32 1.8s-1.15-.28-1.47-1.08-.18-1.6.31-1.8 1.15.28 1.48 1.08Z" transform="translate(-306.14 -316.26)" style="fill:url(#linear-gradient-78)"/><path d="M370.78 350.68c.32.79.18 1.6-.31 1.8s-1.15-.29-1.48-1.08-.18-1.6.32-1.8 1.15.28 1.47 1.08Z" transform="translate(-306.14 -316.26)" style="fill:url(#linear-gradient-79)"/><path d="M374 360.65c.1 1.59-.61 2.93-1.59 3s-1.87-1.17-2-2.75.61-2.93 1.6-3 1.83 1.16 1.99 2.75Z" transform="translate(-306.14 -316.26)" style="fill:url(#linear-gradient-80)"/><path d="M370.75 366c.49 1.15.3 2.32-.41 2.62s-1.67-.39-2.16-1.54-.29-2.31.42-2.61 1.67.37 2.15 1.53Z" transform="translate(-306.14 -316.26)" style="fill:url(#linear-gradient-81)"/><path d="M375.05 367.9c.34.8.21 1.61-.28 1.82s-1.17-.27-1.5-1.07-.21-1.61.28-1.81 1.17.26 1.5 1.06Z" transform="translate(-306.14 -316.26)" style="fill:url(#linear-gradient-82)"/><path d="M373.31 372.23c.49 1.17.3 2.36-.42 2.66s-1.71-.39-2.2-1.56-.31-2.36.42-2.66 1.71.39 2.2 1.56Z" transform="translate(-306.14 -316.26)" style="fill:url(#linear-gradient-83)"/><path d="M376.9 376.29c0 .93-.46 1.69-1 1.69s-1-.75-1.05-1.67.45-1.69 1-1.69 1.04.74 1.05 1.67Z" transform="translate(-306.14 -316.26)" style="fill:url(#linear-gradient-84)"/><path d="M374.09 380.63c0 1.05-.52 1.91-1.17 1.91s-1.19-.84-1.2-1.9.52-1.91 1.17-1.91 1.19.84 1.2 1.9Z" transform="translate(-306.14 -316.26)" style="fill:url(#linear-gradient-85)"/><path d="M357 350.58c.87-.18 1.66.11 1.77.64s-.49 1.12-1.36 1.31-1.66-.11-1.77-.65.45-1.11 1.36-1.3Z" transform="translate(-306.14 -316.26)" style="fill:url(#linear-gradient-86)"/><path d="M358 366.41c0 1.12-.65 2-1.44 2s-1.44-.91-1.44-2 .65-2 1.44-2 1.44.88 1.44 2Z" transform="translate(-306.14 -316.26)" style="fill:url(#linear-gradient-87)"/><path d="M361.36 364.81c-.12.8-.67 1.39-1.24 1.31s-.94-.8-.83-1.6.67-1.4 1.24-1.32.94.8.83 1.61Z" transform="translate(-306.14 -316.26)" style="fill:url(#linear-gradient-88)"/><path d="M360.66 369.94c-.13 1-.8 1.68-1.49 1.59s-1.13-1-1-1.94.81-1.68 1.5-1.58 1.13.99.99 1.93Z" transform="translate(-306.14 -316.26)" style="fill:url(#linear-gradient-89)"/><path d="M357.83 371.76a1 1 0 0 1-.32 1.26c-.38.14-.87-.18-1.08-.72a.94.94 0 0 1 .32-1.25c.38-.15.86.17 1.08.71Z" transform="translate(-306.14 -316.26)" style="fill:url(#linear-gradient-90)"/><path d="M361.21 373.68a1.13 1.13 0 0 1-.37 1.48c-.46.17-1-.2-1.27-.85s-.09-1.3.37-1.47 1.06.16 1.27.84Z" transform="translate(-306.14 -316.26)" style="fill:url(#linear-gradient-91)"/><path d="M363.84 374.48c0 .49-.27.89-.61.9s-.64-.39-.64-.88.26-.89.61-.9.63.4.64.88Z" transform="translate(-306.14 -316.26)" style="fill:url(#linear-gradient-92)"/><path d="M361.78 378.66c-.29.85-1 1.37-1.61 1.16s-.86-1.05-.57-1.9 1-1.37 1.61-1.17a1.47 1.47 0 0 1 .57 1.91Z" transform="translate(-306.14 -316.26)" style="fill:url(#linear-gradient-93)"/><path d="M358.65 380.11c-.19.55-.66.89-1 .76a1 1 0 0 1-.37-1.24c.19-.55.66-.89 1-.76s.55.69.37 1.24Z" transform="translate(-306.14 -316.26)" style="fill:url(#linear-gradient-94)"/><path d="M359.72 382.49c-.19.55-.66.89-1.05.76a.94.94 0 0 1-.36-1.24c.19-.55.65-.89 1-.76a.94.94 0 0 1 .41 1.24Z" transform="translate(-306.14 -316.26)" style="fill:url(#linear-gradient-95)"/><path d="M357.43 385.41c-.21.63-.75 1-1.19.86s-.63-.78-.41-1.41.74-1 1.18-.86a1.08 1.08 0 0 1 .42 1.41Z" transform="translate(-306.14 -316.26)" style="fill:url(#linear-gradient-96)"/><path d="M329.17 329.77c0 2.37-1.5 4.26-3.25 4.22s-3.13-2-3.09-4.35 1.51-4.26 3.26-4.22 3.13 1.98 3.08 4.35Z" transform="translate(-306.14 -316.26)" style="fill:url(#radial-gradient-71)" class="cls-82"/><path d="M328.85 330.29c-.05 2.08-1.38 3.73-3 3.7s-2.87-1.75-2.83-3.82 1.38-3.74 3-3.7 2.87 1.74 2.83 3.82Z" transform="translate(-306.14 -316.26)"/><path d="M328.76 330.47c0 2-1.33 3.55-2.89 3.52s-2.79-1.66-2.75-3.64 1.33-3.56 2.89-3.52 2.79 1.66 2.75 3.64Z" transform="translate(-306.14 -316.26)" style="fill:url(#radial-gradient-72)"/><path d="M325.87 334.05c-1.59 0-2.85-1.69-2.81-3.7s1.36-3.62 2.95-3.59 2.85 1.7 2.81 3.71-1.36 3.62-2.95 3.58Zm.14-7.16c-1.52 0-2.8 1.52-2.83 3.46s1.17 3.55 2.69 3.58 2.8-1.52 2.84-3.46-1.17-3.55-2.71-3.58Z" transform="translate(-306.14 -316.26)"/><path d="M327.82 330.85a1.92 1.92 0 1 1-1.69-2.51 2.19 2.19 0 0 1 1.69 2.51Z" transform="translate(-306.14 -316.26)" style="fill:url(#linear-gradient-97)"/><path class="cls-86" d="M325.8 333.12a2.48 2.48 0 1 1 2.05-2.27 2.2 2.2 0 0 1-2.05 2.27Zm.33-4.75a2.42 2.42 0 1 0 1.66 2.48 2.13 2.13 0 0 0-1.66-2.48Z" transform="translate(-306.14 -316.26)"/><path d="M327.54 331.16a1.55 1.55 0 1 1-1.37-2 1.74 1.74 0 0 1 1.37 2Z" transform="translate(-306.14 -316.26)" style="fill:url(#linear-gradient-98);opacity:.7;mix-blend-mode:screen"/><path d="M327.47 331.11a1.35 1.35 0 1 1-1.2-1.77 1.53 1.53 0 0 1 1.2 1.77Z" transform="translate(-306.14 -316.26)"/><path d="M326.26 329.85a.67.67 0 1 1-.62-.74.68.68 0 0 1 .62.74Z" transform="translate(-306.14 -316.26)" style="fill:url(#radial-gradient-73)" class="cls-88"/><path d="M326.83 332.13a.3.3 0 0 1-.31.29.3.3 0 0 1-.28-.33.32.32 0 0 1 .32-.29.3.3 0 0 1 .27.33Z" transform="translate(-306.14 -316.26)" style="fill:url(#radial-gradient-74)" class="cls-88"/></g></g></svg>