<svg id="Layer_1" data-name="Layer 1" xmlns="http://www.w3.org/2000/svg" width="2100" height="2100"><defs><style>.cls-2{fill:#ffb851}.cls-3{fill:#ce8938}.cls-4{fill:#6f3102}.cls-5{fill:#f09825}.cls-6{fill:#e16f1b}.cls-7{fill:#fff}.cls-8{fill:#d8d5d2}.cls-9{fill:#6c6b69}</style></defs><path style="fill:none" d="M0 0h2100v2100H0z"/><path class="cls-2" d="M1599 2750c75.72 27.32 66.48 82.24 66.48 82.24 80.69-32.12 187.49-63.5 207.41-94.87-64.51-20.93-234.58 4.22-273.89 12.63Z" transform="translate(-950 -944)"/><path class="cls-3" d="M1599 2750c3.72 1.34 7.17 2.76 10.49 4.23 58.25 9.41 148.25-10.55 206.5-2.23-41.94 19.74-117.63 44.09-150.19 76.3a33 33 0 0 1-.32 3.94c80.69-32.12 187.49-63.5 207.41-94.87-64.51-20.93-234.58 4.22-273.89 12.63Z" transform="translate(-950 -944)"/><path class="cls-4" d="M1798.81 2727.75c-77.51 0-175.2 15.45-200.14 20.78l-5.12 1.09 4.92 1.77c73.58 26.55 65.61 80.06 65.52 80.59l-.44 2.62 2.46-1c19.73-7.85 41.33-15.78 62.23-23.44 67.15-24.63 130.57-47.9 145.89-72l1-1.63-1.83-.59c-16.72-5.44-41.79-8.19-74.49-8.19Zm-71.6 79.62c-20.12 7.38-40.89 15-60 22.57.64-11-.9-55-62.82-79.52 31.08-6 121.68-19.68 194.45-19.68 31.15 0 55.25 2.5 71.69 7.44-16.76 22.82-81.08 46.36-143.32 69.19Z" transform="translate(-950 -944)"/><path class="cls-2" d="M1769.78 2836.21c17.43 19.43-14.38 39.07-14.38 39.07s7.91 28.66-7.78 55.53c134.46 6 130 58.73 130 58.73l149.61-120.46-24.9-56.28s-169.8 13.95-232.55 23.41Z" transform="translate(-950 -944)"/><path class="cls-3" d="m2027.25 2869.08-24.9-56.28s-169.82 13.95-232.57 23.41a20.83 20.83 0 0 1 4.25 6.92c9.15 2.09 26.45 3.37 35 6.28-13.07 7.35-32.54 11.22-44.7 18.85a61.31 61.31 0 0 1-8.9 7s7.91 28.66-7.78 55.53c7.8.35 15.11.86 22 1.5 51-8.17 103.25-21.89 155-31.36-24.49 25.87-37 50.09-48.75 79.33a23.82 23.82 0 0 1 1.73 9.26Z" transform="translate(-950 -944)"/><path class="cls-4" d="m2029.08 2869.52-25.79-58.3-1.06.09c-1.7.14-170.59 14.06-232.67 23.43l-2.74.41 1.85 2.06c3.79 4.22 5.36 8.78 4.68 13.56-1.82 12.64-18.57 23.14-18.74 23.24l-.95.59.3 1.08c.07.28 7.56 28.35-7.63 54.38l-1.25 2.14 2.47.1c75.17 3.33 106.3 21.35 119.18 35.88 7.07 8 8.85 15.17 9.29 18.78l3.21 3.21 149-119.92Zm-150.08 117c-.5-4.09-2.47-11.72-9.9-20.17-13.07-14.87-44.33-33.25-119-36.92 12.84-23.83 8.27-48.07 7-53.47 3.75-2.51 17.42-12.41 19.2-24.76a18.41 18.41 0 0 0-3.71-13.89c61.26-8.95 214.55-21.75 228.83-22.94l24 54.27Z" transform="translate(-950 -944)"/><path class="cls-5" d="M1713.12 2668.26c-45.34-8.22-76.06-3.36-81.66 12.7s17.55 21.29 17.55 21.29c93.88 10 216.39-2 223.86-19-48.31 10.46-114.42-6.77-159.75-14.99Z" transform="translate(-950 -944)"/><path class="cls-6" d="M1797.33 2683.48c-54.82 3.4-142.59 5.32-164.45-5.51a15.16 15.16 0 0 0-1.42 3c-5.6 16.06 17.55 21.29 17.55 21.29 93.88 10 216.39-2 223.86-19-22.6 4.9-49.1 3.74-75.54.22Z" transform="translate(-950 -944)"/><path class="cls-4" d="M1838.69 2685.05c-33 0-69-7.19-100.83-13.52-8.66-1.73-16.84-3.36-24.47-4.74a222.53 222.53 0 0 0-39.13-4c-24.54 0-40.25 6.26-44.21 17.63a13.89 13.89 0 0 0 .72 11.77c4.66 8.4 17.38 11.35 18.09 11.5a708.77 708.77 0 0 0 74.18 3.64c69.24 0 144.73-8.78 151.2-23.48l1.18-2.68-2.87.62a162.46 162.46 0 0 1-33.86 3.26ZM1723 2704.38a708.65 708.65 0 0 1-73.7-3.59c-.11 0-12-2.79-16-10a10.9 10.9 0 0 1-.51-9.33c3.52-10.08 18.21-15.63 41.39-15.63a220.24 220.24 0 0 1 38.59 3.91c7.61 1.38 15.78 3 24.42 4.73 31.92 6.36 68.1 13.57 101.42 13.57a172.23 172.23 0 0 0 30.15-2.43c-14.2 10.29-78.02 18.77-145.76 18.77Z" transform="translate(-950 -944)"/><path class="cls-5" d="M1959 2730.14s3.48-17.43 0-47.31 0-68.23 0-68.23l-75.21-38.35s3 29.88.75 54.28-7.22 51.8-33.11 60.26-97.12-2-183.27 5-88.65 20.92-88.65 33.87c3 34.86 61.75 20.42 133.58 13s149.17-2.62 149.17-2.62-15.69 14.57-62.75 31-101 32.62-121.89 47.81-14.44 28.39 0 31.88 51.54-22.41 100.35-35.36 97.11-22.91 131.72-26.65S1955 2769 1955 2769c12 13.45 39.35 19.36 42.33-.06s-38.33-38.8-38.33-38.8Z" transform="translate(-950 -944)"/><path class="cls-6" d="M1959.09 2729.78c.45-2.5 3.15-19.42-.06-47-3.49-29.89 0-68.23 0-68.23l-37.93-19.34c19.39 42.46 24.48 91.67 24.48 138.36a122.13 122.13 0 0 0 13.51-3.79ZM1596.35 2732.13c-1.76 0-15.08-.73-16.49-7.61a32.68 32.68 0 0 0-.32 5.12c3 34.86 61.75 20.42 133.58 13s149.17-2.62 149.17-2.62a49.79 49.79 0 0 1-4.42 3.42c3.34-1.14 8.18-5.54 11.51-7-79.38-26.54-227.09-2.82-273.03-4.31ZM1996.61 2761.78c-1 .57-2.07 1.15-3.22 1.72-18 5.13-35.9-3-50.08-12.91-4.06 17.36-57.37 28.08-78.57 32.47-58.61 12.11-118.29 19.25-173.15 52.16-8 2.68-18.5.56-27 .1-1.42 7.53 4.35 13.22 13.11 15.34 14.44 3.48 51.54-22.42 100.35-35.36s97.11-22.91 131.72-26.65S1955 2769 1955 2769c12 13.45 39.35 19.36 42.33-.06a14.68 14.68 0 0 0-.72-7.16Z" transform="translate(-950 -944)"/><path class="cls-4" d="M1960.69 2729.28c.71-4.37 2.84-20.8-.18-46.63-3.43-29.38 0-67.54 0-67.92l.09-1-78.54-40.05.27 2.72c0 .3 3 30 .75 54-2.38 26-7.92 51.07-32.09 59-7.36 2.41-18.77 3.44-38.15 3.44-9.24 0-19.77-.23-30.91-.47-13.39-.29-28.56-.62-44.6-.62-25.32 0-48 .84-69.26 2.56-83.25 6.74-90 20-90 35.49 1.8 21 23 23.72 41.21 23.72 16.25 0 36.08-2.47 59-5.32 11.25-1.4 22.88-2.84 35-4.1a879.22 879.22 0 0 1 89.85-4.16c26.14 0 46.86.91 55.15 1.34-6.48 4.75-24.11 16.05-59.23 28.31-9.47 3.31-19.23 6.61-28.94 9.9-39.31 13.29-76.44 25.85-93.33 38.11-13.15 9.52-14.78 17.4-13.78 22.4 1.13 5.73 6.47 10.27 14.28 12.16a14.08 14.08 0 0 0 3.3.36c8.11 0 20.63-5.58 36.49-12.65 16.81-7.5 37.73-16.83 61.29-23.08 50.12-13.29 98-23 131.5-26.6 29.16-3.15 41.66-14.75 45.26-18.88 6.85 6.9 17.56 11.6 26.68 11.6 9.48 0 15.69-5 17-13.71 2.93-18.8-31.49-36.67-38.11-39.92Zm35.21 39.41c-1.5 9.73-9.47 11.19-14.08 11.19-8.89 0-19.44-4.89-25.66-11.89l-1.27-1.43-1.08 1.58c-.11.16-10.87 15.42-44.25 19-33.6 3.63-81.69 13.35-132 26.68-23.79 6.32-44.83 15.7-61.74 23.24-15.53 6.92-27.8 12.39-35.27 12.39a10.85 10.85 0 0 1-2.6-.28c-6.64-1.6-11.15-5.28-12-9.83-1.14-5.78 3.32-12.66 12.58-19.38 16.52-12 53.44-24.48 92.53-37.7 9.72-3.29 19.48-6.59 29-9.91 46.82-16.35 62.62-30.71 63.27-31.31l2.55-2.37-3.47-.22c-.25 0-25.15-1.55-59.26-1.55a882.52 882.52 0 0 0-90.16 4.17c-12.12 1.26-23.77 2.71-35 4.11-22.86 2.84-42.61 5.29-58.66 5.29-25.54 0-37-6.28-38.24-20.86 0-11.28 0-25.31 87.28-32.38 21.2-1.71 43.78-2.55 69-2.55 16 0 31.16.33 44.53.62 11.16.24 21.7.46 31 .46 19.72 0 31.41-1.07 39.08-3.57 25.81-8.45 31.66-34.57 34.14-61.55 1.84-20 .15-43.92-.51-51.86l71.9 36.66c-.51 6.28-3.06 40.53.09 67.53 3.42 29.25.06 46.67 0 46.84l-.23 1.15 1.06.5c.37.22 40.25 19.13 37.47 37.23Z" transform="translate(-950 -944)"/><path class="cls-4" d="M1944.82 2757.3c.21.39 5.18 9.59 10.25 13.88l1.93-2.28c-4.64-3.9-12.18-11.6-12.18-11.6Z" transform="translate(-950 -944)"/><path class="cls-7" d="M2619.39 2182.32c-6-24.65-41.33-11.45-98.11-19.48s-117.53-33-117.53-33-459.17-179.09-519.93-241.84-29.38-167.33 36.36-270.42 149.9-256.48 145.92-372-72.71-225.1-214.92-232.07-185.48 63.71-185.48 63.71-16.94 182.31 31.87 231.11c41.83 32.87 123.51 46.81 172.31 41.83-11 71.72-53.78 138.45-172.31 273.91s-190.24 221.12-232.07 337.66-12 230.08 65.73 299.22c101.6 142.86 329.19 357.65 511.46 383.05s275.65-79.18 289.85-106.08c47.06-9.71 71-32.12 76.94-59.76 26.14-14.19 44.82-22.41 60.27-72.46 33.39-16.43 70.46-41.58 73.44-70.47 40.84-21.91 78.69-47.81 67.73-68.47 26.9-16.69 21.92-38 21.92-38s40.83-21 36.85-37.11-24.15-16.05-50.3-9.33Z" transform="translate(-950 -944)"/><path class="cls-8" d="M1807 2414.22c-75 7.9-201.26-76.52-214-116.86 9-3 20.91-3 29.88-6-69-30.35-127.71-78.58-164.55-144.6a250.27 250.27 0 0 0 72.91 114.14c38.7 54.42 95.7 119.27 161.5 180.12 33.69-2.44 82.52-9.94 114.26-26.8Z" transform="translate(-950 -944)"/><path class="cls-8" d="M2669.69 2191.58c-4-16.15-24.15-16-50.3-9.26-3.36-13.86-16-15.75-36.53-16.18 4.37 23.4-35 25.53-52.15 34.11 20.91 0 49.1-9.52 54.32 4.48 9.54 25.58-36.36 38.85-64 47.07 21.11 2.94 40.84-.75 46.22-2.24 17.93 23.9-34.9 42.09-58.42 45.38 18.48-3.07 44.86-2.2 41.44 7.84-9.13 26.71-67.58 35.77-96 50.61 12.42.3 18.55 1.85 19.34 4.73 3.32 12.08-47.48 55.28-87.32 65.24 41.06 11.46-16.16 52-64.08 49.73 18.63 37.92-136.12 61.77-184-41.29-86.65 56.11-223.2 31.55-290.74-44.8-40.87 68.73-195.75 5-272.9-70 114.07 137.23 308.46 304.74 468.09 327 182.28 25.4 275.65-79.18 289.85-106.08 47.06-9.71 71-32.12 76.94-59.76 26.14-14.19 44.82-22.41 60.27-72.46 33.39-16.43 70.46-41.58 73.44-70.47 40.84-21.91 78.69-47.81 67.73-68.47 26.9-16.69 21.92-38 21.92-38s40.86-21.04 36.88-37.18ZM1954.54 1412.89c-26.89 86.66-89.64 155.38-122.51 242-29.88 77.69-32.87 155.38-17.93 236.06 19-6.59 38.39-12.26 58-17.32-44.24-63.61-12.87-160.48 48.1-256.09 65.74-103.09 149.9-256.48 145.92-372-2.62-76-33.29-149.45-94.46-192.78 49.64 66.29 44.66 167.56-22.08 213.38-96.23 66.07-263 66.06-286.21-91.22 1.9 51.55 9.89 109 34.22 133.37 41.83 32.87 123.51 46.81 172.31 41.83-.58 3.81-1.27 7.59-2 11.38 40.16-2.11 103.28 1.5 86.64 51.39Z" transform="translate(-950 -944)"/><path class="cls-9" d="M2647 2176.53c-7.15 0-15.85 1.3-26.57 4-4.75-15.58-21.75-15.74-47.1-16-14.16-.15-31.78-.32-51.85-3.16-55.93-7.9-116.57-32.67-117.2-32.93-4.59-1.79-459.55-179.67-519.4-241.47-67.14-69.33-17.18-184.32 36.55-268.58 100.1-157 149.27-282.42 146.15-372.87-3.55-103-62.34-226-216.34-233.51-6.57-.33-13.12-.49-19.47-.49-126.14 0-167 64.26-167.35 64.91l-.18.29v.35c-.7 7.47-16.45 183.57 32.43 232.43 37.72 29.63 105.45 43.13 152.43 43.13 6.72 0 13.12-.27 19-.8-11.2 69.57-53.31 136-171.67 271.25-116.66 133.33-190.3 221-232.35 338.14-40.58 113.05-15.29 228.27 66 300.73 102.4 143.91 329 358 512.38 383.52a403.45 403.45 0 0 0 55.55 4c145.94 0 222.11-85.9 235.45-110.19 55-11.56 72.45-38.89 77.27-60.1l2.71-1.46c24.69-13.33 42.55-23 57.49-70.93 31.74-15.7 69.88-40.56 73.6-70.58 54.35-29.25 76.13-51.2 68.26-68.88 23.07-14.9 22.3-33 21.64-37.77 6.43-3.43 40.56-22.46 36.65-38.29-2.35-9.8-10.46-14.74-24.08-14.74Zm-14.86 50.84-1 .53.26 1.13c.19.83 4.34 20.57-21.24 36.44l-1.19.73.66 1.24c8.45 15.95-13.51 37.69-67.12 66.46l-.7.37-.08.79c-3.18 30.74-46.86 56.6-72.62 69.28l-.57.29-.19.61c-14.62 47.33-32.08 56.75-56.25 69.8l-3.92 2.12-.14.67c-6.36 29.43-32.57 49.69-75.78 58.61l-.7.14-.33.63c-12.17 23.06-87.42 109.21-233.14 109.22a400.74 400.74 0 0 1-55.14-3.93c-182.58-25.44-408.41-238.95-510.45-382.43l-.22-.25c-80.48-71.63-105.51-185.66-65.33-297.6 41.87-116.63 115.36-204.11 231.79-337.19 119.88-137 161.83-203.73 172.67-274.66l.29-1.91-1.92.2c-6.34.64-13.29 1-20.65 1-46.48 0-113.42-13.29-150.45-42.38-46.73-46.72-32.27-220.39-31.47-229.55 3.06-4.59 44.55-63.2 164.62-63.2 6.3 0 12.8.16 19.33.48 152 7.45 210 128.9 213.49 230.63 3.1 89.83-45.91 214.71-145.68 371.16-54.31 85.17-104.67 201.54-36.18 272.27 60.3 62.26 501.71 234.86 520.44 242.16.61.25 61.59 25.16 117.89 33.12 20.27 2.87 38 3 52.24 3.19 25.6.25 41.05.4 44.63 15.17l.36 1.47 1.46-.38c11.12-2.86 20-4.25 27.25-4.25 12.22 0 19.17 4.06 21.23 12.41 2.98 12.27-25.07 29.72-36.14 35.41Z" transform="translate(-950 -944)"/><path class="cls-7" d="M1990 2297.05s93.75 58.58 122.88 17.5c-23.9-17.93-68-47.81-68-47.81s-6.3 22.53-54.88 30.31Z" transform="translate(-950 -944)"/><path class="cls-8" d="M1990 2297.05s75.89 47.4 112.32 27c-30.45-2.05-58.16-19.13-84.22-34.58a123.26 123.26 0 0 1-28.1 7.58Z" transform="translate(-950 -944)"/><path class="cls-9" d="m2045.77 2265.5-1.7-1.15-.57 2c-.07.22-6.88 21.75-53.71 29.25l-3.94.64 3.39 2.11c2.11 1.32 52.19 32.34 90.68 32.34 15.52 0 27-5.13 34.2-15.25l.84-1.19-1.16-.87c-23.65-17.78-67.59-47.58-68.03-47.88Zm34.15 62.17c-32 0-73.55-22.78-85.66-29.83 38.07-7.05 48.77-23.27 51.37-28.82 7.86 5.34 43.92 30 65.2 45.83-6.64 8.51-17.03 12.82-30.91 12.82Z" transform="translate(-950 -944)"/><path class="cls-7" d="M2042.69 2277.94s105.08 96.47 207.67 51.22c-43.32-20.34-137.45-72.7-137.45-72.7s-49.68 5.54-70.22 21.48Z" transform="translate(-950 -944)"/><path class="cls-8" d="M2064.2 2267.18c-8.26 2.88-15.95 6.44-21.51 10.76 0 0 97.67 89.64 196.61 55.54-63.3-1.6-126.39-24.2-175.1-66.3Z" transform="translate(-950 -944)"/><path class="cls-9" d="m2113.64 2255.15-.42-.23h-.47c-2.05.23-50.35 5.73-71 21.79l-1.39 1.09 1.3 1.19c.7.64 70.32 63.68 150.69 63.69a144.4 144.4 0 0 0 58.59-12.2l3-1.32-3-1.4c-42.73-20.04-136.36-72.08-137.3-72.61Zm78.74 84.59c-73 0-137.25-53-147.31-61.7 19.67-13.93 62.58-19.44 67.55-20 6.75 3.75 91.58 50.78 134.11 71.09a141.42 141.42 0 0 1-54.35 10.61Z" transform="translate(-950 -944)"/><path class="cls-7" d="M2098.47 2263.5s108.57 78.28 184.76 77.74c46.82-2.54 49.31-35.41 49.31-35.41-52.79-16.43-170.82-78.11-170.82-78.11Z" transform="translate(-950 -944)"/><path class="cls-8" d="M2098.47 2263.5s108.57 78.28 184.76 77.74c14.33-.78 24.5-4.41 31.72-9-69.61-7.82-138.47-38.52-192.15-82.46Z" transform="translate(-950 -944)"/><path class="cls-9" d="m2162.41 2226.4-.72-.38-66 37.33 1.9 1.36c1.08.78 109.07 78 184.83 78h.88c47.58-2.58 50.69-36.45 50.72-36.79l.08-1.18-1.13-.36c-52.05-16.18-169.38-77.38-170.56-77.98Zm120.81 113.34h-.79c-69.27 0-166.36-65.79-181.17-76.11l60.49-34.22c9.93 5.16 118.45 61.32 169.15 77.46-.9 5.82-7.28 30.68-47.68 32.87Z" transform="translate(-950 -944)"/><path class="cls-7" d="m2217 2204.17-63.21 35.83s108.57 78.29 184.76 77.74c46.82-2.54 46.28-41.43 46.28-41.43-52.83-16.48-167.83-72.14-167.83-72.14Z" transform="translate(-950 -944)"/><path class="cls-8" d="m2176.43 2227.14-22.64 12.86s108.57 78.29 184.76 77.74c19.92-1.08 31.24-8.74 37.71-17.19-73.86 4.64-139.61-33.55-199.83-73.41Z" transform="translate(-950 -944)"/><path class="cls-9" d="M2385.27 2274.83c-52.08-16.21-166.43-71.44-167.58-72l-.71-.34-66 37.31 1.9 1.36c1.08.78 109.08 78 184.84 78h.87c47.7-2.58 47.7-42.54 47.69-42.94v-1.08Zm-46.73 41.37h-.78c-69.28 0-166.37-65.79-181.18-76.11l60.51-34.23c9.7 4.67 115.64 55.49 166.22 71.49-.31 6.25-3.73 36.65-44.77 38.85Z" transform="translate(-950 -944)"/><path class="cls-7" d="m2257.85 2175.35-61.27 32.87s112.32 74.36 188.51 73.81c46.81-2.54 46.28-33.47 46.28-33.47-52.79-16.44-173.52-73.21-173.52-73.21Z" transform="translate(-950 -944)"/><path class="cls-8" d="m2217.45 2197-20.87 11.2s112.32 74.36 188.51 73.81c23.58-1.28 35.14-9.76 40.81-17.87-71.41 12.01-151.18-26.69-208.45-67.14Z" transform="translate(-950 -944)"/><path class="cls-9" d="M2431.81 2247.13c-52.09-16.21-172.12-72.56-173.33-73.13l-.68-.32-64.13 34.41 2.08 1.38c1.12.74 112.75 74.06 188.5 74.06h.92c47.7-2.58 47.7-34.66 47.69-35v-1.08Zm-46.73 33.41h-.83c-69.13 0-169-62.12-184.74-72.2l58.38-31.32c9.79 4.58 121.16 56.56 171.93 72.62-.48 5.29-4.82 28.73-44.74 30.9Z" transform="translate(-950 -944)"/><path class="cls-7" d="M2273.77 2140.35 2235 2183.7s112.31 74.36 188.51 73.81c46.81-2.54 46.27-33.47 46.27-33.47-52.78-16.44-196.01-83.69-196.01-83.69Z" transform="translate(-950 -944)"/><path class="cls-8" d="M2235 2183.7s112.31 74.36 188.51 73.81a72.91 72.91 0 0 0 23.3-4.68c-70.7-2.34-139.86-45.92-199.28-83.13Z" transform="translate(-950 -944)"/><path class="cls-9" d="M2470.2 2222.61c-52.09-16.21-194.36-82.94-195.79-83.61l-1-.47-40.71 45.47 1.44 1c1.12.74 112.75 74.06 188.5 74.06h.92c47.7-2.58 47.69-34.66 47.69-35v-1.08Zm-46.73 33.39h-.83c-70.19 0-172.06-64-185.4-72.62l36.9-41.22c12.83 6 143.31 66.85 194.08 82.94-.39 5.4-4.42 28.73-44.75 30.9Z" transform="translate(-950 -944)"/><path class="cls-7" d="M2359.43 2091.19c-48.81-15.44-70.92 6.11-70.92 6.11s139.64 114.41 213.85 123.37c0 0-52.29-75.67-142.93-129.48Z" transform="translate(-950 -944)"/><path class="cls-8" d="M2489.41 2204.73c-63.4-37.46-118.5-86-184-116.2-11.46 3.46-16.92 8.77-16.92 8.77s139.64 114.41 213.85 123.37c0 0-4-5.8-11.7-15.3Z" transform="translate(-950 -944)"/><path class="cls-9" d="m2360.19 2089.9-.31-.14a112.08 112.08 0 0 0-33.57-5.64c-26.12 0-38.34 11.62-38.84 12.11l-1.2 1.17 1.3 1.06c1.39 1.15 140.83 114.78 214.61 123.69l3.29.4-1.88-2.73c-.53-.76-53.52-76.58-143.4-129.92Zm-69.32 7.39c3.7-2.82 15.29-10.18 35.44-10.18a109 109 0 0 1 32.5 5.45c79.41 47.16 129.8 111.94 140.28 126.14-69.69-11.17-193.6-109.63-208.22-121.41Z" transform="translate(-950 -944)"/><path class="cls-7" d="m2293.19 2096.2-43.3 50.18s161.61 109.46 237.81 108.92c46.81-2.54 14.66-34.63 14.66-34.63-98.11-48.41-209.17-124.47-209.17-124.47Z" transform="translate(-950 -944)"/><path class="cls-8" d="m2264.31 2129.67-14.42 16.71s161.61 109.46 237.81 108.92c19.82-1.08 25.46-7.45 25.4-14.44l-2.77-.27c-63.55-4.94-173.33-59.86-246.02-110.92Z" transform="translate(-950 -944)"/><path class="cls-9" d="M2503 2219.33c-96.89-47.81-207.87-123.6-209-124.36l-1.1-.75-45.27 52.46 1.39.94c6.58 4.46 162.06 109.17 238.08 109.17h.65c14.7-.8 23.47-4.63 26-11.39 4.21-11-9.82-25.19-10.42-25.79Zm8 25c-2.12 5.56-10 8.75-23.35 9.47h-.56c-71.35 0-219.05-97.09-235-107.73l41.33-47.89c11.86 8 116.19 78.36 208 123.7 1.58 1.59 12.93 13.8 9.58 22.45Z" transform="translate(-950 -944)"/><path class="cls-7" d="M2150.26 1923.85c-91.88-61.25-177.79-84.41-286.85-56.77s-113.55 134.46-113.55 134.46l86.14 198.71c115.55 143.43 216.39 89.27 218.63 74.33 46 17.55 70.6 13.45 76.57-.75 52.3 12 48.56-24.65 48.56-24.65s20.54 7.47 29.88 1.87 7.1-24.28 7.1-24.28 28.38 8.22 35.48-3-1.49-21.29-1.49-21.29 45.94 8 53-4.35-9.34-33.75-37.73-50.18c21.66 10.46 59.76 14.19 67.23-3s-12-35.86-58.26-53c36.6 13.45 85.9 25.4 93.37 4.49s-126.19-111.33-218.08-172.59Z" transform="translate(-950 -944)"/><path class="cls-8" d="M2134.6 2027.24s58.4 19 74.51 7.71c9.38-6.76.79-25.86-8.11-32.5 4.79 16.03-.11 34.42-66.4 24.79ZM2036.53 2045.57s37.91 33.29 6.16 48c-19.81 9.21-46.5.75-49.86-1.68 16.43-1.82 65.43-4.68 43.7-46.32ZM2082.43 2118.17s53.27 23.44 71 3.27c10-17.77-14.56-37-14.56-37s28.13 46.87-56.44 33.73ZM2051.78 2125.39s15.56 23.57-12.32 38.51c-18.18 9.71-53.91-6.42-71.84-24.62 40.38 15.32 80.17 15.46 84.16-13.89ZM2175.85 2099s24.22 11.21 49.37 11.21 43.19-1.36 47.93-9.72 4.47-23-6.83-36.06c1.6 18.14-7.85 29.28-33.62 32.41s-56.85 2.16-56.85 2.16ZM2127.11 2158.17s32.91 15.12 56.57 13.9 42.26-7.34 45.52-18.73 0-22.23-8.34-36.59c.12 16.27-12.85 39.5-46.69 38.73s-56.28-9.12-56.28-9.12Z" transform="translate(-950 -944)"/><path class="cls-8" d="M2066.78 2182.14a82 82 0 0 0 35.37 14.74c21.59 3.56 44.41 5.61 53.53-1.11s10.21-13.65 10.15-23a105.89 105.89 0 0 0-14.81-5.46s-10.87 24.24-84.24 14.83Z" transform="translate(-950 -944)"/><path class="cls-8" d="M2092.5 2195.77s4.61 21.2-10.78 29.64-45.38 10.31-92.81-22.92c24.65 7.47 91.13 28.15 90.56-11.08 4.81.27 13.03 4.36 13.03 4.36Z" transform="translate(-950 -944)"/><path class="cls-8" d="M1904.37 2207s52.68 39.17 76.57 33.58 31.74-20.62 31.74-20.62l-11.27-8.87s-11.76 33.55-97.04-4.09ZM2275.76 2092.43s43.12 15 63.5 14.63 33.8-2.61 27.64-17.55c-12 6-48.35 6.8-96.88-22.16 4.34 6.41 8.34 15.11 5.74 25.08ZM2334.28 2134.05s6.32 36.9-62.75 15.52c-26.15-11.57-43.22-19.9-43.22-19.9l-10-17.38a199.09 199.09 0 0 0 47.76 22c57 17.4 68.21-.24 68.21-.24ZM2182 2172.24s47.06 27.4 72.74 30.87 48.16 1.53 50.06-6.23-4.3-29-26.76-41.18c11.85 11.77 14.08 22.81 8.22 29.45-12.51 14.19-85.21-14.2-85.21-14.2a58.81 58.81 0 0 1-19.05 1.29Z" transform="translate(-950 -944)"/><path class="cls-8" d="M2151.93 2198.21s49.36 27.87 73.15 30.39 36.74-4.44 25.66-26.11c-6.1 11.21-18.23 16.84-37.65 11.22s-50.13-24.42-50.13-24.42-3.39 7.39-11.03 8.92Z" transform="translate(-950 -944)"/><path class="cls-8" d="M2092.5 2200.5s62.46 43.58 87.27 48.68 40.21 8.84 37-22.41c-5 10.83-18.53 13.33-40.92 6.54s-73.69-36.29-73.69-36.29l-9.64-1.25Z" transform="translate(-950 -944)"/><path class="cls-8" d="M2060.67 2229.77s50.62 39.62 72.22 44.52 50.74 1.41 46.88-25.11c-18.55 11.33-37.48 24.77-99.73-22-6.04 3.44-19.37 2.59-19.37 2.59ZM1835.51 2199.12l.5 1.13c88.74 110.16 168.81 103.76 202.2 88.1-24.44-1.07-47.35-10.18-68.73-20.87-11.2 20.68-94.27-25.19-133.97-68.36Z" transform="translate(-950 -944)"/><path class="cls-8" d="M1915.7 2215.19c11.89 23.79 38.6 40.19 59.44 55 19.75 9.46 40.77 17.14 63.07 18.11 9-4.23 14.61-9.13 16.06-12.6-4.58-3.25-9.07-6.67-14.91-7.83-42.51 15.05-95.52-30.27-123.66-52.68Z" transform="translate(-950 -944)"/><path class="cls-8" d="M2054.27 2275.75a5.82 5.82 0 0 0 .26-.81c-1.49-.69-3-1.4-4.43-2.11 1.4.94 2.79 1.94 4.17 2.92ZM2039.36 2267.92a22 22 0 0 1 2.23.57c-.52-.28-1.06-.54-1.58-.83Z" transform="translate(-950 -944)"/><path class="cls-8" d="M2112.91 2265.49c-28.14 7.34-73.55-6.48-110.56-32.18a22.17 22.17 0 0 1-5.41 3.55 203 203 0 0 0 43.07 30.8c.52.29 1.06.55 1.58.83a32.55 32.55 0 0 1 8.51 4.34c1.47.71 2.94 1.42 4.43 2.11a2.92 2.92 0 0 0 .11-.36c43.91 16.78 68.32 13.74 75.62 1.06-3.26-2.45-17.35-10.15-17.35-10.15Z" transform="translate(-950 -944)"/><path class="cls-9" d="M2151.09 1922.61c-99-66-185.17-83-288.05-57-63.94 16.21-92.31 59.85-104.85 93.35-8.81 23.54-6.84 42.63-6.84 42.63.05-1.06 5.67-106 112.43-133.08 102-25.85 187.41-8.93 285.65 56.57 67.33 44.88 225 150 217.56 170.81a13.11 13.11 0 0 1-7.3 7.57c-19.42 9.09-65.32-6-84.16-12.95l-1 2.8c32.15 11.93 52 24.91 57.36 37.52a16.49 16.49 0 0 1 0 13.53c-1.64 3.76-5 6.62-10.06 8.49-14.93 5.55-39.76 1.17-55.15-6.26l-1.4 2.64c27.75 16.07 43.73 36.76 37.18 48.14-5.39 9.37-39 5.8-51.49 3.63l-4.07-.71 2.68 3.15c.08.09 7.8 9.37 1.37 19.52-5.32 8.41-26.21 4.55-33.81 2.35l-2.16-.62.27 2.24c0 .18 2 17.77-6.39 22.82-8.62 5.17-28.4-1.92-28.6-2l-2.23-.81.23 2.36c0 .12 1 11.63-7.34 19-7.79 6.87-21.05 8.23-39.39 4l-1.23-.28-.48 1.15c-6.47 15.35-34.37 15.33-74.66-.07l-1.74-.66-.27 1.84c-.62 4.11-11.39 12.74-29.23 17.58-24.31 6.58-84.06 12-156.18-58.7-10-9.78-32.92-32-32.92-32 65.08 80.78 123.63 97.35 160.7 97.35a112.47 112.47 0 0 0 29.18-3.71c16.8-4.56 28.22-12.46 30.87-18.3 40.23 15.11 68.58 14.72 76.48-1 18.75 4.1 32.5 2.41 40.87-5 7.24-6.4 8.31-15.19 8.38-19.28 5.59 1.76 21 5.93 29.1 1s8.28-18.29 8-23.58c6.88 1.71 28.57 6.11 35.08-4.17 5.23-8.25 2.55-16 .33-20.08 11.36 1.71 44.75 5.66 51.25-5.62s-4.45-28.92-26.38-44.58c14.78 4.29 32.39 5.76 44.2 1.37 5.83-2.16 9.79-5.56 11.76-10.1a19.35 19.35 0 0 0 0-15.89c-3.94-9.26-14.44-18.33-31.3-27.09 20.57 5.61 44.55 9.73 57.65 3.6a16.12 16.12 0 0 0 8.84-9.27c6.79-19-82.53-83.39-218.74-174.2Z" transform="translate(-950 -944)"/><path class="cls-9" d="m1912 2211.41-3.84-.31c.6.81 57.86 77.06 124.26 77.06a84.06 84.06 0 0 0 10.47-.64l-.37-3c-69.03 8.62-129.91-72.27-130.52-73.11ZM1997.28 2235.65l-2.2 2c.26.29 26.5 28.65 64.74 40l.85-2.86c-37.42-11.1-63.13-38.87-63.39-39.14ZM2058.39 2231.8c1.86 1.39 46.1 34.14 74 43.82l1-2.83c-27.51-9.52-72.79-43.05-73.24-43.39ZM2092.5 2201.41c.44.36 44.35 36.19 90.31 50.31l.87-2.85c-45.38-13.95-88.85-49.41-89.28-49.77ZM2151.18 2199.4c.37.24 37.67 23.66 69.11 29.79l.57-2.94c-30.89-6-67.72-29.14-68.08-29.37ZM2181.63 2171l-1.45 2.61c.42.24 39.75 22 70 30.29l6.24-1.53c-30.28-6.79-74.34-31.17-74.79-31.37ZM2228.31 2131.17c.23.11 23.42 11.14 41.81 21l1.41-2.63c-18.46-9.93-42.79-21.39-43-21.5Z" transform="translate(-950 -944)"/><path class="cls-5" d="M1601.94 1142.09s-69.21 60.64-145.41 80.06c-36.17 9.22-53.29 4-83.66-3s-42.83-.5-42.83 10.95c2.49 26.4 49.92 38.93 76.19 44.82 8 30.88 116 33.37 178.79 36.86s112.55-3.49 112.55-3.49c-39.84-142.41-95.63-166.2-95.63-166.2Z" transform="translate(-950 -944)"/><path d="M1605.19 1144c-1.14-.63-3.25-1.88-3.25-1.88s-69.21 60.64-145.41 80.06c-36.17 9.22-53.29 4-83.66-3-27.66-6.35-40.42-1.54-42.49 8 12.85-17.23 57.29 18.92 103.61 15.69 68.51-4.79 147.54-65.16 171.2-98.87Z" transform="translate(-950 -944)" style="fill:#f6c17c"/><path class="cls-6" d="M1604.57 1142.09s-6.52 14.2 8.84 38c24.92 38.6 19.3 67.4.49 74.46-71.21 30.44-280.13 17.92-281.9-31.23a12.14 12.14 0 0 0-2 6.82c2.49 26.4 49.92 38.93 76.19 44.82 8 30.88 116 33.37 178.79 36.86s112.55-3.49 112.55-3.49c-39.8-142.45-92.96-166.24-92.96-166.24Z" transform="translate(-950 -944)"/><path class="cls-4" d="m1602.53 1140.71-.87-.36-.7.62c-.69.6-69.83 60.63-144.8 79.74-13.11 3.34-24.13 4.9-34.67 4.9-14.29 0-26.7-2.89-42.4-6.54l-5.89-1.36a100.9 100.9 0 0 0-22-2.92c-19.67 0-22.61 9.61-22.6 15.47 2.73 29 57.22 41.61 76.49 46 9.1 28.37 97.39 32.86 162 36.14 6.25.32 12.24.63 17.87.94 11.68.65 23.76 1 35.89 1 44.46 0 76.63-4.43 77-4.48l1.69-.24-.46-1.64c-39.65-141.57-94.25-166.28-96.55-167.27Zm18.3 170.57c-12.08 0-24.09-.33-35.73-1-5.63-.32-11.63-.62-17.88-.94-60.75-3.09-152.56-7.76-159.54-34.8l-.23-.88-.89-.2c-17.92-4-72.47-16.28-75-43.37 0-10.2 10.67-12.34 19.62-12.34a98.49 98.49 0 0 1 21.38 2.84l5.88 1.36c15.89 3.7 28.44 6.61 43.08 6.61 10.8 0 22-1.58 35.41-5 71.41-18.2 137.47-73.1 145.26-79.73 7 3.67 57 34 93.5 163.18a634.54 634.54 0 0 1-74.86 4.27Z" transform="translate(-950 -944)"/><path class="cls-4" d="M1624.34 1252.07c.17.1 17.43 10.74 21.35 28.18 0 0 .79-7.57-.81-10.58a51 51 0 0 0-7.84-10.83 23.25 23.25 0 0 0-12.7-6.77Z" transform="translate(-950 -944)"/><path class="cls-4" d="m1404.14 1272.94-.46 3c42.43 6.65 79.14 9.08 110.16 9.08 84.34 0 126.61-18 127.18-18.25l-1.2-2.73c-.77.29-78.82 33.46-235.68 8.9Z" transform="translate(-950 -944)"/><path d="M1569 1202.44c-7.38 3.34-12.66 7.56-11.81 9.44s7.51.7 14.89-2.63 12.66-7.56 11.81-9.44-7.48-.7-14.89 2.63Z" transform="translate(-950 -944)" style="fill:#4c2000"/><path class="cls-4" d="M1581.46 1197.42c-3.09 0-8 1.37-13 3.66-1.5.68-14.65 6.79-12.56 11.42.54 1.18 1.82 1.77 3.83 1.77 3.1 0 8-1.37 13-3.66 1.51-.68 14.65-6.79 12.56-11.42-.53-1.19-1.82-1.77-3.83-1.77Zm-10 10.47c-4.63 2.09-9.16 3.39-11.81 3.39a4.81 4.81 0 0 1-1-.08c.64-1.28 4.38-4.43 10.93-7.4 4.64-2.09 9.16-3.39 11.81-3.39a4 4 0 0 1 1 .09c-.6 1.27-4.34 4.43-10.89 7.39Z" transform="translate(-950 -944)"/><path d="M1776.37 1062.54c12.37-4.54 73.05-39.73 106.28 1.68 0 0-3-15.1-16.06-22.43-18.18-10.22-29.75-6-50.39-.32-18.7 5.1-39.83 21.07-39.83 21.07Z" transform="translate(-950 -944)"/><path class="cls-9" d="M2258.85 2052.83c14.36 20.49 19.2 35.43 14.39 44.41-7 13.05-33.78 12.41-53.33 11.94l-5.69-.13 1.68 2.41c13.17 19 16.87 33.65 11 43.69-10.69 18.23-48.94 16-60.42 14.85l-1.73-.17.09 1.74c.53 9.77-1.6 16.69-6.53 21.15-10.56 9.56-32.65 6.13-52.14 3.11-4.65-.72-9-1.41-13.24-1.92l-2-.25.4 2c2.43 12.25 0 21.35-7.17 27-12.89 10.2-40 8.17-69.18-5.14l-1.23-.56-.68 1.16c-7 11.89-16.71 18.84-28.71 20.65-20.15 3-43.48-8.8-60-19.68-12.61-8.31-23.45-14-23.45-14 1.78 1.62 41.32 37.2 76.69 37.2a49.18 49.18 0 0 0 7.19-.52c12.54-1.88 22.68-8.92 30.15-20.94 29.69 13.28 57.49 15 71.06 4.23 7.61-6 10.56-15.64 8.61-27.93 3.55.47 7.25 1 11.13 1.65 20.16 3.12 43 6.67 54.61-3.85 5.25-4.75 7.79-12.08 7.57-21.8 13.61 1.17 50.5 2.43 61.58-16.47 6.27-10.68 3.08-25.63-9.47-44.49 21.43.5 48 1.11 55.88-13.52 3.34-6.23 2.86-14.46-1.51-24.89-2.81-6.64-15.55-20.93-15.55-20.93Z" transform="translate(-950 -944)"/><path class="cls-9" d="M2009 2218.13a108.22 108.22 0 0 0 16.87 7.1l.87-2.86c-12.57-3.81-27.88-13.33-28-13.43a29.27 29.27 0 0 0 10.26 9.19ZM2088.51 2195.72a53.55 53.55 0 0 0 13.59 2.49l.11-3c-14.3-.53-30.2-10-30.36-10.08 0 .02 6.83 7.56 16.66 10.59ZM2159.38 2171.48a67 67 0 0 0 12.7 2l.07-3c-11.56-.28-35.14-8.88-35.38-9 0 .02 11.48 7.39 22.61 10ZM2209.7 2110.9a124.48 124.48 0 0 0 15.52 1.39v-3c-12.39 0-39.27-5.57-39.54-5.63 0 .01 12.32 5.6 24.02 7.24ZM2051.78 2125.39c.43 1 10.41 25-10.9 36.19-21.79 11.42-67.17-16.19-67.63-16.47a68.91 68.91 0 0 0 20.14 13.59c10.53 4.49 23.28 8.63 34.51 8.63a30.67 30.67 0 0 0 14.37-3.11c11.74-6.16 14.89-15.95 15.06-24.3.18-8.53-5.55-14.53-5.55-14.53ZM2036.53 2045.57s24.34 23.44 16.41 39-49.73 11.49-49.73 11.49a128.76 128.76 0 0 0 20.33 1.7c12.55 0 27.16-2.24 32.06-11.83 9.04-17.73-17.92-39.45-19.07-40.36ZM2135.31 2081.14c.29.23 28.77 23.92 15.65 40.49-13.36 16.88-68-3.25-68.53-3.46 0 0 12.7 7.87 27.34 10.79a109.22 109.22 0 0 0 20.8 2.35c9.61 0 18.14-2 22.73-7.82 7.08-8.94 4.12-19.21-1.1-27.65-5.78-9.36-16.89-14.7-16.89-14.7ZM2201 2002.45c.16.22 16.28 21.51 6.46 31.67-8.38 8.67-55.43-2-72.86-6.88 0 0 17.67 7.92 33.84 10.66a152.61 152.61 0 0 0 24.39 2.47c7.65 0 13.84-1.14 16.77-4.17 5.08-5.25 4.66-12.54 2.51-19.16-2.75-8.49-11.11-14.59-11.11-14.59ZM1859.94 1349.38l.14 3c79.53-3.71 114.12-67.47 114.46-68.11a224.63 224.63 0 0 1-32.47 33.25 135.71 135.71 0 0 1-82.13 31.86ZM1528.71 2260.67c28.2 23.64 69.61 30.3 70 30.36 0 0-40.53-9.54-68.1-32.65ZM2530.71 2199.14a180.82 180.82 0 0 0 40.05-3.24 428.52 428.52 0 0 0 49.09-12.16l-.92-2.84c-40.09 12.88-87.75 18.19-88.22 18.24ZM2527.31 2253.82a238.56 238.56 0 0 0 47.15-5.76c20.07-4.55 43-10.87 60.81-19l-1.23-2.72c-40.04 18.22-106.04 27.39-106.73 27.48ZM2524.94 2292.42a199.75 199.75 0 0 0 40.94-7.92c15.78-4.82 33.58-11 48.24-18.08l-1.29-2.69c-34.74 16.74-87.36 28.57-87.89 28.69ZM2499.76 2346.64c1.6-.29 39.28-7.2 50.51-13.58l-1.48-2.59c-4.78 2.71-15 5.61-24.89 8a161 161 0 0 0-24.14 8.17ZM2424.67 2426.84c.31-.15 31.56-14.41 49-21.43l-1.12-2.78c-7.15 2.89-16.63 7-25.34 10.84a117.34 117.34 0 0 0-22.54 13.37ZM2350.15 2493.12a188.4 188.4 0 0 0 37.35-6.49c8.75-2.56 17.68-5.46 25.06-8.46l-1.13-2.77c-22.87 9.31-60.9 17.6-61.28 17.72ZM2304.42 2540.15a32.64 32.64 0 0 0 14 1.59 151.17 151.17 0 0 0 21.59-4l-.82-2.87c-12.72 3.68-34.55 5.26-34.77 5.28Z" transform="translate(-950 -944)"/><path class="cls-5" d="M1888.81 2809.31c-58.77 2-123.51 6.48-123 25.91.5 10 67 9 132.09 0 68.61-6 99.48-14.18 99.48-14.18l-11.44-21.27s-38.37 7.54-97.13 9.54Z" transform="translate(-950 -944)"/><path class="cls-6" d="M1766.29 2832.3a8 8 0 0 0-.49 2.92c.5 10 67 9 132.09 0 68.61-6 99.48-14.18 99.48-14.18l-4.19-7.79c-74.73 13.19-164.62 18.69-226.89 19.05Z" transform="translate(-950 -944)"/><path class="cls-4" d="M1985.64 2798.3c-.38.08-38.91 7.54-96.88 9.51-65 2.22-125 7.08-124.45 27.48.1 2.11.42 8.52 41.36 8.52 25.88 0 59.57-2.59 92.34-7.1 68-5.92 99.44-14.14 99.74-14.22l1.83-.49-12.86-23.91Zm-88 35.44c-32.72 4.5-66.26 7.09-92 7.09-37.66 0-38.37-5.46-38.38-5.65-.52-20.21 85-23.13 121.57-24.38 52.8-1.8 89.6-8.14 96.27-9.36l10 18.61c-7.57 1.8-38.87 8.59-97.42 13.69Z" transform="translate(-950 -944)"/><path class="cls-5" d="M2119.14 2821.77c-10.46-13.2-25.9-29.88-25.9-29.88s2.87-23.42-1.24-59.26c-4.48-39-3-58.77 1.49-94.13s2-55.28-14.44-75.7c-30.38-2-77.44-10-77.44-10s23.15 69.48 9.71 146.42-28.76 76.94-25 118.4c-40 10.83-279.76 42.21-273 99.73 4.48 23.16 46.31 14.19 112.8-3.74s172.56-47.8 172.56-47.8-142.68 94.87-118.78 128.48c15.69 12.7 44.82-9 84.42-42.58s112.3-87.15 125.25-108.56c10.95 6.47 17.43 21.91 34.61 23.9s24.4-3.49 25.15-10.71-19.73-21.34-30.19-34.57Z" transform="translate(-950 -944)"/><path class="cls-6" d="M2089.75 2830.49c-23.53 18.17-183.76 159.68-211.68 160.47a14.31 14.31 0 0 0 1.77 3.37c15.69 12.7 44.82-9 84.42-42.58s112.3-87.15 125.25-108.56c10.95 6.47 17.43 21.91 34.61 23.9s24.4-3.49 25.15-10.71a5.56 5.56 0 0 0-.52-2.62c-10.19 6.86-46.45-8.63-59-23.27ZM2093.35 2790.88c.48-4.8 2.26-26.71-1.35-58.25-4.48-39-3-58.77 1.49-94.13s2-55.28-14.44-75.7c-7.5-.49-30.38-1.34-39-2.35 37 15 30.06 95 31 122.84.48 14.19 1.32 35.89 2.24 48.18 2.24 29.88 12.31 66.62 12.31 66.62.23.12 5.78-2.95 7.75-7.21ZM1721.47 2912.91a24.54 24.54 0 0 1-8-1.54 19.89 19.89 0 0 0-.23 6c4.48 23.16 46.31 14.19 112.8-3.74 55.9-15.07 139.78-38.59 165.06-45.7 5.62-2.94 12.07-4.27 18-7.21-95.64-2.97-209.56 51.44-287.63 52.19Z" transform="translate(-950 -944)"/><path class="cls-4" d="M2135.2 2836.2c-5.34-5-10.86-10.26-14.89-15.36-9.36-11.81-22.86-26.58-25.51-29.46.43-4.17 2.38-26.7-1.32-58.92-4.47-39-3-58.5 1.49-93.77 4.79-37.78 1.07-57.16-14.76-76.82l-.41-.51-.66-.05c-29.95-2-76.81-9.86-77.29-9.94l-2.45-.41.79 2.36c.23.69 22.88 70 9.66 145.68-6.17 35.26-12.8 54.53-17.64 68.61-5.78 16.81-9.32 27.08-7.51 48.93-7.91 2-22.36 4.75-40.41 8.16-83.22 15.71-238.12 45-232.5 93 2 10.17 10.65 15.11 26.53 15.11 18.86 0 46.59-6.48 88.13-17.68 54.62-14.73 136.9-37.79 163.76-45.34-25.81 17.84-107.75 76.89-114.16 111.54-1 5.41-.13 10.09 2.57 13.9l.28.29a18.24 18.24 0 0 0 11.79 4c16.42 0 39.76-17.09 74.53-46.61 11.68-9.91 26.08-21.43 41.32-33.62 35.86-28.69 72.91-58.34 83.42-74a60.56 60.56 0 0 1 9.18 8.32c6.2 6.41 13.22 13.67 24.81 15a59.8 59.8 0 0 0 6.84.42c16.85 0 19.56-8.72 19.95-12.46.54-5.15-6.56-11.87-15.54-20.37Zm-10.91 29.41c-10.52-1.22-16.87-7.78-23-14.13-3.56-3.69-6.93-7.17-11-9.58l-1.28-.75-.76 1.26c-9 14.86-48.6 46.56-83.56 74.52-15.26 12.21-29.67 23.74-41.38 33.68-28.49 24.19-55.48 45.9-72.6 45.9a15.16 15.16 0 0 1-9.75-3.21c-2.16-3.13-2.79-6.88-2-11.46 7.23-39.06 119.32-114 120.46-114.75l7.9-5.26-9.14 2.58c-1.06.3-106.83 30.08-172.54 47.8-41.29 11.14-68.82 17.58-87.35 17.58-14.42 0-21.92-4-23.58-12.57-5.27-45.14 153.7-75.16 230.1-89.58 19.08-3.6 34.15-6.45 41.84-8.54l1.21-.32-.11-1.25c-2-22.09 1.49-32.2 7.25-49 4.88-14.17 11.56-33.58 17.76-69.06 12-68.58-5.21-132-9-144.81 9.9 1.63 48.35 7.76 74.54 9.54 14.89 18.75 18.35 37.56 13.72 74.07-4.51 35.51-6 55.19-1.5 94.48 4 35.22 1.28 58.68 1.25 58.91l-.09.69.47.51c.16.16 15.52 16.79 25.83 29.79 4.17 5.26 9.76 10.56 15.17 15.67 7.39 7 15 14.2 14.64 17.86-.79 7.58-9.38 11.07-23.5 9.43Z" transform="translate(-950 -944)"/><path class="cls-4" d="M1984.44 2812.82a60.39 60.39 0 0 0 4.21 20s-1.07-10.41-1.23-20Z" transform="translate(-950 -944)"/><path d="M1700.56 1117.07c-6-31.37-29.39-46.31-62.25-39.84s-46.82 35.86-37.35 62.25 27.88 35.86 40.83 56.78 17.18 39.71 31.13 72.09 24.65 40 24.65 40-10.48-33.85-2-111.55c3.65-33.39 10.96-48.35 4.99-79.73Z" transform="translate(-950 -944)" style="fill:#2f2f2f"/><path d="M1643.87 1076.35c-1.82.23-3.67.51-5.56.88-32.87 6.48-46.82 35.86-37.35 62.25s27.88 35.86 40.83 56.78c11.21 18.1 15.9 34.63 26 59.72-14.28-86.12-45.51-96-53.5-122.47-6.46-21.35 7.33-50.26 29.58-57.16Z" transform="translate(-950 -944)" style="fill:#535353"/><path d="M1695.58 1196.76c3.64-33.35 11-48.31 5-79.69-5.59-29.32-26.41-44.28-55.94-40.82 70.5 28.33 14.88 130.75 29.05 190.23a29.32 29.32 0 0 1 2.66 9.41c12.24 26 21.24 32.42 21.24 32.42s-10.5-33.85-2.01-111.55Z" transform="translate(-950 -944)" style="fill:#1b1b1b"/><path d="M1652.78 1074.25a76.28 76.28 0 0 0-14.76 1.52c-15.78 3.1-28.36 11.69-35.44 24.16a48.15 48.15 0 0 0-3 40.06c5.83 16.26 15.13 26.35 24.13 36.11 5.8 6.3 11.8 12.81 16.84 20.94 8.14 13.15 12.8 25.43 18.69 41 3.39 8.92 7.22 19 12.34 30.91 13.94 32.38 24.7 40.27 25.16 40.59l3.58 2.54-1.29-4.2c-.11-.34-10.29-34.56-1.94-110.95 1.08-9.86 2.51-18.26 3.76-25.67 3-18 5.46-32.13 1.21-54.46-5.18-27.04-23.13-42.55-49.28-42.55Zm45.1 96.5c-1.27 7.45-2.7 15.9-3.79 25.84-6.66 61-1.78 94.77.77 106.94-4.2-4.82-11.74-15.29-20.57-35.78-5.09-11.81-8.91-21.89-12.28-30.78-6-15.71-10.66-28.11-19-41.5-5.19-8.38-11.28-15-17.18-21.39-9.2-10-17.9-19.41-23.52-35.1a45.19 45.19 0 0 1 2.82-37.58c6.64-11.7 18.51-19.77 33.41-22.7a73.61 73.61 0 0 1 14.19-1.46c24.57 0 41.45 14.62 46.31 40.11 4.2 21.8 1.83 35.75-1.16 53.4Z" transform="translate(-950 -944)"/><path class="cls-7" d="M1842.49 2373.56s69 208.3 216.64 200.2c104.36-5.72 87.4-203.19 87.4-203.19Z" transform="translate(-950 -944)"/><path class="cls-8" d="M2146.53 2370.57h-5c-8.35 48.79-16 101.52-61.45 129.93-55.7 37.14-117.16 23.5-172.21-7.19 35.4 44.7 85.54 84 151.3 80.4 104.32-5.71 87.36-203.14 87.36-203.14Z" transform="translate(-950 -944)"/><path class="cls-9" d="M2145 2370.7c.1 1.23 10 123.66-36.3 177-13.23 15.23-29.95 23.5-49.69 24.58-144.73 7.93-214.45-197.11-215.14-199.18 0 0 3.77 20.65 16.77 47.16a434.56 434.56 0 0 0 33.52 57.3c44.9 64.23 99 97.93 156.79 97.93q4.1 0 8.22-.23c20.59-1.13 38-9.74 51.79-25.6 34.41-39.62 38.37-116.19 37.95-155.17-.11-14.44-3.91-23.79-3.91-23.79Z" transform="translate(-950 -944)"/><path class="cls-8" d="M1877.53 1156.49c-6.65 39.51-25.43 56.87-57 56.87s-62.75-13.3-62.75-53.36 22-97.46 63.81-97.46c53.13 0 61.06 63.46 55.94 93.95Z" transform="translate(-950 -944)"/><path d="M1829.23 1081.47c-38.28-3.74-81.94 39.69-68.49 102.44 2.94 13.73 21.69 27.29 53.86 29 15.53.84 40.88 1.85 53.27-12.59 14.5-13.78 20.19-108.4-38.64-118.85Z" transform="translate(-950 -944)"/><path d="M1829.23 1088.69c-38.28-3.74-80.86 38.34-67.42 101.09 3 13.74 20.62 28.64 52.79 30.38 15.53.84 38.85.13 51.23-14.31 14.51-13.85 22.23-106.7-36.6-117.16Z" transform="translate(-950 -944)" style="fill:#cce9ff"/><path d="M1872.41 1133.05c.71 76.84-88.19 87.35-112 49 .37 2.54.79 5.1 1.35 7.7 3 13.74 20.62 28.64 52.79 30.38 15.53.84 38.85.13 51.23-14.31 8.51-8.03 14.64-42.96 6.63-72.77Z" transform="translate(-950 -944)" style="fill:#a6c8dd"/><path d="M1829.37 1087.2c-19-1.86-39.46 7.64-53.26 24.71-16.57 20.5-22.17 48.27-15.76 78.19 3.09 14.41 21 29.76 54.17 31.56 2.94.15 5.65.23 8.29.23 20.72 0 35.58-5.07 44-15 9-8.57 15.73-45.5 6.24-77-5.05-16.82-16.71-37.89-43.68-42.69Zm35.33 117.67c-8 9.31-22.08 14-41.89 14-2.58 0-5.24-.07-8.13-.23-31.38-1.7-48.65-16.33-51.41-29.2-6.21-29-.83-55.9 15.16-75.68 12.07-14.93 29.28-23.84 46-23.84 1.54 0 3.09.08 4.49.21 25.36 4.51 36.44 24.57 41.27 40.61 8.94 29.55 3.12 65.92-5.49 74.13Z" transform="translate(-950 -944)"/><ellipse cx="866.89" cy="229.14" rx="34.29" ry="39.64"/><path d="M1786.49 1174.45v1c0 19 13.72 34.46 30.65 34.46s30.65-15.43 30.65-34.46a37.32 37.32 0 0 0-.22-4c-14.96 15.68-43.1 17.15-61.08 3Z" transform="translate(-950 -944)"/><path d="M1816.89 1132c-19.73 0-35.79 18.46-35.79 41.13s16.06 41.13 35.79 41.13 35.79-18.45 35.79-41.13-16.06-41.13-35.79-41.13Zm0 79.27c-18.08 0-32.8-17.11-32.8-38.14s14.72-38.14 32.8-38.14 32.8 17.11 32.8 38.14-14.69 38.15-32.8 38.15Z" transform="translate(-950 -944)"/><path d="M1821.29 1154.41c-11.49-.85-21.51 9.87-22.38 23.95s7.76 26.19 19.25 27 21.5-9.87 22.37-24-7.75-26.1-19.24-26.95Z" transform="translate(-950 -944)"/><path class="cls-7" d="M1808.9 1150.32c-4.87-1-9.57 2.45-10.49 7.8s2.26 10.52 7.13 11.55 9.57-2.45 10.5-7.79-2.27-10.53-7.14-11.56ZM1802 1184c-2-.46-4 1.14-4.45 3.56s.93 4.75 3 5.2 4-1.14 4.46-3.56-.92-4.76-3.01-5.2Z" transform="translate(-950 -944)"/></svg>