<svg id="Layer_2" data-name="Layer 2" xmlns="http://www.w3.org/2000/svg" width="318.67" height="341.81"><defs><style>.cls-1{fill:#6d7e99}.cls-2{fill:#839ab4}.cls-3{fill:#b3c3dd}.cls-4{fill:#283749}.cls-6{fill:#fff}.cls-12{fill:#808c8b}.cls-16{fill:#af4d48}</style></defs><path class="cls-1" d="m359.81 359.36.31-25.29s-11.59-7.53-31.2-3.28-33.08 25.88-38.09 43.09-1.55 40.75 4.27 41.79c7-.74 13.21-15.25 23.13-19.57s18.65-3.72 29.51-13 12.07-23.74 12.07-23.74Z" transform="translate(-188.64 -214.74)"/><path class="cls-2" d="M294.77 403.83c8.64-1.09 10.26-10.92 14.35-17.54 1.92-3 5.64-6.75 9.78-5.87 18.53 3.43 33.6-7 41.45-21.57l-.23-24.78s-11.59-7.53-31.2-3.28-33.08 25.88-38.09 43.09a71.49 71.49 0 0 0-1.83 27.69 6.89 6.89 0 0 0 5.77 2.26Z" transform="translate(-188.64 -214.74)"/><path class="cls-3" d="M328.81 334.23a59.24 59.24 0 0 1 27.07-2.15c-5-1.88-14.32-4-27-1.29-19.61 4.26-33.08 25.88-38.09 43.09a71.49 71.49 0 0 0-1.79 27.69c-1.31-27.31 12.11-59.83 39.81-67.34Z" transform="translate(-188.64 -214.74)"/><path class="cls-4" d="M294.51 415.86a5.39 5.39 0 0 1-2.42-2.32c-4.15-6.68-5.75-25.51-1.6-39.76 5.42-18.6 19.38-39.21 38.35-43.33a53.79 53.79 0 0 1 15.69-1.14c10 .8 15.4 5.05 15.4 5.05S348.22 327 329 331.13c-18.69 4.06-32.47 24.44-37.83 42.85-4.1 14.08-2.55 32.63 1.52 39.19a4.24 4.24 0 0 0 2.43 2.15c3.38-.39 6.74-4.29 10.28-8.41s7.7-9 12.7-11.13a73.74 73.74 0 0 1 9.64-3.23c6.47-1.83 12.58-3.56 19.79-9.71 10.63-9.07 11.93-23.37 11.94-23.51s-.64 14.78-11.49 24c-7.32 6.25-13.8 8.08-20.05 9.85a70.94 70.94 0 0 0-9.55 3.2c-4.85 2.11-8.89 6.8-12.45 10.94-3.82 4.44-7.11 8.27-10.78 8.65H295a2.46 2.46 0 0 1-.49-.11Z" transform="translate(-188.64 -214.74)"/><path class="cls-1" d="M279.35 340.44a74.51 74.51 0 0 1 51.48 57.74c6 34.32-12.29 75.84-54.26 81.86-1.63-13.91-7.66-35.24-23.19-47.3S213 418.59 205.2 425.9c-3.13 5.39 9.56 4.69 11.65 17.91s3.31 37.57 23.13 42.61c-19.13 9.74-17.19 36-17.56 43.83-.7 14.61-7.66 18.44-7.48 23.31 1.74 4.87 21.39 3.3 36.35-7.13s24.52-33.4 26.26-50.62c22.44 3 78.44 2.79 121.58-38.61s43-85.22 43-116.76c17.16-39.89 63.78-47.77 64.82-55.77-.7-14.61-38.61-41.74-95.66-21.57-24-26.78-55.31-47.66-95.66-48S242.94 235.27 236 277c-16.35.35-45.74 7.83-47 23.66s26.27 21.91 35.48 21.91c-7.65 7.48-10.35 14.7-8.87 20.35s12.79 11.83 27.66 10.09 29.79-10.11 36.08-12.57Z" transform="translate(-188.64 -214.74)"/><path class="cls-2" d="M370.25 440.16c27.14-19.48 46.62-44.53 52.18-77.23 4.18-22.26 4.87-43.83-1.39-64.7-5.12-21-23.94-47.89-39.13-61.45-18.75-13-40.69-21.46-66.27-21.68-40.35-.35-72.7 20.17-79.66 61.91-16.35.35-45.74 7.83-47 23.66s26.27 21.91 35.48 21.91c-7.65 7.48-10.35 14.7-8.87 20.35s12.79 11.83 27.66 10.09 29.77-10.12 36.06-12.58a74.51 74.51 0 0 1 51.48 57.74c4.66 26.55-5.24 57.38-29.39 72.79a15.56 15.56 0 0 0 3.42-.9c22.3-8.35 45.26-14.61 65.43-29.91Z" transform="translate(-188.64 -214.74)"/><path class="cls-3" d="M193.54 295.45c11.83-10.43 30.62-16.7 46.62-11.83-.7-32.69 26.43-57.74 57-63.31a119.58 119.58 0 0 1 59.67 2.9 112.58 112.58 0 0 0-41.23-8.11c-40.35-.35-72.7 20.17-79.66 61.91-16.35.35-45.74 7.83-47 23.66a12.49 12.49 0 0 0 1.87 7.63c-.81-5.21-.32-10.18 2.73-12.85Z" transform="translate(-188.64 -214.74)"/><path class="cls-2" d="M447.48 299.63c14.61-7 29.22-10.44 45.91-12.53 4.18-.69 13.22-4.17 9.05-9.74-2.16-3.08-4.45-5.75-6.75-8.43-15.18-11.19-44.77-19.44-83.16-6.25 7.45 10.92 14.83 21.85 21.73 32.77 2.74 4.18 8.35 6.96 13.22 4.18Z" transform="translate(-188.64 -214.74)"/><path class="cls-3" d="M479.48 263.45a65.9 65.9 0 0 1 14.52 4.26c-15.64-10.54-44.44-17.73-81.42-5 1.09 1.59 2.17 3.19 3.25 4.78 18.98-8.49 42.38-7.08 63.65-4.04Z" transform="translate(-188.64 -214.74)"/><path class="cls-2" d="M276.57 480c-1.63-13.91-7.66-35.24-23.19-47.3s-40.38-14.11-48.18-6.8c-3.13 5.39 12.46 3.13 14.55 16.35s6.84 37.12 26.67 42.17c-25.51 7.68-23.63 38-24 45.83-.61 12.83-6 17.34-7.25 21.55 8.52 4.75 26.24-5.19 34-12.62 17.74-16.9 22.5-30.61 28.53-48.93a.64.64 0 0 1 .19-.13c-.24-3.38-.55-6.76-.84-10.16Z" transform="translate(-188.64 -214.74)"/><path class="cls-3" d="m276.86 480 .3.89-.08-.93ZM227.63 424.85c13.92 3.48 27.83 11 34.09 20.18 6.68 10.5 10.75 22 14.66 33.54-1.87-13.91-8-34.19-23-45.83-15.54-12.06-40.36-14.15-48.18-6.84a2.39 2.39 0 0 0-.4 1.45c5.54-4.3 16.03-3.63 22.83-2.5Z" transform="translate(-188.64 -214.74)"/><path class="cls-4" d="M222.54 556.55c-4.45 0-7.27-1-7.93-2.88v-.1c-.07-2 .95-3.74 2.23-6a34.63 34.63 0 0 0 5.25-17.34c0-.84.05-1.88.07-3.1.13-10.3.4-31.57 16.9-40.61-17.26-5-20-25-21.9-38.31-.22-1.55-.42-3-.63-4.36-1.14-7.19-5.47-10.17-8.62-12.34-2.54-1.74-4.55-3.12-3-5.8l.06-.08c3-2.79 8.42-4.32 15.3-4.32 11.7 0 24.47 4.27 33.33 11.14 17.86 13.87 22.3 39.17 23.28 47.19a60.52 60.52 0 0 0 41-24.76c11.38-15.66 16.12-36.88 12.61-56.64-4.7-26.72-24.76-49.25-51.13-57.43-1.4.55-3.24 1.4-5.36 2.38-7.61 3.52-19.11 8.82-30.67 10.18a44.17 44.17 0 0 1-5.11.3c-12.44 0-21.58-5.53-22.92-10.65-1.56-6 1.41-13.08 8.37-20.1-7.68-.25-23.62-3.76-31.07-11.81a13.46 13.46 0 0 1-3.92-10.47c1.24-16.16 31.06-23.55 47-24 6.59-38.78 36.08-61.93 78.94-61.93h1c35.24.3 67.46 16.43 95.76 47.95a118.88 118.88 0 0 1 39.38-7.14c15.35 0 29.91 3.67 41 10.34 9.3 5.6 15.25 12.79 15.54 18.75-.37 2.87-5.51 5.43-13.3 9.3-15 7.46-40 19.93-51.52 46.56v.18c0 31.81 0 75.38-43.12 116.76-36.09 34.64-80.56 39.81-103.85 39.81a140.76 140.76 0 0 1-17.66-1.05c-1.85 17.29-11.45 40.09-26.37 50.5-9.73 6.84-21.55 9.88-28.94 9.88Zm-7.26-3.06c.58 1.48 3.29 2.36 7.26 2.36 7.28 0 18.93-3 28.55-9.71 14.85-10.36 24.38-33.18 26.12-50.36v-.36l.36.05a138.58 138.58 0 0 0 17.92 1.09c23.19 0 67.45-5.14 103.36-39.61 42.92-41.18 42.91-84.57 42.91-116.26v-.39c11.58-26.91 36.81-39.47 51.88-47 7.31-3.64 12.6-6.27 12.92-8.71-.48-9.86-20.07-28.37-55.84-28.37a118.34 118.34 0 0 0-39.36 7.18l-.22.08-.16-.18c-28.2-31.47-60.3-47.58-95.4-47.89h-1c-42.6 0-71.87 23-78.3 61.63l-.05.29H236c-15.66.34-45.4 7.52-46.62 23.34a12.82 12.82 0 0 0 3.74 9.94c7.5 8.09 24.42 11.6 31.39 11.6h.86l-.61.59c-7.2 7-10.32 14.14-8.78 20 1.27 4.87 10.14 10.13 22.25 10.13a45.19 45.19 0 0 0 5-.29c11.45-1.34 22.88-6.62 30.45-10.12 2.2-1 4.09-1.88 5.52-2.44l.12-.05h.11c26.67 8.22 47 31 51.72 58 3.51 20-1.24 41.36-12.7 57.18a61.27 61.27 0 0 1-41.85 25.09l-.36.05v-.36c-.88-7.52-5.14-33.16-23.06-47.07-8.74-6.78-21.34-11-32.9-11-6.67 0-11.92 1.45-14.79 4.09-1.13 2 .12 3 2.81 4.84 3.26 2.24 7.73 5.32 8.91 12.81.22 1.35.42 2.81.64 4.36 1.85 13.34 4.66 33.49 22.24 38l.89.23-.82.42c-16.9 8.6-17.17 30.1-17.31 40.42 0 1.22 0 2.27-.07 3.12a35.21 35.21 0 0 1-5.33 17.65c-1.24 2.19-2.21 3.88-2.17 5.63Z" transform="translate(-188.64 -214.74)"/><ellipse cx="106.04" cy="50.48" rx="13.22" ry="17.17" style="fill:#cccdce"/><path class="cls-6" d="M307.9 265.22c0 9.49-26.44 9.49-26.44 0s5.92-17.17 13.22-17.17 13.22 7.69 13.22 17.17Z" transform="translate(-188.64 -214.74)"/><path class="cls-4" d="M294.68 282.75c-7.5 0-13.59-7.87-13.59-17.53s6.09-17.52 13.59-17.52 13.59 7.86 13.59 17.52-6.1 17.53-13.59 17.53Zm0-34.35c-7.09 0-12.86 7.55-12.86 16.82s5.77 16.83 12.86 16.83 12.85-7.55 12.85-16.83-5.76-16.82-12.85-16.82Z" transform="translate(-188.64 -214.74)"/><path d="M303.19 269.2c0 5.06-3.31 9.16-7.4 9.16s-7.4-4.1-7.4-9.16 3.31-9.16 7.4-9.16 7.4 4.1 7.4 9.16Z" transform="translate(-188.64 -214.74)" style="fill:#0081cc"/><path d="M289.55 271.75c.69 1.7 2.28 5.42 6.24 5.53s6.1-4.22 6.33-6.37c-2.38 2.89-8.93 3.8-12.57.84Z" transform="translate(-188.64 -214.74)" style="fill:#00b3cc"/><path d="M295.79 278.71c-4.29 0-7.77-4.27-7.77-9.51s3.48-9.5 7.77-9.5 7.77 4.26 7.77 9.5-3.48 9.51-7.77 9.51Zm0-18.32c-3.88 0-7 3.95-7 8.81s3.16 8.81 7 8.81 7-3.95 7-8.81-3.12-8.81-7-8.81Z" transform="translate(-188.64 -214.74)" style="fill:#004c72"/><path d="M299.74 269.2c0 2.7-1.77 4.88-3.95 4.88s-4-2.18-4-4.88 1.77-4.88 4-4.88 3.95 2.19 3.95 4.88Z" transform="translate(-188.64 -214.74)"/><path class="cls-6" d="M296.51 265a2.68 2.68 0 1 1-2.67-2.72 2.7 2.7 0 0 1 2.67 2.72ZM293.09 269.54a1.34 1.34 0 1 1-1.34-1.36 1.36 1.36 0 0 1 1.34 1.36ZM300.46 273.28a1.34 1.34 0 1 1-1.34-1.36 1.36 1.36 0 0 1 1.34 1.36Z" transform="translate(-188.64 -214.74)"/><path d="M360.86 440.75c29.34-36.56 26.77-63.94 14.43-98.64-8.69-24.46-36.05-51-59.3-57.09-11.83-5.74-26.26-7.83-35.83 2.43-20.87 20.87-58.27 33.05-81.28 28.09 8.5 4.94 20.21 7 25.62 7-7.65 7.48-10.35 14.7-8.87 20.35s12.79 11.83 27.66 10.09 29.77-10.12 36.06-12.58a74.51 74.51 0 0 1 51.48 57.74c6 34.32-12.29 75.84-54.26 81.86a2.93 2.93 0 0 0 .11 3.69c27.57 4.91 63.15-16.75 84.18-42.94Z" transform="translate(-188.64 -214.74)" style="fill:#c3d1d1"/><path d="M375.29 342.11c-8.69-24.46-36.05-51-59.3-57.09-11.83-5.74-26.26-7.83-35.83 2.43-20.87 20.87-58.27 33.05-81.28 28.09 8.5 4.94 20.21 7 25.62 7-7.65 7.48-10.35 14.7-8.87 20.35 1.37 5.22 11.11 10.88 24.3 10.35 17.54-3.83 33.41-13.62 50.32-20.26 9-3.48 18.78-2.09 28.52-.7-9 2.79-16.7 10.44-12.52 19.48.69 1.39 3.48 2.79 4.87 4.18 1.67 2.34 2.54 5.17 3.54 7.86a73.35 73.35 0 0 1 16.17 34.34c6 34.32-12.29 75.84-54.26 81.86a2.93 2.93 0 0 0 .11 3.69c27.57 4.87 63.15-16.79 84.18-43 29.34-36.5 26.77-63.88 14.43-98.58Z" transform="translate(-188.64 -214.74)" style="fill:#dbe7ff"/><path class="cls-12" d="M284.79 484.76a47.15 47.15 0 0 1-8.17-.69h-.11l-.08-.09a3.27 3.27 0 0 1-.15-4.12l.09-.12h.15a60.53 60.53 0 0 0 41.38-24.81c11.36-15.71 16.1-36.93 12.59-56.69-4.7-26.72-24.76-49.25-51.13-57.43-1.4.55-3.24 1.4-5.36 2.38-7.61 3.52-19.11 8.82-30.67 10.18a44.17 44.17 0 0 1-5.11.3c-12.44 0-21.58-5.53-22.92-10.65-1.56-6 1.41-13.08 8.37-20.1-5.9-.2-16.94-2.42-25-7.07l-1.9-1.11 2.15.46a53 53 0 0 0 11.15 1.1c23.59 0 52.95-12.24 69.8-29.1a23 23 0 0 1 17.52-7.32 43.85 43.85 0 0 1 18.71 4.82c11.21 2.95 23.74 10.67 35.2 21.73 11.26 10.86 20.11 23.83 24.28 35.57 5.09 14.31 10.07 31.31 8.43 48.76-1.57 16.74-8.86 32.69-22.92 50.2-20.66 25.79-52.09 43.8-76.3 43.8Zm-7.93-1.36a46.44 46.44 0 0 0 7.93.67c24 0 55.21-17.91 75.79-43.54 28.74-35.8 27.23-62.17 14.39-98.3-8.64-24.29-36.24-50.87-59.07-56.88a43.3 43.3 0 0 0-18.47-4.77 22.33 22.33 0 0 0-17 7.11c-17 17-46.54 29.3-70.3 29.3a57 57 0 0 1-9.11-.69 60.3 60.3 0 0 0 23.5 5.94h.86l-.61.59c-7.2 7-10.32 14.14-8.78 20 1.27 4.88 10.14 10.13 22.25 10.13a45.19 45.19 0 0 0 5-.29c11.45-1.34 22.88-6.62 30.45-10.12 2.2-1 4.09-1.88 5.52-2.44l.12-.05h.11c26.67 8.22 47 31 51.72 58 3.51 20-1.24 41.36-12.7 57.18a61.28 61.28 0 0 1-41.7 25.07 2.57 2.57 0 0 0 .1 3.09Z" transform="translate(-188.64 -214.74)"/><path class="cls-4" d="m442.48 346.27-.69-.06c1.15-14.36-5.24-30.76-5.3-30.92 0 0 7.15 16.45 5.99 30.98ZM423.74 284c-.06-.13-6-13.74-15.64-23.86l.51-.48c9.71 10.2 15.13 24.34 15.13 24.34Z" transform="translate(-188.64 -214.74)"/><path class="cls-12" d="m278.35 341.23-.28-.64a62.64 62.64 0 0 1 23.33-5.48 72.6 72.6 0 0 0-23.05 6.12ZM224.59 322.93h-.09v-.69h.09c17.44 0 43.33-3.44 67.73-19.77l.38.57c-24.54 16.43-50.57 19.89-68.11 19.89Z" transform="translate(-188.64 -214.74)"/><path d="M230.88 322.43c18.8-1.05 38.47-5.84 56.2-16.26-10.28 17.34-21.88 29.83-48.66 36.66-19.35 4.91-21.11-8.07-7.54-20.4Z" transform="translate(-188.64 -214.74)" style="fill:#840300"/><path d="M287.08 306.17c-15.58 9.16-32.67 14-49.35 15.71-5.57 5.86-12 15.9-7 22a30.11 30.11 0 0 0 7.72-1.06c26.75-6.82 38.35-19.31 48.63-36.65Z" transform="translate(-188.64 -214.74)" style="fill:#ed7f7a"/><path d="M269.38 317.71c-12.39.66-22.94 7.42-35.1 8.26-4.29 5.75-7.54 13.07-3.58 17.92a30.11 30.11 0 0 0 7.72-1.06c2.81-.71 5.44-1.49 7.93-2.33 10.14-5.42 19.25-12.71 23.03-22.79Z" transform="translate(-188.64 -214.74)" style="fill:#ff9f96"/><path class="cls-16" d="M231 344.24h-.42l-.1-.12c-4.88-6 .75-15.84 7-22.47l.09-.09h.12c18.22-1.91 34.78-7.18 49.21-15.67l1.17-.69-.69 1.16c-10.52 17.75-22.37 30.1-48.88 36.83a31.23 31.23 0 0 1-7.5 1.05Zm-.08-.7h.08a30.41 30.41 0 0 0 7.38-1.05c25.7-6.52 37.5-18.37 47.76-35.35a122 122 0 0 1-48.2 15.07c-6.07 6.38-11.46 15.72-7.07 21.33Z" transform="translate(-188.64 -214.74)"/><path class="cls-16" d="M243.4 334.81a29 29 0 0 1 6.39-15l.53.45a32.93 32.93 0 0 0-6.92 14.55Z" transform="translate(-188.64 -214.74)"/><path class="cls-12" d="M231 344.24c-4.55 0-7.67-1.59-8.79-4.47-1.74-4.51 1.51-11.26 8.49-17.59l.09-.09h.12c20.89-1.18 39.74-6.63 56-16.22l1.17-.69-.69 1.16c-10.52 17.75-22.37 30.1-48.88 36.83a31.36 31.36 0 0 1-7.51 1.07Zm.08-21.47c-6.6 6-9.82 12.59-8.22 16.75 1 2.63 3.83 4 8.14 4a30.47 30.47 0 0 0 7.38-1.05c25.7-6.52 37.5-18.37 47.76-35.35-16.14 9.23-34.66 14.49-55.14 15.65ZM296 303.4a21.09 21.09 0 0 1-3.55-.3c-7.65-1.32-9.64-6.34-9.64-6.34s2.47 4.4 9.76 5.65a22.17 22.17 0 0 0 13.43-2.13 18 18 0 0 1-10 3.12Z" transform="translate(-188.64 -214.74)"/><path class="cls-1" d="m393 356.21-9-23.65s-13.54-2.78-30.24 8.35-21.34 36.17-19.71 54 13.45 38.49 19.25 37.33c6.26-3.24 6.72-19 14.37-26.67s16-10.27 22.73-22.87 2.6-26.49 2.6-26.49Z" transform="translate(-188.64 -214.74)"/><path class="cls-2" d="M348.69 421.37c7.65-4.17 5.56-13.91 6.95-21.56.7-3.48 2.79-8.35 7-9.05 18.5-3.58 28.72-18.78 30.7-35.22l-9.27-23s-13.54-2.78-30.24 8.35-21.34 36.17-19.71 54a71.48 71.48 0 0 0 8.41 26.44 6.9 6.9 0 0 0 6.16.04Z" transform="translate(-188.64 -214.74)"/><path class="cls-3" d="M355 344.15a59.17 59.17 0 0 1 24.41-11.89c-5.36.08-14.81 1.48-25.57 8.65-16.7 11.13-21.34 36.17-19.71 54a71.48 71.48 0 0 0 8.41 26.44c-11.24-24.92-10.63-60.09 12.46-77.2Z" transform="translate(-188.64 -214.74)"/><path class="cls-4" d="M352.84 432.67a5.4 5.4 0 0 1-3.1-1.28c-6.3-4.7-14.67-21.64-16-36.42-1.75-19.3 3.71-43.58 19.87-54.35a53.28 53.28 0 0 1 14.18-6.79c9.59-2.91 16.18-.93 16.18-.93s-13.61-2.61-30 8.3c-15.92 10.61-21.29 34.62-19.56 53.71 1.33 14.6 9.55 31.3 15.74 35.92a4.15 4.15 0 0 0 3 1.11c3-1.6 4.7-6.45 6.5-11.58s3.89-11.15 7.75-15a70.8 70.8 0 0 1 7.79-6.53c5.35-4.07 10.41-7.91 14.87-16.27 6.58-12.33 2.57-26.11 2.53-26.25s4.8 14-1.91 26.58c-4.54 8.49-9.89 12.56-15.07 16.49a72 72 0 0 0-7.72 6.47c-3.74 3.74-5.79 9.58-7.59 14.74-1.93 5.52-3.6 10.29-6.87 12h-.1a2.51 2.51 0 0 1-.49.08ZM292.7 235.75s14.8-2 19.55 14.75c-2.5-14.5-12.35-21.25-19.55-14.75Z" transform="translate(-188.64 -214.74)"/></svg>