<svg id="Layer_1" data-name="Layer 1" xmlns="http://www.w3.org/2000/svg" width="828.62" height="1060.88"><defs><style>.cls-1{fill:#f7b8ca}.cls-2{fill:#fed1e3}.cls-3{fill:#fee1e3}.cls-4{fill:#701500}.cls-5{fill:#e79702}.cls-6{fill:#ffbd00}.cls-7{fill:#fdcd01}.cls-8{fill:#ffe05f}.cls-9{fill:#c15c00}.cls-10{fill:#d36602}.cls-11{fill:#e37303}.cls-12{fill:#720}.cls-13{fill:#8e2d00}.cls-14{fill:#c9c9c9}.cls-15,.cls-18{fill:#fff}.cls-16{fill:#0079ff}.cls-17{fill:#003d80}.cls-18{opacity:.6}.cls-24{fill:#922b00}</style></defs><g id="giraffe_2" data-name="giraffe 2"><path class="cls-1" d="m2286.39 1047.89-.07-.06a17.8 17.8 0 0 0-9.44-4.19 43.71 43.71 0 0 0-11.61.09c-40.27 5.58-62.81 66.14-94.07 87.82-.56.4-1.12.78-1.7 1.14a41.39 41.39 0 0 1-11.76 5.35c-.25.08-.51.14-.77.2-24.7 6-20.68 36.62-3.9 42.76.47 35.88 67.95 59.73 112.8 11.32a109.32 109.32 0 0 0 10.32-13.08c30.26-44.96 31.46-113.5 10.2-131.35Z" transform="translate(-1473.53 -1001.67)"/><path class="cls-2" d="m2286.39 1047.89-.07-.06c-56.18 16.21-32.93 93.08-66.83 123.07-10.2 7.3-9.34 13.32-5.21 16.12 14.34 10.43 51.46 7.34 63-9.36 29.19-44.93 30.13-112.12 9.11-129.77Z" transform="translate(-1473.53 -1001.67)"/><path class="cls-3" d="m2286.39 1047.89-.07-.06c-49.88 17.08-32.5 97.13-51.19 121.68-1.88 2.47-10.55 10.87-7.33 13.68 9 7.83 38.95 8.7 49.44-5.53 29.23-44.93 30.17-112.12 9.15-129.77Z" transform="translate(-1473.53 -1001.67)"/><path class="cls-4" d="m2287.34 1047-.18-.16a19.15 19.15 0 0 0-10.11-4.48 45.57 45.57 0 0 0-12 .08c-25.05 3.48-43.15 27.46-60.66 50.66-11.27 14.92-21.91 29-34 37.4-.54.38-1.09.75-1.66 1.11a39.7 39.7 0 0 1-11.44 5.19c-.22.07-.43.12-.69.18-11 2.68-17.87 10.59-18.46 21.16-.57 10.35 5.1 20.19 13.6 23.77.84 19.59 21.17 36.12 47.74 38.65 24.5 2.34 49-7.63 67.29-27.35a110.39 110.39 0 0 0 10.38-13.15l.1-.13c30.75-45.6 31.75-114.54 10.09-132.93Zm12 56.33c-1.54 27.19-10.33 54.55-24.11 75.06l-.09.13a107.51 107.51 0 0 1-10.19 12.92c-17.71 19.11-41.45 28.78-65.13 26.53-25.65-2.44-45.17-18.34-45.41-37v-.89l-.85-.31c-7.9-2.89-13.24-11.94-12.72-21.5.26-4.5 2.36-15.32 16.43-18.77a6.76 6.76 0 0 0 .84-.22 42.71 42.71 0 0 0 12.11-5.49 34 34 0 0 0 1.77-1.18c12.4-8.6 23.16-22.86 34.56-38 17.19-22.77 35-46.32 58.94-49.64a42.36 42.36 0 0 1 10-.22l1.27.13a16.56 16.56 0 0 1 8.64 3.81l.18.15c9.89 8.38 15.17 29.24 13.73 54.48Z" transform="translate(-1473.53 -1001.67)"/><path class="cls-5" d="M2183.37 1187.19c-10.19-12.93-11.95-41.39-12.17-55.64-.56.4-1.12.78-1.7 1.14a34.56 34.56 0 0 1-12.53 5.55c-24.7 6-20.68 36.62-3.9 42.76.47 35.88 67.95 59.73 112.8 11.32a109.32 109.32 0 0 0 10.32-13.08c-31.76 35.27-79.53 24.76-92.82 7.95Z" transform="translate(-1473.53 -1001.67)"/><path class="cls-6" d="M2183.37 1187.19c-10.19-12.93-11.95-41.39-12.17-55.64-.56.4-1.12.78-1.7 1.14a34.56 34.56 0 0 1-12.53 5.55c-24.7 6-12.1 26.59 4.68 32.74 1.4 46.87 63.22 54.09 104.22 21.34 4.32-3.46 7.19-8.45 10.32-13.08-31.76 35.27-79.53 24.76-92.82 7.95Z" transform="translate(-1473.53 -1001.67)"/><path class="cls-7" d="M2183.37 1187.19c-10.19-12.93-11.95-41.39-12.17-55.64-.56.4-1.12.78-1.7 1.14a34.56 34.56 0 0 1-12.53 5.55c-24.7 6-12.1 26.59 4.68 32.74 3.75 34.49 74.79 57.3 114.54 8.26-31.76 35.27-79.53 24.76-92.82 7.95Z" transform="translate(-1473.53 -1001.67)"/><path class="cls-4" d="M2217.57 1201.15c-14.13-1.34-27.16-7.14-33.18-14.77-10.18-12.92-11.7-42.66-11.88-54.85v-2.47l-2 1.43c-.54.38-1.09.75-1.67 1.12a33.08 33.08 0 0 1-12.12 5.36c-11 2.68-17.87 10.59-18.46 21.16-.57 10.35 5.1 20.19 13.6 23.77.84 19.59 21.17 36.13 47.74 38.65 24.5 2.34 49-7.64 67.29-27.35a109.9 109.9 0 0 0 10.44-13.23l-2.05-1.61c-20.46 22.64-44.93 24.01-57.71 22.79Zm47.35-9.72c-17.71 19.11-41.45 28.78-65.13 26.53-25.65-2.44-45.17-18.34-45.41-37v-.89l-.85-.31c-7.9-2.89-13.24-11.94-12.72-21.5.26-4.5 2.36-15.32 16.41-18.76a35.16 35.16 0 0 0 12.78-5.5c.39 15.8 2.61 41.62 12.4 54 6.44 8.17 20.17 14.35 35 15.76a70.34 70.34 0 0 0 48.68-13.51c-.44.4-.8.75-1.16 1.18Z" transform="translate(-1473.53 -1001.67)"/><path class="cls-5" d="M2276.88 1043.64a43.71 43.71 0 0 0-11.61.09c-40.27 5.58-62.81 66.14-94.07 87.82-.56.4-1.12.78-1.7 1.14a41.39 41.39 0 0 1-11.76 5.35c-.25.08-.51.14-.77.2-24.7 6-20.68 36.62-3.9 42.76 14.72 3.35 61.12-.7 78.76-49.12 10.76-29.5 17-75 54.56-84l-.07-.06a17.8 17.8 0 0 0-9.44-4.18Z" transform="translate(-1473.53 -1001.67)"/><path class="cls-6" d="M2276.88 1043.64a43.71 43.71 0 0 0-11.61.09c-39.54 5.48-62 64-92.37 86.59 5.31 3.94 10.25 8.9 12.83 15.2 5.09 12.42 16.6 5.93 21.12 1.56a70.46 70.46 0 0 0 16.56-24.17c11.77-29.1 25.41-66.05 63-75l-.07-.06a17.8 17.8 0 0 0-9.46-4.21Z" transform="translate(-1473.53 -1001.67)"/><path class="cls-7" d="M2276.88 1043.64a43.71 43.71 0 0 0-11.61.09c-39.54 5.48-63.37 61.75-81.41 76.71 3.36 3.56 7.94 9.92 8.43 15 1.28 13.36 8.34 7.83 12.87 3.46 6.8-6.58 11.14-22.07 15-31.61 11.77-29.11 28.66-50.41 66.23-59.38l-.07-.06a17.8 17.8 0 0 0-9.44-4.21Z" transform="translate(-1473.53 -1001.67)"/><path class="cls-4" d="m2287.33 1047-.17-.15a19.15 19.15 0 0 0-10.11-4.48 45.57 45.57 0 0 0-12 .08c-25.05 3.48-43.15 27.46-60.66 50.66-11.27 14.92-21.91 29-34 37.4-.54.38-1.09.75-1.66 1.11a39.7 39.7 0 0 1-11.44 5.19c-.22.07-.43.12-.69.18-11 2.68-17.87 10.59-18.46 21.16s5.48 20.82 14.43 24.1h.15a36.38 36.38 0 0 0 4.47.69c19.17 1.83 59.69-6.41 75.81-50.64 2-5.39 3.76-11.23 5.65-17.41 8.43-27.46 18-58.58 48-65.75l1.69-.4-.86-1.51Zm-51.11 67.17c-1.89 6.14-3.67 11.95-5.61 17.28-15.57 42.73-54.63 50.7-73.12 48.94a33.87 33.87 0 0 1-4-.62c-7.86-2.92-13.17-11.94-12.65-21.47.26-4.5 2.36-15.32 16.43-18.77a6.76 6.76 0 0 0 .84-.22 42.71 42.71 0 0 0 12.11-5.49 34 34 0 0 0 1.77-1.18c12.4-8.6 23.16-22.86 34.56-38 17.19-22.77 35-46.32 58.94-49.64a42.55 42.55 0 0 1 11.28-.09 16.25 16.25 0 0 1 6.7 2.4c-29.41 8.69-38.87 39.51-47.25 66.84Z" transform="translate(-1473.53 -1001.67)"/><path class="cls-5" d="M2054.89 1054.59c17.75-13.3 11.53-52-22.5-51.61s-35.15 47.28-9.67 56.92c4.75 14.21-1.16 32.46-.8 47.49.41 16.9 11.68 30.28 30.73 26.66 19.59-3.73 22.58-19.86 20.14-30.65-2.55-11.22-18.88-37.25-17.9-48.81Z" transform="translate(-1473.53 -1001.67)"/><path class="cls-6" d="M2032.39 1003c-34 .44-35.15 47.28-9.67 56.92 2.84 8.47 1.88 18.38.71 28.19.94 3.31 9.12 5.51 17.64 2.9 13.66-4.17 11.43-14.33 10-18.46-2.85-8.2-6.46-16.35-3-19.12 17.71-13.32 18.35-50.89-15.68-50.43Z" transform="translate(-1473.53 -1001.67)"/><path class="cls-7" d="M2032.39 1003c-34 0-35.15 47.28-9.67 56.92 1.78 5.33 2.07 11.22 1.74 17.31-.19 3.59 4.15 8.6 12.81 6.51 6.73-1.63 8.61-7.6 7.17-11.74-2.85-8.2-5.15-18.41-2.06-21 17.75-13.28 16.73-48-9.99-48Z" transform="translate(-1473.53 -1001.67)"/><path class="cls-4" d="M2066.43 1084.46c-4.93-10.53-10.49-22.43-10.28-29.2 8.29-6.58 11.77-19.2 8.47-31-4-14.13-16.24-22.83-32.24-22.62-17.67.22-26.1 12.41-28.09 23.73-2.29 13 3 29.67 17.38 35.48 2.68 8.61 1.45 18.91.25 28.87a127 127 0 0 0-1.3 17.66c.38 15.7 9.71 27.11 23.21 28.4a32.23 32.23 0 0 0 9-.49c8.11-1.55 14.12-5.23 17.87-11 5.45-8.3 4.12-17.63 3.3-21.26-1-4.48-4.18-11.32-7.57-18.57Zm2.15 38.48c-3.34 5.11-8.79 8.42-16.17 9.83a29.74 29.74 0 0 1-8.33.45c-12.32-1.17-20.5-11.32-20.86-25.86a124.41 124.41 0 0 1 1.29-17.29c1.26-10.47 2.55-21.31-.55-30.58l-.2-.59-.58-.21c-13.46-5.1-18.46-20.72-16.32-32.82 2.35-13.34 11.9-21.41 25.55-21.59a41.08 41.08 0 0 1 4.34.18c12.6 1.2 22.08 8.88 25.36 20.55 3.08 11-.21 22.7-8 28.54l-.47.35v.58c-.63 7.35 5 19.42 10.48 31.09 3.33 7.11 6.47 13.83 7.44 18.12 1.52 6.87.44 14.07-2.98 19.25Z" transform="translate(-1473.53 -1001.67)"/><path class="cls-5" d="M1927.38 1066.29c18.31-17.28 6.33-60.18-32-55.33s-33.58 57.84-3.6 65.44c7.18 15.41 2.85 36.76 5.18 53.67 2.63 19 17 32.64 38.07 26.12 21.62-6.72 22.93-25.3 18.79-37.15-4.31-12.33-26.07-39.59-26.44-52.75Z" transform="translate(-1473.53 -1001.67)"/><path class="cls-6" d="M1895.38 1011c-38.16 6-33.58 57.84-3.6 65.44 3.44 7.4 4.41 16.16 4.39 25.15 0 10.71 10.84 12.57 22.57 7.52 12-5.13 11.73-17.55 7.89-24-4.91-8.24-9.31-17.77-4.2-24.51 13.91-16.44 7.7-55.12-27.05-49.6Z" transform="translate(-1473.53 -1001.67)"/><path class="cls-7" d="M1895.38 1011c-38.23 5.57-33.58 57.84-3.6 65.44a50 50 0 0 1 4.1 17.18c.21 2.62 2.8 15.3 15.95 10.36 12.17-4.57 8.35-15.55 4.52-22-4.92-8.25-4.67-16.08.43-22.82 13.91-16.43 8.04-52.48-21.4-48.16Z" transform="translate(-1473.53 -1001.67)"/><path class="cls-8" d="M1888.39 1016c-8.81 3.14-13.46 9.73-10.39 14.7s12.72 6.46 21.54 3.31 13.46-9.74 10.38-14.71-12.72-6.46-21.53-3.3ZM2024.11 1008.08c-8.81 3.15-13.46 9.73-10.38 14.71s12.71 6.45 21.53 3.3 13.46-9.73 10.38-14.71-12.71-6.45-21.53-3.3Z" transform="translate(-1473.53 -1001.67)"/><path class="cls-4" d="M1944.08 1098.59c-6.95-11.3-14.79-24.08-15.37-31.78 8-8 10.59-21.49 6.34-33.88a34.19 34.19 0 0 0-29.78-23.46 45.36 45.36 0 0 0-10 .2c-19.79 2.51-27.69 17.25-28.48 30.21-.92 14.87 7.23 33 24.11 37.63 4.17 9.4 4.1 21.23 4 32.67 0 6.78-.08 13.78.79 20.06 2.24 16.17 12.55 27.46 26.27 28.77a34.44 34.44 0 0 0 13.48-1.58c8.9-2.76 15.18-7.66 18.65-14.56s3.86-16 1-24.26c-1.79-5-6.27-12.29-11.01-20.02Zm7.67 43.1c-3.15 6.25-8.9 10.7-17.1 13.25a32 32 0 0 1-12.46 1.48c-12.48-1.19-21.87-11.61-23.94-26.53-.84-6.11-.8-12.71-.76-19.69.07-12 .14-24.32-4.53-34.35l-.26-.56-.6-.15c-15.93-4-23.62-21.1-22.76-35.1 1-15.43 10.74-25.82 26.21-27.78a43.19 43.19 0 0 1 9.47-.2 31.64 31.64 0 0 1 27.56 21.72c4 11.66 1.55 24.34-6.1 31.56l-.43.4v.58c.24 8.32 8.14 21.19 15.79 33.63 4.67 7.61 9.08 14.79 10.73 19.52 2.67 7.59 2.36 15.9-.82 22.22Z" transform="translate(-1473.53 -1001.67)"/><path class="cls-5" d="m1849.16 1951.89-.44-.33c-19.92-15-81.63-80.56-90.13-112.57-.39-1.5 1.6-3.62 5.3-6.39 5.54-4.11 14.92-9.62 25.91-16.46 24.38-15.17 56.74-36.89 72.82-64.48a75.52 75.52 0 0 0 7.62-17.61 64.53 64.53 0 0 0 1.68-7.78l-3.32-1-8.1-2.5-82.38-25.27c-4.72 24.18-38.08 85.67-54.12 97.31s-41 28.18-10.18 57 49.13 51.64 51.27 65.62-6.68 38.67 4.27 41.44c17.93 4.53 20.38 22 25.7 32.29a24.28 24.28 0 0 0 1.81 3c17.46 24.11 69.26 21.88 77.11 8.23s-5.14-35.49-24.82-50.5Z" transform="translate(-1473.53 -1001.67)"/><path class="cls-6" d="m1849.16 1951.9-.43-.33c-19.93-15-81.64-80.57-90.14-112.58-.39-1.5 1.59-3.62 5.31-6.38.53-.4 1.1-.81 1.7-1.22 1.36-1 2.87-2 4.54-3.05s3.53-2.25 5.5-3.47l.85-.52 1.74-1.09h.1q2.06-1.24 4.25-2.61a201.56 201.56 0 0 1-22.75-3.68c-1.63-.38-3.26-.78-4.86-1.24s-2.9-.84-4.32-1.32a41 41 0 0 0-13.75-1.24 27 27 0 0 0-8.34 1.8c-11.33 4.76-15.08 15.4 1.87 31.31 30.78 28.85 44.45 46.75 46.59 60.73s2.64 29.79 12.78 34.77c15.48 7.6 18.86 19 24.34 26.37a20.75 20.75 0 0 0 2.8 3.17c17.27 15.86 41.72 21.45 49.92 16 3.81-2.52 5.56-5.31 5.63-8.37.21-7.44-9.4-16.43-23.33-27.05Z" transform="translate(-1473.53 -1001.67)"/><path class="cls-7" d="M1758.59 1839c-.39-1.5 1.59-3.62 5.31-6.38l.83-.61c3.31-2.49 2.75-2.1 10-6.58a44.73 44.73 0 0 1-15.17-.56c-8-1.46-15.45-4-23.07-3.27-12.23 1.16-10.73 8.41 6.23 24.33 30.78 28.84 39.9 47.06 42 61s4.56 27.78 15.76 29.33c26.6 3.69 13.11-17.78 7-25-17.06-20.37-42.85-49.57-48.89-72.26Z" transform="translate(-1473.53 -1001.67)"/><path class="cls-9" d="M1775.47 1805.65a15.74 15.74 0 0 0-11.58 26.95c5.54-4.11 14.92-9.62 25.91-16.46a15.73 15.73 0 0 0-14.33-10.49Z" transform="translate(-1473.53 -1001.67)"/><path class="cls-10" d="M1759.2 1820.86a15.69 15.69 0 0 0 4.7 11.75c.53-.4 1.1-.81 1.7-1.22 1.36-1 2.87-2 4.54-3.05s3.53-2.25 5.5-3.47l.85-.52 1.74-1.09h.1l4.25-2.61a201.56 201.56 0 0 1-22.75-3.68 16.89 16.89 0 0 0-.63 3.89Z" transform="translate(-1473.53 -1001.67)"/><path class="cls-11" d="M1759.58 1824.86a15.64 15.64 0 0 0 4.32 7.75l.83-.61c3.31-2.49 2.75-2.1 10-6.58a44.73 44.73 0 0 1-15.15-.56Z" transform="translate(-1473.53 -1001.67)"/><path class="cls-9" d="M1746.82 1800.49a10 10 0 1 0 9.63 10.3 10 10 0 0 0-9.63-10.3Z" transform="translate(-1473.53 -1001.67)"/><path class="cls-10" d="M1736.9 1813.12a10 10 0 0 0 18.07 2.56c-1.45-.4-2.9-.84-4.32-1.32a41 41 0 0 0-13.75-1.24Z" transform="translate(-1473.53 -1001.67)"/><path class="cls-11" d="M1743.76 1824.79a7.82 7.82 0 1 0 7.55 8.08 7.83 7.83 0 0 0-7.55-8.08Z" transform="translate(-1473.53 -1001.67)"/><path class="cls-4" d="m1850 1950.87-.45-.35c-21.13-15.92-81.48-81-89.66-111.86 0-.12-.17-1.3 4.82-5 4-3 10.24-6.81 17.43-11.23q4-2.45 8.38-5.17c27.48-17.1 57.68-38.18 73.27-64.93a77.22 77.22 0 0 0 7.75-17.91 67 67 0 0 0 1.71-7.94l.17-1.12-96.26-29.54-.28 1.42c-4.51 23.11-37.32 84.68-53.61 96.51l-1.34 1c-10.29 7.43-23.1 16.69-24 29.94-.57 8.94 4.33 18.15 15 28.14 31.27 29.31 48.86 51.75 50.87 64.87.75 4.87.1 11.24-.52 17.41-1.2 11.85-2.34 23 5.76 25.09 13.38 3.38 17.72 14.33 21.55 24a83.13 83.13 0 0 0 3.31 7.65 25.55 25.55 0 0 0 1.92 3.15c8.07 11.14 24.61 18.2 44.25 18.86 16.94.56 31-3.75 35-10.75 8.71-15.11-6.07-37.72-25.07-52.24Zm22.89 50.88c-3.45 6-17.19 10-32.69 9.44-18.84-.63-34.63-7.28-42.23-17.78a22.65 22.65 0 0 1-1.72-2.82c-1.13-2.18-2.13-4.72-3.2-7.41-3.86-9.73-8.66-21.83-23.33-25.55-5.92-1.49-4.89-11.6-3.81-22.3.64-6.33 1.31-12.87.51-18.07-2.13-13.9-19.51-36.23-51.67-66.38-9.91-9.29-14.68-18.06-14.17-26.06.77-12 13-20.89 22.88-28l1.34-1c16.31-11.84 48.76-72.24 54.34-96.7l81 24.85 10.34 3.18a60.49 60.49 0 0 1-1.47 6.52 73.65 73.65 0 0 1-7.49 17.3c-15.3 26.27-45.17 47.11-72.38 64l-8.37 5.16c-7.25 4.45-13.51 8.3-17.63 11.36-4.64 3.46-6.32 5.71-5.78 7.77 8.74 32.91 72.32 99.49 90.59 113.26l.45.34c20.8 15.95 31.32 36.94 24.45 48.89Z" transform="translate(-1473.53 -1001.67)"/><path class="cls-12" d="M1849.16 1951.89c-32.71 7.23-47.77 27.13-54.1 39.3a24.28 24.28 0 0 0 1.81 3c17.46 24.11 69.26 21.88 77.11 8.23s-5.14-35.52-24.82-50.53Z" transform="translate(-1473.53 -1001.67)"/><path class="cls-13" d="M1849.16 1951.9c-15.17 3.34-26.55 9.42-35 16.2a20.75 20.75 0 0 0 2.8 3.17c17.27 15.86 41.72 21.45 49.92 16 3.81-2.52 5.56-5.31 5.63-8.37-4.62-9.42-13.07-19.15-23.35-27Z" transform="translate(-1473.53 -1001.67)"/><path class="cls-4" d="m1849.94 1950.86-.47-.37-.6.13c-33.6 7.42-48.86 28.23-55 40l-.31.59.31.61a25.55 25.55 0 0 0 1.92 3.15c8.07 11.14 24.61 18.2 44.25 18.86 16.94.56 31-3.75 35-10.75 8.74-15.08-6.04-37.69-25.1-52.22Zm22.91 50.89c-3.45 6-17.19 10-32.69 9.44-18.84-.63-34.63-7.28-42.23-17.78a22 22 0 0 1-1.4-2.23c6.07-11.36 20.73-30.71 52.32-37.89 20.51 15.84 30.82 36.6 24 48.46Z" transform="translate(-1473.53 -1001.67)"/><path class="cls-4" d="M1835.39 1954.79 1834 1957c.36.24 36 24.13 37.56 47l2.6-.18c-1.7-24.19-37.25-48.03-38.77-49.03Z" transform="translate(-1473.53 -1001.67)"/><path class="cls-5" d="M2058.39 1979.49c-7.14-5.89-13.13-11.55-15.71-16.65-6.91-13.71-27-75.1-22.75-93.14 8.86-37.31-.76-59.56 1.36-79.51 1.07-10 1.79-19.64 2.27-28.87.93-17.5 1-33.5.6-47.18-.53-20.43-1.91-35.74-2.47-43.28l-89.73 40c.43 27.41 39.46 87.82 40 103.95 1.09 33.94 13.33 48.83 15.12 59.94 6.38 39.45-12.27 85.69-6.68 97s19.37 13.79 20.37 22.74c.71 6.3-2.39 20 4.76 29.7 3 4.07 7.8 7.44 15.46 9.23 25.88 6.09 75.49 4.76 77.36-12.26 1.31-12.06-22.68-27.51-39.96-41.67Z" transform="translate(-1473.53 -1001.67)"/><path class="cls-6" d="m2060 1980.77-1.6-1.29c-7.14-5.88-13.13-11.54-15.72-16.65-6.9-13.7-27-75.09-22.74-93.13 8.86-37.31-.76-59.56 1.37-79.51 1-10 1.78-19.64 2.27-28.87.24-4.77.44-9.42.56-14a137.24 137.24 0 0 1-11.78 14.71 93.31 93.31 0 0 1-8.88 8.46 73.27 73.27 0 0 1-6.27 4.71 25.49 25.49 0 0 0-9.62 12.11c-2.74 7-2.51 14.23-2.28 18.28 1.87 33.92 12.11 57 13.91 68.1 6.37 39.45-9.29 69.79-3.7 81.06s18.66 16.88 19.66 25.83c.42 3.78.07 14.6 2.73 23.17 1.76 5.71 4.86 10.4 10.41 11.36 26.2 4.51 50 1.58 54.75-7.05 1.93-3.52 1.77-6.29.05-8.94-3.28-5.07-12.29-9.72-23.12-18.35Z" transform="translate(-1473.53 -1001.67)"/><path class="cls-7" d="M2019.93 1869.7c8.86-37.31-.76-59.56 1.37-79.51 1-10 1.52-15 2-24.23a59.66 59.66 0 0 1-11.89 12c-1.87 1.44-4.05 3-6.68 4.78a24.46 24.46 0 0 0-9.72 12c-2.14 5.79-1.67 11.51-1.46 15.37 1.88 33.91 12.6 49.93 14.4 61 6.38 39.45-9.29 70.21-2.45 80.78 8.19 12.64 36 11.52 28.13-13.18-7.51-23.61-16.54-57.02-13.7-69.01Z" transform="translate(-1473.53 -1001.67)"/><path class="cls-9" d="M2017.14 1712.87a24.77 24.77 0 1 0 6.42 48.45c.93-17.5 1-33.5.6-47.18a24.63 24.63 0 0 0-7.02-1.27Z" transform="translate(-1473.53 -1001.67)"/><path class="cls-10" d="M2015.48 1762.38a24.88 24.88 0 0 0 8.09-1.06c.24-4.77.44-9.42.56-14a137.24 137.24 0 0 1-11.78 14.71 23.2 23.2 0 0 0 3.13.35Z" transform="translate(-1473.53 -1001.67)"/><path class="cls-9" d="M2000 1769.91a12.82 12.82 0 1 0 12.38 13.24 12.82 12.82 0 0 0-12.38-13.24Z" transform="translate(-1473.53 -1001.67)"/><path class="cls-10" d="M2003.47 1770.53a73.27 73.27 0 0 1-6.27 4.71 25.49 25.49 0 0 0-9.62 12.11 12.82 12.82 0 1 0 15.89-16.82Z" transform="translate(-1473.53 -1001.67)"/><path class="cls-11" d="M2004.74 1782.71a24.46 24.46 0 0 0-9.72 12 13 13 0 0 0 4.08.82 12.82 12.82 0 0 0 13.24-12.38 12.64 12.64 0 0 0-.92-5.22c-1.87 1.44-4.05 3.01-6.68 4.78Z" transform="translate(-1473.53 -1001.67)"/><path class="cls-4" d="M2069.81 1986.84c-3.56-2.76-7.24-5.62-10.59-8.37-5.73-4.71-12.65-10.82-15.38-16.22-7.2-14.28-26.76-74.91-22.64-92.25 5.68-23.92 3.8-42 2.29-56.59-.89-8.56-1.66-16-.9-23.09 1-9.37 1.77-19.11 2.28-28.93.81-15.43 1-31.34.59-47.29-.46-17.44-1.53-31.25-2.17-39.5-.12-1.44-.22-2.72-.3-3.83l-.14-1.86-92.21 41.15v.86c.25 15.91 13 42.15 24.22 65.29 8 16.47 15.54 32 15.75 38.67.76 23.4 6.71 37.72 11 48.17 2 4.78 3.55 8.56 4.1 11.94 3.61 22.32-.83 46.56-4.39 66-2.77 15.13-4.77 26.06-2.19 31.28 2.84 5.73 7.63 9.26 11.86 12.39s7.94 5.85 8.4 9.91a47.28 47.28 0 0 1 0 6c-.25 7.08-.58 16.78 5 24.31 3.5 4.76 9 8 16.21 9.73a143 143 0 0 0 26.82 3.25c23.13.78 50.65-3.12 52.13-16.64 1.22-10.35-13.81-22.03-29.74-34.38ZM2097 2021c-1.21 11-25.71 15.12-49.45 14.32a139.93 139.93 0 0 1-26.31-3.18c-6.64-1.55-11.59-4.49-14.71-8.73-5-6.81-4.71-16-4.48-22.68a47.81 47.81 0 0 0 0-6.4c-.58-5.19-4.89-8.36-9.44-11.73-4.19-3.08-8.51-6.28-11.07-11.43-2.2-4.45-.06-16.14 2.41-29.67 3.6-19.67 8.08-44.16 4.4-66.93-.59-3.68-2.21-7.58-4.26-12.52-4.27-10.27-10.11-24.33-10.85-47.25-.23-7.21-7.54-22.28-16-39.72-10.92-22.49-23.26-47.92-23.94-63.35l87.24-38.92c0 .62.1 1.29.16 2 .64 8.22 1.71 22 2.16 39.36.42 15.88.22 31.72-.59 47.08-.51 9.78-1.27 19.47-2.26 28.79-.79 7.42 0 14.93.89 23.64 1.57 15.1 3.35 32.23-2.23 55.72-4.51 19 16.43 81.29 22.85 94 3 5.84 10.13 12.19 16.06 17.07 3.38 2.77 7.07 5.64 10.64 8.41 14.65 11.39 29.78 23.12 28.78 32.12Z" transform="translate(-1473.53 -1001.67)"/><path class="cls-12" d="M2058.39 1979.49c-32.53 5.33-47.83 33.06-52.88 44.69 3 4.07 7.8 7.44 15.46 9.23 25.88 6.09 75.49 4.76 77.36-12.26 1.33-12.05-22.66-27.5-39.94-41.66Z" transform="translate(-1473.53 -1001.67)"/><path class="cls-13" d="m2060 1980.77-1.6-1.29c-18.82 3.09-31.88 13.67-40.49 24.31 1.76 5.71 4.86 10.4 10.41 11.36 26.2 4.51 50 1.58 54.75-7.05 1.93-3.52 1.77-6.29.05-8.94-7.12-6.09-15.64-12.34-23.12-18.39Z" transform="translate(-1473.53 -1001.67)"/><path class="cls-4" d="M2069.81 1986.84c-3.56-2.76-7.24-5.62-10.59-8.37l-.46-.37-.58.1c-33.18 5.44-48.72 33.61-53.87 45.47l-.29.68.44.6c3.5 4.76 9 8 16.21 9.73a143 143 0 0 0 26.82 3.25c23.13.78 50.65-3.12 52.13-16.64 1.15-10.42-13.88-22.1-29.81-34.45ZM2097 2021c-1.21 11-25.71 15.12-49.45 14.32a139.93 139.93 0 0 1-26.31-3.18c-6.33-1.48-11.12-4.22-14.26-8.14 5.24-11.76 20.13-37.78 51-43.13 3.25 2.65 6.77 5.39 10.18 8 14.71 11.4 29.84 23.13 28.84 32.13Z" transform="translate(-1473.53 -1001.67)"/><path class="cls-4" d="m2047.6 1980.62-1.54 2.11c.39.28 39.25 28.83 47.38 45.52l2.34-1.15c-8.4-17.26-46.56-45.3-48.18-46.48Z" transform="translate(-1473.53 -1001.67)"/><path class="cls-5" d="M1942.9 1458.41c-4.4 21.07-10.14 41.45-17.54 59.27-5.26 12.65-11.34 24-18.37 33.44-6.74 9.06-14.36 16.33-23 21.22a138 138 0 0 1-25.47 11.12c-19.87 6.55-41.41 9.66-62.4 12.44-19.7 2.63-38.92 4.95-55.82 9.53a115.4 115.4 0 0 0-22.25 8.31c-41 21-82.09 59.65-107.39 65.43a29.14 29.14 0 0 1-3.72.62c-24.85 2.43-70.26-4.31-99.84 22.08.58-.24 12.75-6.3 19-3.76-7.81 2.7-21.25 7.59-31 17.05.52-.24 10-4.61 14.43-3.2 0 0-21.73 12.42-34.15 39.39 5.42.62 44.29 6.6 60.66-7.82-.46.54-8 9.34-12.53 11.5 27-1.26 53.12-22.78 65.13-36.29 12.19-13.72 16.6-20.25 26.1-26.73 9.31-6.32 38.56-20 55.91-27 5.68-2.29 19.51-6.89 26-11.17-14.85 36.73-31.72 92.65 24.71 125.62 48.65 28.44 148 26.55 186.44 16.7 2.88-.72 5.73-1.52 8.54-2.36 31.93-9.48 59.9-25.33 77.44-45.7l1.51-1.8a118 118 0 0 0 18.93-33.33c28.85-76.16 0-194.93 59.17-351.56l-118.52-4c-1.2 30.14-4.78 66.51-11.97 101Z" transform="translate(-1473.53 -1001.67)"/><path class="cls-6" d="M1968.22 1474.48c-10.21 2.38-17.45 6.91-20 12.41a200.84 200.84 0 0 1-15.6 33.71 155.74 155.74 0 0 1-24.29 31.75 140.6 140.6 0 0 1-33.77 24.86l-.23.11a98.82 98.82 0 0 1-15.67 6.39c-42.32 13.61-109 12.77-140.56 30-40.44 22.11-82.09 59.66-107.39 65.44a30.85 30.85 0 0 1-3.73.62l-1.17.11c-24.81 2.28-60.72.95-79.62 13 .6-.23 13.69-.66 16 5.86-12.38.82-27.2 7.18-29.66 9.61 8.81-1.14 11.24 1.37 15.64 2.78 0 0-24.39 2.35-36.81 29.32 5.42.61 40.81 1.09 57.18-13.33-.47.55-.9 13.28-5.38 15.46 20.68-10.09 30.84-17.78 42.85-31.29 12.19-13.72 16.73-17 26.23-23.46 1-.66 2.16-1.42 3.55-2.27 11.81-7.22 37.16-20.32 52.7-26.58 5.68-2.28 33.46-15.9 39.9-20.19-14.86 36.73 2.72 107.66 58.86 107.66 22.33 22.81 91.34 22.81 107.33 3.61 164.83 22.26 147.13-81.65 156.93-184.69 2.42-25.46 5.14-52.59 9.64-81a93 93 0 0 1-19.11-4.95c-20.52-7.52-39.91-8.21-53.82-4.94Z" transform="translate(-1473.53 -1001.67)"/><path class="cls-7" d="M2006.48 1488.9c-9.74-3-17.5-4.21-24.91-4a58.52 58.52 0 0 0-9.54 1.12c-.83.16-1.65.34-2.48.54-10.21 2.38-16.91 5.86-19.23 12.38a119.71 119.71 0 0 1-11.17 22.62 193.74 193.74 0 0 1-27.66 34.39c-11.29 11.25-23.27 20.53-33.84 26.09a89.46 89.46 0 0 1-16.81 6.53c-18.3 5.28-41.21 7.52-63.91 9.68-20.16 1.89-40.15 3.73-56.59 7.58-8.52 2-16.08 4.51-22.24 7.87-40.44 22.11-82.09 59.66-107.39 65.44a30.85 30.85 0 0 1-3.73.62l-1.17.11c-1.14.1-2.28.2-3.4.28-23.47 1.92-44.75 1.38-64.75 10.18.6-.22 11.93 4 14.22 10.55-12.38.82-20.23 3.65-22.69 6.07 6.88.69 10.86 3.89 13.14 7.72 0 0-33.57 2.4-38.35 20.85 5.42.62 34.91-2.75 51.28-17.16.43 4.68-.12 8.91-2.57 12 13.32-4.21 22.77-18.55 27.87-23.11 13.69-12.23 23.4-18.9 31.28-22.81 1-.47 2-1 3-1.49 17.68-9 43.87-24.4 58.53-30.45 9.5-3.91 36.37-17.3 41.06-20.41-14.86 36.73 13.22 85.07 69.36 85.07a54.93 54.93 0 0 0 17.52 11.78c15 6.49 32.82 7.49 47 3.44 8-2.27 14.78-6.14 19.27-11.52 164.84 22.26 154.15-52.52 164-155.56 2.42-25.46 3.31-40.45 7.81-68.85-6.44-1-17-2-23.31-4.38-3.48-1.18-6.63-2.26-9.6-3.17Z" transform="translate(-1473.53 -1001.67)"/><path class="cls-10" d="M1740.35 1605.43a28.78 28.78 0 1 0 55.82-9.53c-19.7 2.63-38.92 4.95-55.82 9.53Z" transform="translate(-1473.53 -1001.67)"/><path class="cls-11" d="M1740.34 1605.86a28.78 28.78 0 1 0 56.59-7.58c-20.16 1.89-40.15 3.72-56.59 7.58Z" transform="translate(-1473.53 -1001.67)"/><path class="cls-9" d="M1980.14 1430.06a15.68 15.68 0 1 0 15.14 16.2 15.67 15.67 0 0 0-15.14-16.2Z" transform="translate(-1473.53 -1001.67)"/><path class="cls-10" d="M1993.87 1477.5a13.17 13.17 0 1 0 12.71 13.61 13.19 13.19 0 0 0-12.71-13.61Z" transform="translate(-1473.53 -1001.67)"/><path class="cls-11" d="M1981.57 1484.93a13.31 13.31 0 0 0-1.31 5.29 13.17 13.17 0 1 0 26.32.89 13.43 13.43 0 0 0-.1-2.21c-9.74-2.98-17.48-4.21-24.91-3.97Z" transform="translate(-1473.53 -1001.67)"/><path class="cls-9" d="M1942.9 1458.41c-4.4 21.07-10.14 41.45-17.54 59.27a31.64 31.64 0 1 0 17.54-59.27Z" transform="translate(-1473.53 -1001.67)"/><path class="cls-10" d="M1948.22 1486.89a200.84 200.84 0 0 1-15.6 33.71 32.46 32.46 0 0 0 7 1 31.65 31.65 0 0 0 28.64-47.13c-10.26 2.39-17.49 6.92-20.04 12.42Z" transform="translate(-1473.53 -1001.67)"/><path class="cls-11" d="M1969.55 1486.59c-10.21 2.38-16.91 5.86-19.23 12.38a119.71 119.71 0 0 1-11.17 22.62h.43a31.63 31.63 0 0 0 32.45-35.56c-.83.18-1.65.36-2.48.56Z" transform="translate(-1473.53 -1001.67)"/><path class="cls-9" d="M1907 1551.12c-6.74 9.06-14.36 16.33-23 21.22a138 138 0 0 1-25.47 11.12 30.2 30.2 0 1 0 48.42-32.34Z" transform="translate(-1473.53 -1001.67)"/><path class="cls-10" d="M1897.19 1562.34a65.06 65.06 0 0 1-13.15 10c-3.15 1.82-6.4 3.46-9.71 5a147.8 147.8 0 0 1-15.76 6.14 2.5 2.5 0 0 0 .09.25 30.2 30.2 0 1 0 49.67-31.36 138.45 138.45 0 0 1-11.14 9.97Z" transform="translate(-1473.53 -1001.67)"/><path class="cls-11" d="M1877.65 1582.07a89.46 89.46 0 0 1-16.81 6.53 30.19 30.19 0 1 0 50.65-32.62c-11.29 11.25-23.27 20.53-33.84 26.09Z" transform="translate(-1473.53 -1001.67)"/><path class="cls-4" d="M1953.66 1357.37c-1.06 24.7-4 62.24-12 100.77-4.73 22.64-10.61 42.5-17.48 59-5.44 13.1-11.56 24.25-18.2 33.16-6.89 9.24-14.47 16.27-22.55 20.86a136.71 136.71 0 0 1-25.24 11c-19.46 6.41-40.51 9.51-62.16 12.38l-5.14.68c-18.17 2.41-35.34 4.67-50.86 8.88a115 115 0 0 0-22.49 8.41c-18.47 9.43-37.31 22.7-53.92 34.4-21.17 14.91-39.46 27.79-53.17 30.92a26.4 26.4 0 0 1-3.56.59c-5.43.53-12 .62-19 .72-24.56.34-58.2.8-81.61 21.68l-5.45 4.87 6.8-2.68.4-.18a46.28 46.28 0 0 1 11.82-3.89c-8.84 3.4-18.13 8-25.57 15.21l-5.58 5.43 7-3.31a43.15 43.15 0 0 1 9.61-3.15 95.86 95.86 0 0 0-31.06 37.62l-.76 1.64 1.8.2 1.35.16a178.67 178.67 0 0 0 22.61 1.6c12 0 21.79-1.57 29.13-4.67a25.14 25.14 0 0 1-5.38 4.11l-5.78 2.78 6.41-.3c25.71-1.2 51.64-20.54 66-36.73 2.9-3.26 5.37-6.13 7.55-8.66 7-8.11 11.21-13 18.32-17.85 8.93-6.08 37.75-19.67 55.65-26.88 1.3-.52 3-1.17 5-1.9a168.26 168.26 0 0 0 17.89-7.45c-6.88 17.46-14 39.52-13.07 61.25 1.15 26.72 14.52 47.74 39.73 62.47 36.21 21.16 95.62 23.44 119.49 23.44 26.31 0 51.62-2.45 67.77-6.56h.18c2.78-.7 5.59-1.48 8.6-2.38l.28-.09c33.13-9.88 60.75-26.22 77.8-46l.42-.5c.38-.44.75-.88 1.1-1.32a118.53 118.53 0 0 0 19.15-33.69c11.93-31.5 14.06-70.47 16.52-115.59 3.5-64.12 7.86-143.92 42.65-236l.64-1.71-121.63-4.07Zm118 5.27c-34.35 91.7-38.69 171.13-42.17 235-2.45 44.91-4.57 83.7-16.36 114.82a116 116 0 0 1-18.73 33l-1.06 1.28-.42.49c-16.74 19.45-44 35.51-76.66 45.25h-.32l-.15.14c-2.81.83-5.45 1.56-8 2.22h-.19c-15.94 4.09-41.09 6.52-67.28 6.53-50 0-93.06-8.42-118.17-23.09-53.28-31.13-40.9-82.62-24.16-124l1.57-3.91-3.5 2.34c-4.84 3.21-14 6.63-20.69 9.12-2 .74-3.72 1.39-5 1.92-18 7.26-47.09 21-56.15 27.15-7.39 5-11.69 10-18.82 18.3a695.64 695.64 0 0 1-7.53 8.63c-13.15 14.8-36.1 32.28-59.4 35.41a90.58 90.58 0 0 0 8.78-8.91l-1.86-1.82c-7 6.13-19.07 9.25-36 9.25a174.74 174.74 0 0 1-21.87-1.52c12.2-25.14 32.64-37.07 32.85-37.19l2.56-1.46-2.81-.91c-2-.65-5.28-.22-8.22.6 9-6.53 19.32-10.09 24.79-12l3.29-1.14-3.23-1.3c-2.76-1.12-6.78-.9-11.77.58 21.93-15 50-15.35 73-15.66 7-.1 13.64-.19 19.18-.73a31.25 31.25 0 0 0 3.89-.65c14.21-3.24 32.69-16.26 54.09-31.33 16.54-11.65 35.29-24.86 53.61-34.21a112.72 112.72 0 0 1 22-8.21c15.34-4.16 32.42-6.42 50.51-8.81l5.14-.69c21.78-2.88 43-6 62.63-12.49a139.28 139.28 0 0 0 25.72-11.22c8.39-4.78 16.25-12 23.35-21.58 6.76-9.07 13-20.42 18.52-33.71 6.93-16.7 12.86-36.72 17.61-59.51 7.94-38 10.93-75.1 12-99.91Z" transform="translate(-1473.53 -1001.67)"/><path class="cls-5" d="M1683.15 1677.63c-6.59 14.83-12.47 30.5-17.4 44.51-5 14.29-9.06 26.87-11.86 35.07-9.32 27.38-22.91 39.37-29.49 58.73s3.41 32.44 6.6 41.38 17.37 56.35 7.71 78.52-7.77 31.2-2.59 40.66 4.08 6.73 1.69 26c-1.15 9.24-.45 17 1.57 23.45 10.9 34.65 60.51 32.41 73.86 27 7.11-2.87 17.08-12 17.19-22.21.07-7-9.19-21.86-19.32-38.65-8.88-14.72-18.44-30.9-23-44.49-9.72-29.09-21.65-77-18.66-96.43 9.35-16.94 17.51-27.07 18.08-43.37a302.47 302.47 0 0 0 47.13-30.48c12.4-9.78 25.18-21.59 35.45-35 9-11.72 15.21-22.91 18.16-38.73l-73.35-75.49c-12.37 10.69-22.64 28.96-31.77 49.53Z" transform="translate(-1473.53 -1001.67)"/><path class="cls-6" d="M1683.54 1677.81a327.42 327.42 0 0 0-14.07 45.31c-4.59 19.19-6.79 34.05-7.87 37.2-9.32 27.39-21.44 33.87-28 53.22s.5 33.64 3.69 42.59 23.89 57.33 14.24 79.51-5.84 26.71-.65 36.17 6.4 7.79 3.9 27.06a28.49 28.49 0 0 0 .16 8.37c4.34 25.69 43.49 41.24 55.57 36.37 7.1-2.86 14.44-10.08 14.56-20.29.06-6.28-3.09-12.94-11.13-26.52-.91-1.53-1.85-3.09-2.81-4.65-8.87-14.72-18.43-30.9-23-44.49-9.73-29.08-21.65-77-18.67-96.43 9.35-16.94 17.51-27.07 18.08-43.37a302.67 302.67 0 0 0 47.12-30.48c12.41-9.77 25.19-21.58 35.46-35 9-11.71 15.21-22.9 18.15-38.71l-73.34-75.5c-13.59 12.44-23.77 30.65-31.39 49.64Z" transform="translate(-1473.53 -1001.67)"/><path class="cls-7" d="M1714.94 1628.2c-13.77 12.55-22.57 31.51-28.31 51.3a282 282 0 0 0-8.56 43.57c-1.91 15.43-2.62 28.47-3.29 35.62a28.67 28.67 0 0 1-.8 5.33 92 92 0 0 1-7.38 16.52c-8 14-16.74 20.12-21.73 34.75-6.58 19.37-1.88 29.24 1.31 38.18s25.73 55.65 16.07 77.83-2.1 39.3 8.7 39.3c12.88 0 21.72-9.35 17.19-22.94-9.73-29.08-21.65-77-18.67-96.43 9.35-16.94 17.51-27.07 18.08-43.37a302.67 302.67 0 0 0 47.12-30.48c12.41-9.77 25.19-21.58 35.46-35 9-11.71 15.21-22.9 18.15-38.71 0 0-2.8-27.28-22-48.06s-51.34-27.41-51.34-27.41Z" transform="translate(-1473.53 -1001.67)"/><path class="cls-11" d="M1720.33 1638.82a16.85 16.85 0 1 0 17.9 15.72 16.85 16.85 0 0 0-17.9-15.72ZM1725.49 1682.89a14.56 14.56 0 1 0 15.46 13.59 14.57 14.57 0 0 0-15.46-13.59ZM1764.33 1691.26a11.93 11.93 0 1 0 12.67 11.13 11.94 11.94 0 0 0-12.67-11.13Z" transform="translate(-1473.53 -1001.67)"/><path class="cls-9" d="M1683.15 1677.63c-6.59 14.83-12.47 30.5-17.4 44.51a23.64 23.64 0 0 0 9.46 1.29 23.91 23.91 0 0 0 7.94-45.8Z" transform="translate(-1473.53 -1001.67)"/><path class="cls-10" d="M1683.54 1677.81a327.42 327.42 0 0 0-14.07 45.31 24.87 24.87 0 0 0 5.75.31 23.9 23.9 0 0 0 8.32-45.62Z" transform="translate(-1473.53 -1001.67)"/><path class="cls-11" d="M1686.63 1679.5a282 282 0 0 0-8.56 43.57 23.9 23.9 0 0 0 8.56-43.57ZM1694.61 1727.13a12.6 12.6 0 1 0 13.39 11.77 12.61 12.61 0 0 0-13.39-11.77ZM1741.57 1722.78a28 28 0 0 0-6.89 54.6c12.4-9.78 25.18-21.59 35.45-35a28 28 0 0 0-28.56-19.6Z" transform="translate(-1473.53 -1001.67)"/><path class="cls-10" d="M1679.07 1757.79a15.36 15.36 0 1 0 16.33 14.33 15.36 15.36 0 0 0-16.33-14.33Z" transform="translate(-1473.53 -1001.67)"/><path class="cls-11" d="M1679.06 1757.78a15.54 15.54 0 0 0-4.28.91 28.67 28.67 0 0 1-.8 5.33 92 92 0 0 1-7.38 16.52 15.37 15.37 0 1 0 12.46-22.76Z" transform="translate(-1473.53 -1001.67)"/><path class="cls-4" d="M1769.1 1741.62c-9 11.72-20.86 23.4-35.23 34.74a304.38 304.38 0 0 1-46.9 30.33l-.69.35v.78c-.45 12.71-5.77 21.81-12.5 33.32-1.75 3-3.55 6.07-5.42 9.46l-.12.2v.23c-3.14 20.51 9.81 70.41 18.72 97 4.47 13.4 13.48 28.81 23.09 44.75l1.76 2.92c9 14.83 17.44 28.85 17.38 35-.1 9.45-9.57 18.27-16.37 21-8.14 3.28-32.31 5.81-51.28-3.16-10.6-5-17.62-12.77-20.85-23.06-2.08-6.63-2.59-14.33-1.52-22.9.44-3.58.84-6.41 1.16-8.68 1.4-9.87 1.35-10.19-2.56-17.31l-.44-.81c-4.61-8.4-7.33-16.64 2.63-39.52 10.9-25-7.48-78.95-7.67-79.48-.66-1.85-1.6-3.85-2.59-6-3.84-8.24-9.11-19.53-4-34.52 3-8.72 7.46-16.07 12.22-23.86 5.7-9.32 12.17-19.88 17.28-34.88.95-2.79 2-6.09 3.27-9.78 2.35-7.07 5.27-15.86 8.58-25.28 6.07-17.25 11.75-31.78 17.36-44.41 10.55-23.76 20.84-40.57 30.6-50a82.49 82.49 0 0 0-19.64 22.3 243.32 243.32 0 0 0-13.34 26.6c-5.64 12.7-11.34 27.29-17.44 44.61-3.32 9.44-6.24 18.24-8.59 25.32-1.23 3.68-2.32 7-3.27 9.76-5 14.73-11.4 25.16-17 34.36-4.84 7.91-9.41 15.38-12.47 24.37-5.43 16 .09 27.83 4.12 36.48 1 2.07 1.88 4 2.49 5.75 4 11.07 16.85 56.67 7.74 77.57-9.47 21.75-8.2 31.47-2.53 41.81l.45.82c3.56 6.49 3.56 6.49 2.26 15.68-.32 2.29-.73 5.13-1.17 8.73-1.11 8.93-.57 17 1.62 24 3.46 11 10.94 19.3 22.23 24.64 12.09 5.72 26.25 6.92 37.36 6.2 7-.46 12.72-1.66 16-3 7.19-2.9 17.89-12.35 18-23.41.07-6.93-8.18-20.6-17.74-36.42l-1.76-2.92c-9.54-15.8-18.47-31.08-22.86-44.22-8.8-26.31-21.59-75.4-18.65-95.6 1.82-3.28 3.57-6.29 5.28-9.19 6.78-11.6 12.17-20.81 12.82-33.78a311.47 311.47 0 0 0 46.66-30.27c14.55-11.47 26.55-23.31 35.68-35.2a139.25 139.25 0 0 0 9.27-13.68c9.13-15.23 7.86-25.84 7.86-25.84-3.09 12.7-9.54 25.48-19.29 38.1Z" transform="translate(-1473.53 -1001.67)"/><path class="cls-12" d="M1639.38 2026c10.9 34.65 60.51 32.41 73.86 27 7.11-2.87 17.08-12 17.19-22.21.07-7-9.19-21.86-19.32-38.65-39.67-8.98-62.98 19.86-71.73 33.86Z" transform="translate(-1473.53 -1001.67)"/><path class="cls-13" d="M1711.1 1992.15c-25.15-5.71-43.73 3.8-56.19 15.09 4.34 25.69 43.49 41.24 55.57 36.37 7.1-2.86 14.44-10.08 14.56-20.29.06-6.28-3.09-12.94-11.13-26.52-.91-1.53-1.85-3.09-2.81-4.65Z" transform="translate(-1473.53 -1001.67)"/><path class="cls-4" d="m1711.94 1991-.54-.12a66.24 66.24 0 0 0-19-1.61c-28.69 1.86-46.24 23.36-54.14 36l-.32.51.18.57c7.89 25.09 36 32.39 59.68 30.85 6.41-.41 12.21-1.5 15.91-3 7.19-2.9 17.89-12.35 18-23.41.07-6.93-8.18-20.6-17.74-36.42Zm.82 60.8c-3.41 1.37-9 2.42-15.11 2.81-22.51 1.46-49.15-5.27-56.84-28.46 7.79-12.29 24.63-32.52 51.78-34.28a63.59 63.59 0 0 1 17.69 1.43l1.47 2.44c9 14.83 17.44 28.85 17.38 35-.13 9.49-9.57 18.31-16.37 21.06Z" transform="translate(-1473.53 -1001.67)"/><path class="cls-4" d="m1682.73 1993-3.53.75c.27.24 29.18 24.94 31.2 59.88l2.6-.15c-2.08-36.04-30-60.23-30.27-60.48Z" transform="translate(-1473.53 -1001.67)"/><path class="cls-5" d="M1983.11 2009.54c-8.49-17.88-30.68-57.84-32.75-87.4-2-28.14-6.66-35.26-1.47-53.52 8.38-29.5-1.91-50.93 2.72-72.23s16.82-62.94 24-103.13l-107.21 7.28c-.28 5.42-1.42 10.83-.9 16.28.26 2.83.62 5.64 1.06 8.43.47 3 1 5.9 1.64 8.8a213.17 213.17 0 0 0 6.6 23.68c6.75 20.12 15.09 37.5 18.6 48.35a31 31 0 0 1 1.67 7.36 149.71 149.71 0 0 0 1.75 15.44c3.11 19.23 9.38 41 13.74 52.22 15.4 39.61-9.34 124-12.53 140.67-2.3 12 17.12 38.12 56.06 39.42 18.8.64 33.25-28.88 30.16-43.83a43.62 43.62 0 0 0-3.14-7.82Z" transform="translate(-1473.53 -1001.67)"/><path class="cls-6" d="M1986.29 2017.4a46.11 46.11 0 0 0-3.17-7.86c-8.5-17.88-30.69-57.84-32.76-87.4-2-28.14-6.66-35.26-1.47-53.52 8.38-29.49-1.91-50.93 2.72-72.23s16.82-62.94 24-103.13l-107.21 7.27c-.37 4.29.3 9.42 1.69 15.13 2.88 11.84 8.89 26.18 15.24 40.7 3.05 7 6.17 14 9.06 20.75 2.68 6.28 5.16 12.38 7.19 18.09a127.56 127.56 0 0 1 3.84 12.46 51.64 51.64 0 0 1 1.52 9.57 66.52 66.52 0 0 0 1.23 6.88c2.94 14.16 10.48 44.75 14 53.8 15.39 39.61-1.68 116.48-3.17 128.77v.49c-1.42 12.39-.8 34.72 37.63 36 16.83.56 29.77-8.56 30.08-21.21v-.15a18.6 18.6 0 0 0-.23-3.38c-.06-.34-.13-.69-.19-1.03Z" transform="translate(-1473.53 -1001.67)"/><path class="cls-7" d="M1975.65 1693.26s-24.68-13.1-53.61-9.69-53.6 17-53.6 17a147 147 0 0 0 3.53 14.53c4.43 15 10.71 28 17 39.51 3.36 6.1 6.72 11.81 9.82 17.21 4.94 8.58 9.23 16.4 11.8 23.83a50.32 50.32 0 0 1 1.89 7.11c4 22.06 11 51.57 15 70.35 5 23.69 12.87 46.4 8.69 72.78-3.34 20.93 10.75 27.21 16.82 9.78 2.39-6.84-1.31-19.46-2.67-33.49-2.32-24-6.66-35.26-1.47-53.52 8.38-29.49-1.91-50.93 2.72-72.23s16.86-62.98 24.08-103.17Z" transform="translate(-1473.53 -1001.67)"/><path class="cls-9" d="M1878.41 1714.32a21.44 21.44 0 0 0-10.87 2.5c.26 2.83.62 5.64 1.06 8.43.47 3 1 5.9 1.64 8.8a213.17 213.17 0 0 0 6.6 23.68h.12a21.72 21.72 0 1 0 1.45-43.42Z" transform="translate(-1473.53 -1001.67)"/><path class="cls-10" d="M1878.41 1714.32a21.7 21.7 0 0 0-8.28 1.34c2.88 11.84 8.89 26.18 15.24 40.7a21.73 21.73 0 0 0-7-42Z" transform="translate(-1473.53 -1001.67)"/><path class="cls-11" d="M1878.41 1714.32a22.12 22.12 0 0 0-6.44.74c4.43 15 10.71 28 17 39.51a21.72 21.72 0 0 0-10.6-40.25ZM1905.94 1675.24a12.9 12.9 0 1 0 12.46 13.33 12.9 12.9 0 0 0-12.46-13.33ZM1947.27 1683.58a21.73 21.73 0 1 0 21 22.44 21.73 21.73 0 0 0-21-22.44ZM1927.44 1737.63a11.3 11.3 0 1 0 10.91 11.67 11.3 11.3 0 0 0-10.91-11.67Z" transform="translate(-1473.53 -1001.67)"/><path class="cls-9" d="M1907.13 1769.25a13.48 13.48 0 1 0 13 13.92 13.48 13.48 0 0 0-13-13.92Z" transform="translate(-1473.53 -1001.67)"/><path class="cls-10" d="M1907.13 1769.25a13.46 13.46 0 0 0-12.7 7.86c2.68 6.28 5.16 12.38 7.19 18.09a13 13 0 0 0 4.6 1 13.47 13.47 0 1 0 .91-26.93Z" transform="translate(-1473.53 -1001.67)"/><path class="cls-11" d="M1907.13 1769.25a13.36 13.36 0 0 0-8.3 2.53c4.94 8.58 9.23 16.4 11.8 23.83a13.48 13.48 0 0 0-3.5-26.36Z" transform="translate(-1473.53 -1001.67)"/><path class="cls-9" d="M1899.2 1805.59a11.7 11.7 0 0 0-3.76.49 31 31 0 0 1 1.67 7.36 149.71 149.71 0 0 0 1.75 15.44 11.65 11.65 0 0 0 .34-23.29Z" transform="translate(-1473.53 -1001.67)"/><path class="cls-10" d="M1905.46 1807.66a51.64 51.64 0 0 1 1.52 9.57 66.52 66.52 0 0 0 1.23 6.88 11.53 11.53 0 0 0 2.24-6.49 11.66 11.66 0 0 0-4.99-9.96Z" transform="translate(-1473.53 -1001.67)"/><path class="cls-4" d="M1984.29 2009c-1.31-2.74-2.9-6-4.75-9.66-9.78-19.64-26.15-52.49-27.88-77.27-.66-9.23-1.62-16.34-2.38-22-1.6-11.84-2.56-19 .86-31 4.81-16.9 3.54-31.4 2.43-44.19-.85-9.8-1.65-19 .31-28.12 1.66-7.65 4.48-17.93 7.74-29.83 3.6-13.16 7.8-28.32 11.5-44.14 4.05-17.4 3.53-29.44 3.53-29.44-4.61 25.64-11.78 51.84-17.55 72.89-3.27 11.94-6.09 22.25-7.76 30-2.06 9.46-1.24 18.91-.37 28.91 1.15 13.18 2.34 26.81-2.33 43.24-3.58 12.56-2.58 19.91-1 32.09.77 5.68 1.72 12.74 2.37 21.89 1.77 25.29 18.28 58.43 28.15 78.24 1.84 3.7 3.43 6.89 4.72 9.62a46.41 46.41 0 0 1 3.08 7.56c1.84 8.89-2.91 23.19-10.81 32.56-3.86 4.58-10.12 10-18 9.71-20.21-.67-38.39-8.73-48.63-21.54-4.64-5.81-7-12.07-6.19-16.34v-.13c.49-2.53 1.47-6.64 2.72-11.83 6.86-28.58 22.92-95.52 9.73-129.46-4.49-11.56-10.63-33.12-13.67-52a150.85 150.85 0 0 1-1.74-15.32 31.71 31.71 0 0 0-1.73-7.68c-1.57-4.84-4.06-10.92-7-18-3.69-9-7.89-19.21-11.64-30.4a213.25 213.25 0 0 1-6.57-23.55c-.6-2.77-1.15-5.7-1.62-8.72-.45-2.87-.81-5.68-1.05-8.35a110.64 110.64 0 0 1-.4-16.16 74.75 74.75 0 0 0 .52 33.78 213.38 213.38 0 0 0 6.65 23.83c3.78 11.28 8 21.52 11.7 30.56 2.87 7 5.35 13 6.89 17.78a29.27 29.27 0 0 1 1.6 7 156.37 156.37 0 0 0 1.77 15.58c3.08 19 9.28 40.79 13.82 52.48 12.89 33.18-3 99.56-9.84 127.91-1.27 5.29-2.27 9.47-2.76 12v.14c-.91 5.06 1.6 11.91 6.74 18.35s20.37 21.51 50.59 22.52c9 .3 15.88-5.62 20.11-10.64 8.49-10.07 13.38-25 11.37-34.76-.26-1.48-1.24-3.92-3.23-8.11Z" transform="translate(-1473.53 -1001.67)"/><path class="cls-12" d="M1983.11 2009.54c-42.47-21.29-70.25-1.49-83 12.23-2.3 12 17.12 38.12 56.06 39.42 18.8.64 33.25-28.88 30.16-43.83a43.62 43.62 0 0 0-3.22-7.82Z" transform="translate(-1473.53 -1001.67)"/><path class="cls-13" d="M1986.29 2017.4a46.11 46.11 0 0 0-3.17-7.86c-27.62-13.85-49-10.31-64.13-2.37-1.42 12.39-.8 34.72 37.63 36 16.83.56 29.77-8.56 30.08-21.21v-.15a24.37 24.37 0 0 0-.23-3.38c-.05-.34-.12-.69-.18-1.03Z" transform="translate(-1473.53 -1001.67)"/><path class="cls-4" d="m1984.29 2009-.19-.4-.4-.2c-11.8-5.92-23.34-9.1-34.32-9.47-23.87-.8-40.51 11.51-50.27 22l-.33.4v.39c-.91 5.06 1.6 11.91 6.74 18.35s20.37 21.51 50.59 22.52c9 .3 15.88-5.62 20.11-10.64 8.49-10.07 13.38-25 11.37-34.76-.33-1.56-1.31-4-3.3-8.19Zm-10.09 41.24c-3.86 4.58-10.12 10-18 9.71-20.21-.67-38.39-8.73-48.63-21.54-4.52-5.67-6.9-11.77-6.25-16 9.43-10 25.33-21.61 48-20.85 10.47.35 21.52 3.37 32.84 9a43.8 43.8 0 0 1 2.88 7.16c1.81 8.83-2.94 23.13-10.84 32.5Z" transform="translate(-1473.53 -1001.67)"/><path class="cls-4" d="M1943.92 2001.4c.16.37 16.13 36.93 10.94 59.55l2.54.58c5.38-23.45-10.42-59.65-11.1-61.19Z" transform="translate(-1473.53 -1001.67)"/><path class="cls-11" d="M1990.74 1527.66a17.38 17.38 0 1 0 16.79 17.95 17.38 17.38 0 0 0-16.79-17.95ZM1936.31 1537.53a11.54 11.54 0 1 0 11.15 11.91 11.53 11.53 0 0 0-11.15-11.91ZM1948.16 1591.88a25.2 25.2 0 1 0 24.34 26 25.21 25.21 0 0 0-24.34-26ZM1890.61 1620a15.52 15.52 0 1 0 15 16 15.53 15.53 0 0 0-15-16ZM1823.21 1603.78a16.29 16.29 0 1 0 15.74 16.83 16.29 16.29 0 0 0-15.74-16.83ZM1787.83 1642.59a19.94 19.94 0 1 0 19.26 20.59 19.93 19.93 0 0 0-19.26-20.59ZM1839.84 1653.8a13.74 13.74 0 1 0 13.27 14.19 13.75 13.75 0 0 0-13.27-14.19Z" transform="translate(-1473.53 -1001.67)"/><path class="cls-10" d="M1826.33 1695.4a25.53 25.53 0 1 0 24.66 26.37 25.53 25.53 0 0 0-24.66-26.37Z" transform="translate(-1473.53 -1001.67)"/><path class="cls-11" d="M1826.33 1695.41a25.5 25.5 0 0 0-25.06 33.59c15 6.49 32.82 7.49 47 3.44a25.53 25.53 0 0 0-21.94-37Z" transform="translate(-1473.53 -1001.67)"/><path class="cls-5" d="M2189.92 1265.43c6.55-22.14 6.21-84.36-17.15-115.65-16.64-22.29-42.63-45.59-104-50.77a351.91 351.91 0 0 0-47.5-.5c-1.82.08-3.67.19-5.53.31q-6.45.4-12.55 1a285.4 285.4 0 0 0-34.64 5.38c-86.85 19.26-100.62 72.83-111.4 107.26-7.78 24.91-24.35 58.13-26.65 93a107 107 0 0 0 2.18 30.68 93.8 93.8 0 0 0 7.23 20.65 99.89 99.89 0 0 0 6.94 12c13 19.36 30.15 34.5 52.35 44.41a138.06 138.06 0 0 0 18.68 6.75 165.92 165.92 0 0 0 20.53 4.38c37 5.51 83.85.78 142.76-16.62 138.07 39.07 188.32-105.97 108.75-142.28Z" transform="translate(-1473.53 -1001.67)"/><path class="cls-6" d="M2196 1268.52a6.35 6.35 0 0 0-.77-.41c-1.71-.95-3.48-1.84-5.33-2.69 3.06-10.32 4.61-29.37 3-49.93 0-.56-.1-1.14-.15-1.71-1.95-23-7.87-47.71-20-64-16.65-22.29-42.64-45.59-104-50.77a355.11 355.11 0 0 0-47.49-.5c-1.83.08-3.68.18-5.54.31-4.31.28-8.49.6-12.56 1a285.75 285.75 0 0 0-34.63 5.39c-86.85 19.26-100.62 72.82-111.4 107.26-5 16-11.66 79.89 8.07 123.27 4.9 10.8 11.45 20.32 20 27.53a145.52 145.52 0 0 0 34.28 21.35q3.72 1.7 7.49 3.13a173.43 173.43 0 0 0 31.44 8.79c51 9.38 102-2.52 125.84-9.55 134.45 37.94 182.65-78.73 111.75-118.47Z" transform="translate(-1473.53 -1001.67)"/><path class="cls-7" d="M2196 1268.52a6.35 6.35 0 0 0-.77-.41c-1.71-.95-3.48-1.84-5.33-2.69 3.06-10.32 4.61-29.37 3-49.93 0-.56-.1-1.14-.15-1.71-1.95-23-7.87-47.71-20-64-16.65-22.29-42.64-45.59-104-50.77a355.11 355.11 0 0 0-47.49-.5c-1.83.08-3.68.18-5.54.31-4.31.28-8.49.6-12.56 1a285.75 285.75 0 0 0-34.63 5.39c-37.2 8.25-61 22.8-76.88 39.44-22.74 43.38-32.47 93.92-16.06 138.76a128.72 128.72 0 0 0 16.05 30.47c1.36 1.82 2.8 3.54 4.28 5.2a85.91 85.91 0 0 0 16.51 14.47 91.85 91.85 0 0 0 24.06 11.5c19.08 6 40.26 6.19 60.73 1.42 35.42-7 62.54-15.58 95.13-26 36.5-11.73 70.41 3.85 104.3-6.58 13.64-3.58 37.48-5.38 17.49-30.85a69 69 0 0 0-18.14-14.52Z" transform="translate(-1473.53 -1001.67)"/><path class="cls-6" d="M2192.9 1212.82c0-.58-.09-1.17-.15-1.76-10.8-29.15-33.84-47.56-54.36-42-22.59 6-33.61 38.79-24.59 73.12s34.65 57.25 57.24 51.19l.25-.06c11.22-3.12 19.56-12.83 24-26-1.75-1-3.56-1.89-5.46-2.77 3.1-10.76 4.69-30.45 3.07-51.72Z" transform="translate(-1473.53 -1001.67)"/><path class="cls-5" d="M2193 1215.49c0-.56-.1-1.14-.15-1.71-10.56-28.2-33.06-46-53.1-40.67-22.07 5.85-32.84 37.51-24 70.73s33.85 55.37 55.92 49.52l.24-.07c11-3 19.11-12.41 23.41-25.18-1.71-.95-3.48-1.84-5.33-2.69 3.01-10.32 4.54-29.37 3.01-49.93Z" transform="translate(-1473.53 -1001.67)"/><path d="M2189.92 1265.42c3.06-10.32 4.61-29.37 3-49.93-10.41-25-31.41-40.44-50.37-35.41-21.55 5.71-32.31 35.65-24 66.87 8.19 30.86 31.94 51.4 53.29 46.34.25 0 .49-.12.73-.18 11-2.92 19.16-12.12 23.45-24.59a6.35 6.35 0 0 0-.77-.41c-1.71-.95-3.48-1.84-5.33-2.69Z" transform="translate(-1473.53 -1001.67)"/><path class="cls-11" d="M2057.93 1153.54a17.38 17.38 0 1 0 18.35 16.35 17.39 17.39 0 0 0-18.35-16.35ZM2024.54 1114.15a17.79 17.79 0 1 0 18.79 16.74 17.79 17.79 0 0 0-18.79-16.74ZM2083.15 1109.86a20.47 20.47 0 1 0 21.62 19.25 20.46 20.46 0 0 0-21.62-19.25ZM2077.89 1202.32a11.72 11.72 0 1 0 12.38 11 11.71 11.71 0 0 0-12.38-11ZM2095.61 1178.4a8.78 8.78 0 1 0 9.28 8.26 8.77 8.77 0 0 0-9.28-8.26Z" transform="translate(-1473.53 -1001.67)"/><path class="cls-9" d="M1875.27 1333.93a42.59 42.59 0 0 0-35.35 22.89 99.89 99.89 0 0 0 6.94 12c13 19.36 30.15 34.5 52.35 44.41a42.61 42.61 0 0 0-23.94-79.34Z" transform="translate(-1473.53 -1001.67)"/><path class="cls-10" d="M1875.27 1333.93a43.63 43.63 0 0 0-10 1.8c4.9 10.8 11.45 20.32 20 27.53a145.52 145.52 0 0 0 34.28 21.35 42 42 0 0 0 .72-10.62 42.62 42.62 0 0 0-45-40.06ZM1884.09 1281a20.53 20.53 0 1 0 21.69 19.31 20.52 20.52 0 0 0-21.69-19.31Z" transform="translate(-1473.53 -1001.67)"/><path class="cls-11" d="M1884.09 1281a20.6 20.6 0 0 0-8.47 2.38 128.72 128.72 0 0 0 16.05 30.47c1.36 1.82 2.8 3.54 4.28 5.2a20.54 20.54 0 0 0-11.86-38Z" transform="translate(-1473.53 -1001.67)"/><path class="cls-9" d="M1836 1304.21a16.11 16.11 0 0 0-5.45 1.28 107 107 0 0 0 2.18 30.68 16.27 16.27 0 1 0 3.27-32Z" transform="translate(-1473.53 -1001.67)"/><path class="cls-10" d="M1925.69 1321a14.12 14.12 0 1 0 14.91 13.28 14.13 14.13 0 0 0-14.91-13.28Z" transform="translate(-1473.53 -1001.67)"/><path class="cls-11" d="M1925.69 1321a14.16 14.16 0 0 0-13.23 12.55 91.85 91.85 0 0 0 24.06 11.5 14.12 14.12 0 0 0-10.83-24Z" transform="translate(-1473.53 -1001.67)"/><path class="cls-9" d="M1944.15 1364.73a18.69 18.69 0 1 0 19.73 17.57 18.69 18.69 0 0 0-19.73-17.57Z" transform="translate(-1473.53 -1001.67)"/><path class="cls-10" d="M1944.14 1364.74a18.67 18.67 0 0 0-17.57 19.72 20.57 20.57 0 0 0 .48 3.28 173.43 173.43 0 0 0 31.44 8.79 18.67 18.67 0 0 0-14.35-31.79Z" transform="translate(-1473.53 -1001.67)"/><path class="cls-9" d="M1928.53 1405.73a11.62 11.62 0 0 0-10.93 12.27 13.33 13.33 0 0 0 .29 2 165.92 165.92 0 0 0 20.53 4.38 11.63 11.63 0 0 0-9.9-18.67ZM1974.49 1399.88a11.05 11.05 0 1 0 11.68 10.4 11 11 0 0 0-11.68-10.4Z" transform="translate(-1473.53 -1001.67)"/><path class="cls-10" d="M1986.42 1371.91a7 7 0 1 0 7.44 6.62 7 7 0 0 0-7.44-6.62Z" transform="translate(-1473.53 -1001.67)"/><path class="cls-4" d="M2191.47 1264.71c6.65-24.38 5.07-85.27-17.66-115.71-15.46-20.71-41-45.23-102.09-51l-2.83-.25a357.47 357.47 0 0 0-47.67-.5c-1.83.08-3.69.19-5.55.31-4.33.27-8.57.61-12.6 1a291.54 291.54 0 0 0-34.8 5.4c-84.64 18.77-100.65 70.41-111.24 104.58l-1.11 3.57c-2.13 6.82-4.94 14.31-7.92 22.25-8 21.37-17.11 45.6-18.79 71.09a108.76 108.76 0 0 0 2.21 31 95.26 95.26 0 0 0 7.33 20.94 101.14 101.14 0 0 0 7 12.2 123.7 123.7 0 0 0 52.89 44.86 137.65 137.65 0 0 0 18.87 6.82 167.6 167.6 0 0 0 20.69 4.42h.17c3.23.48 6.56.88 9.9 1.2 36.39 3.47 81.1-2.52 132.9-17.78a176.5 176.5 0 0 0 30.87 5.88c64.45 6.14 103.82-30.41 114.24-69.35 9.21-34.27-4.78-66.64-34.81-80.93Zm32.32 80.27c-10.13 37.89-48.54 73.43-111.48 67.44a175 175 0 0 1-30.77-5.9l-.36-.1-.36.11c-51.63 15.24-96.13 21.23-132.27 17.79-3.36-.32-6.69-.73-9.92-1.21h-.16a164.62 164.62 0 0 1-20.23-4.33 135.4 135.4 0 0 1-18.5-6.69 121.07 121.07 0 0 1-51.8-43.94 99.13 99.13 0 0 1-6.85-11.88 92.49 92.49 0 0 1-7.12-20.37 104.35 104.35 0 0 1-2.16-30.3c1.66-25.11 10.67-49.14 18.63-70.35 3-8 5.81-15.49 8-22.38l1.11-3.58c10.42-33.59 26.16-84.36 109.32-102.8a284.23 284.23 0 0 1 34.48-5.35c4-.39 8.21-.73 12.51-1 1.85-.12 3.69-.23 5.52-.31a354 354 0 0 1 47.33.5c62 5.22 87.67 29.66 103.05 50.25 22.58 30.25 23.8 91.32 16.94 114.49l-.32 1.09 1 .47c29.99 13.67 43.5 44.43 34.41 78.37Z" transform="translate(-1473.53 -1001.67)"/><path class="cls-14" d="M2143.67 1186.46c-20.83 5.53-31.38 33.91-23.55 63.41s31.05 48.91 51.88 43.38 31.37-33.91 23.55-63.4-31.05-48.91-51.88-43.39Z" transform="translate(-1473.53 -1001.67)"/><path class="cls-15" d="M2143.67 1186.46c-20.83 5.53-31.38 33.91-23.55 63.41a74.78 74.78 0 0 0 9.56 21.69c23.84 7 51.87 5.21 67.85-13.33a73 73 0 0 0-2-28.38c-7.8-29.49-31.03-48.91-51.86-43.39Z" transform="translate(-1473.53 -1001.67)"/><path class="cls-16" d="M2141.8 1209.71c-14.25 3.79-22.92 19.69-22.18 38.16 7 28.69 26.88 45.64 44.64 46.5 17.4-4.62 26.49-27.31 20.28-50.69s-25.33-38.58-42.74-33.97Z" transform="translate(-1473.53 -1001.67)"/><path class="cls-17" d="M2164.41 1295.78h-.22c-9.38-.46-19.07-5.15-27.27-13.21-8.85-8.71-15.3-20.59-18.67-34.36v-.27c-.77-19.47 8.78-35.74 23.23-39.57a26.19 26.19 0 0 1 6.72-.87c16.36 0 32.23 15.07 37.74 35.83 3.08 11.59 2.6 23.41-1.35 33.26s-11.08 16.79-19.93 19.14Zm-43.4-48.1c3.25 13.2 9.43 24.57 17.88 32.87 7.64 7.52 16.59 11.92 25.22 12.4 7.88-2.17 14.21-8.34 17.84-17.42 3.72-9.29 4.16-20.48 1.23-31.49-5.18-19.55-19.91-33.75-35-33.75a23.3 23.3 0 0 0-6 .78c-13.18 3.49-21.84 18.53-21.18 36.61Z" transform="translate(-1473.53 -1001.67)"/><path d="M2143.12 1220.93c-14 3.71-21.27 21.93-16.28 40.7s20.34 31 34.32 27.28 21.27-21.93 16.28-40.7-20.34-30.99-34.32-27.28Z" transform="translate(-1473.53 -1001.67)"/><path class="cls-18" d="M2159.71 1198a18 18 0 1 0 21 14.34 18 18 0 0 0-21-14.34Z" transform="translate(-1473.53 -1001.67)"/><path class="cls-15" d="M2140.07 1235.82a5.74 5.74 0 1 0 6.7 4.57 5.74 5.74 0 0 0-6.7-4.57Z" transform="translate(-1473.53 -1001.67)"/><path d="M2153.81 1184.36a29.72 29.72 0 0 0-10.48.84c-10.49 2.78-18.8 11.14-23.41 23.52-4.54 12.23-4.92 27-1.06 41.48 6.58 24.8 24.26 43.38 43 45.16a29.64 29.64 0 0 0 10.47-.84c21.49-5.71 32.47-34.86 24.48-65-6.58-24.81-24.26-43.38-43-45.16Zm17.85 107.64a27.09 27.09 0 0 1-9.56.77c-17.67-1.69-34.42-19.47-40.72-43.24-3.72-14-3.37-28.18 1-39.9s12-19.35 21.63-21.91a27.13 27.13 0 0 1 9.56-.77c17.68 1.68 34.42 19.46 40.73 43.24 7.62 28.75-2.53 56.47-22.64 61.81Z" transform="translate(-1473.53 -1001.67)"/><path class="cls-7" d="m2194.74 1301.22 27.12 32.38c24.64-14.05 4.5-53.8-27.12-32.38Z" transform="translate(-1473.53 -1001.67)"/><path class="cls-4" d="M2222.44 1296.08c-4.75-2.45-14.76-5.2-28.44 4.06l1.47 2.16c9.3-6.3 18.45-7.69 25.77-3.9a19.58 19.58 0 0 1 10.31 16.85c.14 7.11-3.62 13.39-10.34 17.21l1.29 2.27c7.57-4.32 11.82-11.44 11.66-19.53a22.25 22.25 0 0 0-11.72-19.12Z" transform="translate(-1473.53 -1001.67)"/><path class="cls-5" d="M2037.24 1435.92c42.84 32.84 93.82 2.55 101-42.91l-91.56-76c-32.49 25.41-55.56 83.54-9.44 118.91Z" transform="translate(-1473.53 -1001.67)"/><path class="cls-6" d="M2045.09 1424.4c38.65 26.11 80.35 8.26 87.72-32.52l-86.14-74.88c-32.48 25.42-35.19 84.7-1.58 107.4Z" transform="translate(-1473.53 -1001.67)"/><path class="cls-7" d="m2062.69 1367.28-7.3-45.22c-42.84 20.69-16.18 102.34 7.3 45.22Z" transform="translate(-1473.53 -1001.67)"/><path class="cls-4" d="M2096.77 1444.31c-19.68 7.87-40.54 4.52-58.73-9.43-16.56-12.7-25.37-29.63-25.46-49-.12-27.93 17.44-54.21 34.89-67.85l-1.6-2c-18 14-36 41.09-35.89 69.91.09 20.18 9.25 37.83 26.47 51 10.58 8.12 22 12.78 33.68 13.89a58.8 58.8 0 0 0 27.61-4.1c22-8.78 38-29.29 41.77-53.53l-2.57-.4c-3.68 23.34-19.07 43.08-40.17 51.51Z" transform="translate(-1473.53 -1001.67)"/><path d="M2062.11 1363.8c5.07 5.33 6 14.07 6.45 23.42.89 17.67.19 37.56 22.83 41 9.55 1.43 16.58-3.15 21.58-9.46 7.79-9.82 10.66-23.84 10.55-25.82Z" transform="translate(-1473.53 -1001.67)" style="fill:#510000"/><path d="M2093.44 1393c-3.83-6.44-16.94-8.92-24.88-5.77.89 17.67.19 37.56 22.83 41 9.55 1.43 16.58-3.15 21.58-9.46 9.82-21.37-9.36-30.61-19.53-25.77Z" transform="translate(-1473.53 -1001.67)" style="fill:#f66c7d"/><path d="M2093.44 1393c-3.83-6.44-12.84-8.14-19.42-7 .9 17.67 1.4 31.74 16.56 36a18.49 18.49 0 0 0 19.58-5.6c13.37-15.84-6.55-28.24-16.72-23.4Z" transform="translate(-1473.53 -1001.67)" style="fill:#f8919d"/><path d="M2101.05 1390.51a16 16 0 0 0-7.13.87c-2.71-3.55-8.17-6.07-14.61-6.68a24.72 24.72 0 0 0-11.23 1.31l-.87.35.05.93c0 1.16.11 2.32.16 3.49.73 16.57 1.56 35.35 23.78 38.69.46.07.92.12 1.37.17 8.27.79 15.48-2.62 21.42-10.11l.29-.37v-.16c4.35-9.63 2.68-16.16.5-20a17.67 17.67 0 0 0-13.73-8.49Zm10.79 27.54c-5.63 7-12.38 10-20.25 8.84-20.1-3-20.85-19.9-21.57-36.22 0-.85-.07-1.7-.11-2.55a23.23 23.23 0 0 1 9.15-.83c6.1.58 11.3 3.08 13.26 6.37l.61 1 1.07-.51a13 13 0 0 1 6.8-1.06 15.24 15.24 0 0 1 11.72 7.23c2.7 4.68 2.48 10.84-.68 17.73Z" transform="translate(-1473.53 -1001.67)" style="fill:#aa2f41"/><path d="M2092.38 1393.75c4.74 6.63 1.33 20.73 1.29 20.88 0 0 6.46-13.66.83-22.4Z" transform="translate(-1473.53 -1001.67)" style="fill:#bc314d"/><path class="cls-4" d="m2124.79 1392-68.46-32.41 4.84 5.07c4.83 5.09 5.66 14 6.09 22.6 0 1.16.11 2.32.16 3.49.73 16.57 1.56 35.35 23.78 38.69.46.07.92.12 1.37.17 8.27.79 15.48-2.61 21.42-10.11l.29-.37c7.75-10 10.69-23.88 10.55-26.35Zm-12.79 25.9-.23.29c-5.6 6.93-12.32 9.87-20.13 8.7-20.1-3-20.85-19.9-21.57-36.22-.05-1.18-.1-2.35-.16-3.51-.35-7.17-1-14.49-3.87-20.09l56.19 26.61c-.46 3.32-3.35 15.48-10.23 24.22Z" transform="translate(-1473.53 -1001.67)"/><path class="cls-5" d="m2051.07 1314.17 10.18 51.64c59.07 61.86 163.74 26.13 168.49-23.15 6.05-62.73-117.93-73.14-178.67-28.49Z" transform="translate(-1473.53 -1001.67)"/><path class="cls-6" d="m2051.07 1314.17 10.18 51.64c61.17 37.62 141.3 20.81 159.55-25.22 22.48-56.7-108.99-71.07-169.73-26.42Z" transform="translate(-1473.53 -1001.67)"/><path class="cls-7" d="m2051.07 1314.17 10.18 51.64c58.33 19.22 129.94 5.17 146.47-32 23.53-52.81-90.19-61.65-156.65-19.64Z" transform="translate(-1473.53 -1001.67)"/><path class="cls-8" d="M2169.61 1298.34c-12.65-6.71-35.11-6.62-50.19.19s-17.06 17.78-4.42 24.48 35.11 6.62 50.19-.2 17.06-17.81 4.42-24.47Z" transform="translate(-1473.53 -1001.67)"/><path class="cls-4" d="M2205.85 1299.22c-40.35-22.91-114.48-16.29-155.55 13.9l1.54 2.1c40.36-29.66 113.15-36.21 152.72-13.73 17.27 9.8 25.52 24 23.88 41-1.89 19.65-21.18 38.59-49.13 48.27-32 11.08-81.92 11-117.12-25.91l-1.89 1.81c20 21 44.67 30.33 68.25 32.57a124.48 124.48 0 0 0 51.61-6c29.36-10.16 48.86-29.5 50.88-50.48 1.75-18.11-6.96-33.18-25.19-43.53Z" transform="translate(-1473.53 -1001.67)"/><path class="cls-7" d="M2055.36 1357.15c-5.21 4.26 0 15.46 0 15.46s5.69-10.27 16.94-8.11c.03 0-11.74-11.6-16.94-7.35Z" transform="translate(-1473.53 -1001.67)"/><path class="cls-4" d="M2061.63 1364.6a11.81 11.81 0 0 0-6.24 8c.07-.09 7.36-8.31 16.94-8.11a11.63 11.63 0 0 0-10.7.11Z" transform="translate(-1473.53 -1001.67)"/><path class="cls-7" d="M2040.33 1305.21c-8.19 8.91-7.66 24.75 7.14 31.8l24.89-27.07c-9.14-14.23-25.36-12.02-32.03-4.73Z" transform="translate(-1473.53 -1001.67)"/><path class="cls-4" d="M2056.21 1298.28a20.71 20.71 0 0 0-16.84 6 21.32 21.32 0 0 0-5.28 17.66c1.84 12.31 13.38 15 13.38 15-6-3.59-9.87-9.06-10.8-15.39a18.75 18.75 0 0 1 4.62-15.52c3.21-3.5 9-5.55 14.77-5.22a21.47 21.47 0 0 1 16.3 9.06 19.12 19.12 0 0 0-16.15-11.59Z" transform="translate(-1473.53 -1001.67)"/><path class="cls-24" d="M2056 1311.63c-8.61-3.94-16.6 6.37-5.27 11.29 8 3.45 11.46 2.55 18.15 9-2.31-10.46-4.72-16.52-12.88-20.29Z" transform="translate(-1473.53 -1001.67)"/><path class="cls-9" d="M2056 1311.63c-8.61-3.94-16.6 6.37-5.27 11.29 8 3.45 11.46 2.55 18.15 9-2.31-10.46-4.72-16.52-12.88-20.29Z" transform="translate(-1473.53 -1001.67)"/><path class="cls-24" d="M2056 1311.63c-8.61-3.94-13.83 2.82-2.5 7.73 8 3.45 9.88 3.37 14.12 7.32-2.1-7.32-4.93-11.96-11.62-15.05Z" transform="translate(-1473.53 -1001.67)"/><path class="cls-4" d="M2056.5 1310.45a10.81 10.81 0 0 0-3.49-1c-4.23-.41-8.11 2-9 5.55-.35 1.34-.93 6 6.19 9.07a66.92 66.92 0 0 0 6.61 2.39c4 1.25 6.81 2.15 11.16 6.31l3.08 3-.9-4.17c-2.42-10.98-5.15-17.27-13.65-21.15Zm1.07 13.57a63.17 63.17 0 0 1-6.36-2.3c-3.53-1.53-5.29-3.78-4.71-6 .52-2 3-3.92 6.27-3.61a8.09 8.09 0 0 1 2.64.73c6.57 3 9.17 7.42 11.25 15.48a27 27 0 0 0-9.09-4.32Z" transform="translate(-1473.53 -1001.67)"/><path class="cls-6" d="M1992.59 1170.2c-26.3-2.65-50.1 25.91-53.16 63.78s15.78 70.73 42.09 73.37 50.1-25.9 53.16-63.78-15.78-70.72-42.09-73.37Z" transform="translate(-1473.53 -1001.67)"/><path class="cls-5" d="M1991.6 1174.71c-25.54-2.55-48.67 25.14-51.66 61.83s15.29 68.53 40.83 71.08 48.67-25.13 51.66-61.84-15.29-68.52-40.83-71.07Z" transform="translate(-1473.53 -1001.67)"/><path d="M1991.17 1182.64c-24.61-2.25-47.08 24-50.18 58.59s14.31 64.49 38.92 66.74 47.07-24 50.18-58.59-14.31-64.49-38.92-66.74Z" transform="translate(-1473.53 -1001.67)"/><path class="cls-14" d="M1989.59 1189.09c-23.46-2.13-44.91 22.85-47.89 55.79s13.62 61.36 37.08 63.49 44.91-22.85 47.89-55.79-13.62-61.36-37.08-63.49Z" transform="translate(-1473.53 -1001.67)"/><path class="cls-15" d="M1989.59 1189.09c-23.46-2.13-44.91 22.85-47.89 55.79a83.15 83.15 0 0 0 .08 15.87c9.06 25.65 59.82 32.87 82.94 3.79a83.36 83.36 0 0 0 2-12c2.93-32.9-13.67-61.32-37.13-63.45Z" transform="translate(-1473.53 -1001.67)"/><path class="cls-16" d="M1981.64 1214.49c-19.27-1.75-36.79 17.82-39.14 43.71a61.25 61.25 0 0 0-.25 6.32c4.1 28.51 20.88 42 36.5 43.62 17-2.06 31.42-20.27 33.53-43.62 2.35-25.88-11.37-48.28-30.64-50.03Z" transform="translate(-1473.53 -1001.67)"/><path class="cls-17" d="M1978.76 1309.55h-.16c-14.64-1.49-33.32-14.13-37.74-44.82v-.19a63.8 63.8 0 0 1 .27-6.46c2.29-25.28 19-45.09 38.14-45.09.83 0 1.68 0 2.52.11 9.77.89 18.47 6.79 24.49 16.63s8.58 22.11 7.42 34.93c-2.16 23.82-16.78 42.69-34.76 44.88Zm-35.11-45.14c4.2 28.92 21.48 40.86 35.08 42.32 7.83-1 15.37-5.71 21.24-13.28 6-7.79 9.92-18.11 10.92-29.06 1.1-12.22-1.39-24-7-33.2s-13.49-14.5-22.36-15.3c-.75-.07-1.51-.1-2.26-.1-17.66 0-33.19 18.68-35.35 42.53a59.4 59.4 0 0 0-.27 6.09Z" transform="translate(-1473.53 -1001.67)"/><path d="M1980.28 1226.73c-15.41-1.4-29.43 14.25-31.3 35s9.1 38.62 24.51 40 29.43-14.26 31.31-35-9.1-38.6-24.52-40Z" transform="translate(-1473.53 -1001.67)"/><path class="cls-18" d="M1994.28 1210.73a18 18 0 1 0 21.4 13.79 18 18 0 0 0-21.4-13.79Z" transform="translate(-1473.53 -1001.67)"/><path class="cls-15" d="M1963.84 1243.46a5.74 5.74 0 1 0 6.82 4.39 5.72 5.72 0 0 0-6.82-4.39Z" transform="translate(-1473.53 -1001.67)"/><path d="M1989.85 1187.81h-.14c-24.14-2.19-46.26 23.37-49.31 57s14.07 62.6 38.12 64.89h.15c24.14 2.19 46.25-23.36 49.3-57s-14.06-62.61-38.12-64.89Zm35.52 64.65c-2.91 32.17-23.76 56.67-46.47 54.61h-.13c-22.63-2.16-38.68-30-35.77-62.06s23.76-56.67 46.47-54.61h.14c22.63 2.15 38.67 29.99 35.76 62.06Z" transform="translate(-1473.53 -1001.67)"/><path class="cls-1" d="M1884.38 1144.33a47.13 47.13 0 0 1-15.51-7.12c-34.09-23.13-58.93-88-102.73-93.84a48.86 48.86 0 0 0-12.62 0c-33.21 4.14-35.93 91.1 1.53 145.47a114.66 114.66 0 0 0 11.28 14c49 51.76 122.2 25.86 122.51-12.64 18.87.02 22.42-39.5-4.46-45.87Z" transform="translate(-1473.53 -1001.67)"/><path class="cls-2" d="M1766.14 1043.37c-2.86-1-8.25-.58-12.62 0-33.21 4.14-35.93 91.1 1.53 145.47 12.81 15.58 39.07 18.31 59 15.2 14.34-1.3 24.55-18.57 16.13-27.15-36.6-37.32-19.42-117.89-64.04-133.52Z" transform="translate(-1473.53 -1001.67)"/><path class="cls-3" d="M1766.14 1043.37c-2.69-.75-8.25-.58-12.62 0-33.21 4.14-36.46 90.58 1.53 145.47 6.92 8.73 35.9 16 53.68 10.36 11.42-3.62 14.53-14.4 8.2-24.62-36.39-58.84-15.86-121.4-50.79-131.21Z" transform="translate(-1473.53 -1001.67)"/><path class="cls-4" d="M1884.68 1143.06a45.48 45.48 0 0 1-15.08-6.93c-13.16-8.93-24.82-24-37.16-40-18.27-23.67-37.16-48.14-62.53-53.44-1.19-.24-2.4-.45-3.6-.61a50.11 50.11 0 0 0-13 0c-8.44 1-15.4 7.18-20.14 17.74-13.07 29.14-7.85 88.23 20.76 129.76l.08.11a116.37 116.37 0 0 0 11.36 14.08c13.58 14.34 30.22 23.9 48.11 27.63 22.42 4.68 45.94-.15 61.39-12.6 9.37-7.55 14.75-17.22 15.22-27.32 7.69-.69 13.53-7.69 14.73-17.87 1.46-12.09-4.25-26.78-20.14-30.55Zm17.6 30.22c-.91 7.78-5.41 15.62-13.4 15.62h-1.3v1.3c-.08 9.76-5.15 19.19-14.29 26.55-14.85 12-37.54 16.6-59.22 12.08-17.36-3.63-33.53-12.92-46.75-26.87a115 115 0 0 1-11.15-13.84l-.09-.11c-28.07-40.8-33.25-98.66-20.47-127.14 4.34-9.68 10.6-15.29 18.08-16.23a47.68 47.68 0 0 1 12.29 0c1.13.15 2.28.35 3.4.58 24.43 5.1 43 29.19 61 52.48 12.47 16.15 24.25 31.4 37.76 40.57a48 48 0 0 0 15.94 7.3c14.34 3.43 19.48 16.76 18.2 27.71Z" transform="translate(-1473.53 -1001.67)"/><path class="cls-5" d="M1884.38 1144.33a47.13 47.13 0 0 1-15.51-7.12c-.14 15.29-1.88 45.85-12.88 59.75-14.35 18.14-66.19 29.61-100.9-8.11a114.66 114.66 0 0 0 11.28 14c49 51.76 122.2 25.86 122.51-12.64 18.83.01 22.38-39.51-4.5-45.88Z" transform="translate(-1473.53 -1001.67)"/><path class="cls-6" d="M1884.38 1144.33a47.13 47.13 0 0 1-15.51-7.12c-.14 15.29-1.88 45.85-12.88 59.75-14.35 18.14-66.19 29.61-100.9-8.11 3.41 5 6.58 10.31 11.28 14 51.65 40.48 113.46 16.16 113.76-22.34 18.87.01 31.13-29.81 4.25-36.18Z" transform="translate(-1473.53 -1001.67)"/><path class="cls-7" d="M1884.38 1144.33a47.13 47.13 0 0 1-15.51-7.12c-.14 15.29-1.88 45.85-12.88 59.75-14.35 18.14-66.19 29.61-100.9-8.11 42.94 51.48 115.36 28 115.67-10.47 18.83.02 40.5-27.68 13.62-34.05Z" transform="translate(-1473.53 -1001.67)"/><path class="cls-4" d="M1884.68 1143.06a45.48 45.48 0 0 1-15.08-6.93l-2-1.36v2.43c-.13 13.09-1.6 45-12.61 59-9 11.44-33.57 20.12-59 14.82a75.13 75.13 0 0 1-40-23l-2 1.62a117.49 117.49 0 0 0 11.41 14.15c13.58 14.34 30.22 23.9 48.11 27.63 22.42 4.68 45.94-.15 61.39-12.6 9.37-7.55 14.75-17.22 15.22-27.32 7.69-.69 13.53-7.69 14.73-17.87 1.43-12.11-4.28-26.8-20.17-30.57Zm17.6 30.22c-.91 7.78-5.41 15.62-13.4 15.62h-1.3v1.3c-.08 9.76-5.15 19.19-14.29 26.55-14.85 12-37.54 16.6-59.22 12.08-17.36-3.63-33.53-12.92-46.75-26.87-.6-.64-1.2-1.29-1.79-2a76.2 76.2 0 0 0 30 13.53c26.36 5.5 52-3.69 61.53-15.76 10.57-13.37 12.81-41.23 13.13-58.17a46.62 46.62 0 0 0 13.94 6c14.29 3.44 19.43 16.77 18.15 27.72Z" transform="translate(-1473.53 -1001.67)"/><path class="cls-5" d="M1884.38 1144.33c-42.78-10.17-68.09-94.29-118.24-101 33.25 14.91 41.36 60.52 53 92.22 20.8 56.83 53.88 54.3 69.77 54.61 18.8.06 22.35-39.46-4.53-45.83Z" transform="translate(-1473.53 -1001.67)"/><path class="cls-6" d="M1884.17 1149.71c-41.86-13.47-67.88-99.67-118-106.34 33.25 14.91 39.73 61.17 53 92.22 15.85 37.18 48.51 47.72 63.43 44.35 12.4-2.81 25.73-22.45 1.57-30.23Z" transform="translate(-1473.53 -1001.67)"/><path class="cls-7" d="M1850.71 1128.24c-13.47-15.43-47.6-80-84.57-84.87 29.65 13.29 38 51.49 48.86 81.63 10 27.54 33.44 39.45 47 41.86 8.8 1.57 18.9-2.69 13.36-13.34-3.72-6.22-11.18-9.86-24.65-25.28Z" transform="translate(-1473.53 -1001.67)"/><path class="cls-4" d="M1884.68 1143.06c-19.59-4.66-35.44-25.19-52.23-46.93-18.28-23.67-37.17-48.14-62.55-53.44-1.18-.24-2.39-.45-3.59-.61l-.7 2.48c26.56 11.91 36.88 44.19 46 72.67 2.12 6.64 4.13 12.91 6.28 18.8 11.55 31.55 28.2 49.19 50.89 53.93a87.93 87.93 0 0 0 17.68 1.51h2.42c8.31 0 14.74-7.19 16-17.92 1.4-12.03-4.31-26.72-20.2-30.49Zm17.6 30.22c-.91 7.78-5.41 15.62-13.38 15.62h-2.42a85.75 85.75 0 0 1-17.18-1.46c-21.74-4.54-37.76-21.63-49-52.26-2.14-5.85-4.13-12.09-6.25-18.7-8.3-26-17.59-55-39.28-69.73 21.8 7.26 39 29.47 55.58 51 17.08 22.12 33.21 43 53.7 47.87 14.37 3.38 19.51 16.71 18.23 27.66Z" transform="translate(-1473.53 -1001.67)"/><path class="cls-13" d="M2140.35 1135.34c-2.46 5-6.45 19.52-6.45 19.52 13.22 1 43 18 43 18-13.83-27.74-36.55-37.52-36.55-37.52Z" transform="translate(-1473.53 -1001.67)"/><path class="cls-4" d="m2140.84 1134.2-1.08-.47-.52 1.06c-2.48 5.07-6.37 19.15-6.53 19.74l-.4 1.46 1.88.14c13 1.24 41.85 17.6 42.14 17.76l3.54 2-1.83-3.65c-13.9-27.76-36.25-37.63-37.2-38.04Zm-5.35 19.59c1-3.42 3.55-12.29 5.47-16.79 4.4 2.22 21.17 11.73 32.94 32.72-8.06-4.37-27.38-14.36-38.41-15.93Z" transform="translate(-1473.53 -1001.67)"/><path class="cls-13" d="M1936.93 1176.9s29.16-21.42 42.89-24c0 0-5.94-14.71-9.13-19.67 0-.04-22.61 12.97-33.76 43.67Z" transform="translate(-1473.53 -1001.67)"/><path class="cls-4" d="m1971.78 1132.48-.67-1-1.07.62c-.94.54-23.15 13.6-34.34 44.4l-1.46 4 3.46-2.55c.29-.21 29.08-21.27 42.37-23.81l1.56-.3-.6-1.47c-.24-.61-6.03-14.88-9.25-19.89Zm-32 40.81c9.76-23.38 26.17-35.41 30.52-38.29 2.55 4.49 6.34 13.46 7.77 16.93-11.41 2.99-30.43 15.8-38.33 21.36Z" transform="translate(-1473.53 -1001.67)"/><path class="cls-12" d="M1610.71 1679.17a29.14 29.14 0 0 1-3.72.62c-24.85 2.43-70.26-4.31-99.84 22.08.58-.24 12.75-6.3 19-3.76-7.81 2.7-21.25 7.59-31 17.05.52-.24 10-4.61 14.43-3.2 0 0-21.73 12.42-34.15 39.39 5.42.62 44.29 6.6 60.66-7.82-.46.54-8 9.34-12.53 11.5 27-1.26 53.12-22.78 65.13-36.29 12.19-13.72 16.6-20.25 26.1-26.73 4.05-9.1-4.08-12.84-4.08-12.84Z" transform="translate(-1473.53 -1001.67)"/><path d="M1610.71 1679.17a30.85 30.85 0 0 1-3.73.62l-1.17.11c-24.81 2.28-60.72.95-79.62 13 .6-.23 13.69-.66 16 5.86-12.38.82-27.2 7.18-29.66 9.61 8.81-1.14 11.24 1.37 15.64 2.78 0 0-24.39 2.35-36.81 29.32 5.42.61 40.81 1.09 57.18-13.33-.47.55-.65 10.4-5.38 15.46 19.72-5.55 30.84-17.78 42.85-31.29 12.19-13.72 16.73-17 26.23-23.46 1-.66 2.16-1.42 3.55-2.27a9.69 9.69 0 0 0-5.08-6.41Z" transform="translate(-1473.53 -1001.67)" style="fill:#872600"/><path class="cls-13" d="M1610.71 1679.17a30.85 30.85 0 0 1-3.73.62l-1.17.11-3.4.28c-23.47 1.92-44.75 1.38-64.75 10.18.6-.22 11.93 4 14.22 10.55-12.38.82-20.23 3.65-22.69 6.07 6.88.69 10.86 3.89 13.14 7.72 0 0-33.57 2.4-38.35 20.85 5.42.62 34.91-2.75 51.28-17.16.43 4.68-.12 8.91-2.57 12 13.32-4.21 22.77-18.55 27.87-23.11 13.69-12.23 23.4-18.9 31.28-22.81 1-.47 2-1 3-1.49a10.11 10.11 0 0 0-4.13-3.81Z" transform="translate(-1473.53 -1001.67)"/><path class="cls-4" d="m1611.26 1678-.41-.19-.43.1a26.93 26.93 0 0 1-3.56.59c-5.43.53-12 .62-19 .72-24.56.34-58.2.8-81.61 21.68l-5.44 4.86 6.79-2.67.41-.18a45.89 45.89 0 0 1 11.82-3.89c-8.85 3.4-18.15 8-25.58 15.21l-5.59 5.45 7.06-3.33a42.54 42.54 0 0 1 9.6-3.15 95.87 95.87 0 0 0-31.06 37.62l-.76 1.64 1.8.2 1.35.17c3.19.4 9.83 1.24 17.77 1.5 14.28.48 25.65-1 34-4.57a24.94 24.94 0 0 1-5.37 4.1l-5.78 2.78 6.41-.3c25.72-1.2 51.64-20.54 66-36.73 2.9-3.26 5.37-6.13 7.56-8.66 7-8.11 11.2-13 18.31-17.85l.31-.21.15-.34c4.49-10.17-4.66-14.55-4.75-14.55Zm2.52 13.16c-7.19 5-11.47 9.93-18.5 18.09a695.64 695.64 0 0 1-7.53 8.63c-13.14 14.8-36.1 32.28-59.4 35.41a90.58 90.58 0 0 0 8.78-8.91l-1.86-1.82c-7.53 6.64-21.62 9.8-40.73 9.16-7.49-.24-13.83-1-17.12-1.43 12.2-25.14 32.64-37.07 32.85-37.19l2.56-1.46-2.81-.91c-2.06-.65-5.29-.22-8.24.62 9-6.54 19.33-10.11 24.81-12l3.29-1.14-3.23-1.3c-2.76-1.12-6.78-.9-11.77.58 21.94-15 50-15.35 73-15.66 7-.1 13.64-.19 19.18-.73a28.81 28.81 0 0 0 3.42-.54c1.44.77 6.03 3.95 3.3 10.59Z" transform="translate(-1473.53 -1001.67)"/><path d="M2086.38 1392.23c-1.74.59-.25 3.38 1.22 8.09s2 8.85 3.77 8.26 1.94-4.87.47-9.59-3.74-7.34-5.46-6.76Z" transform="translate(-1473.53 -1001.67)" style="fill:#f2afbf"/></g></svg>