<svg xmlns="http://www.w3.org/2000/svg" width="149" height="92" viewBox="0 0 148.91 91.69"><defs><radialGradient id="radial-gradient" cx="389.8" cy="346.45" r="2.71" gradientUnits="userSpaceOnUse"><stop offset="0" stop-color="#2ff"/><stop offset=".12" stop-color="#21f9fc"/><stop offset=".28" stop-color="#1fe8f5"/><stop offset=".47" stop-color="#1bccea"/><stop offset=".53" stop-color="#1ac1e5"/><stop offset=".59" stop-color="#18b2de"/><stop offset=".7" stop-color="#138acd"/><stop offset=".84" stop-color="#0a4ab2"/><stop offset="1" stop-color="#000092"/></radialGradient><style>.cls-2{fill:#3f6875}.cls-3{fill:#9bbec9}.cls-4{fill:#648c9b}.cls-5{fill:#233e44}.cls-7{fill:#fff}.cls-8{fill:#839d9e}.cls-10{fill:#11c8d1}.cls-11{fill:#43e4ff}.cls-12{fill:#b6f5fc}.cls-13{fill:#049b9b}</style></defs><g style="isolation:isolate"><g id="Layer_2" data-name="Layer 2"><path class="cls-2" d="M309.9 311.08c-.61 0-2.84 3.89-5.32 6.54-3.12 3.35-6.47 4.53-6.47 9-3.51-3.36-8.77-1.32-13.45.22-3.26 1.07-5.86-.16-6 .44-.38 1.42 9.27 10.67 21.39 8.5 2.36-.55 5-3.51 5-3.51 9.02-8.27 6.71-21.2 4.85-21.19Z" transform="translate(-278.52 -305.43)"/><path class="cls-3" d="M309.9 311.08c-.61 0-2.84 3.89-5.32 6.54-3.12 3.35-6.47 4.53-6.47 9-3.51-3.36-8.77-1.32-13.45.22-3.26 1.07-3.94.19-4.1.78-.39 1.43 10.67 6.86 18.44 4.67a7.69 7.69 0 0 0 3.89-2.5c7.75-5.67 8.87-18.72 7.01-18.71Z" transform="translate(-278.52 -305.43)"/><path class="cls-4" d="M309.9 311.08c-.61 0-2.3 4.69-4.78 7.34C302 321.77 299 324 299 328.48c-3.51-3.37-9.18-2.75-13.86-1.21-3.25 1.07-4.4-.21-4.56.38-.39 1.43 10.66 8.39 18.42 6.2a14.3 14.3 0 0 0 5-2.92c7.74-5.71 7.76-19.86 5.9-19.85Z" transform="translate(-278.52 -305.43)"/><path class="cls-5" d="M309.9 311c-.35 0-.93.78-2.11 2.4a42.8 42.8 0 0 1-3.29 4.17 30.53 30.53 0 0 1-2.54 2.38c-2.07 1.79-3.87 3.34-4 6.48a6.8 6.8 0 0 0-4.75-1.68 25.68 25.68 0 0 0-7.75 1.76l-.88.28a9 9 0 0 1-2.92.46 14.59 14.59 0 0 1-1.82-.13c-.32 0-.6-.06-.81-.06s-.47 0-.53.25.26.89.57 1.3c1.92 2.5 8.65 7.66 17.21 7.67a21.18 21.18 0 0 0 3.72-.34c2.37-.55 5-3.42 5.1-3.53 7.13-6.61 7.33-16.38 5.85-20.15-.27-.86-.65-1.26-1.05-1.26Zm-4.9 21.22s-2.69 2.95-5 3.48a20.64 20.64 0 0 1-3.68.33c-8.49 0-15.15-5.11-17-7.58-.58-.75-.56-1-.54-1.11s.12-.09.32-.09.47 0 .78.06a15.13 15.13 0 0 0 1.85.13 9.5 9.5 0 0 0 3-.47l.88-.29a26 26 0 0 1 7.68-1.74 6.58 6.58 0 0 1 4.78 1.79l.19.18v-.26c0-3.21 1.71-4.69 3.88-6.56a30.92 30.92 0 0 0 2.56-2.4 43 43 0 0 0 3.3-4.19c.82-1.14 1.68-2.31 1.93-2.31s.62.42.9 1.12c1.43 3.69 1.22 13.37-5.83 19.91Z" transform="translate(-278.52 -305.43)"/><path class="cls-2" d="M402.44 371.76c-1-.48-9.89 4.73-9.14 5.48s3.79.28 4.08-.18c.31 1.11 4.11 1.75 5.83 1.83 1.13.05 2.24-1.18 3.32-1.21s6.51-.93 6.62-2.19-6.25-.61-10.71-3.73Z" transform="translate(-278.52 -305.43)"/><path class="cls-4" d="M403.67 372.5c-1.11 1.75-4.16 2.81-3.28 4.49.32.61 2.06 1.11 3.12.75a9.2 9.2 0 0 1 2.67-.9c2.18 0 7.62-.9 6.51-1.85-1.36-.58-5.51-.63-9.02-2.49Z" transform="translate(-278.52 -305.43)"/><path class="cls-5" d="M410.46 374.38c-2.28-.39-5.41-.92-8-2.72a.48.48 0 0 0-.22 0c-1.54 0-8.59 4.15-9.09 5.35a.3.3 0 0 0 .05.35 2.5 2.5 0 0 0 1.63.42 5.57 5.57 0 0 0 2.48-.49c.64 1.15 4.52 1.69 5.86 1.75h.07a3.8 3.8 0 0 0 1.74-.63 3.6 3.6 0 0 1 1.52-.58c1.11 0 6.61-.9 6.73-2.29.09-.68-.99-.86-2.77-1.16Zm-3.94 3.19a3.64 3.64 0 0 0-1.61.61 3.68 3.68 0 0 1-1.7.6c-1.85-.08-5.45-.75-5.73-1.75l-.06-.24-.13.21a4.51 4.51 0 0 1-2.43.52 2.26 2.26 0 0 1-1.48-.35s0-.06 0-.11c.46-1.13 7.44-5.22 8.88-5.22h.11c2.59 1.81 5.87 2.37 8.05 2.74 1.48.26 2.65.45 2.61.89-.03 1.1-5.03 2.05-6.51 2.1Z" transform="translate(-278.52 -305.43)"/><path d="M357.11 359.66c-7.35 2.85-37.5-5.92-55.3-19.13 6.28 15.29 28.54 37.55 49.82 40.62 1.53 0 7.68 1.65 14.26 1.32 39.48 1.65 68.32-30.37 60-58.72-8.02-12.11-61.43 33.06-68.78 35.91Z" transform="translate(-278.52 -305.43)" style="fill:#c8d5d6"/><path class="cls-7" d="M414.34 332.3c-2.68 4.93-4.8 12.08-7.42 17.07-4.56 8.64-17.22 8.57-19.46 3.29.12-4.61.39-9.94.69-14.49-14.18 9.64-27.61 20.16-31 21.49-7.35 2.85-37.5-5.92-55.3-19.13 6.28 15.29 34.31 38.47 51.8 37.33 1.54 0 5.76.33 12.34 0 39.24 1.63 64.6-28.2 60-53.63-3.69-1.87-8.26 1.83-11.65 8.07Z" transform="translate(-278.52 -305.43)"/><path class="cls-8" d="M424.8 322.74c3.15 11.41-.34 24.9-9.34 36.09a58.76 58.76 0 0 1-48.93 21.56c-1.89.24-9.69-.88-13.44-1.41-1.44-.21-2.13-.31-2.26-.31-12.63-1.05-24.07-9.22-31.45-15.89-7.8-7-13.52-14.65-16.28-19.79a77.86 77.86 0 0 0 23.78 24.69c9.37 6.18 17.9 9 22.75 9.52.62.13 15 1.32 17.79 1 26.46.85 40.63-12.61 46.73-20.71a49.26 49.26 0 0 0 8.65-18.38c1.38-6 1.33-11.87-.15-16.43l-.21.07c3.17 9.76-.24 23.66-8.47 34.61-5.88 7.82-19.33 20.66-44.19 20.66h-2.37c-2.9.34-17.64-1-17.74-1-9.62-1.09-33.94-11.45-47.77-36.51l-.2.09c2 4.94 8.32 14.05 17.54 22.38 7.4 6.69 18.88 14.88 31.58 15.94.12 0 1.06.13 2.24.3 4.05.58 11.58 1.66 13.48 1.42 1.08.05 2.15.08 3.23.08A58.87 58.87 0 0 0 415.63 359a48.94 48.94 0 0 0 9.22-17.74 35.52 35.52 0 0 0 .16-18.55Z" transform="translate(-278.52 -305.43)"/><path class="cls-8" d="M420.29 322.74c3.06 9.48-.17 22.87-8.06 33.32-5.88 7.78-19.43 20.7-44.16 19.83a74 74 0 0 1-10.56-.55 34.85 34.85 0 0 0-7.12-.33c-6.17-.14-15.23-3.59-23.65-9a78.17 78.17 0 0 1-21.54-20.43 75.38 75.38 0 0 0 25.51 21.66c9.26 4.84 17.19 6.53 20.43 6.78h1.79c3.55.11 10.93.33 16.8.17a54.25 54.25 0 0 0 25.14-6.47 47.29 47.29 0 0 0 15.85-14.2c7.81-11 9.78-23.35 7.69-29.86l-.21.07c2.07 6.46.11 18.72-7.66 29.67-9.08 12.86-23.54 20.17-40.82 20.6-5.86.15-13.24-.07-16.78-.18-.95 0-1.57-.05-1.8 0-3.21-.24-11.1-1.94-20.33-6.76a75.64 75.64 0 0 1-28.91-26.58l-.19.12a77.25 77.25 0 0 0 24.91 25.61c8.45 5.42 17.56 8.88 23.78 9a34.55 34.55 0 0 1 7.09.33c2.83.28 6 .59 8.84.59h1.75a55.56 55.56 0 0 0 26.66-5.35 49.58 49.58 0 0 0 17.66-14.57 46.71 46.71 0 0 0 8.28-17.42 30.4 30.4 0 0 0-.18-16.1Z" transform="translate(-278.52 -305.43)"/><path class="cls-8" d="M416.22 325.6c1.51 8.81-1.92 19.71-9 28.43-8.84 11-22 17.39-36.93 18.06l-8.51.19-9.82.21c-4.87 0-21.36-4.13-33.21-14.35l-.15.16c11.9 10.26 28.46 14.41 33.36 14.41l9.83-.21 8.51-.19c15-.67 28.21-7.12 37.09-18.14 7.07-8.77 10.52-19.73 9-28.61Z" transform="translate(-278.52 -305.43)"/><path class="cls-8" d="M414.14 328.41c.55 9.46-3.21 19-10.58 26.78-8.69 9.21-21.19 14.92-32.63 14.92v.22c11.5 0 24.06-5.74 32.79-15 7.41-7.86 11.19-17.43 10.64-26.94Z" transform="translate(-278.52 -305.43)"/><path class="cls-8" d="M372 368.36v.22c13.15-.54 28.53-10.25 31.9-17.83l-.2-.09c-3.31 7.52-18.6 17.17-31.7 17.7Z" transform="translate(-278.52 -305.43)"/><path class="cls-8" d="M372.58 366.18v.22c4 0 9.71-1.62 15.37-4.35 5.42-2.61 9.55-5.63 10.77-7.88l-.19-.1c-2.53 4.6-17.4 12.11-25.95 12.11Z" transform="translate(-278.52 -305.43)"/><path class="cls-8" d="M374.72 364.52v.22c5.26-.36 16.05-5.1 19.89-9.47l-.17-.14c-3.78 4.33-14.5 9.04-19.72 9.39Z" transform="translate(-278.52 -305.43)"/><path class="cls-8" d="M376.05 362.29v.22c4.57-.07 12.93-4.15 15.69-7.66l-.17-.14c-2.73 3.47-11 7.51-15.52 7.58Z" transform="translate(-278.52 -305.43)"/><path class="cls-8" d="M377.9 359.93v.22c4.22-.67 10.61-4 11.6-6l-.2-.1c-.92 1.95-7.23 5.23-11.4 5.88Z" transform="translate(-278.52 -305.43)"/><path class="cls-8" d="M426 323.69a5.21 5.21 0 0 0-4.67-2.11c-10.7 0-34.36 17.08-50 28.38-6.84 4.93-12.25 8.83-14.22 9.6a11 11 0 0 1-3.81.53c-11.52 0-36.48-8.58-51.39-19.65l-.32-.23.15.36c3.25 7.89 10.47 17.21 19.32 24.94 10.05 8.76 20.91 14.36 30.61 15.75a22.2 22.2 0 0 1 2.47.34 59 59 0 0 0 10 1h1.78c1 0 1.95.06 2.92.06a65.84 65.84 0 0 0 29.01-6.66 57.55 57.55 0 0 0 20.61-16.86 45 45 0 0 0 8.05-17.14 36.23 36.23 0 0 0-.53-18.28ZM418.28 359c-11 14.68-29.48 23.44-49.48 23.44-1 0-1.94 0-2.92-.06h-1.78a59.86 59.86 0 0 1-10-1 19.81 19.81 0 0 0-2.48-.34c-21.6-3.12-43.28-25.38-49.58-40.2 15 11 39.73 19.46 51.2 19.46a11.16 11.16 0 0 0 3.89-.55c2-.77 7.41-4.68 14.26-9.63 15.64-11.28 39.26-28.33 49.89-28.33 2.09 0 3.59.67 4.47 2 3.4 11.5.67 24.32-7.47 35.21Z" transform="translate(-278.52 -305.43)"/><path class="cls-2" d="M411.36 320.25a43.48 43.48 0 0 1-9.39 1.13 42.76 42.76 0 0 0-20.29 4.56c-9.58 4.8-26 17.6-33.51 22s-12.11 4.77-17.82 3.4c-.82-.49-7.79-3.32-11.68-5.87-7.34-4.82-12.6-16-16.09-15.61l-3.77 1.34c-1.32 9.63 23.5 38.33 52.53 39.31.58-.33 19.1-5.87 23-5.93 3.84.25 5.76-4.17 5.87-5.89 4.29-1 5.16-6.24 7.65-6.09 20.73 10.64 16.78-25.11 34.73-32-3.02-2.12-7.41-1.04-11.23-.35Z" transform="translate(-278.52 -305.43)"/><path class="cls-3" d="M411.36 320.25a43.48 43.48 0 0 1-9.39 1.13 42.76 42.76 0 0 0-20.29 4.56c-9.58 4.8-26 17.6-33.51 22s-12.11 4.77-17.82 3.4c-.82-.49-7.79-3.32-11.68-5.87-7.34-4.82-12.6-16-16.09-15.61l-3.77 1.34c-.63 9.3 33.58 33.54 58.59 32.62.58-.33 11.63-5.19 15.5-5.25 2.08.14 4.35-1.76 4.46-3.48 4.28-1 4.81-12.16 13.3-9 7.26 2.67 12.74 0 16.89-9.7 3.11-7.29 7.32-12.81 15-15.75-2.98-2.16-7.37-1.08-11.19-.39Z" transform="translate(-278.52 -305.43)"/><path class="cls-4" d="M411.68 321.58a51.28 51.28 0 0 1-9.92 1.05c-4.79.07-10.72 0-19.4 4.35-9.57 4.8-25.36 17-32.87 21.46s-13.43 4.31-19.14 2.94c-.82-.49-7.94-2.39-11.82-4.94-7.35-4.83-13.41-16.46-15.95-16.54l-2.73-.51-1 1.85c-.63 9.3 28 38.25 53 37.34.59-.33 20.47-6.29 24.34-6.34 2.08.13 2.9-3.05 3-4.77 4.29-1 4.53-9.49 13-6.37 7.25 2.67 11.18-5 15.33-14.7 3.11-7.29 6.84-12.08 14.52-15-2.58-1.82-6.54-.51-10.36.18Z" transform="translate(-278.52 -305.43)"/><path class="cls-5" d="m412.35 320-1 .18-1.49.29a38.3 38.3 0 0 1-7.89.85 43 43 0 0 0-20.33 4.56c-5.78 2.9-14 8.7-21.33 13.82-4.73 3.32-9.2 6.46-12.18 8.22-7.69 4.55-12.32 4.69-17.73 3.4-.25-.15-1-.47-1.94-.91a79 79 0 0 1-9.72-4.95c-3.59-2.36-6.63-6.21-9.32-9.6a32.61 32.61 0 0 0-4.81-5.38 1.94 1.94 0 0 0-2-.52c1.72-.2 4 2.7 6.66 6.05s5.75 7.28 9.37 9.65a78.89 78.89 0 0 0 9.75 5c1 .44 1.71.77 1.94.9 5.46 1.31 10.14 1.17 17.9-3.42 3-1.76 7.46-4.9 12.19-8.23 7.29-5.11 15.54-10.91 21.31-13.81a42.86 42.86 0 0 1 20.27-4.61 37.85 37.85 0 0 0 7.92-.85l1.49-.28 1-.19c3.4-.63 7.25-1.36 9.93.46-7.71 3.06-11.42 11.59-14.69 19.12-2.81 6.47-5.46 12.59-10.19 14.27-2.65 1-5.78.47-9.57-1.48-1.21-.07-2 1-3 2.33-1.13 1.51-2.41 3.23-4.68 3.76h-.07v.08a7.61 7.61 0 0 1-1.51 3.63 4.89 4.89 0 0 1-4.25 2.16c-3.73.05-21.92 5.44-23 5.93-18.89-.65-36-13.25-44.95-23.85-5.12-6.08-8-12-7.55-15.35a4 4 0 0 0-.08 2.46v.06c.73 3.47 3.4 8.17 7.45 13a74.31 74.31 0 0 0 19.07 15.91 56.46 56.46 0 0 0 26.07 8h.06c.68-.38 19.16-5.87 22.91-5.92a5.1 5.1 0 0 0 4.42-2.25 7.93 7.93 0 0 0 1.55-3.67c2.3-.57 3.65-2.37 4.73-3.82.92-1.23 1.72-2.29 2.79-2.24 3.84 2 7 2.45 9.73 1.48 4.81-1.72 7.48-7.88 10.31-14.39 3.28-7.55 7-16.11 14.76-19.08l.18-.08-.16-.11c-2.82-2.03-6.8-1.28-10.32-.58Z" transform="translate(-278.52 -305.43)"/><path class="cls-2" d="M327.47 348.88a75.9 75.9 0 0 0-3.75-7.84c-1.75-3.11-4.23-4.17-4.72-3.73s.74 2.77 0 5.35-1.12 4.93 1.1 6.32l10.16 2.46c-.81-1.15-2.34-1.29-2.79-2.56Z" transform="translate(-278.52 -305.43)"/><path class="cls-4" d="M327.47 348.88a55.13 55.13 0 0 0-3.75-7.84c-1.66-2.77-3.21-3.56-3.7-3.11s.68 2.17-.06 4.75-1.66 4.7.14 6.3l4.45 1.82 5.71.64c-.81-1.15-2.34-1.29-2.79-2.56Z" transform="translate(-278.52 -305.43)"/><path class="cls-3" d="M320.68 338.11c2.83 3.73 3.84 6.85 6.28 10.55-.76-2.19-3.96-9.43-6.28-10.55Z" transform="translate(-278.52 -305.43)"/><path class="cls-5" d="M329 350.17a2.71 2.71 0 0 1-1.42-1.32 72.26 72.26 0 0 0-3.76-7.86c-1.42-2.55-3.33-3.71-4.26-3.86a.74.74 0 0 0-.62.1c-.3.28-.2.85-.05 1.64a8 8 0 0 1 0 3.76c-.57 2-1 4 0 5.5a1 1 0 0 0 .08.11c.7.8 1.13.74 1.13.74-2.18-1.37-1.71-3.76-1-6.29a8.15 8.15 0 0 0 0-3.86c-.13-.69-.23-1.24 0-1.43a.56.56 0 0 1 .44-.06c.89.15 2.71 1.27 4.1 3.76a72.75 72.75 0 0 1 3.74 7.82 2.93 2.93 0 0 0 1.52 1.44 3.82 3.82 0 0 1 1.38 1.08l.18-.12a3.9 3.9 0 0 0-1.46-1.15Z" transform="translate(-278.52 -305.43)"/><path class="cls-2" d="M387.66 324.47c-2.26.8-3.91 1.95-3.69 2.56s2.22.46 4.48-.34 3.9-1.95 3.68-2.57-2.22-.46-4.47.35Z" transform="translate(-278.52 -305.43)"/><path d="M387.85 325c-1.7.6-2.94 1.46-2.77 1.93s1.67.34 3.37-.26 2.93-1.47 2.77-1.93-1.67-.33-3.37.26Z" transform="translate(-278.52 -305.43)" style="fill:#254951"/><path class="cls-5" d="M391.06 323.64a11.13 11.13 0 0 0-3.44.72 12.82 12.82 0 0 0-2.8 1.37c-.52.36-1.11.89-1 1.34s.51.45 1.18.45a11.18 11.18 0 0 0 3.44-.73 12.6 12.6 0 0 0 2.8-1.36c.52-.37 1.12-.9 1-1.34s-.51-.45-1.18-.45Zm.1 1.61a12.82 12.82 0 0 1-2.75 1.34 11 11 0 0 1-3.37.71c-.55 0-.9-.11-1-.31s.24-.64.88-1.08a12.27 12.27 0 0 1 2.74-1.34 11 11 0 0 1 3.37-.71c.55 0 .9.11 1 .3s-.24.64-.87 1.09Z" transform="translate(-278.52 -305.43)"/><path class="cls-10" d="M388.15 306.8a2.47 2.47 0 1 0 2.47 2.47 2.47 2.47 0 0 0-2.47-2.47Z" transform="translate(-278.52 -305.43)"/><path class="cls-11" d="M388.15 306.8a2 2 0 0 0-.35 0 2.18 2.18 0 0 0-1 3.07c.76 1.46 2.9 1.68 3.51.49a2.35 2.35 0 0 0 .28-1.12 2.47 2.47 0 0 0-2.44-2.44Z" transform="translate(-278.52 -305.43)"/><path class="cls-12" d="M388.83 307.37a1.08 1.08 0 1 0 1.2 1.07 1.15 1.15 0 0 0-1.2-1.07Z" transform="translate(-278.52 -305.43)"/><path class="cls-13" d="M388.15 306.69a2.58 2.58 0 1 0 2.58 2.58 2.59 2.59 0 0 0-2.58-2.58Zm0 4.93a2.36 2.36 0 1 1 2.36-2.35 2.36 2.36 0 0 1-2.36 2.35Z" transform="translate(-278.52 -305.43)"/><path class="cls-10" d="M383.1 315.74a2.47 2.47 0 1 0 2.47 2.46 2.46 2.46 0 0 0-2.47-2.46Z" transform="translate(-278.52 -305.43)"/><path class="cls-11" d="M383.1 315.74h-.35a2.2 2.2 0 0 0-1 3.08c.77 1.46 2.91 1.68 3.52.49a2.51 2.51 0 0 0 .27-1.13 2.46 2.46 0 0 0-2.44-2.44Z" transform="translate(-278.52 -305.43)"/><path class="cls-12" d="M383.78 316.3a1.09 1.09 0 1 0 1.21 1.08 1.15 1.15 0 0 0-1.21-1.08Z" transform="translate(-278.52 -305.43)"/><path class="cls-13" d="M383.1 315.63a2.58 2.58 0 1 0 2.58 2.57 2.57 2.57 0 0 0-2.58-2.57Zm0 4.93a2.36 2.36 0 1 1 2.36-2.36 2.36 2.36 0 0 1-2.36 2.36Z" transform="translate(-278.52 -305.43)"/><path class="cls-10" d="M382.55 305.49a1.31 1.31 0 1 0 1.31 1.31 1.31 1.31 0 0 0-1.31-1.31Z" transform="translate(-278.52 -305.43)"/><path class="cls-11" d="M382.55 305.49h-.18a1.16 1.16 0 0 0-.52 1.63c.41.78 1.55.9 1.87.27a1.33 1.33 0 0 0 .14-.6 1.3 1.3 0 0 0-1.31-1.3Z" transform="translate(-278.52 -305.43)"/><path class="cls-12" d="M382.91 305.79a.61.61 0 0 0-.64.57.61.61 0 0 0 .64.58.61.61 0 0 0 .64-.58.6.6 0 0 0-.64-.57Z" transform="translate(-278.52 -305.43)"/><path class="cls-13" d="M382.55 305.43a1.37 1.37 0 1 0 1.37 1.37 1.37 1.37 0 0 0-1.37-1.37Zm0 2.62a1.26 1.26 0 0 1 0-2.51 1.26 1.26 0 1 1 0 2.51Z" transform="translate(-278.52 -305.43)"/><path class="cls-10" d="M389.42 318.26a1.32 1.32 0 1 0 1.31 1.32 1.32 1.32 0 0 0-1.31-1.32Z" transform="translate(-278.52 -305.43)"/><path class="cls-11" d="M389.42 318.26h-.18a1.16 1.16 0 0 0-.52 1.63c.41.78 1.55.9 1.87.26a1.32 1.32 0 0 0-1.17-1.91Z" transform="translate(-278.52 -305.43)"/><path class="cls-12" d="M389.78 318.56a.58.58 0 1 0 0 1.15.58.58 0 1 0 0-1.15Z" transform="translate(-278.52 -305.43)"/><path class="cls-13" d="M389.42 318.2a1.38 1.38 0 1 0 1.37 1.38 1.38 1.38 0 0 0-1.37-1.38Zm0 2.63a1.26 1.26 0 1 1 1.26-1.25 1.25 1.25 0 0 1-1.26 1.25Z" transform="translate(-278.52 -305.43)"/><circle class="cls-10" cx="109.24" cy="18.21" r="1.31"/><path class="cls-11" d="M387.77 322.33h-.19a1.15 1.15 0 0 0-.51 1.63c.4.78 1.54.9 1.87.27a1.36 1.36 0 0 0 .14-.6 1.31 1.31 0 0 0-1.31-1.3Z" transform="translate(-278.52 -305.43)"/><ellipse class="cls-12" cx="109.6" cy="17.77" rx=".64" ry=".57"/><path class="cls-13" d="M387.77 322.27a1.37 1.37 0 1 0 1.37 1.37 1.37 1.37 0 0 0-1.37-1.37Zm0 2.62a1.26 1.26 0 1 1 1.25-1.25 1.26 1.26 0 0 1-1.25 1.25Z" transform="translate(-278.52 -305.43)"/><path class="cls-3" d="m384.32 341.84 9.25-1.52c-2.02-2.47-7.03-2.49-9.25 1.52Z" transform="translate(-278.52 -305.43)"/><path class="cls-4" d="M384.32 341.84h5.46l3.79-1.52c-2.11-1.41-6.64-1.88-9.25 1.52Z" transform="translate(-278.52 -305.43)"/><path class="cls-5" d="M392.6 339.21a5.92 5.92 0 0 0-3.48-.72 6.27 6.27 0 0 0-3.86 1.79l-.07.08a3.09 3.09 0 0 0-.84 1.5 6.06 6.06 0 0 1 4.79-3.15 5.18 5.18 0 0 1 4.46 1.63s-.03-.55-1-1.13Z" transform="translate(-278.52 -305.43)"/><path class="cls-2" d="M391.32 340.78c-1.66 0-4.89 2.28-5 4.69a3.57 3.57 0 0 0 3.5 4 3.91 3.91 0 0 0 3.76-4.09c-.06-2.38-.58-4.6-2.26-4.6Z" transform="translate(-278.52 -305.43)"/><path d="M391.23 341.41c-1.55 0-4.56 2-4.65 4.21a3.53 3.53 0 0 0 3.29 3.89 3.8 3.8 0 0 0 3.47-3.94c-.06-2.16-.56-4.16-2.11-4.16Z" transform="translate(-278.52 -305.43)"/><path d="M391.23 342.24c-1.55 0-4.56 1.77-4.56 3.64a3.45 3.45 0 0 0 3.2 3.4 3.51 3.51 0 0 0 3.27-3.4c0-1.88-.36-3.64-1.91-3.64Z" transform="translate(-278.52 -305.43)" style="fill:#b2b1b1"/><path class="cls-7" d="M391.23 342.24a6 6 0 0 0-3.7 1.84 3.13 3.13 0 0 0 0 3.73c.32.43.87.49 1.61.67a3.89 3.89 0 0 0 3.68-1.31 3.11 3.11 0 0 0 .28-1.29c.04-1.88-.32-3.64-1.87-3.64Z" transform="translate(-278.52 -305.43)"/><path d="M389.8 343.62a2.85 2.85 0 0 0-2.59 3.06 3.44 3.44 0 0 0 .28 1.38 2.93 2.93 0 0 0 4.43.38 3.4 3.4 0 0 0 .47-1.76 2.85 2.85 0 0 0-2.59-3.06Z" transform="translate(-278.52 -305.43)" style="fill:url(#radial-gradient)"/><path d="M389.76 344a2.5 2.5 0 0 0-2.24 2.71 2.41 2.41 0 0 0 3.29 2.39 2.75 2.75 0 0 0 1.26-2.43 2.52 2.52 0 0 0-2.31-2.67Z" transform="translate(-278.52 -305.43)"/><path class="cls-7" d="M388.53 346.52a.26.26 0 0 0-.24.32.33.33 0 0 0 .38.2.27.27 0 0 0 .24-.32.31.31 0 0 0-.38-.2ZM388.05 345.07a.47.47 0 0 0-.41.56.56.56 0 0 0 .65.35.48.48 0 0 0 .42-.56.57.57 0 0 0-.66-.35Z" transform="translate(-278.52 -305.43)"/><path d="M390.23 344.65a.56.56 0 0 0-.51.68.69.69 0 0 0 .81.44.57.57 0 0 0 .51-.69.67.67 0 0 0-.81-.43Z" transform="translate(-278.52 -305.43)" style="mix-blend-mode:screen;opacity:.5;fill:#fff"/><path d="M391.49 343.31a1.09 1.09 0 0 0-1 1.29 1.31 1.31 0 0 0 1.53.82 1.09 1.09 0 0 0 1-1.3 1.3 1.3 0 0 0-1.53-.81Z" transform="translate(-278.52 -305.43)" style="opacity:.3;mix-blend-mode:screen;fill:#fff"/><path d="M386.47 342.36a2.13 2.13 0 0 0 2.55.55l-.09-.26a2.46 2.46 0 0 1-2.46-.29ZM388 341a1.37 1.37 0 0 0 .79 1.16 2.16 2.16 0 0 0 1.12.16v-.26A1.84 1.84 0 0 1 388 341ZM389.88 340.26s-.66.74.8 1.7l.2-.21c-1.26-.83-1.01-1.46-1-1.49Z" transform="translate(-278.52 -305.43)"/><path class="cls-3" d="m383.77 350.45 5.85-.73 5.84.19c-4.22-3.02-9.71-2.47-11.69.54Z" transform="translate(-278.52 -305.43)"/><path class="cls-4" d="m383.77 350.45 11.69-.54c-3.4-1.84-9.4-1.75-11.69.54Z" transform="translate(-278.52 -305.43)"/><path class="cls-5" d="M393.87 348.73h-.05a10.27 10.27 0 0 0-6.14-.83 7.23 7.23 0 0 0-2.38.86h-.06a3.4 3.4 0 0 0-1.47 1.68 5.87 5.87 0 0 1 4-2.37 10.33 10.33 0 0 1 7.74 1.83 3 3 0 0 0-1.64-1.17Z" transform="translate(-278.52 -305.43)"/><path d="M420.87 320.76c-4.24 1.14-8.51 4.76-11.62 11.74s-5.2 16.59-10.9 19.61-6.92-1.05-10.89.55c1.18 2.54 5.16 4.22 10.89 2.12 6.17-2.27 8.71-9.3 11.11-15.52 2.6-6.73 6-13.49 10.24-15.35 4.53-2 6.18-.48 6.57 1.31.55-2.22-1.16-5.59-5.4-4.46Z" transform="translate(-278.52 -305.43)" style="fill:#1d383d"/><path d="M420.87 320.76c-4.24 1.14-8.51 4.76-11.62 11.74s-5.2 16.59-10.9 19.61-7.07-.9-9.67.56c1.07 2 4.47 3.06 9.59 1.15 5.82-2.17 7.89-8.67 10.29-14.89 2.59-6.72 6.59-14.07 10.8-15.93 4.53-2 7-.19 6.91 2.22.55-2.22-1.16-5.59-5.4-4.46Z" transform="translate(-278.52 -305.43)" style="fill:#2e4f57"/><path d="M422.47 320.43a6.4 6.4 0 0 0-1.63.23c-3.33.89-8.07 3.66-11.69 11.8-.77 1.73-1.49 3.66-2.19 5.53-2.17 5.79-4.41 11.77-8.66 14a7.25 7.25 0 0 1-6.6.62 7.8 7.8 0 0 0-2.36-.47 5 5 0 0 0-1.92.4h-.11l.05.1c.9 1.94 3.24 3.14 6.11 3.14a14.32 14.32 0 0 0 4.92-1c6-2.21 8.64-9 10.95-15l.22-.58c3.38-8.76 6.71-13.76 10.18-15.29a9.36 9.36 0 0 1 3.61-.94 2.61 2.61 0 0 1 2.82 2.18l.1.45.11-.45a4.06 4.06 0 0 0-.75-3.36 3.82 3.82 0 0 0-3.16-1.36Zm.88 2.42a9.46 9.46 0 0 0-3.7 1c-3.52 1.55-6.89 6.6-10.29 15.41l-.23.58c-2.29 5.95-4.88 12.7-10.82 14.88a14.32 14.32 0 0 1-4.84.94c-2.73 0-5-1.11-5.86-2.9a4.71 4.71 0 0 1 1.73-.34 7.59 7.59 0 0 1 2.3.46 7.47 7.47 0 0 0 6.76-.63c4.33-2.29 6.58-8.32 8.76-14.15.7-1.86 1.42-3.79 2.19-5.52 3.59-8.05 8.26-10.79 11.54-11.67a6 6 0 0 1 1.58-.22 3.65 3.65 0 0 1 3 1.37 4 4 0 0 1 .79 2.72 2.82 2.82 0 0 0-2.91-1.93Z" transform="translate(-278.52 -305.43)" style="fill:#0c1c1e"/><path class="cls-2" d="m371.35 357.19-9.13 3.26c-11.28 4.32-11.36 9.26-11.25 10.83a2.81 2.81 0 0 1-.6 2.75 4.75 4.75 0 0 0-.33 4.82 3.1 3.1 0 0 1-.26 3.21c-.73 1.34-.23 2.9.31 4.69s-2.63 9.37-1.37 10.2 16.06-6.11 19.68-18.13c3.35-11.16 14.14-19.6 2.95-21.63Z" transform="translate(-278.52 -305.43)"/><path class="cls-3" d="m371.35 357.19-9.13 3.26c-8.59 3.74-7.68 9.26-7.57 10.83a3.93 3.93 0 0 1-.87 3.18c-1.25 1.7-.7 2.05-.17 3.4s1.66 3.43 1 4.67-1.15 1.05-.6 2.85-6 12.55-1.61 10.38c2.84-1.69 11.89-5.94 16-16.94 3.35-11.16 14.14-19.6 2.95-21.63Z" transform="translate(-278.52 -305.43)"/><path class="cls-4" d="M371.35 357.19h-6.86l-2.27 3.24c-8.59 3.74-9.48 9.13-9.38 10.71a3.64 3.64 0 0 1-.65 3.16c-1.25 1.7-.41 2.87.12 4.22a4.73 4.73 0 0 1-.58 4c-.73 1.34.16 2.12.71 3.91s-4.42 11.49-.05 9.32c2.84-1.69 11.54-7 15.07-17.35 3.35-11.14 12.75-19.16 3.89-21.21Z" transform="translate(-278.52 -305.43)"/><path class="cls-5" d="M373.18 357.41h-.06a4 4 0 0 0-1.77-.2c2.51.46 4 1.27 4.58 2.48 1 2.08-.76 5.19-3 9.12a50.34 50.34 0 0 0-4.67 10c-2.87 9.57-13.11 16.06-17.61 17.71-1.16.42-1.74.46-1.9.35-.62-.4 0-3 .63-5.24.54-2.09 1-4.05.79-4.89v-.09c-.53-1.74-1-3.24-.3-4.52a3.19 3.19 0 0 0 .27-3.3 4.67 4.67 0 0 1 .32-4.72 2.6 2.6 0 0 0 .68-2.32c0-.16-.05-.31-.06-.49-.29-4.18 3.56-7.93 11.14-10.83a10.17 10.17 0 0 0-3.09 1.08h-.06c-5.64 2.73-8.46 6.06-8.21 9.73 0 .19 0 .35.06.51a2.38 2.38 0 0 1-.64 2.16 4.87 4.87 0 0 0-.34 4.93 3 3 0 0 1-.26 3.12c-.74 1.36-.26 2.9.28 4.69v.08c.24.78-.29 2.81-.79 4.77-.67 2.57-1.29 5-.54 5.49a.69.69 0 0 0 .38.08 6 6 0 0 0 1.71-.41 33.62 33.62 0 0 0 9.45-5.87c2.9-2.5 6.69-6.61 8.3-12a50.11 50.11 0 0 1 4.65-10c2.24-4 4-7.14 3-9.33a4.58 4.58 0 0 0-2.94-2.09Z" transform="translate(-278.52 -305.43)"/><path class="cls-4" d="M407.82 337.09c4.74-10.72 9.21-15.24 15.4-16.09-6.14-.1-11.98 5.48-15.4 16.09Z" transform="translate(-278.52 -305.43)"/><path class="cls-3" d="M412.52 375.31c-.66-.43-6.72-1.15-8.57-2.36.51 1.31 6.23 2.23 8.57 2.36Z" transform="translate(-278.52 -305.43)"/></g></g></svg>