<svg xmlns="http://www.w3.org/2000/svg" width="1569.1" height="3728.3"><defs><style>.cls-2{fill:#fc9f86}.cls-3{fill:#e57e65}.cls-4{fill:#c65947}.cls-5{fill:#333}.cls-6{fill:#484848}.cls-7{fill:#1a1a1a}.cls-8{fill:#ccc}.cls-9{fill:#fff}.cls-10{fill:#666}.cls-11{fill:#008dff}.cls-12{fill:#0074d3}.cls-13{fill:#005bb5}.cls-14{fill:#6bf}.cls-18{fill:#00a4ff}.cls-19{fill:#006aff}.cls-20{fill:#3bccff}.cls-21{fill:#a95900}.cls-22{opacity:.71;mix-blend-mode:screen}.cls-24{fill:#ffe597}</style></defs><g style="isolation:isolate"><g id="Layer_1" data-name="Layer 1"><path class="cls-2" d="M1834 3581.25s3.17 52.32 2.25 56.75c-3.25 15.67-74.5 72.75-74.5 72.75s94.5 25.5 123.75 28.75 87.75-41.25 94.75-57.5 5-66.75 5-66.75Z" transform="translate(-1219.91 -133.37)"/><path class="cls-3" d="m1985.25 3615.25-151.25-34s1.91 31.48 2.33 47.67c31.67.21 63 10.71 90.67 28.08 18.1 10.7 26 29.52 31.08 48.67 11.28-9.17 19.77-18.09 22.17-23.67 7-16.25 5-66.75 5-66.75Z" transform="translate(-1219.91 -133.37)"/><path class="cls-4" d="M1888.66 3742.17a29.87 29.87 0 0 1-3.44-.19c-29.1-3.23-120.26-27.77-124.12-28.82l-4.76-1.28 3.85-3.08c28.36-22.72 71.36-60.46 73.61-71.31.61-3.11-1.08-36.06-2.3-56.09l-.2-3.32 156.37 35.15.08 1.92c.08 2.09 1.94 51.26-5.2 67.84-3.76 8.72-20.19 24-40 37.15-10.23 6.86-35.16 22.03-53.89 22.03Zm-121.51-32.57c19.51 5.19 93.64 24.64 118.63 27.42 12.23 1.34 31.93-6.31 54-21 18.43-12.26 34.82-27.3 38.12-35 6-13.79 5.14-54.43 4.86-63.75l-146.12-32.84c.79 13.35 2.86 50 2 54.09-2.94 14.48-55.59 58.16-71.49 71.08Z" transform="translate(-1219.91 -133.37)"/><path class="cls-5" d="M1992.76 3766.5c-1.23 9-79.67 57.5-182.14 80.5s-168.17 9.5-190.72-8c-4.09-6.84-7.85-15.15-8.5-23.85.36.63.73 1.24 1.1 1.85 23 17.5 90 31 194.5 8s184.5-71.5 185.75-80.5q0-.2.06-.42c.49 10.72.4 19.07-.05 22.42Z" transform="translate(-1219.91 -133.37)"/><path d="M1710 3861.67c-44.3 0-76-8.58-91.63-20.7l-.37-.28-.25-.41c-5.29-8.85-8.27-17.25-8.84-24.94l-.83-11 5.49 9.61c.27.47.54.93.82 1.38 19.32 14.33 81 31.71 192.07 7.27a609.36 609.36 0 0 0 130-44.78c35.71-17.23 53-30.65 53.88-33.69v-.34l5 .22c.47 10.28.44 19.05-.07 22.86-1.64 12-84.87 60.33-184.07 82.6-38.39 8.58-72.45 12.2-101.2 12.2Zm-88.2-24.36c19 14.32 79.44 31.68 188.27 7.25a589.94 589.94 0 0 0 127.45-44.79c34.94-17.2 51.82-30.58 52.77-33.65a122.16 122.16 0 0 0 .27-14.88c-9.27 8.46-30.8 20.76-50.87 30.51a613.07 613.07 0 0 1-132.15 45.69c-94.6 20.82-163.45 12.43-192.48-5.65a61.67 61.67 0 0 0 6.74 15.52Z" transform="translate(-1219.91 -133.37)"/><path class="cls-5" d="M1903.5 3721s62.25-23 80.91-60.54c8.09 30 9.59 75 8.34 84S1911.5 3802 1807 3825s-171.5 9.5-194.5-8c-13-21.35-22.7-57.13 57-74 88.17-18.67 120.79-56.16 120.79-56.16s22.77-33.53 67.71-24.17c60.06 12.5 45.5 58.33 45.5 58.33Z" transform="translate(-1219.91 -133.37)"/><path class="cls-6" d="M1857.06 3661.78c-1.43-.06-2.84-.06-4.23 0 1.34.19 2.71.42 4.1.69.07-.24.07-.47.13-.69ZM1790.29 3686.84s-32.62 37.49-120.79 56.16c-79.7 16.87-70 52.65-57 74 .83.63 1.72 1.26 2.67 1.88-11.31-21-15.31-52.77 57.7-68.23 85.86-18.17 121.3-53.82 121.3-53.82s22.91-33.83 58.66-35.06c-41.51-5.88-62.54 25.07-62.54 25.07ZM1867 3663h-.1a6.25 6.25 0 0 1-.08.85c-.06.34-.13.67-.19 1 30.24 9 37.39 27.68 38.31 41 1.56-15.44-3.56-35.69-37.94-42.85Z" transform="translate(-1219.91 -133.37)"/><path class="cls-7" d="M1984.41 3660.46c-6.35 12.78-17.76 23.87-30 32.95a256.45 256.45 0 0 1 4.25 75.76c21.19-11.66 33.64-21.16 34.13-24.67 1.21-9-.29-54-8.38-84.04Z" transform="translate(-1219.91 -133.37)"/><path d="M1704.39 3839.67c-45.15 0-77.49-8.58-93.4-20.68l-.38-.28-.24-.41c-9.38-15.34-11.55-29.13-6.45-41 7.24-16.8 29.13-29.18 65.06-36.79 84.41-17.87 117.61-53.35 119.36-55.27 1.82-2.54 25.73-34.32 70.17-25.06 21 4.37 35.49 13.21 43.13 26.28 6.89 11.79 6.35 23.91 5.31 30.42 14.31-6 60-27 75.22-57.57l2.94-5.91 1.72 6.37c8.45 31.41 9.59 76.47 8.4 85-1 7.33-29.51 24.27-55.54 36.91a613.07 613.07 0 0 1-132.15 45.69c-39.12 8.68-73.84 12.3-103.15 12.3Zm-90-24.38c19.32 14.33 81 31.71 192.07 7.27a609.36 609.36 0 0 0 130-44.78c35.71-17.23 53-30.65 53.88-33.69 1.13-8.22-.16-47.72-6.79-76.91-21.7 34.62-76.68 55.26-79.13 56.16l-4.8 1.78 1.55-4.87c.07-.24 4.94-16.35-3.83-31.29-6.91-11.76-20.3-19.79-39.8-23.85-42.81-8.9-64.91 22.81-65.13 23.13l-.18.24c-1.36 1.56-34.19 38.34-122.16 57-34.25 7.25-54.94 18.64-61.51 33.87-4.42 10.12-2.45 22.23 5.83 35.94Z" transform="translate(-1219.91 -133.37)"/><path class="cls-2" d="M2227.66 3577.08s-.7 52.41.42 56.79c4 15.5 77.85 69.16 77.85 69.16s-93.19 29.93-122.26 34.55-89.59-37.06-97.35-53-5.65-94.95-5.65-94.95Z" transform="translate(-1219.91 -133.37)"/><path class="cls-3" d="M2177 3635c16.55-6.62 33.54-7.1 50.68-6.38-.52-14.35 0-51.54 0-51.54l-147 12.59s-2.11 79 5.65 94.95c2.24 4.6 8.92 11.36 18 18.54 18.67-28.53 40.51-56.1 72.67-68.16Z" transform="translate(-1219.91 -133.37)"/><path class="cls-4" d="M2178.92 3740.44c-18.53 0-42.93-13.34-53.2-19.5-20.36-12.2-37.48-26.69-41.65-35.23-7.93-16.26-6-92.86-5.9-96.11l.06-2.23 152-13v2.76c-.27 20.07-.41 53.06.35 56.14 2.75 10.73 47.49 46.4 76.89 67.76l4 2.89-4.69 1.51c-3.82 1.22-93.71 30-122.63 34.64a31.91 31.91 0 0 1-5.23.37ZM2083.11 3592c-.65 27.78-.31 79.73 5.46 91.55 3.66 7.51 20.74 21.75 39.72 33.13 22.8 13.67 42.84 20.4 55 18.47 24.83-4 98-26.88 117.21-33-16.5-12.16-71.15-53.33-74.83-67.64-1.06-4.12-.7-41.82-.54-54.69Z" transform="translate(-1219.91 -133.37)"/><path class="cls-5" d="M2077.81 3769.61c1.65 8.93 82.29 53.68 185.73 71.82s168.43 1.56 190.13-17c3.76-7 7.13-15.5 7.37-24.23-.33.65-.67 1.28-1 1.9-22.15 18.57-88.44 35.21-193.91 17.17s-187.67-62.72-189.34-71.65c0-.13-.05-.27-.08-.42.01 10.8.49 19.09 1.1 22.41Z" transform="translate(-1219.91 -133.37)"/><path d="M2347.44 3851.74a491.58 491.58 0 0 1-84.33-7.84c-100.15-17.57-185.56-61.92-187.76-73.83-.68-3.74-1.14-12.7-1.15-22.84l5-.45.07.36c1.05 3 18.91 15.57 55.4 31.09a609.2 609.2 0 0 0 131.91 38.6c112.07 19.18 172.89-1.09 191.52-16.31l.75-1.42 5-9.85-.3 11.05c-.22 7.72-2.79 16.25-7.66 25.34l-.23.41-.36.31c-16.91 14.44-54.45 25.38-107.86 25.38Zm-267.18-82.62c1.09 3 18.58 15.59 54.3 31.12A590 590 0 0 0 2264 3839c109.87 19.27 169.47-.93 187.72-16.12a61.41 61.41 0 0 0 6-15.82c-28.14 19.43-96.51 31.06-192 14.72a613.3 613.3 0 0 1-134.16-39.41c-20.51-8.79-42.59-20.06-52.26-28.09a121.05 121.05 0 0 0 .96 14.84Z" transform="translate(-1219.91 -133.37)"/><path class="cls-5" d="M2164.82 3720s-63.26-20-83.67-56.65c-6.67 30.38-6 75.4-4.37 84.34s83.87 53.6 189.34 71.65 171.76 1.4 193.91-17.17c12-21.94 20-58.13-60.43-71.23-88.95-14.48-123.31-50.4-123.31-50.4s-24.32-32.41-68.77-20.95c-59.4 15.27-42.7 60.41-42.7 60.41Z" transform="translate(-1219.91 -133.37)"/><path class="cls-7" d="M2111.79 3694.17c-12.35-8.38-23.86-18.71-30.64-30.87-6.67 30.38-6 75.4-4.37 84.34.53 2.81 9.06 9.18 23.8 17.15-2.43-24.51.42-49.19 11.21-70.62Z" transform="translate(-1219.91 -133.37)"/><path d="M2351.3 3829.51a510.42 510.42 0 0 1-85.6-7.76 613.3 613.3 0 0 1-134.16-39.41c-26.6-11.4-55.86-27-57.22-34.24-1.59-8.5-2.58-53.56 4.38-85.34l1.42-6.44 3.21 5.76c16.62 29.81 63.28 48.67 77.85 54-1.35-6.46-2.46-18.54 3.87-30.64 7-13.41 21.1-22.93 41.85-28.28 43.93-11.33 69.32 19.26 71.27 21.72 1.83 1.83 36.85 35.74 121.83 49.59 36.25 5.9 58.7 17.23 66.72 33.67 5.66 11.58 4.14 25.45-4.5 41.23l-.23.41-.36.3c-17.28 14.45-55.69 25.43-110.33 25.43ZM2082.38 3670c-5.25 29.47-4.68 69-3.14 77.21 1 2.93 18.9 15.52 55.39 31a609.2 609.2 0 0 0 131.91 38.6c112.07 19.18 172.89-1.09 191.52-16.31 7.62-14.09 9-26.27 4.17-36.21-7.27-14.9-28.48-25.31-63-30.94-88.76-14.45-123.29-49.65-124.71-51.14l-.2-.23c-.95-1.26-23.92-30.92-66.14-20-19.33 5-32.33 13.65-38.67 25.76-8.06 15.42-2.37 31.21-2.31 31.36l1.77 4.8-4.87-1.54c-2.52-.81-58.42-18.83-81.72-52.36Z" transform="translate(-1219.91 -133.37)"/><path class="cls-8" d="M2032.5 3570.5c53.5 54 241 52.5 282 39-1.5-115 38.5-494.5 58.5-734.5s59-537 56-586-571-19-571-19Z" transform="translate(-1219.91 -133.37)"/><path class="cls-9" d="M2373 2875c-20 240-60 619.5-58.5 734.5-37.7 12.41-199.25 14.68-266.61-27a83.16 83.16 0 0 1-15.39-12l-161.92-1206.78c28.43 3.17 59.05 5.83 91.92 7.78 39.16 2.32 77.94 3.75 115.63 4.52 145.31 2.93 274.37-4.18 346.28-9.45-10.59 115.24-36.41 327.95-51.41 508.43Z" transform="translate(-1219.91 -133.37)"/><path class="cls-9" d="M2083.75 2560.75c8 304-39 794-36 1060 0 0-200 25-322-34 30.1-276 12-859-76-1352.7l425 44.7Z" transform="translate(-1219.91 -133.37)"/><path class="cls-8" d="M2032.5 3570.5c14.84 15 40 25.68 69.44 33-35.94-145.5 3.65-722.45 22.56-1030.5 0 0 10.67-30 27.33-49.33S2195 2487 2195 2487c-120 38-150.22 135.41-218 193.5Z" transform="translate(-1219.91 -133.37)"/><path class="cls-8" d="M2314.5 3609.5c-41 13.5-228.5 15-282-39L1858 2270s19-1 50.2-2.35L2086 3421c16.77 124.95 99.18 184.35 225.07 177.58l3.41-.2c-.03 3.94-.03 7.62.02 11.12Z" transform="translate(-1219.91 -133.37)"/><path class="cls-10" d="M2230.91 3619.9c-16.72 0-34.67-.64-52.92-2.1-41.43-3.3-115.64-13.62-147.27-45.54l-.59-.6-.11-.83-174.86-1303.18 2.71-.15c1.42-.07 143.68-7.51 284.48-8.87 82.74-.8 148.8.62 196.36 4.24 82.12 6.24 92.29 17.81 92.79 26 1.64 26.81-9 125.58-22.5 250.63-11.42 105.95-24.37 226-33.51 335.73-5.89 70.67-13.37 151.93-21.3 238-18.8 204.16-38.25 415.28-37.19 496.29v1.83l-1.74.58c-14.11 4.6-46 7.97-84.35 7.97Zm-196-50.57c30.83 30.31 103 40.26 143.52 43.49 57.8 4.62 112.38 1 133.59-5.16-.75-82.6 18.56-292.19 37.23-494.94 7.93-86 15.41-167.28 21.3-237.93 9.15-109.76 22.1-229.87 33.52-335.84 13.46-124.82 24.09-223.41 22.47-249.8-.52-8.49-29.27-28-284.09-25.52-130 1.25-261.23 7.69-281.57 8.73Z" transform="translate(-1219.91 -133.37)"/><path class="cls-8" d="M2084 2560c8 304-39 794-36 1060 0 0-200 25-322-34 30.1-276 12-859-76-1352.7l425 44.7Z" transform="translate(-1219.91 -133.37)"/><path class="cls-9" d="M2048 3620s-200 25-322-34c28.26-259.07 14-788.71-60.64-1261 48 13.77 115.73 28.79 205.22 38.76 28.43 3.17 59.05 5.83 91.92 7.78 39.16 2.32 77.94 3.75 115.63 4.52l5.87 184c7.64 290.22-34.85 750-36.11 1022.49q-.09 19.35.11 37.45Z" transform="translate(-1219.91 -133.37)"/><path class="cls-8" d="m2084 2560 9.5-10.26c-14.39-6.1-49.33-15.95-116.5-17.74 42 19.5 72.75 48.25 72.75 48.25 6.11 232.21-26.14 546.83-40.38 801-7.82 139.73-143 237.41-277.59 199.18q-2.54-.72-5-1.47-.36 3.54-.74 7c122 59 322 34 322 34C2045 3354 2092 2864 2084 2560Z" transform="translate(-1219.91 -133.37)"/><path class="cls-10" d="M1948.41 3627.76q-7.7 0-15.7-.13c-59.79-1-144.37-8.7-207.8-39.38l-1.59-.77.19-1.75c30.8-282.33 10.79-865.23-76-1352l-.59-3.28 428.34 45.05-.52 5-421.74-44.37c86.2 485.52 106.16 1065.68 75.67 1348.38 62.43 29.65 145.33 37.1 204.11 38.12a931.14 931.14 0 0 0 112.69-4.85c-1.24-121.58 7.74-288.12 17.25-464.36 10.09-187.09 20.48-379.84 19.65-536.09-.06-11.3.3-27 .12-37.95A148.93 148.93 0 0 1 2084 2560s2.29 14.55 2.42 21.67c.21 11.76.89 23.1.95 35.33.86 156.45-9.55 349.4-19.65 536.69-9.56 177.25-18.59 344.68-17.22 466.28v2.23l-2.22.28c-.43.06-42.91 5.28-99.87 5.28Z" transform="translate(-1219.91 -133.37)"/><path class="cls-2" d="M2543.5 2166c-27.5 20.5-80.5 94.5-87 96s-20-206-20-206 77.74 54.79 107 110Z" transform="translate(-1219.91 -133.37)"/><path class="cls-4" d="M2456.44 2264.51a2.86 2.86 0 0 1-1.74-.59c-1.77-1.31-5-3.75-13.33-106.6-4-50.31-7.33-100.65-7.37-101.16l-.33-5.22 4.27 3c.78.55 78.57 55.77 107.77 110.87l1 1.89-1.71 1.3c-15.92 11.87-41.32 42.93-59.87 65.61s-24.82 30.08-28.06 30.83a3.18 3.18 0 0 1-.63.07Zm-17.1-203.34c4.9 74.31 13.24 180.93 18 197.28 4.22-3.88 14.23-16.12 23.95-28 19.08-23.33 42.66-52.16 59-65.13-25.29-46.04-84.52-91.95-100.95-104.15Z" transform="translate(-1219.91 -133.37)"/><path class="cls-9" d="M2606.67 2180.67c-19.67 27.83-44.92 51.58-44.92 51.58S2496 2089 2405 2042l63.63-73s125.7 156.33 138.04 211.67Z" transform="translate(-1219.91 -133.37)"/><path class="cls-8" d="M2538.13 2187.82c15.12 25.91 23.62 44.43 23.62 44.43s25.25-23.75 44.92-51.58c-2-9.11-7.14-21-14.25-34.4-15.71 16.59-34.15 30.23-54.29 41.55Z" transform="translate(-1219.91 -133.37)"/><path class="cls-10" d="m2560.93 2236.45-1.45-3.16a635.61 635.61 0 0 0-44.1-77.22c-25.21-37.76-65-87.82-111.53-111.85l-2.83-1.46 67.69-77.65 1.87 2.32c5.15 6.41 126.21 157.43 138.53 212.69l.24 1.09-.64.9c-19.59 27.72-45 51.72-45.25 52Zm-152-195.19c46.26 25 85.58 74.58 110.62 112.1a653.73 653.73 0 0 1 42.93 74.67c6.73-6.6 25.85-26 41.47-47.89-12.52-51.34-119.89-187.69-135.43-207.24Z" transform="translate(-1219.91 -133.37)"/><path class="cls-11" d="m2472.59 1940.88-27.26 33.79s112.67 137.33 161.34 206l28.61-36.65s-116.1-156.93-162.69-203.14Z" transform="translate(-1219.91 -133.37)"/><path class="cls-12" d="M2635.28 2144s-7.8-10.54-20.17-27a187.74 187.74 0 0 1-29 35.55c7.59 10.13 14.54 19.62 20.53 28.06Z" transform="translate(-1219.91 -133.37)"/><path class="cls-13" d="m2606.57 2184.85-1.94-2.74c-48.06-67.81-160.1-204.48-161.23-205.86l-1.29-1.57 30.27-37.53 2 2c46.19 45.81 161.78 201.85 162.94 203.43l1.13 1.52Zm-158-210.2c12.49 15.27 111.94 137.07 158.21 201.84l25.38-32.51c-12-16.1-114.75-154.06-159.35-199.36Z" transform="translate(-1219.91 -133.37)"/><path class="cls-12" d="M1636.5 1365.5c-11.5 55-66.5 132.5-66.5 132.5 75.77 35 103.13 81.5 103.13 81.5s0-196-36.63-214Z" transform="translate(-1219.91 -133.37)"/><path class="cls-13" d="m1675.63 1588.65-4.65-7.88c-.27-.46-28-46.28-102-80.5l-2.73-1.26 1.74-2.46c.55-.77 54.83-77.71 66.09-131.56l.66-3.15 2.89 1.42c16 7.87 27.28 46.82 33.44 115.77 4.54 50.77 4.59 100 4.59 100.47ZM1573.75 1497c57.38 27.11 86.34 60.2 96.84 74.35-.58-57-7.17-181.17-32.43-201.8-11.77 49.62-55.06 113.94-64.41 127.45Z" transform="translate(-1219.91 -133.37)"/><path class="cls-12" d="M2608.67 1316c16.08 16.75-46.67 110.5-46.67 110.5l-36.5-97s69.11-28.14 83.17-13.5Z" transform="translate(-1219.91 -133.37)"/><path class="cls-13" d="m2561.37 1431.93-39.07-103.83 2.26-.92c7.23-2.94 71.11-28.33 85.91-12.91 7.61 7.92 2.08 29-16.9 64.44-13.58 25.35-29.33 49-29.49 49.18Zm-32.67-101 33.92 90.13c23.58-36 54.55-92.58 44.25-103.31-10.17-10.61-57.87 5.14-78.17 13.16Z" transform="translate(-1219.91 -133.37)"/><path class="cls-2" d="M2006.5 1080.5c3 23 0 58 0 58-49-2-85 1-85 1l198 279 115-57 67-148-59-18c0-28 12-68 12-68Z" transform="translate(-1219.91 -133.37)"/><path class="cls-3" d="M2243.51 1196c-1.88-32.46 11-68.46 11-68.46l-248-47c1.65 12.68 1.48 29 1 41.11 89.49 119.35 154.49 93.57 236 74.35Z" transform="translate(-1219.91 -133.37)"/><path class="cls-4" d="m2118.7 1421.69-1.24-1.74-200.54-282.58 4.37-.36a768.83 768.83 0 0 1 82.9-1.1c.6-8.24 2.31-36-.17-55.09l-.45-3.42 254.12 48.16-.8 2.66c-.11.39-11.37 38.23-11.87 65.43l59.93 18.29-68.54 151.4Zm-192.59-280 194.19 273.63 112.29-55.65 65.46-144.6-58.05-17.72v-1.85c0-24.2 8.64-56.57 11.33-66.06l-242-45.85c2.34 22.81-.26 53.75-.38 55.12l-.2 2.39-2.39-.1a796.37 796.37 0 0 0-80.25.68Z" transform="translate(-1219.91 -133.37)"/><path class="cls-9" d="M2472.59 1940.88c11.17-13.39 45-53.56 77.91-89.38 0 0-43-132-66-198-15.37 75.33-21.82 180.6-20.95 298.59q.16 22.59.69 45.77c2.23 99.62 9.29 206.38 20.26 310.64 0 0-252 26-522 10s-388-80-388-80 38-170 58-320 46-323 13.27-530.06c-70.75-37.06-189.32-90.06-280.27-154.94-91.63-65.37-152-132-142-183 11.89-60.66 135-162 135-162s93 131 143 163 118 36 275 89l358 293 167-220s230 99 248 118 238 460 237 548c-.86 75.48-118 223.8-151.26 264.47-2.36-3.19-116.54-157.36-162.65-203.09Z" transform="translate(-1219.91 -133.37)"/><path class="cls-8" d="m2111.09 1414.34 2.89 6a31.48 31.48 0 0 0-19.43 21.71c17.14 213.72-46.86 436.59-129.15 601.16-29.71-61.71-62-342.79-38.19-393.88 15.66-33.67 37.19-87 45.91-117.28 20.62-71.56 29.19-130.71 91-156.12Z" transform="translate(-1219.91 -133.37)"/><path class="cls-8" d="M2215.94 2035.08c-132.09-243.54-26.5-460.66-47.16-543.84-3.74-15.06-97.78 1.51-82.18-38 0 0 70.3-48.57 112.55-18.24s56.87 137.57 72 273-31.38 243.67-55.21 327.08ZM2050.37 1434.67a68.21 68.21 0 0 1 12.16 7.45c-11.33 2.17-24.66 2.05-40.49 1.05-114-7.17-230.07-268.59-289.3-315.93 13-6.94 38 16.87 49.3 17.79l103.13 84.41c58.68 77.47 124.97 185.34 165.2 205.23Z" transform="translate(-1219.91 -133.37)"/><path class="cls-8" d="M2558 1344.64c-16.86 8.39-36.58 20.87-58.68 39.36-77.28 64.67-186.62 119-242.62 110s-97-50-97-50c56-122 141.86-223 141.86-223l-4.68-1.43 4.63-6.1s230 99 248 118c1.49 1.62 4.4 6.15 8.49 13.17ZM2520 1517c-28.15 34.7-32.19 92.45-35.59 137l.09-.47c20.71 59.43 57.63 172.34 64.78 194.25 11.1-8.22 26-19.36 36.72-28-86.67-72.78-68.12-229.45-66-302.78ZM1574.5 2238.5s20.34 11 63.41 25.06c-26.83-11.76-47.51-22-62.76-28-.42 1.93-.65 2.94-.65 2.94Z" transform="translate(-1219.91 -133.37)"/><path class="cls-8" d="M2520 1517c-86 122.76-86.32 301.1-85.45 419.09q.16 22.59.69 45.77c2.21 98.58-1.16 225.46 13.31 329.84 23.06-1.87 35.95-3.2 35.95-3.2-11-104.26-18-211-20.26-310.64q-.52-23.16-.69-45.77v-5.72c0-11.87.48-18.87.12-45.24.87-75.51 5.06-144.32 13-201.41-2.63-7.85 3.25-26.52 8-50.22 9.09-45.41 25.06-103.91 35.33-132.5ZM2786.5 1879.5c-.86 75.48-118 223.8-151.26 264.47-.59-.8-8.26-11.15-20.15-26.93 41.41-51.65 141.61-183.74 142.41-253.54 1-88-219-529-237-548a39.83 39.83 0 0 0-6.93-5.22c18.72 9.54 32.11 17.18 35.93 21.22 18 19 238 460 237 548ZM1574.5 2238.5s9.39 5.09 28.92 12.76a5.24 5.24 0 0 1 1.35-.75c5.82-26.59 43.31-199.89 61.73-338 20-150 66.73-282.94 34-490-44-73-210-130.12-301-195-91.63-65.37-175-145-165-196a86.34 86.34 0 0 1 7.43-20.88c-9.31 14.16-16.07 27.82-18.43 39.88-10 51 50.37 117.63 142 183 91 64.88 209.52 117.88 280.27 154.94 32.73 207.06 6.73 380.06-13.27 530.06s-58 319.99-58 319.99Z" transform="translate(-1219.91 -133.37)"/><path class="cls-10" d="M2146 2326.16c-58.36 0-120.58-1.43-183.64-5.16-139.7-8.28-238-29.64-295.78-46.1-62.79-17.86-93-34-93.26-34.2l-1.66-.9.41-1.84c.38-1.7 38.21-171.62 58-319.79q1.32-9.9 2.67-19.94c19.57-145.85 41.75-311.11 10.81-508.16-16.35-8.54-35.43-18-55.6-28.07-68.65-34.17-154.09-76.7-223.85-126.46-71.79-51.22-154.87-125-143-185.52 11.92-60.84 130.81-159.29 135.86-163.45l2.07-1.71 1.56 2.19c.93 1.31 93.29 131 142.31 162.34 28 17.92 62.39 27.15 114.47 41.11 40.91 11 91.82 24.62 160 47.63l.43.15 356.35 291.64 166.61-219.49 1.8.77c9.41 4 230.68 99.43 248.82 118.58 9.57 10.1 70.85 129.26 126.08 248.8 41.93 90.73 112.18 250.48 111.61 301-.86 75.84-116.43 222.79-151.83 266l-2 2.49-1.91-2.58c-4.74-6.41-116.63-157.41-162.4-202.81l-1.63-1.61 1.47-1.76c12.5-15 44.84-53.37 77-88.4-4.46-13.67-40.56-124.22-62.5-187.81-13.39 71-20 170.6-19.12 289 .11 15 .34 30.36.69 45.73 2.19 98.06 9.2 205.41 20.25 310.44l.26 2.49-2.49.26c-2.03.17-150.04 15.14-338.86 15.14Zm-568.63-89c7.07 3.55 36.7 17.62 90.83 33 57.55 16.36 155.36 37.59 294.46 45.83 252.51 15 492.17-7.12 519.1-9.74-10.91-104.37-17.83-210.93-20-308.34-.35-15.4-.58-30.81-.69-45.81-.91-123.87 6.35-227.3 21-299.11l1.82-8.91 3 8.59c22.75 65.27 65.59 196.73 66 198l.45 1.39-1 1.07c-31.23 34-62.83 71.34-76.37 87.54 44.2 44.68 143.77 178.18 159.37 199.17 37.31-45.8 147.83-187.59 148.66-260.43.56-49.48-69.39-208.44-111.14-298.8-59.37-128.4-116.86-238.61-125.17-247.39-13.86-14.62-165.49-82.23-245.38-116.65l-167.39 220.51-359.65-294.36c-67.79-22.87-118.49-36.46-159.24-47.39-52.53-14.09-87.23-23.39-115.88-41.72-46.87-30-129.29-143.57-142.12-161.46-16.1 13.57-121.33 104-132.08 158.83-4.62 23.57 6.27 51.85 32.38 84.06 24.16 29.8 60.7 62.24 108.62 96.42 69.44 49.54 154.68 92 223.18 126.06 20.66 10.28 40.17 20 56.8 28.71l1.11.58.2 1.24c31.35 198.31 9.07 364.35-10.59 510.85q-1.35 10-2.67 19.93c-18.66 139.96-53.41 299.25-57.62 318.33Z" transform="translate(-1219.91 -133.37)"/><path class="cls-13" d="m2631.56 2152.84-4-3.05 4.51-5.85c-12.57-16.94-114.37-153.69-159.32-199.32l-2.21 2.74-3.9-3.14 5.7-7.07 2 1.95c46 45.67 158.15 197 162.9 203.38l1.12 1.52Z" transform="translate(-1219.91 -133.37)"/><path class="cls-11" d="M1737.27 1127.66C1796.5 1175 1940 1410 2015 1418.5s96.5-38.5 96.5-38.5c-61.5-74.67-153.32-225.25-169.41-241.62s-72.76-1.71-72.76-1.71c-13.33-9.34-66-9-66-9s-34.13-17.02-66.06-.01Z" transform="translate(-1219.91 -133.37)"/><path class="cls-13" d="M2032.38 1422a156.38 156.38 0 0 1-17.66-1c-48.74-5.52-123-101.09-188.57-185.41-37.08-47.71-69.11-88.91-90.44-106l-3-2.37 3.35-1.79c30.85-16.43 63.06-2.52 67.81-.3 6 0 51.43.21 65.87 8.83 8.22-2 58.26-13.48 74.1 2.64 6.57 6.69 24.26 33.39 48.74 70.34 35.39 53.42 83.85 126.57 120.82 171.45l1 1.21-.65 1.42c-.23.5-5.82 12.47-20.93 23.42-11.61 8.45-31.01 17.56-60.44 17.56Zm-290.55-293.82c21.7 18.67 52.67 58.51 88.27 104.31 61.72 79.4 138.54 178.23 185.18 183.52 65.21 7.38 89-28.26 93.23-35.72-37-45.18-85-117.58-120.07-170.58-23.41-35.34-41.91-63.25-48.13-69.59-12.37-12.59-55-5-70.35-1l-1.12.29-.94-.67c-10.4-7.28-50.11-8.64-64.55-8.55h-.6l-.53-.27c-.32-.18-30.99-15.07-60.39-1.73Z" transform="translate(-1219.91 -133.37)"/><path class="cls-9" d="M2111.5 1380s-7.63 16.67-29.64 28.35a92.23 92.23 0 0 1-26.37 9.1c-11.33 2.17-24.73 2.84-40.49 1-75-8.5-218.5-243.5-277.73-290.84 31.93-17 66.06 0 66.06 0s52.67-.33 66 9c0 0 56.67-14.67 72.76 1.71S2050 1305.33 2111.5 1380Z" transform="translate(-1219.91 -133.37)"/><path class="cls-13" d="M2032.53 1422a156.47 156.47 0 0 1-17.81-1c-48.74-5.52-123-101.09-188.57-185.41-37.08-47.71-69.1-88.9-90.44-106l-3-2.37 3.35-1.79c30.85-16.43 63.06-2.52 67.81-.29 6 0 51.44.2 65.87 8.82 8.22-2 58.27-13.47 74.1 2.65 6.57 6.68 24.27 33.39 48.76 70.36 35.38 53.41 83.84 126.55 120.8 171.42l1 1.21-.65 1.42c-.32.71-8.24 17.58-30.74 29.52a95.21 95.21 0 0 1-27.07 9.35 124.81 124.81 0 0 1-23.41 2.11Zm-290.7-293.82c21.7 18.66 52.67 58.5 88.27 104.3 61.72 79.41 138.54 178.23 185.18 183.52a132.62 132.62 0 0 0 39.74-1 89.87 89.87 0 0 0 25.66-8.85c17.37-9.21 25.52-21.75 27.83-25.84-37-45.17-84.94-117.56-120.05-170.55-23.42-35.35-41.92-63.28-48.15-69.62-12.36-12.58-55-5-70.35-1l-1.12.29-.94-.66c-10.4-7.29-50.13-8.66-64.55-8.56h-.6l-.54-.26c-.31-.21-30.98-15.1-60.38-1.75Z" transform="translate(-1219.91 -133.37)"/><path class="cls-11" d="M2055.49 1417.45c-11.33 2.17-24.73 2.84-40.49 1-75-8.5-218.5-243.5-277.73-290.84 31.93-17 66.06 0 66.06 0 64.67 32.34 180.67 253 240 282.34a68.21 68.21 0 0 1 12.16 7.5Z" transform="translate(-1219.91 -133.37)"/><path class="cls-12" d="M2055.49 1417.45c-11.33 2.17-24.73 2.84-40.49 1-75-8.5-218.5-243.5-277.73-290.84a64 64 0 0 1 18.31-6.39c65.18 66 194.72 270.92 264.67 278.85 3.28.38 6.46.64 9.54.81a73 73 0 0 0 13.54 9.07 68.21 68.21 0 0 1 12.16 7.5Z" transform="translate(-1219.91 -133.37)"/><path class="cls-13" d="M2032.53 1422a156.47 156.47 0 0 1-17.81-1c-48.74-5.52-123-101.09-188.57-185.41-37.08-47.71-69.1-88.9-90.44-106l-3-2.37 3.35-1.79c32.7-17.41 66.91-.75 68.36 0 33.54 16.78 80.34 82.91 125.59 146.86 42.23 59.68 85.89 121.39 114.4 135.48a70.75 70.75 0 0 1 12.6 7.73l4.27 3.39-5.35 1a124.81 124.81 0 0 1-23.4 2.11Zm-290.7-293.82c21.7 18.66 52.67 58.5 88.27 104.3 61.72 79.41 138.54 178.23 185.18 183.52a138.06 138.06 0 0 0 33.72 0q-3.06-1.89-6.78-3.73c-29.64-14.65-71.71-74.11-116.26-137.07-44.9-63.45-91.33-129.06-123.75-145.27-.31-.19-30.98-15.08-60.38-1.73Z" transform="translate(-1219.91 -133.37)"/><path class="cls-11" d="M2111.5 1380s-7.63 16.67-29.64 28.35c-52.38-30.81-148.66-212.88-212.53-271.68 0 0 56.67-14.67 72.76 1.71S2050 1305.33 2111.5 1380Z" transform="translate(-1219.91 -133.37)"/><path class="cls-14" d="M1949.09 1148.38c-14.06-14.31-59.11-4.92-70.25-2.32q-4.86-5.1-9.51-9.39s56.67-14.67 72.76 1.71c3 3 8.58 10.69 16.09 21.62a114.23 114.23 0 0 0-9.09-11.62Z" transform="translate(-1219.91 -133.37)"/><path class="cls-13" d="m2081.8 1411.21-1.21-.71c-28.46-16.74-68.4-75.52-110.68-137.75-35.76-52.62-72.73-107-102.27-134.24l-3.38-3.11 4.44-1.15c2.37-.61 58.27-14.83 75.17 2.38 6.57 6.68 24.27 33.39 48.76 70.36 35.38 53.41 83.84 126.55 120.8 171.42l1 1.21-.65 1.42c-.32.71-8.24 17.58-30.74 29.52ZM1874.4 1138c29.35 28.46 65.06 81 99.65 131.92 39.53 58.19 80.39 118.32 107.88 135.53 16.51-9.14 24.33-21.18 26.58-25.17-37-45.17-84.94-117.56-120.05-170.55-23.42-35.35-41.92-63.28-48.15-69.62-11.31-11.51-48-6.11-65.91-2.11Z" transform="translate(-1219.91 -133.37)"/><path class="cls-11" d="m2245.93 1196.55 40.93 12.48S2201 1310 2145 1432c0 0 41 41 97 50s165.33-45.33 242.62-110c76.17-63.74 124.05-56 124.05-56-28.67-52-307.17-126-336.92-127.75-23.46-1.38-25.82 8.3-25.82 8.3Z" transform="translate(-1219.91 -133.37)"/><path class="cls-14" d="M2608.67 1316s-4.54-.73-13.05.11c-51.94-51.15-301.78-117.21-329.87-118.86a52.76 52.76 0 0 0-14.66.87l-5.16-1.57s2.36-9.68 25.82-8.3C2301.5 1190 2580 1264 2608.67 1316Z" transform="translate(-1219.91 -133.37)"/><path class="cls-13" d="M2255.26 1485.49a86.14 86.14 0 0 1-13.66-1c-56.15-9-97.95-50.29-98.37-50.7l-1.23-1.23.73-1.58c50.26-109.49 125.41-203.16 139.8-220.63L2244 1197l-.49-1c.29-1.2 3.56-11.67 28.39-10.21 15.59.92 93.63 20.28 169.49 45.16 68.61 22.49 153.71 55.3 169.47 83.88l2.47 4.5-5.06-.82c-.47-.07-47.86-6.63-122.05 55.45-68.49 57.27-169.53 111.53-230.96 111.53ZM2148 1431.42c7.25 6.77 45.19 40.21 94.38 48.11 57.66 9.27 167.62-48.37 240.61-109.45 62.64-52.41 106.12-57.08 120.75-56.91-16.45-20.76-74.09-48.06-163.92-77.51-75.51-24.76-152.91-44-168.24-44.91-13.55-.8-20.22 3.07-22.6 5.25l42.23 11.75-2.47 2.9c-.83 1.01-85.5 101.22-140.74 220.77Z" transform="translate(-1219.91 -133.37)"/><path class="cls-9" d="M2482.33 1247.64c-106.76 28.56-167.65 177.69-301.78 211a190.9 190.9 0 0 0 35.87 16.86c212.87-74.13 211.15-175.13 330-202-19.1-8.76-41.05-17.5-64.09-25.86Z" transform="translate(-1219.91 -133.37)"/><path class="cls-13" d="m2216.42 1478.18-.82-.29a192.62 192.62 0 0 1-36.35-17.08l-5.18-3.11 5.87-1.46c70.64-17.56 120.43-67.19 168.57-115.19 42.44-42.31 82.52-82.28 133.16-95.82l.32-.09h.77l.42.15c24.64 8.93 46.24 17.67 64.23 26l6.67 3.09-7.17 1.62c-52.9 12-81.08 38.31-116.75 71.68-42.56 39.81-95.54 89.35-212.93 130.23Zm-29.42-18.63a185.33 185.33 0 0 0 29.37 13.33c115.82-40.47 168.21-89.48 210.34-128.88 33.24-31.09 62.16-58.14 112-71.18-16.29-7.26-35.26-14.84-56.52-22.56-49 13.4-88.44 52.71-130.18 94.33-47.26 47.14-96.12 95.85-165.01 114.96Z" transform="translate(-1219.91 -133.37)"/><path class="cls-11" d="M2572.67 1303.44c-9.11-4.53-18.39-8.71-27.73-12.75-7.49-3.24-15.38-6.08-22.46-10.24-95.78 34.34-108.51 126.28-306.07 195.08A155 155 0 0 0 2242 1482c56 9 165.33-45.33 242.62-110 52.76-44.15 91.93-54 111-55.89-.94-.69-1.9-1.37-2.85-2q-9.92-5.59-20.1-10.67Z" transform="translate(-1219.91 -133.37)"/><path class="cls-12" d="M2608.67 1316s-47.88-7.74-124.05 56c-77.29 64.67-186.62 119-242.62 110a155 155 0 0 1-25.59-6.47q20.19-7 37.88-14.36c58.23 2 159.82-49.83 232.83-110.92 51.36-43 96.52-41.52 120.49-36 .39.57.74 1.16 1.06 1.75Z" transform="translate(-1219.91 -133.37)"/><path class="cls-13" d="M2255.26 1485.49a86.14 86.14 0 0 1-13.66-1 159 159 0 0 1-26-6.57l-6.85-2.35 6.84-2.38c116.39-40.53 168.93-89.68 211.16-129.17 34.79-32.54 64.83-60.64 119.06-72.9l.83-.19.77.36c35.13 16.22 56.47 30.86 63.45 43.52l2.47 4.5-5.06-.82c-.46-.07-47.86-6.63-122.05 55.45-68.49 57.29-169.53 111.55-230.96 111.55Zm-31-10.09a147.39 147.39 0 0 0 18.13 4.13c57.66 9.27 167.62-48.37 240.62-109.45 62.65-52.43 106.18-57.06 120.75-56.91-8.47-10.73-27.83-23.16-57.69-37-52.36 12-80.44 38.3-115.92 71.49-41.69 39-93.39 87.34-205.88 127.74Z" transform="translate(-1219.91 -133.37)"/><path class="cls-11" d="M2068 1388.44c-74 16.65-81 73.16-101.25 143.31-7.63 26.48-26.47 73.15-40.17 102.61C1905.79 1679.07 1934 1925 1960 1979c72-144 128-339 113-526a27.55 27.55 0 0 1 17-19Z" transform="translate(-1219.91 -133.37)"/><path class="cls-11" d="M2068 1388.44c-74 16.65-81 73.16-101.25 143.31-7.63 26.48-26.47 73.15-40.17 102.61C1905.79 1679.07 1934 1925 1960 1979c72-144 128-339 113-526a27.55 27.55 0 0 1 17-19Z" transform="translate(-1219.91 -133.37)"/><path class="cls-14" d="M1941.58 1622.36c-19.68 42.31 4.54 264.85 29.23 334.36Q1965.49 1968 1960 1979c-26-54-54.21-299.93-33.42-344.64 13.7-29.46 32.54-76.13 40.17-102.61 16.06-55.76 23.78-102.9 63.46-128.26-27 26.83-34.66 68.37-48.46 116.26-7.63 26.48-26.47 73.15-40.17 102.61Z" transform="translate(-1219.91 -133.37)"/><path class="cls-12" d="m2090 1434-22-45.56a138.59 138.59 0 0 0-18.6 5.52c-34.84 21.64-45.4 69.11-45.4 109a135.52 135.52 0 0 1 28-46c-10 36-14 77 5 111 5.42-27.68 17.36-59.34 38-80q-.6-17.55-2-35a27.55 27.55 0 0 1 17-18.96Z" transform="translate(-1219.91 -133.37)"/><path class="cls-13" d="m1960 1984.67-2.21-4.59c-14.16-29.41-27.53-109.9-34.49-176.62-6.92-66.29-10.28-145.79 1-170.15 13.66-29.36 32.37-75.64 40-102.25 2.19-7.6 4.23-15.08 6.21-22.31 16.44-60.1 29.42-107.58 96.89-122.74l1.94-.44 24.13 50-2.78.86c-.47.15-15.74 1.61-15.21 16.85 7 87.77-1.08 181.79-24 279.46a1147.07 1147.07 0 0 1-89.32 247.42Zm106.66-593.34c-62.86 15-75.41 60.85-91.24 118.74-2 7.25-4 14.74-6.23 22.37-7.73 26.85-26.57 73.44-40.3 103-19.79 42.54 6.09 275.64 31.29 337.69 83.18-168.39 123.39-357.6 110.37-519.91v-.43l.11-.41c.42-15.36 11.66-17.54 16-19.65Z" transform="translate(-1219.91 -133.37)"/><path class="cls-11" d="M2156.67 1448c85.33 34-76.67 265.5 67.33 531 22-77 65-177 51-302s-27.5-224-66.5-252-51.83 23-51.83 23Z" transform="translate(-1219.91 -133.37)"/><path class="cls-11" d="M2156.67 1448c85.33 34-76.67 265.5 67.33 531 22-77 65-177 51-302s-27.5-224-66.5-252-51.83 23-51.83 23Z" transform="translate(-1219.91 -133.37)"/><path class="cls-11" d="M2156.67 1448c85.33 34-76.67 265.5 67.33 531 22-77 65-177 51-302s-27.5-224-66.5-252-51.83 23-51.83 23Z" transform="translate(-1219.91 -133.37)"/><path class="cls-14" d="M2231 1951c-72.45-133.58-67-266.46-55-362-1-.56-2.44 6.79-3.43 6.22-14.05 98.54-28.79 235.88 51.43 383.78 11.23-39.3 27.93-84.58 39.73-136.13-10.8 40.13-23.58 76.13-32.73 108.13Z" transform="translate(-1219.91 -133.37)"/><path class="cls-12" d="M2223 1599c9-26 4-54-5-79 21 14 27 40 26 64a281.53 281.53 0 0 0 6.22-73.28c-9.89-41.85-22.8-72.14-41.72-85.72-39-28-51.83 23-51.83 23 17.74 7.07 24.78 22.68 26.11 45.34 27.61 26.93 41.02 66.29 40.22 105.66Z" transform="translate(-1219.91 -133.37)"/><path class="cls-13" d="m2224.72 1985.57-2.92-5.38c-37.56-69.25-57.84-141.86-62-222-3.55-68.19 5.38-129.63 12.55-179 10.11-69.62 16.79-115.61-16.61-128.92l-2-.81.53-2.12c.26-1 6.58-25.4 24-31.79 9.42-3.44 20.08-1 31.69 7.37 39.47 28.34 52.89 123 67.52 253.75 11.62 103.73-15.94 190.73-38.08 260.64-4.72 14.88-9.17 28.93-13 42.33Zm-65-539c15.91 7.25 24 22 25.57 46.14 1.42 22.67-2.93 52.6-8 87.25-13.88 95.52-34.77 239.31 46 392.45 3.43-11.67 7.28-23.81 11.32-36.56 22-69.46 49.38-155.9 37.89-258.57-14-125.23-27.76-223.17-65.48-250.25-10.18-7.31-19.28-9.57-27.05-6.73-12.3 4.51-18.44 20.56-20.28 26.27Z" transform="translate(-1219.91 -133.37)"/><path class="cls-11" d="M2075.26 1447.13c17.94 13.14 73.41 23.54 95.9 10.88 26.61-15 45.66-48.51 45.25-53.51-.23-2.77-36.17-25.63-74.74-37.5-31-9.54-65.46-9.44-71.17-5.41-12.83 9.03-9.4 75.16 4.76 85.54Z" transform="translate(-1219.91 -133.37)"/><path class="cls-14" d="M2216.41 1404.5c.09 1.13-.8 3.71-2.55 7.2-7.29-6.27-39.22-25.25-73.19-35.7-31-9.54-65.46-9.44-71.17-5.41-3.22 2.27-5.42 8.14-6.68 15.83.8-12 3.28-21.74 7.68-24.83 5.71-4 40.17-4.13 71.17 5.41 38.57 11.87 74.51 34.73 74.74 37.5Z" transform="translate(-1219.91 -133.37)"/><path class="cls-12" d="M2216.41 1404.5c.41 5-18.64 38.55-45.25 53.51-22.49 12.66-78 2.26-95.9-10.88-12.62-9.25-16.72-62.81-8.37-80.72-3.77 21.13.47 58.34 10.46 65.66 16.66 12.2 78.76 23.68 99.65 11.93 20.37-11.45 33.37-30.62 38-41 5.88 3.75 1.34.65 1.41 1.5Z" transform="translate(-1219.91 -133.37)"/><path class="cls-13" d="M2141.88 1466.19c-25.42 0-55.6-7.89-68.1-17-9.3-6.81-14-32.88-13.74-55.11.09-10.58 1.4-29.12 9-34.49 6.83-4.81 42.4-4.45 73.34 5.07 22.4 6.89 42.33 17 52.22 22.36 6.43 3.51 12.42 7.09 16.84 10.1 7.25 4.92 7.36 6.2 7.44 7.23.56 6.75-20.2 41.1-46.51 55.89-7.5 4.18-18.47 5.95-30.49 5.95Zm-65.14-21.08c17.05 12.49 71.6 22.87 93.2 10.73 24.88-14 42.82-44.8 43.92-50.69-4.16-4.37-36.71-24.62-72.93-35.76-31-9.55-64.43-9-69-5.76-4.05 2.85-6.76 14.8-6.9 30.44-.22 23.26 5 46.15 11.7 51Zm137.43-39.6Z" transform="translate(-1219.91 -133.37)"/><path class="cls-2" d="M1861.5 930.5c-84 11-107-71-102-102s87-37 87-37Z" transform="translate(-1219.91 -133.37)"/><path class="cls-3" d="M1861.5 930.5c-84 11-107-71-102-102a17.44 17.44 0 0 1 .56-2.4c5.51 36.09 32.86 87.13 98.8 80Z" transform="translate(-1219.91 -133.37)"/><path class="cls-4" d="M1846.78 934c-24.58 0-45.69-8.49-61.67-25-24.33-25-31.11-62.38-28.11-80.9 5.26-32.57 85.86-38.84 89.29-39.09l2.41-.18 15.52 143.83-2.43.32a116.43 116.43 0 0 1-15.01 1.02Zm-2.5-139.79a273.28 273.28 0 0 0-38.85 6.61c-18.52 4.72-41.1 13.43-43.46 28.09-2.82 17.49 3.61 52.84 26.73 76.66 17.76 18.3 41.32 26 70 22.75Z" transform="translate(-1219.91 -133.37)"/><path class="cls-3" d="M1833.5 807.5c-52 9-55 57-29 84 15-17 44 0 44 0Z" transform="translate(-1219.91 -133.37)"/><path class="cls-4" d="m1851.91 896.39-4.67-2.73c-.28-.16-27.41-15.75-40.87-.51l-1.79 2-1.88-2c-14.62-15.18-20.28-36.57-14.41-54.49C1794.1 821 1810 809 1833.07 805l2.45-.43Zm-20.43-86c-19.83 4.05-33.43 14.6-38.44 29.88-5.06 15.46-.54 33.87 11.52 47.58 12.67-11.58 31.85-4.92 40.59-.89Z" transform="translate(-1219.91 -133.37)"/><path class="cls-2" d="M1832.5 826.5c-23 13-26 40 8 46Z" transform="translate(-1219.91 -133.37)"/><path class="cls-4" d="m1843.57 875.58-3.5-.62c-15.5-2.73-25.42-10.27-27.2-20.68-1.86-10.83 5.36-22.59 18.4-30l3.09-1.74Zm-12.9-45c-9.11 6.23-14.21 15.1-12.87 22.86 1.3 7.57 8.21 13.13 19.61 15.87Z" transform="translate(-1219.91 -133.37)"/><path class="cls-2" d="M1823.5 761.5s9 165 61 237 205.5 155 302 155c78 0 214-101 261-180s36-266 36-266-64-124-92-145-347-97-432-61-136 260-136 260Z" transform="translate(-1219.91 -133.37)"/><path class="cls-3" d="M2447.5 972.5c-47 79-183 180-261 180-96.5 0-250-83-302-155-20.15-27.9-33.85-69.77-43.06-110.59 8.87 32.56 20.87 63.88 37 86.24 52 72 205.5 155 302 155 78 0 214-101 261-180 39.24-65.95 38.05-207.16 36.59-252 3.45 6.5 5.45 10.37 5.45 10.37s11.02 186.98-35.98 265.98Z" transform="translate(-1219.91 -133.37)"/><path class="cls-4" d="M2186.49 1155c-45.54 0-107.07-18.51-168.84-50.78-59.5-31.09-110-70.44-135.18-105.26-21.79-30.17-38.76-79.47-50.43-146.53a885.67 885.67 0 0 1-11-91.79v-.35l.08-.35a960.21 960.21 0 0 1 36.23-116.84c31.28-81 65.34-129.7 101.23-144.9 49.68-21 170.94-3.41 238.8 9 88.62 16.13 180 40.59 195.62 52.3 28.13 21.1 90.1 140.77 92.72 145.85l.24.47v.53a1029.9 1029.9 0 0 1-.38 103.66c-4.17 75.56-16.27 130.66-36 163.77-23 38.66-67.71 83.67-119.58 120.38-54.62 38.66-107 60.84-143.57 60.84ZM1826 760.71c.51 8.55 10.67 166.33 60.51 235.33 54 74.82 208.22 154 300 154 35.61 0 86.89-21.84 140.68-59.92 51.33-36.33 95.51-80.76 118.17-118.86 44.85-75.38 36.27-253 35.68-264.05-4.36-8.4-64.67-123.9-91-143.67-13.39-10-99-34.17-193.57-51.42-114.55-20.89-200.55-24.27-235.95-9.28-34.12 14.45-68.19 63.59-98.52 142.1a954.08 954.08 0 0 0-36 115.77Z" transform="translate(-1219.91 -133.37)"/><path class="cls-4" d="M2035.5 968.5c5.39.57 10.63 1.46 15.86 2.41s10.45 1.86 15.66 2.88c10.41 2 20.87 3.75 31.39 5.15s21.05 2.61 31.62 3.49 21.17 1.36 31.78 1.6 21.21 0 31.8-.44c5.3-.28 10.59-.53 15.88-1s10.56-.93 15.83-1.45c10.53-1.17 21-2.53 31.49-4.39 5.23-.84 10.43-1.86 15.68-2.67 1.32-.21 2.64-.37 3.94-.62s2.62-.44 3.94-.63a42.91 42.91 0 0 1 8.13-.35c-4.79 2.79-10 4.27-15.14 5.63-2.58.71-5.2 1.28-7.8 1.93s-5.25 1.05-7.89 1.56c-10.52 2-21.15 3.46-31.79 4.7s-21.34 1.94-32 2.39-21.42.57-32.13.32-21.4-.69-32.08-1.49-21.33-2-31.94-3.46-21.17-3.3-31.63-5.59c-5.24-1.12-10.42-2.53-15.55-4.07a84.22 84.22 0 0 1-15.05-5.9Z" transform="translate(-1219.91 -133.37)"/><path class="cls-5" d="M2052.5 641.6a13.61 13.61 0 0 1-17.43 13c-22.08-6.35-61.35-10.43-95.41 23.86 0 0 19.5-62.12 101.12-50.36a13.62 13.62 0 0 1 11.72 13.5Z" transform="translate(-1219.91 -133.37)"/><path d="m1934.2 687.54 3.07-9.79c.21-.66 5.25-16.32 20.64-30.67 14.15-13.2 40.08-27.63 83.23-21.42A16.22 16.22 0 0 1 2055 641.6a15.94 15.94 0 0 1-6.39 12.83 16.1 16.1 0 0 1-14.23 2.61c-20.3-5.84-59.36-10.59-93 23.22Zm86.55-58.41c-24.09 0-44 7.24-59.43 21.61a78.51 78.51 0 0 0-14.1 17.61c33.06-26.37 69-21.73 88.54-16.11a11.13 11.13 0 0 0 9.84-1.81 10.94 10.94 0 0 0 4.4-8.83 11.19 11.19 0 0 0-9.57-11 139 139 0 0 0-19.68-1.47Z" transform="translate(-1219.91 -133.37)"/><path d="M2251.15 980.28a154.27 154.27 0 0 1-88.65 28.22c-36.08 0-68.4-18.49-85.39-30.33 39.42 7.15 103.05 13.83 174.04 2.11Z" transform="translate(-1219.91 -133.37)" style="fill:#4a0000"/><path d="M2251.15 980.28a154.27 154.27 0 0 1-88.65 28.22c-36.08 0-68.4-18.49-85.39-30.33a528.65 528.65 0 0 0 54 6.91c4.41 10.5 15.22 17.92 27.85 17.92a30.1 30.1 0 0 0 27.24-16.57 484.74 484.74 0 0 0 64.95-6.15Z" transform="translate(-1219.91 -133.37)" style="fill:#780000"/><path class="cls-4" d="M2162.5 1011c-37.11 0-70.32-19.28-86.82-30.78l-9.41-6.56 11.29 2.05c40.33 7.32 103.13 13.62 173.19 2.1l10.56-1.73-8.7 6.23a155.88 155.88 0 0 1-90.11 28.69Zm-73.95-28.36c17.57 10.71 44.56 23.36 73.95 23.36a151 151 0 0 0 77.7-21.53c-59.69 8.32-113.42 4.19-151.65-1.83ZM2128.5 1040.5c5.83 1.38 11.56 2.49 17.32 3.27a131.6 131.6 0 0 0 17.24 1.29c2.88.13 5.74-.12 8.61-.16 1.43-.13 2.86-.29 4.3-.39.71-.07 1.44-.1 2.15-.21l2.14-.31c5.77-.64 11.36-2.17 17.24-3.49a55.17 55.17 0 0 1-16.46 7.33l-2.2.6c-.73.2-1.49.28-2.23.43-1.5.27-3 .51-4.5.75a79.28 79.28 0 0 1-9.11.45 72.07 72.07 0 0 1-18-2.44c-1.45-.41-2.89-.86-4.33-1.31s-2.84-1-4.23-1.61a47.72 47.72 0 0 1-7.94-4.2Z" transform="translate(-1219.91 -133.37)"/><path d="M1773.5 687.5c-.91 37.11 37 46 37 46 30-16 137-62 149-200 299 106 452 52 452 52 17 111 73.12 146.5 75 205l38 1s84-149-17-268c-47.2-55.61-191-140-191-140s-228-78-350 0-190 181-193 304Z" transform="translate(-1219.91 -133.37)" style="fill:#282828"/><path class="cls-7" d="M2531.83 558.67c2.79 21.94 2.53 40.77-.83 59.33-5 27-21 41-43 45-33.46 6.84-53-15.81-68.86-40.68 22 83 65.7 116.69 67.36 168.18l38 1s68.55-121.6 7.33-232.83ZM2108 534c-58-2-94-3-118-25 38 12 90 0 111-15-37 3-90 6-116-6 33-20 74-18 111-21-39-10-82-11-119 7 33-25 72-35 112-42-25-10-92-4-119 26 10-15 38-31 54-37 46-15.89 91.3-30.38 138.24-37.62-12.41-1.57-24.83-3.69-37.24-4.38-48.27-1.58-97.79 2.46-146.09-2.72q-6.36 3.38-12.41 7.22c-97 62-159.81 139.77-183 230.84 25.5-35.49 47.5-75.62 88.5-93.34-22 25-42 56-46 89 15-30 43-59 70-79-17 26-27 54-29 89 12-28 34-62 48-79 2 26-7 55-21 83 25.68-18.19 39-40.32 40-77 4.37 21.87 7.24 44.62 4.87 66.49 10.38-22.47 17.93-48.89 20.63-80q36.24 12.86 69.61 22.67c-10.11-6.82-30.85-16.22-40.11-24.16 28 14 89 8 119 2Z" transform="translate(-1219.91 -133.37)"/><path d="m2525.94 794-41.86-1.1-.08-2.36c-.83-25.92-12.37-46.88-27-73.42-16.93-30.76-37.94-68.93-47.53-128.39-10.19 3.09-47.29 12.77-111.85 13h-2.05c-68.95 0-182.14-11.4-333.89-64.82-12.64 128.23-107.55 176.94-143.46 195.38-2.47 1.26-4.66 2.39-6.55 3.4l-.83.44-.92-.22c-.4-.09-39.87-9.8-38.93-48.49l2.5.06-2.5-.06c1.49-61.15 19.08-118.41 52.27-170.16 32.58-50.8 80.31-96.52 141.88-135.89 28.17-18 64.26-29.2 107.27-33.29 34.28-3.25 73-2 115.16 3.67 71.67 9.67 129.16 29.17 129.73 29.36l.24.09.22.12c1.44.85 144.7 85.24 191.64 140.54 23.31 27.47 38.72 58.82 45.8 93.19 5.66 27.47 6 56.89 1.13 87.45-8.35 52-29.45 89.83-29.66 90.21Zm-37.05-6 34.14.9c3.72-7 21.08-41.65 28.4-87.39 7.53-47 5.68-115.76-45.84-176.45-45.53-53.65-183.72-135.55-190.13-139.33-4.1-1.38-59.77-19.79-128.63-29.07-65.48-8.83-156.62-11-219 28.89C1843.49 465.11 1779 566.7 1776 687.56c-.78 32 28.55 41.7 34.19 43.28q2.57-1.35 5.75-3c35.54-18.24 130-66.69 141.07-194.58l.28-3.22 3 1.08c153.92 54.57 268.2 65.81 336.92 65.61 74.46-.2 113-13.47 113.41-13.61l2.84-1 .46 3c9.23 60.25 30.41 98.72 47.42 129.62 13.98 25.26 26.06 47.26 27.55 73.32Z" transform="translate(-1219.91 -133.37)"/><path class="cls-8" d="M1590.5 723.5c39-22.87 111 240 83 259s-112-242-83-259Z" transform="translate(-1219.91 -133.37)"/><path class="cls-10" d="M1670.35 986a10.18 10.18 0 0 1-4.7-1.25c-19.31-9.88-44.56-79.6-51.84-100.74-18.46-53.61-30.93-107.16-31.77-136.42-.41-14.57 1.94-23.16 7.2-26.24l1.26 2.16-1.26-2.16c9.14-5.36 19.7 1.28 31.36 19.75 17.28 27.38 36.91 81.23 50 137.19 5.17 22.11 20.75 95.13 4.3 106.29a8.06 8.06 0 0 1-4.55 1.42Zm-74.83-261.37a7.27 7.27 0 0 0-3.76 1c-2 1.15-5.18 5.51-4.72 21.78.83 28.8 13.19 81.76 31.5 134.93 18.45 53.58 37.83 92 49.39 97.92 2.2 1.13 3.38.67 4.17.14 7.41-5 8.31-38.21-6.37-101-13-55.47-32.35-108.72-49.36-135.66-5.79-9.16-13.72-19.12-20.85-19.12Z" transform="translate(-1219.91 -133.37)"/><path class="cls-2" d="M1754.22 702.17s174.25-88.68 185-60c10.45 27.84-169.75 94-169.75 94Z" transform="translate(-1219.91 -133.37)"/><path class="cls-4" d="M1768.15 739.31 1751 701l2.12-1.08c.37-.19 38-19.31 78.87-36.73 55.38-23.61 90.15-33 103.37-27.85a10.17 10.17 0 0 1 6.23 5.92 10.79 10.79 0 0 1-.63 8.48c-14.24 31-164.22 86.41-170.6 88.75Zm-10.67-36 13.31 29.69c18.86-7 153.1-58.08 165.59-85.32a5.9 5.9 0 0 0 .5-4.64 5.32 5.32 0 0 0-3.36-3c-23.64-9.21-133.04 41.55-176.04 63.28Z" transform="translate(-1219.91 -133.37)"/><path class="cls-2" d="M1773.45 732.11s173.63-94.08 185-65.25c11.88 30.14-169.75 94-169.75 94Z" transform="translate(-1219.91 -133.37)"/><path class="cls-4" d="m1787.5 763.93-17.42-32.84 2.18-1.18c.37-.2 37.87-20.48 78.64-39.12 55.26-25.26 90.07-35.59 103.48-30.7a10.2 10.2 0 0 1 6.4 5.85 11.91 11.91 0 0 1-.61 9.54c-14.93 32.68-164.29 85.5-170.64 87.74Zm-10.68-30.8 13.08 24.65c18.2-6.53 152.56-55.56 165.72-84.38a7 7 0 0 0 .5-5.62 5.34 5.34 0 0 0-3.45-3c-23.19-8.44-123.86 40.34-175.85 68.35Z" transform="translate(-1219.91 -133.37)"/><path class="cls-2" d="M1578.5 755.5c48-40 82-65 163-89s128-45 135-27-93.33 47-105.33 62c17 23 28.33 56 28.33 56s134-78 143-54-87 65-87 65 31.17 10.1 6 35c-23.14 22.9-69.45 32.41-87 44-35.26 23.29-66 38-121 34-18-1.31-38 4-38 4Z" transform="translate(-1219.91 -133.37)"/><path class="cls-3" d="M1868 776.78c4.57 5.63 6 14.35-6.53 26.72-23.14 22.9-69.45 32.41-87 44-35.26 23.29-66 38-121 34-18-1.31-38 4-38 4l-37-130 4.13-3.43 33.88 72.6s18.84 37 36.82 38.3c55 4 85.75-10.7 121-34 17.55-11.59 63.86-21.1 87-44a44.37 44.37 0 0 0 6.7-8.19Z" transform="translate(-1219.91 -133.37)"/><path class="cls-4" d="m1613.77 888.54-38.12-133.92 1.25-1c47.4-39.5 82.09-65.24 163.89-89.48 18.58-5.5 35.43-10.87 50.31-15.61 52.54-16.73 81.49-26 87.73-9.9 4.68 12-21.31 24.33-61.49 41.69-18 7.8-36.65 15.84-42.92 21.44 13.66 19.16 23.35 43.8 26.42 52.12 7.78-4.44 31.88-18 57.79-30.76 42.63-20.94 69.74-29.59 80.58-25.73a8.93 8.93 0 0 1 5.63 5.27c4.29 11.43-9.19 26-41.21 44.54-16.45 9.53-33.65 17.59-42 21.36 4.4 2.41 10.16 6.75 11.76 13.46 1.69 7.12-1.72 15-10.14 23.3-14.94 14.78-39.46 24.18-59.15 31.74-11.78 4.52-22 8.42-28.23 12.57-38.32 25.31-69.2 38.28-122.56 34.4-17.34-1.26-37 3.87-37.18 3.93Zm-32.42-132.16 35.9 126.12c5.9-1.37 21.7-4.56 36.43-3.49 51.94 3.78 82-8.9 119.44-33.6 6.73-4.44 17.14-8.43 29.2-13.06 19.26-7.39 43.23-16.58 57.42-30.63 7.1-7 10.06-13.27 8.79-18.59-2-8.33-13.68-12.21-13.8-12.25l-6.35-2.06 6.14-2.62c36.26-15.49 91.58-46 85.64-61.82a3.85 3.85 0 0 0-2.63-2.32c-19.24-6.86-105.25 39.25-136.77 57.6l-2.63 1.53-1-2.88c-.12-.32-11.42-32.91-28-55.32l-1.15-1.55 1.2-1.5c5.26-6.58 24.21-14.77 46.15-24.25 15.36-6.64 31.24-13.5 42.86-20.07 15.6-8.81 16.69-13.32 16-15.21-4.54-11.68-35.18-1.92-81.56 12.85-14.89 4.74-31.77 10.12-50.4 15.64-80.18 23.75-114.6 48.97-160.88 87.48Z" transform="translate(-1219.91 -133.37)"/><path class="cls-4" d="M1804.72 791s6.14-12.58 18.78-18.77c9.39-4.6 20.82-8 32.39-6.18l-.78 4.94c-24.75-3.99-50.11 19.75-50.39 20.01Z" transform="translate(-1219.91 -133.37)"/><path class="cls-9" d="M1271.61 972.4s134.89-161.9 318.89-248.9c0 0 20 130 83 259-106 46-156 44-156 44-44 46-93 65-93 65" transform="translate(-1219.91 -133.37)"/><path class="cls-8" d="M1673.69 983.19c-106 46-156 44-156 44-44 46-93 65-93 65 15.73-15.15 53.59-52 87.39-87.31 0 0 48.72 1.95 151.94-42.25q4.65 10.26 9.67 20.56Z" transform="translate(-1219.91 -133.37)"/><path class="cls-10" d="M1269.68 970.8c11.1-13 22.66-25.44 34.47-37.69s23.91-24.19 36.25-35.88q37-35.07 77-66.88a1005.24 1005.24 0 0 1 82.92-59.41c7.11-4.66 14.43-9 21.67-13.48l11-6.45 5.51-3.21 5.58-3.1 11.17-6.18 11.32-5.91 5.66-3 5.73-2.81 11.47-5.61 3-1.46.56 3.34c3.73 22.26 8.65 44.48 14.14 66.47 1.42 5.49 2.77 11 4.25 16.47l4.5 16.4c3.2 10.88 6.34 21.78 9.85 32.57l2.57 8.11c.86 2.7 1.81 5.37 2.72 8.05l5.5 16.1 5.87 16c1 2.65 1.92 5.34 3 8l3.15 7.9c2.11 5.26 4.14 10.55 6.32 15.78l6.73 15.62c1.14 2.59 2.21 5.22 3.4 7.79l3.6 7.7 7.21 15.39 1.12 2.4-2.37 1-18.84 7.91-19 7.46-9.6 3.49c-3.21 1.15-6.39 2.37-9.64 3.41-6.46 2.17-12.9 4.39-19.45 6.31-6.49 2.08-13.09 3.83-19.67 5.66l-9.93 2.47c-3.32.83-6.67 1.49-10 2.24s-6.71 1.31-10.07 2c-1.67.33-3.37.56-5.06.84s-3.38.58-5.08.78l-5.11.66-5.13.52c-1.72.16-3.45.26-5.17.38s-3.43.15-5.32.11l1.91-.77-5.06 5.13c-1.68 1.71-3.34 3.45-5.12 5.06l-5.29 4.89c-.87.83-1.78 1.62-2.7 2.39l-2.73 2.34a282.42 282.42 0 0 1-22.82 17.53c-2 1.35-4 2.72-6 4l-6.06 3.88c-4.07 2.53-8.21 5-12.44 7.22-8.5 4.38-17 9-26.63 10.79 8-5.45 16.42-9.59 24.47-14.6s16.11-9.87 23.76-15.41 15.17-11.24 22.28-17.43 14-12.64 20.68-19.29l.8-.79h1.11c1.51 0 3.23 0 4.86-.11s3.32-.2 5-.36l5-.51 5-.64c1.66-.2 3.32-.52 5-.77s3.33-.49 5-.82c3.3-.66 6.63-1.2 9.92-1.94s6.59-1.4 9.87-2.21l9.82-2.45c6.51-1.81 13-3.54 19.48-5.6s12.88-4.11 19.29-6.26c3.22-1 6.38-2.24 9.56-3.38l9.54-3.47 18.9-7.41 18.72-7.86-1.25 3.39-7.35-15.49-3.62-7.75c-1.19-2.59-2.28-5.22-3.42-7.83l-6.76-15.71c-2.2-5.26-4.24-10.58-6.37-15.87l-3.15-7.94c-1.06-2.65-2-5.34-3-8l-5.9-16-5.53-16.17c-.91-2.7-1.87-5.39-2.73-8.1l-2.58-8.15c-3.53-10.83-6.69-21.78-9.9-32.71l-4.52-16.48c-1.48-5.5-2.85-11-4.27-16.55-5.52-22.12-10.45-44.34-14.23-66.92l3.54 1.88-11.39 5.57-5.7 2.79-5.62 2.93-11.24 5.87-11.1 6.14-5.54 3.08-5.48 3.2-11 6.41c-7.19 4.45-14.47 8.76-21.54 13.41a996.27 996.27 0 0 0-82.51 59.11q-39.76 31.59-76.66 66.59-18.43 17.46-36.09 35.72c-11.74 12.18-23.31 24.61-34.22 37.42Z" transform="translate(-1219.91 -133.37)"/><path class="cls-11" d="M1603.27 1009.14c-11.9 3.79-22.52 6.75-31.89 9.07-103.11-76.29-104.46-221.85-104.46-221.85 14.69-10.35 30-20.54 45.88-30.36 3.32 153.45 90.47 243.14 90.47 243.14Z" transform="translate(-1219.91 -133.37)"/><path class="cls-14" d="M1469.92 808.36s.25 27.18 8.85 64.2c-11.54-43-11.85-76.2-11.85-76.2 14.69-10.35 30-20.54 45.88-30.36q.15 6.85.52 13.55c-15 9.34-29.48 19-43.4 28.81Z" transform="translate(-1219.91 -133.37)"/><path class="cls-12" d="M1588 990.55a206.13 206.13 0 0 0 15.31 18.59c-11.9 3.79-22.52 6.75-31.89 9.07a212.84 212.84 0 0 1-21.32-18.05Z" transform="translate(-1219.91 -133.37)"/><path class="cls-13" d="m1570.84 1020.92-.95-.7c-53.82-39.83-79.63-98.58-91.81-140.85-13.17-45.73-13.66-82.62-13.66-83v-1l1.08-1.07c15.29-10.78 30.77-21 46-30.45l3.73-2.3.09 4.38a397.91 397.91 0 0 0 46.08 177.83c21.79 40.88 43.46 63.42 43.67 63.64l2.82 2.9-3.85 1.22c-11 3.52-21.83 6.59-32 9.12Zm-101.39-223.3c.21 6.8 1.83 40.14 13.48 80.5 11.89 41.24 37 98.43 89 137.38 8.62-2.16 17.64-4.7 26.87-7.57-6.56-7.43-24.13-28.68-41.71-61.64a402.74 402.74 0 0 1-46.65-175.88c-13.61 8.5-27.37 17.64-40.99 27.21ZM2186 1446.47a40.19 40.19 0 0 1 3.43 2.85l3 3c1 1 1.91 2 2.81 3.11l2.64 3.24a136.47 136.47 0 0 1 9.27 13.73 202.89 202.89 0 0 1 14.28 29.64l1.53 3.81c.51 1.27.92 2.58 1.39 3.86l2.71 7.74c.93 2.57 1.61 5.22 2.41 7.83s1.56 5.23 2.3 7.85c1.29 5.3 2.6 10.6 3.76 15.92.51 2.68 1 5.37 1.29 8.08a64 64 0 0 1 .55 8.21 66.78 66.78 0 0 1-3-7.66c-.87-2.57-1.6-5.18-2.28-7.79l-4.53-15.55c-1.64-5.13-3.28-10.27-5-15.37l-2.74-7.59c-.47-1.26-.88-2.54-1.4-3.78l-1.54-3.72a199 199 0 0 0-14.17-28.82 135.09 135.09 0 0 0-8.91-13.21l-2.48-3.09c-.84-1-1.74-2-2.6-3s-1.82-1.86-2.73-2.79l-1.42-1.29c-.23-.21-.47-.39-.71-.59l-.35-.29-.3-.23Z" transform="translate(-1219.91 -133.37)"/><path class="cls-10" d="M2586 1819.75c-2.79 3-5.65 5.71-8.56 8.38s-5.79 5.35-8.63 8.09-5.59 5.54-8.31 8.39l-8.14 8.56-3.72-3.34c2.63-3 5.37-6 8.25-8.8s5.85-5.52 8.91-8.13 6.25-5.07 9.52-7.41a44.3 44.3 0 0 1 10.68-5.74ZM1977 2532a73.67 73.67 0 0 1 13.43-.83 125.91 125.91 0 0 1 13.43 1.07 134.64 134.64 0 0 1 26.29 6.17 125 125 0 0 1 24.6 11.31c1.95 1.15 3.8 2.46 5.67 3.72s3.67 2.64 5.4 4.1c.88.71 1.76 1.42 2.6 2.16s1.63 1.58 2.42 2.39l1.14 1.25c.37.43.71.89 1.07 1.34a29.39 29.39 0 0 1 1.95 2.82 101.28 101.28 0 0 1-11.34-7c-1.78-1.27-3.69-2.35-5.52-3.53s-3.76-2.22-5.7-3.22a153.73 153.73 0 0 0-23.91-10.59 216.81 216.81 0 0 0-25.35-6.85c-8.61-1.79-17.31-3.08-26.18-4.31ZM2195 2487c-9 4.76-18.36 8.14-27.3 12.65a295.54 295.54 0 0 0-26.25 14.26c-4.3 2.51-8.36 5.39-12.51 8.13l-6 4.39c-1 .74-2 1.44-3 2.22L2117 2531c-1.94 1.55-3.94 3-5.87 4.61l-5.69 4.84c-1 .81-1.92 1.59-2.85 2.43s-1.85 1.67-2.82 2.47a45.48 45.48 0 0 1-6.25 4.43 45 45 0 0 1 4.24-6.41c.79-1 1.6-2 2.44-2.94s1.78-1.81 2.67-2.72l5.43-5.35c1.86-1.73 3.82-3.35 5.74-5l2.91-2.47c1-.81 2-1.54 3-2.31l6.11-4.57c4.24-2.8 8.39-5.76 12.78-8.32a202.89 202.89 0 0 1 27-14c2.32-1 4.71-1.89 7.06-2.84s4.76-1.76 7.16-2.58 4.84-1.5 7.33-2a46.76 46.76 0 0 1 7.61-1.27Z" transform="translate(-1219.91 -133.37)"/><path class="cls-2" d="M2468 919.84c11.94-46.31 15.66-102.39 16.48-145.43 26.75-27.57 76.11-43.47 87.07 14.09 11.53 60.77-36.45 123.41-103.55 131.34Z" transform="translate(-1219.91 -133.37)"/><path class="cls-3" d="M2572.7 817.07c-5.17 50.53-48.15 96.09-104.75 102.77 1.2-4.67 2.33-9.44 3.36-14.29 50.82-6.37 90.5-44.11 101.39-88.48Z" transform="translate(-1219.91 -133.37)"/><path class="cls-2" d="M2475.83 881.22c-1.3 8.24-2.8 16.39-4.52 24.33-.29.05-.59.08-.89.12 2.04-7.9 3.84-16.09 5.41-24.45Z" transform="translate(-1219.91 -133.37)"/><path class="cls-4" d="m2464.62 922.75.91-3.53c12.17-47.22 15.64-104.84 16.4-144.86v-1l.69-.71c16-16.54 41.65-30.41 62.69-24.1 10.23 3.08 23.49 12.45 28.69 39.45 5.43 28.53-2 59.33-20.48 84.5a124.07 124.07 0 0 1-85.24 49.79Zm22.29-147.3c-.79 39.24-4.17 94.84-15.63 141.42a119.17 119.17 0 0 0 78.17-47.29c17.63-24.06 24.77-53.44 19.59-80.61-3.76-19.76-12.22-31.74-25.15-35.62-18.63-5.57-42.4 7.43-56.98 22.1Z" transform="translate(-1219.91 -133.37)"/><path class="cls-3" d="M2521.5 874.5c-27-9-46.5 11.85-46.5 11.85v-.15c3.7-21.79 6-44.44 7.49-66 21.31-33.74 57-34.68 57-34.68 11.01 46.98-17.99 88.98-17.99 88.98Z" transform="translate(-1219.91 -133.37)"/><path class="cls-4" d="m2472.05 893.16.49-7.38c3.34-19.66 5.85-41.79 7.47-65.77v-.63l.34-.53c21.77-34.48 57.53-35.81 59-35.85h2l.46 2c11.13 47.53-17.16 89.24-18.37 91l-1.07 1.55-1.78-.6c-25.18-8.39-43.7 11-43.88 11.19ZM2485 821c-1.44 21.24-3.59 41-6.39 59 7.63-5.71 22.78-14 41.87-8.41 4.83-7.76 25.36-43.79 17.1-83.38-7.7.79-35.17 5.62-52.58 32.79Z" transform="translate(-1219.91 -133.37)"/><path class="cls-2" d="M2477.4 870.77c2.17-15.56 3.72-31.32 4.82-46.6 7.3 1.38 17.41 5.44 19.28 17.33 2.19 13.85-14.75 24.5-24.1 29.27Z" transform="translate(-1219.91 -133.37)"/><path class="cls-4" d="m2474.26 875.17.66-4.75c2-14.35 3.62-30 4.81-46.43l.2-2.8 2.75.52c12.12 2.29 19.68 9.18 21.29 19.4 2.41 15.25-14.9 26.52-25.43 31.89Zm10.24-47.91c-1 13.65-2.36 26.72-4 39 8.3-4.86 20.16-13.77 18.49-24.32-1.36-8.94-8.14-12.94-14.49-14.68Z" transform="translate(-1219.91 -133.37)"/><path class="cls-4" d="M2528.5 814.5c-2.12 2.53-4.32 4.83-6.53 7.11l-3.33 3.38c-1.09 1.13-2.17 2.29-3.23 3.44-2.13 2.31-4.18 4.69-6.15 7.11s-3.83 4.9-5.7 7.38l-4.12-2.84a68.08 68.08 0 0 1 6-7.78 83.8 83.8 0 0 1 6.92-6.93c1.18-1.12 2.46-2.13 3.7-3.18l1.9-1.52 2-1.45a39.15 39.15 0 0 1 8.54-4.72Z" transform="translate(-1219.91 -133.37)"/><path class="cls-9" d="M1805.85 552.18s-53.85-115.51-76.52-141.51-67.33-38.67-74-56.67S1763 130 2128.5 136 2617 341 2615 360s-70 11-109.48 162.4c0 0-370.52-317.22-699.67 29.78Z" transform="translate(-1219.91 -133.37)"/><path class="cls-8" d="M2615 360c-2 19-70 11-109.48 162.4 0 0-11.59-9.93-32.5-24.34 13.82-52.29 31.11-83.51 47.29-103.14 3.69-4.48-44.84-54.2-41.31-57.59 2.94-2.82 58 40.54 60.72 38.34 17.23-13.79 30.14-16.71 31-24.81 1.82-18-109.82-206.55-441.57-212.24s-435.51 189.5-429.46 206.56c5.08 14.31 34.46 25.07 55.93 42.72 4.11 3.38 88.13-43 91.43-39.07 2.16 2.59-75.57 56.15-72.87 60.38 18.86 29.61 48.62 94 58.67 116.1q-13.52 12.72-27 26.87s-53.85-115.51-76.52-141.51-67.33-38.67-74-56.67S1763 130 2128.5 136 2617 341 2615 360Z" transform="translate(-1219.91 -133.37)"/><path class="cls-10" d="m1805.14 556.56-1.55-3.32c-.54-1.16-54-115.49-76.14-140.93-10.78-12.37-27-21.82-41.26-30.17-15.81-9.23-29.47-17.21-33.2-27.27-2.37-6.4 5.72-24.62 19.67-44.31 18.1-25.56 60.63-74.47 142.07-114.93 87-43.21 192.59-64.14 313.81-62.13 114.42 1.88 216 22.76 302 62.07 78.19 35.74 125.94 78.64 152.24 108.33 22.72 25.66 35.47 48.81 34.68 56.36-.68 6.42-6.6 9.89-15.56 15.14-22.88 13.4-65.47 38.35-94 147.63l-1 3.87-3-2.6c-.92-.79-93.85-79.43-225.57-114.77C2157 377 1976.81 375.6 1807.67 553.9Zm307.68-418.19c-113.86 0-213.32 20.75-295.86 61.74-80.47 40-122.39 88.16-140.22 113.34-15.67 22.11-20.15 36.76-19.06 39.68 3.1 8.39 16 15.95 31 24.7 14.62 8.53 31.19 18.21 42.51 31.19 20.74 23.8 66.19 119.34 75.35 138.79 74.77-78 157.83-128.15 246.91-149.11 72.09-16.95 148.23-14.92 226.3 6.05 69.39 18.64 127.49 49.1 164 71.37A575.93 575.93 0 0 1 2504.1 518c12.41-46.14 29-82.51 49.4-108.14 17.67-22.23 34.66-32.18 45.9-38.77 7.65-4.48 12.7-7.44 13.11-11.34.47-4.45-9.13-25.06-33.45-52.52C2535.48 258 2404.32 143 2128.46 138.5q-7.86-.13-15.64-.13ZM1646.93 1386.23c2.41 1.2 4.81 2.45 7.19 3.72s4.77 2.54 7.12 3.86 4.71 2.66 7 4 4.66 2.75 7 4.2q6.91 4.28 13.54 9.06a66.51 66.51 0 0 1 6.33 5.18 36.75 36.75 0 0 1 5.4 6.21c-2.37-1.42-4.64-2.82-6.91-4.24l-6.81-4.21c-4.52-2.83-9.19-5.45-13.86-8.07s-9.4-5.14-14.13-7.67l-7.1-3.82c-2.36-1.27-4.74-2.52-7.08-3.83Z" transform="translate(-1219.91 -133.37)"/><path class="cls-5" d="M2250 637.87a13.61 13.61 0 0 0 17.44 13c22.07-6.35 61.34-10.42 95.4 23.87 0 0-19.49-62.13-101.12-50.37a13.64 13.64 0 0 0-11.72 13.5Z" transform="translate(-1219.91 -133.37)"/><path d="m2368.29 683.81-7.23-7.28c-33.58-33.81-72.65-29.06-92.94-23.22a16.09 16.09 0 1 1-6.77-31.38c43.16-6.22 69.08 8.22 83.24 21.42 15.38 14.34 20.42 30 20.63 30.67Zm-71.38-39.66a91.69 91.69 0 0 1 58.34 20.45 78.51 78.51 0 0 0-14.25-17.76c-19.42-18-46-24.71-78.93-20a11.19 11.19 0 0 0-9.58 11 11 11 0 0 0 4.41 8.83 11.09 11.09 0 0 0 9.84 1.8 110 110 0 0 1 30.17-4.32Z" transform="translate(-1219.91 -133.37)"/><path class="cls-3" d="M2112.5 888.5s-5 38.67 46 39.67 51-35.67 51-35.67-3.92 21.25-48.71 24-48.29-28-48.29-28Z" transform="translate(-1219.91 -133.37)"/><path class="cls-4" d="M2112.5 888.5a28.79 28.79 0 0 0 2.75 6.66 26.18 26.18 0 0 0 4.21 5.39 36.59 36.59 0 0 0 11.89 7.21 70.58 70.58 0 0 0 13.74 3.89 90.45 90.45 0 0 0 14.33 1.5 87.26 87.26 0 0 0 28.4-3.71 42.32 42.32 0 0 0 12.62-6.16 32.42 32.42 0 0 0 9.06-10.78 14.41 14.41 0 0 1-1.73 7.55 20.85 20.85 0 0 1-5 6.08 43 43 0 0 1-13.44 7.67 69.21 69.21 0 0 1-14.86 3.57 96.33 96.33 0 0 1-30.31-.84 66.75 66.75 0 0 1-14.64-4.49 37.76 37.76 0 0 1-12.73-8.95 18.79 18.79 0 0 1-4.06-6.84 13.84 13.84 0 0 1-.23-7.75Z" transform="translate(-1219.91 -133.37)"/><path class="cls-6" d="M1624 3795c125.5 35 221.66-22.83 221.66-22.83-77.26 58.97-179.16 46.08-221.66 22.83ZM2435.61 3773.82c-125.5 35-221.67-22.83-221.67-22.83 77.27 59.01 179.17 46.08 221.67 22.83Z" transform="translate(-1219.91 -133.37)"/><path class="cls-4" d="m2265.73 850.43-.6-.24-.41-.51c-12.56-15.72-19.48-36.77-19.48-59.27 0-45.77 29.16-83 65-83s65 37.23 65 83c0 24.83-8.58 48.14-23.54 64l-.58.61-.83.14a236.18 236.18 0 0 1-37.6 3.26c-15.94-.04-32.51-2.07-46.96-7.99Zm104.51-60c0-43-26.91-78-60-78s-60 35-60 78c0 21.13 6.39 40.86 18 55.64 25.26 10.1 57.47 8 80.42 4.27 13.72-14.91 21.58-36.69 21.58-59.93ZM2245 1193.65a150.61 150.61 0 0 1 1.25-15.92c-1.69 0-3.38.07-5.06.08a146.67 146.67 0 0 0-1.21 17.69v1.85l42.35 12.92c.85-1 1.72-2 2.61-2.93a4.5 4.5 0 0 1 1.51-1Z" transform="translate(-1219.91 -133.37)"/><path class="cls-13" d="M2031.27 1505.9c8.12-60 31.25-81.68 32.45-82.76l3.36 3.71-1.68-1.86 1.68 1.85c-.35.32-34.55 32.67-33.58 127.13 0 .03-5.5-27.97-2.23-48.07Z" transform="translate(-1219.91 -133.37)"/><path class="cls-9" d="M2247.74 790.41c0 22.64 7.25 43.09 18.93 57.71 25.9 10.6 58.86 8.52 83.21 4.53 14-14.76 22.86-37.16 22.86-62.24 0-44.46-28-80.5-62.5-80.5s-62.5 36.09-62.5 80.5Z" transform="translate(-1219.91 -133.37)"/><path class="cls-8" d="M2372.37 799.13c-1.79 21.52-10.17 40.49-22.49 53.52-24.35 4-57.31 6.07-83.21-4.53-8.91-11.15-15.24-25.69-17.74-42C2263.4 823.22 2284.5 834 2308 834c26.55 0 50.05-13.76 64.37-34.87Z" transform="translate(-1219.91 -133.37)"/><path class="cls-4" d="m2265.73 850.43-.6-.24-.41-.51c-12.56-15.72-19.48-36.77-19.48-59.27 0-45.77 29.16-83 65-83s65 37.23 65 83c0 24.83-8.58 48.14-23.54 64l-.58.61-.83.14a236.18 236.18 0 0 1-37.6 3.26c-15.94-.04-32.51-2.07-46.96-7.99Zm104.51-60c0-43-26.91-78-60-78s-60 35-60 78c0 21.13 6.39 40.86 18 55.64 25.26 10.1 57.47 8 80.42 4.27 13.72-14.91 21.58-36.69 21.58-59.93Z" transform="translate(-1219.91 -133.37)"/><path class="cls-4" d="M2265.73 850.43a110 110 0 0 0 29.54 7.06 177.78 177.78 0 0 0 30.16.54q7.52-.53 15-1.46t14.84-2.32c4.92-.91 9.85-1.84 14.66-3.22s9.68-2.7 13.84-6.12c-5.32-.49-10 .72-14.91 1.58s-9.64 2-14.48 2.85-9.71 1.6-14.58 2.23-9.77 1-14.66 1.37a174.71 174.71 0 0 1-29.3-.43 105.17 105.17 0 0 1-28.19-6.7Z" transform="translate(-1219.91 -133.37)"/><ellipse class="cls-18" cx="1083.59" cy="657.63" rx="46.14" ry="57.5"/><path class="cls-19" d="M2303.5 851c-26.82 0-48.64-26.92-48.64-60s21.82-60 48.64-60 48.64 26.92 48.64 60-21.82 60-48.64 60Zm0-115c-24.06 0-43.64 24.67-43.64 55s19.58 55 43.64 55 43.64-24.67 43.64-55-19.58-55-43.64-55Z" transform="translate(-1219.91 -133.37)"/><ellipse class="cls-20" cx="1083.59" cy="664.03" rx="33.5" ry="40.58"/><ellipse cx="1082.88" cy="659.56" rx="27.39" ry="34.24"/><ellipse class="cls-21" cx="1082.88" cy="659.56" rx="27.39" ry="34.24"/><ellipse cx="1082.88" cy="655.65" rx="24.09" ry="28.59"/><path class="cls-5" d="M2280.05 788.67a31.44 31.44 0 0 0 .3 4.37 45.11 45.11 0 0 0 45.11-1.57c.08-.92.12-1.85.12-2.8 0-14.93-10.19-27-22.76-27s-22.77 12.07-22.77 27Z" transform="translate(-1219.91 -133.37)"/><path d="M2302.79 829c-16.11 0-29.22-16.16-29.22-36s13.11-36 29.22-36 29.22 16.15 29.22 36-13.11 36-29.22 36Zm0-68.08c-13.89 0-25.19 14.38-25.19 32.06s11.3 32.02 25.19 32.02 25.21-14.39 25.21-32.07-11.32-32.06-25.21-32.06Z" transform="translate(-1219.91 -133.37)"/><path class="cls-9" d="M2296.31 813.81a5.56 5.56 0 1 1-5.56-5.52 5.54 5.54 0 0 1 5.56 5.52Z" transform="translate(-1219.91 -133.37)"/><path class="cls-5" d="M2281 789.08a30.15 30.15 0 0 0 .28 4.18 43.15 43.15 0 0 0 43.18-1.5c.08-.88.12-1.77.12-2.68 0-14.29-9.76-25.86-21.79-25.86S2281 774.79 2281 789.08Z" transform="translate(-1219.91 -133.37)"/><g class="cls-22"><ellipse class="cls-9" cx="1103.08" cy="632.86" rx="13.87" ry="13.59"/></g><g class="cls-22"><path class="cls-9" d="M2281.32 795.24h.18a2.13 2.13 0 0 0 1.95-2.31c-.83-10 5.17-14.14 5.23-14.18a2.13 2.13 0 1 0-2.37-3.55c-.33.22-8.15 5.59-7.11 18.09a2.13 2.13 0 0 0 2.12 1.95Z" transform="translate(-1219.91 -133.37)"/></g><path class="cls-9" d="M2058.24 804.41c0 22.64-7.25 43.09-18.93 57.71-25.9 10.6-58.86 8.52-83.21 4.53-14-14.76-22.86-37.16-22.86-62.24 0-44.46 28-80.5 62.5-80.5s62.5 36.09 62.5 80.5Z" transform="translate(-1219.91 -133.37)"/><path class="cls-8" d="M1933.62 813.13c1.79 21.52 10.17 40.49 22.49 53.52 24.35 4 57.31 6.07 83.21-4.53 8.91-11.15 15.24-25.69 17.74-42-14.47 17.1-35.57 27.88-59.06 27.88-26.56 0-50.06-13.76-64.38-34.87Z" transform="translate(-1219.91 -133.37)"/><path class="cls-4" d="M1993.29 872.38a236.16 236.16 0 0 1-37.59-3.26l-.83-.14-.58-.61c-15-15.82-23.55-39.13-23.55-64 0-45.77 29.16-83 65-83s65 37.23 65 83c0 22.5-6.91 43.55-19.47 59.27l-.41.51-.6.24c-14.45 5.96-31.03 7.99-46.97 7.99Zm-35.94-8.06c23 3.69 55.16 5.83 80.41-4.27 11.6-14.78 18-34.51 18-55.64 0-43-26.91-78-60-78s-60 35-60 78c-.02 23.24 7.85 45.02 21.59 59.91Z" transform="translate(-1219.91 -133.37)"/><path class="cls-4" d="M2040.26 864.43a110 110 0 0 1-29.54 7.06 177.78 177.78 0 0 1-30.16.54q-7.51-.53-15-1.46t-14.85-2.32c-4.91-.91-9.84-1.84-14.65-3.22s-9.68-2.7-13.85-6.12c5.32-.49 10 .72 14.92 1.58s9.64 2 14.48 2.85 9.7 1.6 14.58 2.23 9.76 1 14.66 1.37a174.71 174.71 0 0 0 29.3-.43 105.26 105.26 0 0 0 28.19-6.7Z" transform="translate(-1219.91 -133.37)"/><ellipse class="cls-18" cx="782.58" cy="671.63" rx="46.14" ry="57.5"/><path class="cls-19" d="M1953.85 805c0-33.08 21.82-60 48.64-60s48.64 26.92 48.64 60-21.82 60-48.64 60-48.64-26.92-48.64-60Zm5 0c0 30.33 19.57 55 43.64 55s43.64-24.67 43.64-55-19.58-55-43.64-55-43.64 24.67-43.64 55Z" transform="translate(-1219.91 -133.37)"/><ellipse class="cls-20" cx="782.58" cy="678.03" rx="33.5" ry="40.58"/><ellipse cx="783.29" cy="673.56" rx="27.39" ry="34.24"/><ellipse class="cls-21" cx="783.29" cy="673.56" rx="27.39" ry="34.24"/><ellipse cx="783.3" cy="669.65" rx="24.09" ry="28.59"/><path class="cls-5" d="M2025.93 802.67a31.45 31.45 0 0 1-.29 4.37 45.11 45.11 0 0 1-45.11-1.57c-.08-.92-.13-1.85-.13-2.8 0-14.93 10.2-27 22.77-27s22.76 12.07 22.76 27Z" transform="translate(-1219.91 -133.37)"/><path d="M1974 806.93c0-19.86 13.11-36 29.22-36s29.22 16.15 29.22 36-13.11 36-29.22 36-29.22-16.14-29.22-36Zm4 0c0 17.68 11.3 32.06 25.19 32.06s25.19-14.38 25.19-32.06-11.3-32.06-25.19-32.06-25.19 14.38-25.19 32.06Z" transform="translate(-1219.91 -133.37)"/><path class="cls-9" d="M2009.68 827.81a5.56 5.56 0 1 0 5.56-5.52 5.54 5.54 0 0 0-5.56 5.52Z" transform="translate(-1219.91 -133.37)"/><path class="cls-5" d="M2025 803.08a28.67 28.67 0 0 1-.29 4.18 43.13 43.13 0 0 1-43.17-1.5c-.08-.88-.12-1.77-.12-2.68 0-14.29 9.76-25.86 21.79-25.86s21.79 11.57 21.79 25.86Z" transform="translate(-1219.91 -133.37)"/><g class="cls-22"><ellipse class="cls-9" cx="763.09" cy="646.86" rx="13.87" ry="13.59"/></g><g class="cls-22"><path class="cls-9" d="M2024.66 809.24h-.18a2.15 2.15 0 0 1-2-2.31c.84-10-5.16-14.14-5.22-14.18a2.13 2.13 0 1 1 2.37-3.55c.33.22 8.15 5.59 7.11 18.09a2.13 2.13 0 0 1-2.08 1.95Z" transform="translate(-1219.91 -133.37)"/></g><path d="M2181.12 285.25c3.32 2 10.46 5.75 10.43 5.72-.54.8-8.9 12.08-18.22 16.12a19.57 19.57 0 0 1-5 1.67c-1.77.37-3.72-.07-4.39-1.92a33.32 33.32 0 0 1-1.52-8c-.73-7.31-1.19-14.66-1.6-22-.51-9.39-.87-18.79-1.29-28.18 0-.45-.05-1.12-.05-1.64.4-.07 26.1 0 26.1 0v-7.59h-27.44v-6a19.75 19.75 0 1 0-8.93 0v6h-27.44v7.59s25.7-.07 26.11 0v1.64c-.43 9.39-.78 18.79-1.3 28.18-.4 7.34-.87 14.69-1.6 22a33.32 33.32 0 0 1-1.52 8c-.67 1.85-2.62 2.29-4.38 1.92a19.51 19.51 0 0 1-5-1.67c-9.32-4-17.68-15.32-18.21-16.12 0 0 7.11-3.76 10.42-5.72l-26-13.34c.49 11.14 1.73 33 1.87 33.07a110.39 110.39 0 0 1 6.89-9.64c6.16 17.31 21.5 28.16 27.63 30.86a40.51 40.51 0 0 0 34.26 0c6.13-2.7 21.47-13.55 27.63-30.86a115.07 115.07 0 0 1 6.89 9.64c.13 0 1.37-21.93 1.87-33.07Zm-38.07-71a10.6 10.6 0 1 1 10.6 10.6 10.61 10.61 0 0 1-10.6-10.6Z" transform="translate(-1219.91 -133.37)" style="fill:#ffd300"/><path class="cls-24" d="M2115.75 291s7.11-3.76 10.42-5.72l-26-13.34c.49 11.14 1.73 33 1.87 33.07a110.39 110.39 0 0 1 6.89-9.64 55.57 55.57 0 0 0 13.81 20.89q3.36-5.84 6.7-11.69c-7.37-5-13.25-12.93-13.69-13.57ZM2159.5 248.68c0-.44-.05-1.11-.05-1.63h2.46q2.12-3.78 4.21-7.56h-8v-6a19.75 19.75 0 1 0-8.92 0v6h-27.45v7.59s25.7-.07 26.11 0v1.63c-.39 8.53-.72 17.06-1.16 25.58q6.51-11.52 13-23.1c-.13-.86-.16-1.68-.2-2.51Zm-16.45-34.43a10.6 10.6 0 1 1 10.6 10.6 10.61 10.61 0 0 1-10.6-10.6Z" transform="translate(-1219.91 -133.37)"/><path d="M2153.66 331.5a45 45 0 0 1-17.75-3.93c-5-2.22-20.34-12.17-27.47-29.25-1.51 2.05-3.79 5.28-5.17 7.46l-.6.94-1.07-.3c-1.08-.3-1.08-.3-1.38-5a1995.336 1995.336 0 0 1-1.59-29.48l-.12-2.58 30.77 15.75-2.34 1.39c-1.77 1-4.51 2.55-6.5 3.62l-2.43 1.31c2.48 3.16 9.21 11.07 16.55 14.24l.09.05a17.92 17.92 0 0 0 4.65 1.53c.51.1 2.2.35 2.67-1a31.75 31.75 0 0 0 1.44-7.61c.76-7.64 1.23-15.38 1.59-21.93s.66-13.46.94-20l.36-8.14v-.1h-26.06V238h27.44v-3.32a21.25 21.25 0 1 1 11.93 0V238h27.44v10.59h-1.5c-8.39 0-20.42-.05-24.56 0v.06c.12 2.75.23 5.47.35 8.18.28 6.57.57 13.36.94 20s.83 14.29 1.59 21.93a32.77 32.77 0 0 0 1.44 7.61c.47 1.31 2.16 1.06 2.67 1a17.92 17.92 0 0 0 4.65-1.53l.1-.05c7.33-3.17 14.06-11.08 16.55-14.24l-2.43-1.31c-2-1.07-4.74-2.58-6.5-3.62l-2.34-1.39 30.76-15.75-.11 2.58c-.23 5.15-.64 13.08-1.08 20.71-.19 3.44-.37 6.53-.52 8.77-.3 4.66-.3 4.66-1.37 5l-1.07.3-.6-.94c-1.39-2.18-3.67-5.41-5.17-7.45-7.11 17.05-22.44 27-27.48 29.24a45 45 0 0 1-17.71 3.81Zm-44.92-37.67h.29l.91.09.35.86c6.27 17.65 21.86 27.85 26.83 30a38.94 38.94 0 0 0 33.05 0c5-2.18 20.56-12.38 26.82-30l.32-.9 1-.1c1-.09 1.12.07 4.07 4.18.54.74 1.16 1.62 1.79 2.52.38-6.15 1-17.79 1.42-26.12l-21.28 10.9c3.37 1.89 7.65 4.16 7.92 4.3l-.64 1.29 1.25.89c-.08.12-8.71 12.24-18.82 16.65a20.71 20.71 0 0 1-5.37 1.77c-2.86.6-5.26-.52-6.11-2.86a34.85 34.85 0 0 1-1.6-8.34c-.77-7.71-1.24-15.48-1.6-22.07s-.66-13.49-1-20.06c-.11-2.71-.23-5.43-.35-8.14 0-.5-.05-1.17-.05-1.7v-1.27l1.24-.21c.16 0 .52-.09 24.86 0V241h-27.44v-8.67l1.16-.27a18.25 18.25 0 1 0-8.25 0l1.16.27V241h-27.44v4.58c24.34-.06 24.71 0 24.86 0l1.25.21V248.76c-.13 2.71-.24 5.43-.36 8.14-.28 6.57-.57 13.37-.94 20.06s-.84 14.36-1.6 22.07a35.38 35.38 0 0 1-1.61 8.34c-.85 2.34-3.24 3.46-6.1 2.86a20.93 20.93 0 0 1-5.38-1.77c-10.11-4.41-18.73-16.53-18.81-16.65l1.23-.87-.63-1.31c.28-.14 4.55-2.41 7.92-4.3l-21.28-10.9c.4 8.33 1 20 1.43 26.12.56-.81 1.17-1.66 1.78-2.52 2.6-3.69 3.01-4.2 3.75-4.2Zm44.91-67.48a12.1 12.1 0 1 1 12.1-12.1 12.12 12.12 0 0 1-12.1 12.1Zm0-21.2a9.1 9.1 0 1 0 9.1 9.1 9.11 9.11 0 0 0-9.1-9.1Z" transform="translate(-1219.91 -133.37)" style="fill:#f80"/><path class="cls-10" d="M2481.91 1656.59c-1.28-34.28 6.85-69.26 15.45-96 8.79-27.3 22.72-44.06 22.72-44.06-.36.71-35.71 71.8-33.18 139.84Z" transform="translate(-1219.91 -133.37)"/></g></g></svg>