<svg id="Layer_1" data-name="Layer 1" xmlns="http://www.w3.org/2000/svg" xmlns:xlink="http://www.w3.org/1999/xlink" width="99" height="157" viewBox="0 0 98.65 156.48"><defs><linearGradient id="linear-gradient" x1="-647.88" y1="160.14" x2="-638.33" y2="160.24" gradientTransform="matrix(-1 0 0 1 -557.18 0)" gradientUnits="userSpaceOnUse"><stop offset="0" stop-color="#ebb14b"/><stop offset=".35" stop-color="#eaad4a"/><stop offset=".7" stop-color="#e7a148"/><stop offset="1" stop-color="#e29044"/></linearGradient><linearGradient id="linear-gradient-2" x1="-644.95" y1="160.16" x2="-632.61" y2="160.16" gradientTransform="matrix(-1 0 0 1 -557.18 0)" gradientUnits="userSpaceOnUse"><stop offset="0" stop-color="#b57738"/><stop offset="1" stop-color="#864b22"/></linearGradient><linearGradient id="linear-gradient-3" x1="-637.28" y1="171.92" x2="-637.28" y2="141.68" gradientTransform="matrix(-1 0 0 1 -557.18 0)" gradientUnits="userSpaceOnUse"><stop offset="0" stop-color="#db9941"/><stop offset=".38" stop-color="#d99541"/><stop offset=".76" stop-color="#d2893f"/><stop offset="1" stop-color="#cc7d3e"/></linearGradient><linearGradient id="linear-gradient-4" x1="-637.43" y1="168.26" x2="-637.43" y2="146.89" xlink:href="#linear-gradient"/><linearGradient id="linear-gradient-5" x1="-646.56" y1="155.87" x2="-628" y2="155.87" xlink:href="#linear-gradient-2"/><linearGradient id="linear-gradient-6" x1="-621.85" y1="176.32" x2="-621.85" y2="146.08" xlink:href="#linear-gradient-3"/><linearGradient id="linear-gradient-7" x1="-621.91" y1="172.67" x2="-621.91" y2="150.29" xlink:href="#linear-gradient"/><linearGradient id="linear-gradient-8" x1="-629.75" y1="159.86" x2="-613.95" y2="159.86" xlink:href="#linear-gradient-2"/><linearGradient id="linear-gradient-9" x1="-307.02" y1="493.96" x2="-297.03" y2="493.96" gradientTransform="scale(-1 1) rotate(31.5 563.68 661.986)" gradientUnits="userSpaceOnUse"><stop offset="0" stop-color="#f4cc4a"/><stop offset="1" stop-color="#c96b3e"/></linearGradient><linearGradient id="linear-gradient-10" x1="-307.02" y1="494.11" x2="-298.8" y2="494.11" gradientTransform="scale(-1 1) rotate(31.5 563.68 661.986)" gradientUnits="userSpaceOnUse"><stop offset="0" stop-color="#edb945"/><stop offset=".31" stop-color="#ecb545"/><stop offset=".63" stop-color="#e9a945"/><stop offset=".95" stop-color="#e39444"/><stop offset="1" stop-color="#e29044"/></linearGradient><linearGradient id="linear-gradient-11" x1="-307.11" y1="493.96" x2="-296.94" y2="493.96" gradientTransform="scale(-1 1) rotate(31.5 563.68 661.986)" gradientUnits="userSpaceOnUse"><stop offset="0" stop-color="#c26d40"/><stop offset="1" stop-color="#84422b"/></linearGradient><linearGradient id="linear-gradient-12" x1="-311.1" y1="489.77" x2="-303.48" y2="489.77" gradientTransform="scale(-1 1) rotate(31.5 563.68 661.986)" gradientUnits="userSpaceOnUse"><stop offset="0" stop-color="#a76139"/><stop offset="1" stop-color="#844029"/></linearGradient><linearGradient id="linear-gradient-13" x1="-307.37" y1="493.98" x2="-298.37" y2="493.98" gradientTransform="scale(-1 1) rotate(31.5 563.68 661.986)" gradientUnits="userSpaceOnUse"><stop offset="0" stop-color="#854d28"/><stop offset="1" stop-color="#854529"/></linearGradient><linearGradient id="linear-gradient-14" x1="-306.24" y1="493.21" x2="-299.31" y2="493.21" gradientTransform="scale(-1 1) rotate(31.5 563.68 661.986)" gradientUnits="userSpaceOnUse"><stop offset="0" stop-color="#d48146"/><stop offset=".2" stop-color="#ae6638"/><stop offset=".44" stop-color="#864829"/><stop offset=".67" stop-color="#69331e"/><stop offset=".86" stop-color="#572717"/><stop offset="1" stop-color="#512215"/></linearGradient><linearGradient id="linear-gradient-15" x1="-306.32" y1="493.21" x2="-299.22" y2="493.21" gradientTransform="scale(-1 1) rotate(31.5 563.68 661.986)" gradientUnits="userSpaceOnUse"><stop offset="0" stop-color="#854d28"/><stop offset="1" stop-color="#85472b"/></linearGradient><linearGradient id="linear-gradient-16" x1="-310.98" y1="487.7" x2="-298.36" y2="487.7" xlink:href="#linear-gradient-9"/><linearGradient id="linear-gradient-17" x1="-310.98" y1="487.81" x2="-300.69" y2="487.81" xlink:href="#linear-gradient-10"/><linearGradient id="linear-gradient-18" x1="-302.17" y1="474.06" x2="-298.04" y2="474.06" gradientTransform="scale(-1 1) rotate(29.4 598.686 669.08)" gradientUnits="userSpaceOnUse"><stop offset="0" stop-color="#fff9b4"/><stop offset=".21" stop-color="#fceea3"/><stop offset=".62" stop-color="#f4d078"/><stop offset="1" stop-color="#ebb14b"/></linearGradient><linearGradient id="linear-gradient-19" x1="-311.07" y1="487.69" x2="-298.27" y2="487.69" gradientTransform="scale(-1 1) rotate(31.5 563.68 661.986)" gradientUnits="userSpaceOnUse"><stop offset="0" stop-color="#a76139"/><stop offset="1" stop-color="#843e2a"/></linearGradient><linearGradient id="linear-gradient-20" x1="-34.9" y1="-82.83" x2="-28.37" y2="-82.83" gradientTransform="scale(-1 1) rotate(-56.5 84.36 39.179)" gradientUnits="userSpaceOnUse"><stop offset="0" stop-color="#784524"/><stop offset="1" stop-color="#492100"/></linearGradient><radialGradient id="radial-gradient" cx="1140.3" cy="-10.01" r="20.02" gradientTransform="rotate(8.71 -84.148 -6662.268)" gradientUnits="userSpaceOnUse"><stop offset="0" stop-color="#edcb47"/><stop offset=".37" stop-color="#e4bb45"/><stop offset="1" stop-color="#d19842"/></radialGradient><radialGradient id="radial-gradient-2" cx="1141.66" cy="-11.34" r="17.72" gradientTransform="rotate(8.71 -84.148 -6662.268)" gradientUnits="userSpaceOnUse"><stop offset="0" stop-color="#fff56f"/><stop offset=".24" stop-color="#fdf06c"/><stop offset=".52" stop-color="#f8e363"/><stop offset=".81" stop-color="#efcc54"/><stop offset="1" stop-color="#e7b947"/></radialGradient><radialGradient id="radial-gradient-3" cx="1139.24" cy="-11.06" r="17.49" gradientTransform="rotate(8.71 -84.148 -6662.268)" gradientUnits="userSpaceOnUse"><stop offset="0" stop-color="#f4df47"/><stop offset=".31" stop-color="#f2da47"/><stop offset=".67" stop-color="#eecd47"/><stop offset="1" stop-color="#e7b947"/></radialGradient><radialGradient id="radial-gradient-4" cx="1107.74" cy="109.18" r="45.4" gradientTransform="translate(-1017.41)" xlink:href="#radial-gradient-3"/><radialGradient id="radial-gradient-5" cx="1107.74" cy="109.18" r="45.4" gradientTransform="translate(-1017.41)" xlink:href="#radial-gradient-2"/><radialGradient id="radial-gradient-6" cx="1106.59" cy="109.18" r="45.32" gradientTransform="translate(-1017.41)" xlink:href="#radial-gradient-3"/><radialGradient id="radial-gradient-7" cx="1105.1" cy="109.24" r="45.17" gradientTransform="translate(-1017.41)" xlink:href="#radial-gradient"/><radialGradient id="radial-gradient-8" cx="988.09" cy="422.08" r="21.09" gradientTransform="rotate(-24.55 -193.642 2409.11)" xlink:href="#radial-gradient"/><radialGradient id="radial-gradient-9" cx="988.55" cy="421.12" r="19.14" gradientTransform="rotate(-24.55 -193.642 2409.11)" xlink:href="#radial-gradient-2"/><radialGradient id="radial-gradient-10" cx="988.24" cy="421.12" r="19.08" gradientTransform="rotate(-24.55 -193.642 2409.11)" xlink:href="#radial-gradient-3"/><radialGradient id="radial-gradient-11" cx="-634.25" cy="422.07" r="15.96" gradientTransform="matrix(-.91 .42 .42 .91 -710.33 -2.85)" xlink:href="#radial-gradient"/><radialGradient id="radial-gradient-12" cx="1098.69" cy="55.13" r="47.3" gradientTransform="translate(-1017.41)" xlink:href="#radial-gradient-3"/><radialGradient id="radial-gradient-13" cx="1098.69" cy="55.13" r="47.3" gradientTransform="translate(-1017.41)" gradientUnits="userSpaceOnUse"><stop offset="0" stop-color="#fff795"/><stop offset=".21" stop-color="#fef390"/><stop offset=".45" stop-color="#f9e883"/><stop offset=".7" stop-color="#f2d66c"/><stop offset=".96" stop-color="#e9be4d"/><stop offset="1" stop-color="#e7b947"/></radialGradient><radialGradient id="radial-gradient-15" cx="1122.19" cy="83.67" r=".37" gradientTransform="translate(-1017.41)" gradientUnits="userSpaceOnUse"><stop offset="0" stop-color="#f4df47"/><stop offset=".35" stop-color="#ebcf46"/><stop offset="1" stop-color="#d6a842"/></radialGradient><radialGradient id="radial-gradient-16" cx="1093.54" cy="59.8" r="49.59" gradientTransform="translate(-1017.41)" gradientUnits="userSpaceOnUse"><stop offset="0" stop-color="#edcb47"/><stop offset=".28" stop-color="#ebc747"/><stop offset=".56" stop-color="#e4bb45"/><stop offset=".84" stop-color="#d9a743"/><stop offset="1" stop-color="#d19842"/></radialGradient><radialGradient id="radial-gradient-17" cx="-288.87" cy="475.4" r="5.5" gradientTransform="scale(-1 1) rotate(31.5 563.68 661.986)" gradientUnits="userSpaceOnUse"><stop offset="0" stop-color="#3eb5f1"/><stop offset=".26" stop-color="#3eb2ee"/><stop offset=".46" stop-color="#3daae4"/><stop offset=".65" stop-color="#3c9bd4"/><stop offset=".82" stop-color="#3b87bd"/><stop offset=".98" stop-color="#396d9f"/><stop offset="1" stop-color="#39699a"/></radialGradient><radialGradient id="radial-gradient-18" cx="-310.49" cy="481.67" r="4.8" xlink:href="#radial-gradient-17"/><radialGradient id="radial-gradient-19" cx="1113.34" cy="60.72" r="5.62" gradientTransform="translate(-1017.41)" xlink:href="#radial-gradient-3"/><style>.cls-4{fill:#a05934}.cls-10{fill:#965e2e}.cls-22{fill:#dd7c7e}.cls-23{fill:#a64d54}.cls-24{fill:url(#radial-gradient-12)}.cls-28{fill:#f3c845}.cls-29{fill:#b37146}.cls-30{fill:#d8ad42}.cls-31{fill:#714316}.cls-32{fill:#fff}.cls-33{fill:#a26334}.cls-35{fill:#00213d}.cls-36{fill:#340000}.cls-54{fill:#e2915e}.cls-55{fill:#ca6a71}</style></defs><path d="M101.29 96.14a80.82 80.82 0 0 0 11.41-9c4.73-4.71 7.83.35 3.42 5.69 2.78-1.3 8.78-.23 1.32 8.23 3.55-.75 6.42 3 .91 7.15.85 1-1.24 6.26-7.88 8.4 2.46.8 4.26 4.94-8.42 5.43s-15.59-15.13-12.45-20.67 11.69-5.23 11.69-5.23Z" transform="translate(-22.99 -16.89)" style="fill:url(#radial-gradient)"/><path d="M102.42 101.85s5.8-9.8 10.54-14.52 7.57.16 3.16 5.5c2.78-1.3 8.78-.23 1.32 8.23 3.55-.75 6.42 3 .91 7.15.85 1-1.24 6.26-7.88 8.4 4.62 1.66-.77 4.13-3.93 1.35-1.36-7.96-.83-10.44-4.12-16.11Z" transform="translate(-22.99 -16.89)" style="fill:url(#radial-gradient-2)"/><path d="M102.42 101.85s5.8-9.8 10.54-14.52 5.15 1.88.75 7.22c2.78-1.28 8.52-.4 1.06 8.06 3.55-.75 6.11 2.22.59 6.39.86 1 1.75 5.47-4.89 7.61 4.62 1.66-.77 4.13-3.93 1.35-1.36-7.96-.83-10.44-4.12-16.11Z" transform="translate(-22.99 -16.89)" style="fill:url(#radial-gradient-3)"/><path class="cls-4" d="M99.38 122.11a12.38 12.38 0 0 1-9.33-7.26c-2.19-4.52-2.46-10.36-.64-13.59 3-5.31 11-5.34 11.82-5.33A80.69 80.69 0 0 0 112.55 87c1.41-1.4 2.82-2.08 4-1.91a2.17 2.17 0 0 1 1.71 1.46c.47 1.25.3 3.39-1.49 5.83a5.53 5.53 0 0 1 2.24-.16 2.51 2.51 0 0 1 2.13 1.53c.56 1.53-.52 4-3.13 7a4.78 4.78 0 0 1 1 0 3 3 0 0 1 2.58 2.15c.41 1.62-.66 3.56-2.93 5.32a2.21 2.21 0 0 1 0 1.48c-.5 1.76-2.64 5.13-7.54 6.89a2.25 2.25 0 0 1 1.36 2.15c-.16 1.16-1.72 3.15-10.36 3.48a13.86 13.86 0 0 1-2.74-.11Zm17.07-36.6c-1-.16-2.29.47-3.61 1.78a80.83 80.83 0 0 1-11.44 9H101.28c-.08 0-8.46-.23-11.49 5.12-1.53 2.69-1.7 8.35.64 13.19a12 12 0 0 0 9 7 13.69 13.69 0 0 0 2.59.14c8.89-.35 9.88-2.47 10-3.11.12-.87-.74-1.64-1.6-1.92l-.62-.21.62-.19c5.1-1.65 7.3-5 7.79-6.78.19-.71.12-1.13 0-1.28l-.14-.17.17-.14c2.24-1.69 3.3-3.51 2.93-5a2.61 2.61 0 0 0-2.24-1.83 4 4 0 0 0-1.42.05l-.63.13.42-.48c3.51-4 3.8-6 3.43-7a2.09 2.09 0 0 0-1.79-1.25 5 5 0 0 0-2.7.39l-.85.39.59-.72c2.1-2.55 2.33-4.82 1.87-6a1.71 1.71 0 0 0-1.4-1.11Z" transform="translate(-22.99 -16.89)"/><path d="M75.93 157.78a48.31 48.31 0 0 0 7.92 1.55c2.7.1 4.24 1.26 3.57 3.19-2.9 1.06-10.24-3.09-11.49-4.74Z" transform="translate(-22.99 -16.89)" style="fill:url(#linear-gradient)"/><path d="m75.78 157.91-.35-.46.55.15a48.1 48.1 0 0 0 7.87 1.54c1.74.06 3 .55 3.58 1.39a2.24 2.24 0 0 1 .17 2.05v.09h-.08a3.53 3.53 0 0 1-1.18.18c-3.34.03-9.34-3.38-10.56-4.94Zm11.33 2.84c-.5-.73-1.66-1.17-3.27-1.23a42 42 0 0 1-7.29-1.37c1.8 1.62 6.88 4.35 9.76 4.35a3 3 0 0 0 1-.14 1.78 1.78 0 0 0-.2-1.61Z" transform="translate(-22.99 -16.89)" style="fill:url(#linear-gradient-2)"/><path d="M76.29 146.79s-.65 8.49-.26 10.29c.9 1 4 2.73 7.91 3.7s4.93 2 5.22 3.76-1.45 2.51-3.38 2c0 1.44-2.27 3.23-5.31 1.16-2.12-1.45-5.21-4.54-7.14-5.31a3.55 3.55 0 0 1-1.74-5.21c1.35-1.93 1.64-6.76.87-10.91 1.84-3.63 2.15-5.08 3.83.52Z" transform="translate(-22.99 -16.89)" style="fill:url(#linear-gradient-3)"/><path d="M76 149.2s-.39 6.08 0 7.88c.9 1 4 2.73 7.91 3.7s5.45 2.69 4.1 3c-2.22.58-6.56-2.94-9.11-2.27 4.44 1.35 7.3 3.95 6.56 3.76 0 1.45-1.78 2.56-4.83.48-2.12-1.44-4.2-3.51-6.12-4.29s-3.41-2.14-2-4.05c.88-1.21 1.12-3.09 1.45-5.31.38-4.1 2.33-5.31 2.04-2.9Z" transform="translate(-22.99 -16.89)" style="fill:url(#linear-gradient-4)"/><path d="M80.36 167.89c-.82-.56-1.76-1.35-2.75-2.17a21 21 0 0 0-4.35-3.12 4 4 0 0 1-2.26-2.54 3.38 3.38 0 0 1 .46-3c1.26-1.8 1.63-6.53.84-10.76v-.12l.41-.85c.8-1.61 1.23-2.5 1.81-2.5s1.08.93 2 3.86v.08c0 .08-.63 8.32-.27 10.18.85.93 3.77 2.63 7.78 3.61s5.06 2.15 5.35 3.91a1.89 1.89 0 0 1-.38 1.63 2.64 2.64 0 0 1-2.08.8 5 5 0 0 1-.93-.09 2.7 2.7 0 0 1-2.8 2.06 5.05 5.05 0 0 1-2.83-.98Zm5.46-1.51a2.94 2.94 0 0 0 2.85-.53 1.5 1.5 0 0 0 .29-1.28c-.27-1.64-1.13-2.65-5.06-3.6s-7-2.65-8-3.76c-.38-1.77.2-9.64.25-10.31-.3-1-1.07-3.56-1.58-3.56-.34 0-.86 1.07-1.46 2.3l-.39.78c.8 4.38.41 9.09-.91 11a3 3 0 0 0-.42 2.64 3.64 3.64 0 0 0 2.07 2.28 21.13 21.13 0 0 1 4.45 3.18c1 .82 1.93 1.6 2.72 2.15a4.7 4.7 0 0 0 2.58.91 2.28 2.28 0 0 0 2.44-1.91v-.25Z" transform="translate(-22.99 -16.89)" style="fill:url(#linear-gradient-5)"/><path class="cls-10" d="M86 166.6c0-.06.19-1.39-1.81-2.89a18.49 18.49 0 0 0-5.19-2.35l-.11.38a18 18 0 0 1 5.04 2.26c1.81 1.36 1.66 2.51 1.66 2.52Z" transform="translate(-22.99 -16.89)"/><path d="M63.05 149.9s-1.13 8.94-.26 11.06 9.52 3.92 9.59 6.43c.07 3-3.15 1.61-4.19 1.23 1 1.8-.22 4.34-1.86 4.3-2.83-.06-3.73-2.92-3.73-2.92a3.17 3.17 0 0 1-1 2.51 2.38 2.38 0 0 1-3.72-.45c-.78-1.26-1.15-2.52-.85-5.25a37.93 37.93 0 0 1 1.45-6.43 39.77 39.77 0 0 0 .58-10.23c.03-3.5 2.73-5.85 3.99-.25Z" transform="translate(-22.99 -16.89)" style="fill:url(#linear-gradient-6)"/><path d="M62.6 156.39c-.16 2.44-.23 3.54.19 4.57.87 2.12 8.78 3.57 8.78 6.08 0 1.74-3.76.26-4.79-.13 2.12 2.32 1.16 4.13-.48 4.09-2.83-.07-4.25-4.63-4.25-4.63s-.09 3.54-.93 4.43c-1.12 1.2-2.75.87-3-.57a12.36 12.36 0 0 1-.11-3.48c.29-2.56 1.48-5.76 1.68-8 .31-4.68 3.08-4.95 2.91-2.36Z" transform="translate(-22.99 -16.89)" style="fill:url(#linear-gradient-7)"/><path d="M57.74 172.13c-.81-1.31-1.16-2.47-.87-5.21A31.57 31.57 0 0 1 58 161.6c.12-.43.24-.85.36-1.3a39.7 39.7 0 0 0 .57-10.18c0-2.08.92-3.77 2-3.77.57 0 1.61.46 2.3 3.5v.07c0 .09-1.11 8.91-.27 11 .37.89 2.41 1.81 4.38 2.69 2.55 1.14 5.18 2.32 5.22 3.81a2.14 2.14 0 0 1-.48 1.6 1.77 1.77 0 0 1-1.33.47 6.83 6.83 0 0 1-2.2-.5 3.62 3.62 0 0 1-.33 2.95 2.24 2.24 0 0 1-1.87 1.21 4.17 4.17 0 0 1-3.57-2.35 3.51 3.51 0 0 1-1 1.84 2.5 2.5 0 0 1-1.81.76 2.61 2.61 0 0 1-2.23-1.27Zm8.62.61a1.87 1.87 0 0 0 1.53-1 3.12 3.12 0 0 0 .14-3l-.24-.46.63.25a7.36 7.36 0 0 0 2.34.58 1.39 1.39 0 0 0 1-.36 1.74 1.74 0 0 0 .38-1.32c0-1.25-2.66-2.43-5-3.47-2.14-1-4.17-1.86-4.59-2.9-.86-2.1.16-10.43.24-11.13-.45-2-1.16-3.17-1.91-3.17s-1.65 1.39-1.65 3.38a40 40 0 0 1-.59 10.28c-.12.46-.24.89-.36 1.31a31.53 31.53 0 0 0-1.02 5.27c-.29 2.64 0 3.7.81 5a2.23 2.23 0 0 0 1.93 1 2.17 2.17 0 0 0 1.54-.65 2.94 2.94 0 0 0 .91-2.35l.37-.08a4.08 4.08 0 0 0 3.54 2.82Z" transform="translate(-22.99 -16.89)" style="fill:url(#linear-gradient-8)"/><path class="cls-10" d="m68 168.71.33-.19a15.75 15.75 0 0 0-3.19-3.2l-.25.29a16.51 16.51 0 0 1 3.11 3.1ZM62.54 170.42l.37-.13a26.53 26.53 0 0 1-.7-4.14h-.38a26.63 26.63 0 0 0 .71 4.27Z" transform="translate(-22.99 -16.89)"/><path d="M50.76 98c-4.82-1.42-6.94-2.41-11.33-7.64s-8.26-5.67-6.7-1.14C27.34 85.44 22.81 87 30 98.84c-4.67-4.11-12.16-2.42-.85 9.63a54.12 54.12 0 0 1 10.2 16.67C41.89 131.51 46.6 139.53 53 143a11.59 11.59 0 0 1 .29-1.8s.66 4.77 4.43 6.09a2 2 0 0 0-1.13 2.27 15.37 15.37 0 0 0 2.83-.76c-1.6 1.42-.94 2.27-.94 2.27a8 8 0 0 0 3.4-2.17 3.22 3.22 0 0 0 2.36 1.79c-.28-.66.19-2.08 0-2.55 2 .57 5.47.66 7.27-.19 1.37.38.48 1.23 0 2.84a4.14 4.14 0 0 0 2.17-1.89 6.87 6.87 0 0 0 .66 1.79c.47 0 .57-2 .57-2a10 10 0 0 1 2.17 1.89c.47-.9-.1-1.8.94-2.74s7.84-2.27 12.09-7.08a9.54 9.54 0 0 1-.85 2.07s6.13-3.11 8.12-9.15a15.21 15.21 0 0 1 0 2.64A19.33 19.33 0 0 0 103 120.6c.66 2.37 1 2.65 1 2.65s2.26-8.59-2.08-14.63c.94.84 1.8 1.79 1.8 1.79s0-7.65-6.61-10.29a5.7 5.7 0 0 0 2.74.09s-5-7.18-10-7.46Z" transform="translate(-22.99 -16.89)" style="fill:url(#radial-gradient-4)"/><path d="M50.76 98c-4.82-1.42-6.94-2.41-11.33-7.64s-8.26-5.67-6.7-1.14C27.34 85.44 22.81 87 30 98.84c-4.67-4.11-12.16-2.42-.85 9.63a54.12 54.12 0 0 1 10.2 16.67C41.89 131.51 46.6 139.53 53 143a11.59 11.59 0 0 1 .29-1.8s.66 4.77 4.43 6.09a2 2 0 0 0-1.13 2.27 15.37 15.37 0 0 0 2.83-.76c-1.6 1.42-.94 2.27-.94 2.27a8 8 0 0 0 3.4-2.17 3.22 3.22 0 0 0 2.36 1.79c-.28-.66.19-2.08 0-2.55 2 .57 5.47.66 7.27-.19 1.37.38.48 1.23 0 2.84a4.14 4.14 0 0 0 2.17-1.89 6.87 6.87 0 0 0 .66 1.79c.47 0 .57-2 .57-2a10 10 0 0 1 2.17 1.89c.47-.9-.1-1.8.94-2.74s7.84-2.27 12.09-7.08a9.54 9.54 0 0 1-.85 2.07s6.13-3.11 8.12-9.15a15.21 15.21 0 0 1 0 2.64A19.33 19.33 0 0 0 103 120.6c.66 2.37 1 2.65 1 2.65s2.26-8.59-2.08-14.63c.94.84 1.8 1.79 1.8 1.79s0-7.65-6.61-10.29a5.7 5.7 0 0 0 2.74.09s-5-7.18-10-7.46Z" transform="translate(-22.99 -16.89)" style="fill:url(#radial-gradient-5)"/><path d="M50.76 98c-4.82-1.42-6.94-2.41-11.33-7.64s-8.26-5.67-6.7-1.14C27.34 85.44 22.81 87 30 98.84c-4.67-4.11-12.16-2.42-.85 9.63a54.12 54.12 0 0 1 10.2 16.67C41.89 131.51 46.6 139.53 53 143a11.59 11.59 0 0 1 .29-1.8s.66 4.77 4.43 6.09a2 2 0 0 0-1.13 2.27 15.37 15.37 0 0 0 2.83-.76c-1.6 1.42-.94 2.27-.94 2.27a8 8 0 0 0 3.4-2.17 3.22 3.22 0 0 0 2.36 1.79c-.28-.66.19-2.08 0-2.55 2 .57 5.47.66 7.27-.19 1.37.38.48 1.23 0 2.84a4.14 4.14 0 0 0 2.17-1.89 6.87 6.87 0 0 0 .66 1.79c.47 0 .57-2 .57-2a10 10 0 0 1 2.17 1.89c.47-.9-.1-1.8.94-2.74s7.84-2.27 12.09-7.08a9.54 9.54 0 0 1-.85 2.07s6.13-3.11 8.12-9.15a15.21 15.21 0 0 1 0 2.64 25.83 25.83 0 0 0 4-16.76c1.42 1.27 1.84 1.56 1.84 1.56s0-9.39-4.39-15.44c1 .85 3.4 2.55 3.4 2.55s-3.11-6.93-7.79-8.78c2 .38 5.44.71 5.44.71s-5-7.18-10-7.46Z" transform="translate(-22.99 -16.89)" style="fill:url(#radial-gradient-6)"/><path d="M32.73 89.26c-.61-1.75-.4-2.75.34-3-.4 1.12.48 4.07 3.15 8.65a39.57 39.57 0 0 0-4.07-6Zm9.58 6c1.55 2.56 6.23 5.82 9.63 6.38 6.74 1.12 22.89-1.4 27.9-1.7 9.49-.57 13.88-5.24 13.88-5.24l.85.06a9.25 9.25 0 0 0-4.73-2L50.76 98c-4.82-1.42-6.94-2.41-11.33-7.64a19 19 0 0 0-2.71-2.7 43.11 43.11 0 0 1 5.59 7.59Zm50.27 41.5a21 21 0 0 1-8.49 6.24c-4.53 2.41-3.42.28-3.12-.28 4.81-9.07 8.64-17 9.07-30.88-3.12 23-14.87 33.71-16.86 33.14.19.47-4.72 1.18-5.1.43-1 1.42-7.88-1.37-6.37-2C57.93 142 57 138.5 57 139.06c-6.47-7.55 14.92-10.53 14.64-27.52-2.56-6.38-31.3-2.84-35.41-7.22-6.41-6.83-8.83-14.65-7.86-16.91-2.7-.07-3.37 3.19 1.63 11.43-4.67-4.11-12.16-2.42-.85 9.63a54.12 54.12 0 0 1 10.2 16.67C41.89 131.51 46.6 139.53 53 143a11.59 11.59 0 0 1 .29-1.8s.66 4.77 4.43 6.09a2 2 0 0 0-1.13 2.27 15.37 15.37 0 0 0 2.83-.76c-1.6 1.42-.94 2.27-.94 2.27a8 8 0 0 0 3.4-2.17 3.22 3.22 0 0 0 2.36 1.79c-.28-.66.19-2.08 0-2.55 2 .57 5.47.66 7.27-.19 1.37.38.48 1.23 0 2.84a4.14 4.14 0 0 0 2.17-1.89 6.87 6.87 0 0 0 .66 1.79c.47 0 .57-2 .57-2a10 10 0 0 1 2.17 1.89c.47-.9-.1-1.8.94-2.74s7.84-2.27 12.09-7.08a9.54 9.54 0 0 1-.85 2.07 19.09 19.09 0 0 0 6.89-6.5c-2.15 1.52-3.98 1.84-3.57.42Zm8.78-7a13.14 13.14 0 0 1-3.92 5.64 6.08 6.08 0 0 1 0 1 18.64 18.64 0 0 0 4-5.81c-.06-.26-.07-.54-.08-.83Z" transform="translate(-22.99 -16.89)" style="fill:url(#radial-gradient-7)"/><path class="cls-4" d="m58.43 151.35-.1-.12s-.56-.76.38-1.94a14 14 0 0 1-2.08.51h-.18v-.18a2.26 2.26 0 0 1 .84-2.28c-2.5-1.1-3.53-3.67-3.93-5.1a4.91 4.91 0 0 0-.08.77v.36l-.31-.18c-7.6-4.13-12.18-14-13.79-18A53.45 53.45 0 0 0 29 108.62c-6.23-6.64-6.3-9.6-5.8-10.77a2.21 2.21 0 0 1 2.23-1.23A7.19 7.19 0 0 1 29.24 98c-2.78-4.79-3.76-8.18-2.84-9.82a2 2 0 0 1 1.88-1 8.14 8.14 0 0 1 4.07 1.55 2.79 2.79 0 0 1 .1-2.3 1.27 1.27 0 0 1 1.1-.51c1.49 0 3.8 1.66 6 4.33C44 95.46 46 96.42 50.78 97.82l39-5.28c5.09.29 10 7.25 10.21 7.55l.15.22-.25.1a3.11 3.11 0 0 1-1 .12h-.52c5.45 3.06 5.51 9.83 5.51 9.9v.57l-.36-.41-.52-.59c3.12 5.9 1.23 13.27 1.21 13.35l-.08.3-.25-.18a2.84 2.84 0 0 1-.6-1.13 19.73 19.73 0 0 1-5.74 14.24L97 137l.16-.66a7.7 7.7 0 0 0 0-1.52c-2.29 5.4-7.78 8.25-7.84 8.28l-.61.3.32-.59a12.11 12.11 0 0 0 .54-1.15c-3 3-6.91 4.51-9.33 5.44a9.49 9.49 0 0 0-2.11 1 1.94 1.94 0 0 0-.64 1.54 2.9 2.9 0 0 1-.26 1.15l-.17.32-.2-.31a7.93 7.93 0 0 0-1.8-1.61c-.07.8-.25 1.8-.76 1.8h-.13v-.11a8.82 8.82 0 0 1-.57-1.36 3.94 3.94 0 0 1-2 1.56l-.37.1.11-.36a8 8 0 0 1 .42-1.13c.2-.51.37-.91.26-1.12a.73.73 0 0 0-.46-.3 9.52 9.52 0 0 1-3.72.61 14.53 14.53 0 0 1-3.31-.36 6.35 6.35 0 0 1-.07.8 3.34 3.34 0 0 0 0 1.38l.17.38-.4-.09a3.42 3.42 0 0 1-2.35-1.62 8.5 8.5 0 0 1-3.3 2Zm1.94-3-.79.69c-1.08.95-1 1.59-1 1.85a7.37 7.37 0 0 0 3.12-2l.2-.27.16.3a3 3 0 0 0 1.88 1.6 5.7 5.7 0 0 1 .06-1.22 2.66 2.66 0 0 0 0-1l-.15-.4.41.12a13.53 13.53 0 0 0 3.51.43 9 9 0 0 0 3.61-.61H71.53a1.23 1.23 0 0 1 .81.53c.18.4 0 .87-.26 1.47-.09.21-.18.44-.27.68a4.24 4.24 0 0 0 1.64-1.63l.31-.57.09.64a6.22 6.22 0 0 0 .53 1.49 6.18 6.18 0 0 0 .28-1.66v-.37l.32.21a12.75 12.75 0 0 1 2 1.63 3.5 3.5 0 0 0 .08-.65 2.41 2.41 0 0 1 .78-1.82 9.31 9.31 0 0 1 2.25-1c2.56-1 6.85-2.65 9.82-6l.47-.53-.1.7a7.14 7.14 0 0 1-.56 1.52c1.58-1 5.85-3.91 7.42-8.7l.36-1.1V135.95a19.34 19.34 0 0 0 5.11-15.2l.41-.09a15 15 0 0 0 .74 2.15c.4-1.9 1.49-8.89-2.15-14l-1.15-1.6 1.46 1.32c.55.49 1.06 1 1.41 1.38-.16-1.81-1.09-7.38-6.44-9.53l.11-.4a9.58 9.58 0 0 0 1.79.19 4 4 0 0 0 .55 0c-.95-1.28-5.35-6.86-9.66-7.1l-38.94 5.18c-4.78-1.41-7-2.45-11.43-7.72-2.59-3.09-4.7-4.18-5.72-4.18a.85.85 0 0 0-.75.33 3 3 0 0 0 .13 2.51l.21.62-.54-.38a8.34 8.34 0 0 0-4.32-1.82 1.59 1.59 0 0 0-1.51.77c-.52.91-.76 3.48 3.4 10.35l.71 1.18-1-.91a7.26 7.26 0 0 0-4.43-2 1.85 1.85 0 0 0-1.84 1c-.38.87-.57 3.6 5.72 10.31a53.65 53.65 0 0 1 10.24 16.73c1.58 3.94 6 13.46 13.31 17.62a13.88 13.88 0 0 1 .26-1.49l.26-1.12.16 1.13c0 .05.68 4.66 4.29 5.93l.51.17-.49.22a1.71 1.71 0 0 0-1 1.83 21.41 21.41 0 0 0 2.59-.72Z" transform="translate(-22.99 -16.89)"/><path class="cls-4" d="M69.07 148.73a3.68 3.68 0 0 1-1.2-.17l.15-.4s3.45 1.15 7.41-3.61l.32.27c-2.75 3.32-5.26 3.91-6.68 3.91Z" transform="translate(-22.99 -16.89)"/><path d="M67.43 106.45c-3.74-5.64-25-2.48-27.4 3.07-4.52-1.36-6-.4-6.37.73-4.75-1.56-8.81 1.85-2.5 4.41-3.17.21-2.37 4.36 4.19 7.12-8.79 1.22-10.27 2-10.08 3.51s8.62 3.86 12.93 2c-2.55 1.94-8 6.94 4.87 3.85 2.39 2.18 8.66 4.15 16 .5 9.07-4.55 13.37-17.64 8.36-25.19Z" transform="translate(-22.99 -16.89)" style="fill:url(#radial-gradient-8)"/><path d="M67.43 106.45c-3.52-5.79-25-2.48-27.4 3.07-4.52-1.36-6-.4-6.37.73-3.87-1.27-9.29 1.63 3.59 4.62.52.5-7.27-.69-6.09-.21-1.71 1.36.95 4 7.51 6.72-8.79 1.21-13 2-11.51 2.92 1.25.78 10.37 2.59 14.67.77-8.18 4.91-9.07 6.72 3.84 3.62 2.39 2.18 5.43 3.38 12.72-.28 9.11-4.58 11.85-17.32 9.04-21.96Z" transform="translate(-22.99 -16.89)" style="fill:url(#radial-gradient-9)"/><path d="M68 108.82c-3.82-6.66-25.7-3-28.1 2.56-4.51-1.36-5.86-2.26-6.28-1.13-3.87-1.27-9.29 1.63 3.59 4.62.52.5-7.27-.69-6.09-.21-1.71 1.36.95 4 7.51 6.72-8.79 1.21-13 2-11.51 2.92 1.25.78 10.37 2.59 14.67.77-8.18 4.91-9.07 6.72 3.84 3.62 2.39 2.18 5.43 3.38 12.72-.28 9.15-4.58 12.39-14.89 9.65-19.59Z" transform="translate(-22.99 -16.89)" style="fill:url(#radial-gradient-10)"/><path class="cls-4" d="M58.4 132.21c-7 3.2-13 1.3-15.39-.8-6.76 1.61-8 .89-8.3.2-.47-1 1.06-2.55 2.45-3.72-3.69.89-9-.37-11.08-1.52-.63-.36-1-.7-1-1-.12-.84.3-1.42 1.35-1.9 1.31-.59 3.77-1.13 8.17-1.75-4-1.84-5.42-4-5.44-5.41a1.68 1.68 0 0 1 1.29-1.69c-1.75-.82-2.7-1.79-2.72-2.76a2 2 0 0 1 1.34-1.74 6.5 6.5 0 0 1 4.48-.08c.71-1.49 2.87-1.76 6.37-.73.59-1.17 2-2.3 4.14-3.27 6.9-3.15 20.49-4.28 23.55.34 2.21 3.33 2.75 8 1.49 12.69a20.15 20.15 0 0 1-10 12.84Zm-31.81-8.4c-1 .47-1.18.92-1.1 1.46 0 .07.09.33.8.73 2.17 1.24 8.31 2.61 11.82 1.14l1.53-.64-1.32 1c-2.27 1.73-3.54 3.28-3.23 3.93.23.48 1.57 1.07 7.93-.46h.11l.08.07c2.25 2 8.11 4 15 .81l.7-.34a19.7 19.7 0 0 0 9.76-12.57c1.23-4.62.71-9.12-1.43-12.35-2.7-4.07-15.68-3.54-23-.19-2.13 1-3.5 2.09-4 3.23l-.07.17h-.18c-3.48-1-5.56-.86-6.11.6l-.07.19-.19-.07a6.19 6.19 0 0 0-4.36 0c-.71.33-1.11.81-1.11 1.35 0 .89 1.16 1.86 3.11 2.66l.86.35-.92.05c-1 .07-1.62.58-1.61 1.38 0 1.44 1.84 3.64 5.86 5.34l.71.3-.76.1c-4.77.59-7.48 1.16-8.81 1.76Z" transform="translate(-22.99 -16.89)"/><path d="M51.17 112.5s-1.81 2.73 3.56 3.52c-1.19 1.58-1.83 3.31 2.8 4.63-2.6-.15-6.59-2.17-4.88-4-3.51-1.19-3.23-3.17-1.48-4.15Zm-9.55 4c-2.59 1.33-.14 3.06 2.94 3.64-2 2.51 5.06 3.94 7.06 3.64-6.24-1.34-6-3.32-4.77-4.46-4-.85-5.44-2.58-2.51-3.07a8.27 8.27 0 0 1-5.06-2.92 2.93 2.93 0 0 0 2.34 3.22Z" transform="translate(-22.99 -16.89)" style="fill:url(#radial-gradient-11)"/><path class="cls-22" d="M52.72 97.42a51.63 51.63 0 0 0 23.15 1.82 14.52 14.52 0 0 1-.17 5.92s-23.31-2.4-28.86-8.3a20.53 20.53 0 0 0 5.88.56Z" transform="translate(-22.99 -16.89)"/><path class="cls-23" d="M75.87 105.41h-.19c-1-.09-23.46-2.48-29-8.37l-.5-.54.71.18a21.67 21.67 0 0 0 4.9.57h.92a48.36 48.36 0 0 0 15.48 2.33 56.15 56.15 0 0 0 7.65-.58H76v.18a14.69 14.69 0 0 1-.16 6Zm-28.3-8.16c6 5.11 25.77 7.43 28 7.67a14.52 14.52 0 0 0 .17-5.44 55.71 55.71 0 0 1-7.42.5 49.46 49.46 0 0 1-15.62-2.34h-.91a22 22 0 0 1-4.22-.39Z" transform="translate(-22.99 -16.89)"/><path class="cls-24" d="M97.78 91.15a18.69 18.69 0 0 0 6.7-9 2.35 2.35 0 0 1-.14 1.84s2.83-1.13 2.27-7.36c1 .28 1.12 1.13 1.55 2.12a8.9 8.9 0 0 0-.57-8.36c2 1 2.27 1.85 2.41 2.41.57-2.26 1.28-4.24-3.82-9.2a3.75 3.75 0 0 1 3.39.85 6.65 6.65 0 0 0-3.68-3.54c-2.69-1.28-3.68-3.68-6.36-12.18S87.77 29.74 75.87 28 64.69 29.74 60 26.2s-1.7-7.22 1-7.79 2.13 3.54-.42 3a2.21 2.21 0 0 0 3.68-1.14c.43-2.12-.85-3.68-5-3s-4.53 5.95-3.82 7.64 1.84 4.11-.85 5.53-14.3 11.18-16 18.12a51.65 51.65 0 0 0-1 20.11c1 5.66 2.54 7.36 1.13 10.62s-1.42 4.53-1.28 6a7.61 7.61 0 0 1 2.13-1.7s-2.41 3.54-1 7.08a16 16 0 0 1 1.55-2.13A12.2 12.2 0 0 0 42.35 96c.57-.71.24-1.13.67-1.69 1.42 2.26 9.77 7.31 23.22 5.19 14.35-2.27 16.68-1 20.77-1.89 5.1-1.18 8.33-4.61 10.77-6.46Z" transform="translate(-22.99 -16.89)"/><path d="M97.78 91.15a18.69 18.69 0 0 0 6.7-9 2.35 2.35 0 0 1-.14 1.84s2.83-1.13 2.27-7.36c1 .28 1.12 1.13 1.55 2.12a8.9 8.9 0 0 0-.57-8.36c2 1 2.27 1.85 2.41 2.41.57-2.26 1.28-4.24-3.82-9.2a3.75 3.75 0 0 1 3.39.85 6.65 6.65 0 0 0-3.68-3.54c-2.69-1.28-3.68-3.68-6.36-12.18S87.77 29.74 75.87 28 64.69 29.74 60 26.2s-1.7-7.22 1-7.79 2.13 3.54-.42 3a2.21 2.21 0 0 0 3.68-1.14c.43-2.12-.85-3.68-5-3s-4.53 5.95-3.82 7.64 1.84 4.11-.85 5.53-14.3 11.18-16 18.12a51.65 51.65 0 0 0-1 20.11c1 5.66 2.54 7.36 1.13 10.62s-1.42 4.53-1.28 6a7.61 7.61 0 0 1 2.13-1.7s-2.41 3.54-1 7.08a16 16 0 0 1 1.55-2.13A12.2 12.2 0 0 0 42.35 96c.57-.71.24-1.13.67-1.69 1.42 2.26 9.77 7.31 23.22 5.19 14.35-2.27 16.68-1 20.77-1.89 5.1-1.18 8.33-4.61 10.77-6.46Z" transform="translate(-22.99 -16.89)" style="fill:url(#radial-gradient-13)"/><path class="cls-24" d="M97.78 91.15a18.69 18.69 0 0 0 6.7-9 2.35 2.35 0 0 1-.14 1.84s2.83-1.13 2.27-7.36c1 .28 1.12 1.13 1.55 2.12a8.9 8.9 0 0 0-.57-8.36c2 1 2.27 1.85 2.41 2.41.57-2.26 1.28-4.24-3.82-9.2a3.75 3.75 0 0 1 3.39.85c-.7-1.14-1.69-1.46-4.38-2.74S100.8 58.6 98.1 50.1 86.21 31.25 74.32 29.55s-9.78 1.28-14.45-2.26S58.31 19 61 18.41s2.13 3.54-.42 3a2.21 2.21 0 0 0 3.68-1.14c.43-2.12-.85-3.68-5-3s-4.53 5.95-3.82 7.64 1.84 4.11-.85 5.53-14.3 11.18-16 18.12a51.65 51.65 0 0 0-1 20.11c1 5.66 2.54 7.36 1.13 10.62s-1.42 4.53-1.28 6a7.61 7.61 0 0 1 2.13-1.7s-2.41 3.54-1 7.08a16 16 0 0 1 1.55-2.13A12.2 12.2 0 0 0 42.35 96c.57-.71.24-1.13.67-1.69 1.42 2.26 9.77 7.31 23.22 5.19 14.35-2.27 16.68-1 20.77-1.89 5.1-1.18 8.33-4.61 10.77-6.46Z" transform="translate(-22.99 -16.89)"/><path d="M104.42 83.81a1 1 0 0 1-.08.16 2.58 2.58 0 0 0 .74-.56Z" transform="translate(-22.99 -16.89)" style="fill:url(#radial-gradient-15)"/><path d="M93.43 92.84c-4.09.92-5.66-1.12-20 1.14-13.43 2.12-21.82-2.92-23.24-5.2-.42.58-.09 1-.66 1.7A12.16 12.16 0 0 1 47.36 83a16.82 16.82 0 0 0-1.56 2.12c-1.41-3.54 1-7.08 1-7.08a7.85 7.85 0 0 0-2.13 1.7c-.14-1.41-.14-2.69 1.28-5.94s-.15-5-1.14-10.63a51.8 51.8 0 0 1 1-20.1c1.69-6.91 8.11-11.07 10.8-12.53s.26-6-.38-7.74c-.51-1.4.32-3.28 1.76-5.09-2.87 1.48-3.14 5.72-2.51 7.21.71 1.7 1.84 4.11-.85 5.53s-14.3 11.18-16 18.12a51.65 51.65 0 0 0-1 20.11c1 5.66 2.54 7.36 1.13 10.62s-1.42 4.53-1.28 6a7.61 7.61 0 0 1 2.13-1.7s-2.41 3.54-1 7.08a16 16 0 0 1 1.55-2.13A12.2 12.2 0 0 0 42.35 96c.57-.71.24-1.13.67-1.69 1.42 2.26 9.77 7.31 23.22 5.19 14.35-2.27 16.68-1 20.77-1.89 5.1-1.14 8.33-4.59 10.77-6.42a18.54 18.54 0 0 0 5.64-6.62c-2.42 1.93-5.03 7.18-9.99 8.27Z" transform="translate(-22.99 -16.89)" style="fill:url(#radial-gradient-16)"/><path class="cls-4" d="M60 100.17c-9.52 0-15.4-3.65-16.91-5.52A2.33 2.33 0 0 0 43 95a2 2 0 0 1-.44 1.07l-.17.2-.16-.21a12.54 12.54 0 0 1-2.24-7 10.11 10.11 0 0 0-.72 1c-.15.24-.3.46-.44.65l-.22.3-.14-.35a8 8 0 0 1 .53-6.49 7.2 7.2 0 0 0-1.37 1.22l-.32.36v-.48c-.14-1.47-.14-2.76 1.29-6 .93-2.14.54-3.61-.12-6-.31-1.17-.7-2.62-1-4.46a52.17 52.17 0 0 1 1-20.2c1.72-7 13.35-16.8 16.11-18.26 2.42-1.28 1.54-3.38.83-5.07l-.14-.28a7.29 7.29 0 0 1 .58-5.46 4.71 4.71 0 0 1 3.41-2.48c2.23-.38 3.8-.15 4.64.72a2.66 2.66 0 0 1 .55 2.5 2.19 2.19 0 0 1-1.52 1.78 2.67 2.67 0 0 1-2.51-.54l-.51-.52.71.16a1.49 1.49 0 0 0 1.64-.59 1.51 1.51 0 0 0 .11-1.6 1.17 1.17 0 0 0-1.33-.37 4.22 4.22 0 0 0-3.2 3c-.24 1 0 2.67 2.29 4.43s3.35 1.76 5.52 1.52a36.66 36.66 0 0 1 10.24.28c11.73 1.67 21 12 23.83 20.82 2.7 8.52 3.66 10.82 6.25 12.05a6.43 6.43 0 0 1 3.47 3.1l.3.52 1 1.58-1.31-1.32a3.5 3.5 0 0 0-2.8-.85c4.7 4.67 4.18 6.72 3.63 8.89l-.26 1-.2-.81c-.1-.4-.27-1.09-1.65-1.92a9.12 9.12 0 0 1 .2 7.9l-.19.44-.19-.44c-.08-.18-.15-.36-.21-.52-.24-.63-.43-1.12-.92-1.37.45 6-2.3 7.19-2.42 7.24l-.7.27a18.28 18.28 0 0 1-5.82 6.87c-.48.37-1 .81-1.56 1.27-.9.74-1.91 1.59-3.07 2.38l-.28-.32c1.13-.78 2.14-1.62 3-2.36.56-.46 1.09-.9 1.58-1.27a18.33 18.33 0 0 0 6.64-8.92l.24-.68.16.71a3.52 3.52 0 0 1 .06 1.34c.74-.66 2-2.46 1.64-6.8v-.31l.3.08c.92.27 1.19.95 1.5 1.75a8.68 8.68 0 0 0-.75-7.68l-.4-.64.67.34a4.89 4.89 0 0 1 2.36 1.89c.48-2 .57-3.94-3.94-8.33l-.28-.28.39-.08a4.39 4.39 0 0 1 2.76.32 6 6 0 0 0-3.1-2.61c-2.74-1.3-3.74-3.64-6.48-12.3S87.39 29.9 75.84 28.25A36.35 36.35 0 0 0 65.7 28c-2.22.24-3.23.35-5.82-1.6s-2.71-3.69-2.44-4.86A4.67 4.67 0 0 1 61 18.21a1.55 1.55 0 0 1 1.77.54 1.91 1.91 0 0 1-.11 2.07 1.85 1.85 0 0 1-1.23.8 2.36 2.36 0 0 0 1.42 0 1.78 1.78 0 0 0 1.25-1.45 2.37 2.37 0 0 0-.46-2.13c-.73-.74-2.21-.95-4.26-.59a4.2 4.2 0 0 0-3.1 2.26 6.85 6.85 0 0 0-.57 5.09l.08.19c.7 1.65 1.74 4.15-1 5.61s-14.21 11.09-15.9 18a51.64 51.64 0 0 0-1 20c.33 1.83.71 3.27 1 4.44.67 2.51 1.08 4 .09 6.3-1.23 2.84-1.38 4.14-1.3 5.37a7.93 7.93 0 0 1 1.86-1.39l.73-.36-.46.67s-2.16 3.24-1.1 6.5l.18-.29A9.45 9.45 0 0 1 40 88.35l.41-.41-.05.59a12 12 0 0 0 2 7.07 1.67 1.67 0 0 0 .19-.63 1.61 1.61 0 0 1 .31-.83l.19-.25.16.26c1.27 2 9.41 7.25 23 5.1 4.09-.64 7.59-1.07 10.69-1.25v.43c-3.09.22-6.58.63-10.65 1.27a40.16 40.16 0 0 1-6.25.47ZM104.37 83c-.21.5-.43 1-.65 1.42l.45-.59a1.75 1.75 0 0 0 .2-.83Z" transform="translate(-22.99 -16.89)"/><path class="cls-28" d="M89.55 40a6.89 6.89 0 0 0-6.45-3.13c2.73-2 4.88-.94 6.45 3.13Z" transform="translate(-22.99 -16.89)"/><path class="cls-29" d="M89.75 39.93c-.9-2.35-2-3.74-3.34-4.13a3.94 3.94 0 0 0-3.44.89.22.22 0 0 0-.08.25.24.24 0 0 0 .22.15 6.66 6.66 0 0 1 6.26 3 .21.21 0 0 0 .28.08.21.21 0 0 0 .1-.24Zm0 0a7.09 7.09 0 0 0-6.64-3.23.21.21 0 0 1 .21.15.22.22 0 0 1-.07.25 3.48 3.48 0 0 1 3-.83c1.18.35 2.22 1.65 3.06 3.86a.22.22 0 0 1 .39-.2Z" transform="translate(-22.99 -16.89)"/><path class="cls-30" d="M58.38 65.15C59.32 66.7 61 67.5 61 69.26c4.13-2.36 8.73-4.68 12.86-3.43a8.67 8.67 0 0 0 .75-10.56c-2.89-4.75-8.36-6.73-12.85-4a10.34 10.34 0 0 0-3.38 13.88Z" transform="translate(-22.99 -16.89)"/><path class="cls-31" d="M58.54 55.79a4.15 4.15 0 0 1-3.43-1.74l.31-.28c.27.4 1.77 2.34 4.91 1.2l.15.4a5.74 5.74 0 0 1-1.94.42ZM57.45 57.42a7.26 7.26 0 0 1-4.74-2l.31-.29s2.83 2.83 6.23 1.58l.15.4a5.83 5.83 0 0 1-1.95.31ZM56.14 59.05a5.89 5.89 0 0 1-4.3-1.72l.3-.29a6 6 0 0 0 6.54 1.12l.15.4a7.84 7.84 0 0 1-2.69.49Z" transform="translate(-22.99 -16.89)"/><path class="cls-32" d="M60.09 64.33a9.7 9.7 0 0 0 3.42 3.38c3.86-2.2 7.42-3.06 11.28-1.89a9.4 9.4 0 0 0 .5-10.72 8.91 8.91 0 1 0-15.2 9.23Z" transform="translate(-22.99 -16.89)"/><path class="cls-33" d="M75 66a9.71 9.71 0 0 0 .52-11.08 9.22 9.22 0 1 0-15.74 9.55 10.13 10.13 0 0 0 3.68 3.59l.31-.56a9.49 9.49 0 0 1-3.45-3.36A8.59 8.59 0 1 1 75 55.27a9.08 9.08 0 0 1-.47 10.35Z" transform="translate(-22.99 -16.89)"/><path d="M62.18 63.13A5.5 5.5 0 1 0 64 55.57a5.51 5.51 0 0 0-1.82 7.56Z" transform="translate(-22.99 -16.89)" style="fill:url(#radial-gradient-17)"/><path class="cls-35" d="M61.91 63.29a5.82 5.82 0 1 1 8 2 5.83 5.83 0 0 1-8-2Zm.4-.24a5.35 5.35 0 1 0 1.79-7.34 5.36 5.36 0 0 0-1.79 7.34Z" transform="translate(-22.99 -16.89)"/><path class="cls-36" d="M63.91 62.2A3.33 3.33 0 1 0 65 57.61a3.32 3.32 0 0 0-1.09 4.59Z" transform="translate(-22.99 -16.89)"/><path class="cls-32" d="M63 59.71a1.42 1.42 0 1 0 .47-2 1.42 1.42 0 0 0-.47 2ZM70.61 62.4a.63.63 0 1 0 1.07-.65.62.62 0 0 0-.86-.2.63.63 0 0 0-.21.85Z" transform="translate(-22.99 -16.89)"/><path class="cls-33" d="m76.15 66.18.29-.4c-.08 0-7.12-2.7-15.42 3.48l.11.34c8.13-5.88 14.95-3.45 15.02-3.42Z" transform="translate(-22.99 -16.89)"/><path class="cls-31" d="M92.92 48.59v-.42a3.23 3.23 0 0 0 3.24-2.55l.41.09-.2-.07h.21a3.63 3.63 0 0 1-3.66 2.95ZM94.32 49.44v-.41c2.92-.24 4.06-3.18 4.11-3.31l.4.15-.2-.07.2.07c-.1.13-1.34 3.33-4.51 3.57ZM95.25 50.37v-.42a4.9 4.9 0 0 0 4.48-3.05l.4.13a5.34 5.34 0 0 1-4.88 3.34Z" transform="translate(-22.99 -16.89)"/><path class="cls-30" d="M82.85 57.27C85.1 61 89.6 62.36 92.9 60.36s4.16-6.64 1.91-10.36-6.75-5.09-10-3.08-4.21 6.64-1.96 10.35Z" transform="translate(-22.99 -16.89)"/><path class="cls-32" d="M84 56.88C86.22 60.59 90.72 62 94 60s4.15-6.63 1.9-10.34-6.74-5.09-10-3.08-4.18 6.59-1.9 10.3Z" transform="translate(-22.99 -16.89)"/><path class="cls-33" d="M83.69 57.05c-2.3-3.81-1.42-8.57 2-10.63s8-.64 10.35 3.16 1.42 8.57-2 10.62-8.04.65-10.35-3.15Zm.55-.33c2.15 3.54 6.46 4.87 9.61 3s4-6.35 1.81-9.9-6.47-4.87-9.62-3-3.96 6.35-1.8 9.9Z" transform="translate(-22.99 -16.89)"/><path d="M84.63 56.83a4.67 4.67 0 1 0 1.42-6.64 4.8 4.8 0 0 0-1.42 6.64Z" transform="translate(-22.99 -16.89)" style="fill:url(#radial-gradient-18)"/><path class="cls-35" d="M84.45 57a4.88 4.88 0 1 1 6.84 1.87A5 5 0 0 1 84.45 57Zm.32-.2a4.5 4.5 0 1 0 1.37-6.41 4.66 4.66 0 0 0-1.37 6.36Z" transform="translate(-22.99 -16.89)"/><path class="cls-36" d="M86.08 56.05a2.78 2.78 0 1 0 .92-3.83 2.78 2.78 0 0 0-.92 3.83Z" transform="translate(-22.99 -16.89)"/><path class="cls-32" d="M84.94 54a1.31 1.31 0 0 0 2.24-1.36 1.32 1.32 0 0 0-1.8-.44 1.31 1.31 0 0 0-.44 1.8ZM91.6 57.26a.52.52 0 0 0 .9-.54.53.53 0 0 0-.72-.17.51.51 0 0 0-.18.71Z" transform="translate(-22.99 -16.89)"/><path d="M86.83 61.59s4.72-4 10-2.83c.29 3.24-7.74 5.57-10 2.83Z" transform="translate(-22.99 -16.89)" style="fill:url(#radial-gradient-19)"/><path class="cls-4" d="m87 61.76-.27-.33s4.86-4 10.19-2.87l-.09.41c-5.17-1.1-9.83 2.75-9.83 2.79Z" transform="translate(-22.99 -16.89)"/><path d="M82.43 67.4a16.26 16.26 0 0 0 1 4.49c.71.84 5.29 3.12 11.06-.32.51-.58-1.29-3.22-7.14-7.38-2.07-.31-5.45 2.14-4.92 3.21Z" transform="translate(-22.99 -16.89)" style="fill:url(#linear-gradient-9)"/><path d="M84.08 67.5a4.06 4.06 0 0 0 .5 2.79c.71.84 4.63 3.69 10 1.28.51-.58-1.29-3.22-7.14-7.38-2.16-.31-3.88 2.23-3.36 3.31Z" transform="translate(-22.99 -16.89)" style="fill:url(#linear-gradient-10)"/><path d="M94.58 71.65c-5.77 3.43-10.38 1.23-11.16.29a16.26 16.26 0 0 1-1.06-4.5c-.32-.7.73-1.75 1.85-2.43a5.22 5.22 0 0 1 3.22-.89c5.18 3.69 7.15 6.13 7.27 7.11a.52.52 0 0 1-.11.4Zm-10.3-6.5c-1.26.76-2 1.71-1.78 2.22a16.17 16.17 0 0 0 1 4.44c.76.88 5.36 3 10.93-.33a.37.37 0 0 0 0-.27c-.11-1-2.37-3.56-7.17-7a5.06 5.06 0 0 0-2.98.94Z" transform="translate(-22.99 -16.89)" style="fill:url(#linear-gradient-11)"/><path d="M93.84 62.08s-4.56 1.6-5.34 3.27c-1.07 0-1.16-.06-2.23-1.48 1.32-.67 5.08-4.14 7.57-1.79Z" transform="translate(-22.99 -16.89)" style="fill:#c98c41"/><path d="M88.42 65.58c-1 0-1.14-.2-1.91-1.25l-.31-.4-.06-.09h.1c.24-.13.57-.35 1-.62s.77-.52 1.21-.78c1.53-.94 3.77-2 5.48-.38l.1.09h-.13a23.26 23.26 0 0 0-3.46 1.66 4.83 4.83 0 0 0-1.91 1.71Zm5.25-3.53c-1.6-1.4-3.71-.39-5.17.49-.43.26-.83.53-1.19.77s-.67.46-.91.59l.24.33c.75 1 .86 1.16 1.73 1.18a5.27 5.27 0 0 1 1.95-1.74 25.81 25.81 0 0 1 3.35-1.62Z" transform="translate(-22.99 -16.89)" style="fill:url(#linear-gradient-12)"/><path d="M82.43 67.4s6.13 5.07 12.11 4.17c.56-.61.13-2.74-7.14-7.38-.6-.1-5.74 1.41-4.97 3.21Z" transform="translate(-22.99 -16.89)" style="fill:#efbe67"/><path d="M94.55 71.65c-6 .9-12.12-4.13-12.18-4.18-.28-.66.15-1.36 1.24-2a9.65 9.65 0 0 1 3.82-1.31c6.14 3.9 7.23 5.93 7.35 6.79a.81.81 0 0 1-.19.72Zm-10.88-6.08c-.69.42-1.46 1.07-1.17 1.78.35.29 6.28 5 12 4.14a.75.75 0 0 0 .12-.56c-.11-.83-1.19-2.79-7.26-6.66a10.12 10.12 0 0 0-3.69 1.3Z" transform="translate(-22.99 -16.89)" style="fill:url(#linear-gradient-13)"/><path d="M83 66.67s5.52 4.6 10.17 4c.43-.47-.65-2.2-6.43-6.09-.49-.09-4.4.63-3.74 2.09Z" transform="translate(-22.99 -16.89)" style="fill:url(#linear-gradient-14)"/><path d="M87.91 67.57c1.64.81 2 2.44 1.7 2.71-1.12-.12-3.92-1.68-5.2-2.52.31-.33 1.59-1.14 3.5-.19Z" transform="translate(-22.99 -16.89)" style="fill:#ce665a"/><path d="M93.16 70.77c-4.64.59-10.18-4-10.24-4-.15-.34-.16-.86.66-1.35a6.93 6.93 0 0 1 3.17-.85c5.53 3.71 6.48 5.25 6.55 5.84a.44.44 0 0 1-.1.38Zm-9.5-5.27c-.57.34-.77.72-.61 1.12.33.27 5.62 4.52 10 4a.36.36 0 0 0 .05-.22c-.07-.44-.81-1.9-6.47-5.71a7.16 7.16 0 0 0-2.97.81Z" transform="translate(-22.99 -16.89)" style="fill:url(#linear-gradient-15)"/><path d="M82.43 67.4a4.37 4.37 0 0 1-.77-4.86c1.24-3 9.28-4.23 12.18-.46-.16.29-1.19.31-2.1.6a30 30 0 0 0-9.31 4.72Z" transform="translate(-22.99 -16.89)" style="fill:url(#linear-gradient-16)"/><path d="M84.12 64.28c-.6-.07-1.87-.46-1.6-1.82.56-2.85 8.42-4.15 11.32-.38-.16.29-1.91.11-2.82.41-2.11.68-4.65 2.02-6.9 1.79Z" transform="translate(-22.99 -16.89)" style="fill:url(#linear-gradient-17)"/><path d="M86.42 61.9a.63.63 0 0 1-.61-.76c.28-1.13 3.45-1.54 4.55 0-.07.11-.77 0-1.14.12a7.44 7.44 0 0 1-2.8.64Z" transform="translate(-22.99 -16.89)" style="fill:url(#linear-gradient-18)"/><path d="M92.85 62.51a8 8 0 0 0-1.08.26 33.78 33.78 0 0 0-7 3.11 19.87 19.87 0 0 0-2.26 1.59h-.12a4.52 4.52 0 0 1-.77-5 3.63 3.63 0 0 1 1.55-1.63c2.68-1.64 8.35-2 10.77 1.15a.39.39 0 0 1-.14.15 3.66 3.66 0 0 1-.95.37ZM83.23 61a3.6 3.6 0 0 0-1.49 1.56 4.36 4.36 0 0 0 .69 4.72 20.86 20.86 0 0 1 2.21-1.55 34.77 34.77 0 0 1 7.07-3.14 8.4 8.4 0 0 1 1.11-.26 2.65 2.65 0 0 0 .91-.26c-2.38-3.02-7.88-2.65-10.5-1.07Z" transform="translate(-22.99 -16.89)" style="fill:url(#linear-gradient-19)"/><path d="M82.13 71.33a2.05 2.05 0 0 0 .38-.49c.31-.49 1.1-3-1.62-5.75l-.52-.43c3.33 4.2 1.77 6.63 1.76 6.67Z" transform="translate(-22.99 -16.89)" style="fill:url(#linear-gradient-20)"/><path class="cls-28" d="M55 49a7.62 7.62 0 0 1 4.69-6.46C56 42.05 54.43 44.19 55 49Z" transform="translate(-22.99 -16.89)"/><path class="cls-29" d="M55.25 49c-.32-2.63 0-4.45 1-5.41a3.93 3.93 0 0 1 3.43-.78.24.24 0 0 1-.21-.2.24.24 0 0 1 .13-.26A7.89 7.89 0 0 0 54.77 49a.24.24 0 0 1 .23-.22.25.25 0 0 1 .25.22Zm0 .05a7.43 7.43 0 0 1 4.56-6.26.25.25 0 0 0 .13-.26.23.23 0 0 0-.21-.2 4.37 4.37 0 0 0-3.83.92c-1.1 1.08-1.47 3-1.13 5.81a.25.25 0 0 0 .24.22.26.26 0 0 0 .24-.28Z" transform="translate(-22.99 -16.89)"/><path class="cls-54" d="M69.79 72.15c.61 1.85-1.29 4.14-4.23 5.09s-5.81.21-6.41-1.65 1.29-4.13 4.23-5.09 5.81-.21 6.41 1.65ZM103.23 63.48c.17 1.4-1.13 2.7-2.9 2.91s-3.33-.75-3.5-2.15 1.14-2.69 2.9-2.89 3.34.74 3.5 2.13Z" transform="translate(-22.99 -16.89)"/><path class="cls-55" d="M92.34 95.42s3.53-9.59 9.59-8.93c4.15.46 2.22 9.86 1.1 11.24.86 1.61 2.43 11.24-2.87 12.79s-8.26-7-8.26-7l-6.06 2.1s-1.1 8.81-7.27 11.24-7.39-9.81-2.76-14C69.2 99.17 70.83 91.28 75 90c6.28-1.87 10 6.5 10 6.5s4-.64 7.34-1.08Z" transform="translate(-22.99 -16.89)"/><path class="cls-22" d="M92.34 95.42s3.53-9.59 9.59-8.93c4.15.46 2.22 9.86 1.1 11.24.86 1.61 2.93 9.75-2.54 10.47-3.3.44-6.39-8-6.39-8l-8.1 4.04s-1 7.63-7 10.24c-3.09 1.33-5.4-6.83-.77-11-6.72-3.76-7.4-12.2-3.23-13.48 6.28-1.87 10 6.5 10 6.5s4-.64 7.34-1.08Z" transform="translate(-22.99 -16.89)"/><path class="cls-23" d="M77 117.44c-1.58 0-2.85-1.06-3.6-3-1.27-3.31-.74-8.76 2-11.5a8.16 8.16 0 0 1-4.26-8A5.85 5.85 0 0 1 75 89.81a6.8 6.8 0 0 1 1.88-.28c4.88 0 7.84 5.7 8.34 6.75.77-.13 4.11-.67 7-1.06.44-1.14 3.67-9 9.15-9a4.4 4.4 0 0 1 .62 0 2.69 2.69 0 0 1 2.25 1.84c1.15 2.81 0 8.29-.92 9.64.62 1.36 1.54 6.52.1 10a4.73 4.73 0 0 1-4.49 3.2c-4.21 0-6.67-5.86-7.13-7.07l-5.72 2c-.18 1.14-1.6 9-7.39 11.28a4.41 4.41 0 0 1-1.69.33ZM76.86 90a6.24 6.24 0 0 0-1.75.26A5.49 5.49 0 0 0 71.63 95a7.79 7.79 0 0 0 4.29 7.69l.26.15-.22.21c-2.81 2.54-3.36 8-2.11 11.21.9 2.32 2.58 3.22 4.63 2.41 6-2.35 7.13-11 7.14-11.06v-.13l6.4-2.22.07.21c0 .07 2.5 7 6.78 7a4.59 4.59 0 0 0 1.21-.17 4.43 4.43 0 0 0 2.87-2.76c1.44-3.43.45-8.62-.14-9.71l-.06-.13.09-.12c.83-1 2-6.58.92-9.3a2.27 2.27 0 0 0-1.88-1.58 5.44 5.44 0 0 0-.57 0c-5.47 0-8.75 8.73-8.79 8.82v.12h-.13c-3.27.44-7.23 1.09-7.27 1.1h-.16l-.08-.16c-.04-.03-3.05-6.58-8.02-6.58Z" transform="translate(-22.99 -16.89)"/><path class="cls-55" d="M84.91 96.78s3.67-3.77 8-1.47c1.18 1.7 1.49 8.43 0 10.93-1.62 1.66-5.65 2.16-7 .83.19-2.42-.03-8.22-1-10.29Z" transform="translate(-22.99 -16.89)"/><path class="cls-22" d="M84.91 96.78s3.67-3.77 8-1.47c1.18 1.7 1.47 6.76 0 9.26a4.11 4.11 0 0 1-5.62.33c.22-2.43-1.41-6.05-2.38-8.12Z" transform="translate(-22.99 -16.89)"/><path class="cls-23" d="M88.4 108.05a3.91 3.91 0 0 1-2.69-.82l-.07-.08v-.1c.22-2.33 0-8.11-.94-10.17l-.07-.14.11-.11A8.07 8.07 0 0 1 90 94.35a6.26 6.26 0 0 1 3 .77l.07.06c1.25 1.81 1.5 8.67.06 11.17v.05a6.94 6.94 0 0 1-4.73 1.65ZM86.09 107a3.64 3.64 0 0 0 2.31.63 6.61 6.61 0 0 0 4.33-1.5c1.32-2.35 1.12-8.89 0-10.63a5.74 5.74 0 0 0-2.73-.71 7.59 7.59 0 0 0-4.82 2c.93 2.21 1.12 7.8.91 10.21ZM95 99a3.77 3.77 0 0 1-.71 0l.08-.43a6.94 6.94 0 0 0 4.37-1.07l.22.37A7.61 7.61 0 0 1 95 99Z" transform="translate(-22.99 -16.89)"/><path class="cls-23" d="M81.56 102.38h-.69v-.44c3.14.21 4.32-1.12 4.33-1.13l.34.28c-.02.04-1.12 1.29-3.98 1.29ZM77.11 103.89a7.29 7.29 0 0 1-1.43-.8l.26-.36a7.09 7.09 0 0 0 1.33.75Z" transform="translate(-22.99 -16.89)"/></svg>