<svg id="Layer_1" data-name="Layer 1" xmlns="http://www.w3.org/2000/svg" width="78" height="99" viewBox="0 0 77.02 98.79"><defs><style>.cls-1{fill:#e6923c}.cls-2{fill:#c1722b}.cls-3{fill:#663508}.cls-5{fill:#e8e6e6}.cls-6{fill:#c6c1c1}.cls-7{fill:#77380a}.cls-8{fill:#757575}.cls-9{fill:#faa8a8}.cls-10{fill:#e59291}.cls-11{fill:#f4b37d}.cls-13{fill:#b75858}.cls-16{fill:#bab9b9}.cls-17{fill:#5da1de}.cls-19{fill:#202121}.cls-20{fill:#5d6ade}.cls-21{opacity:.83}.cls-22{fill:#fcfcfc}</style></defs><g id="_Группа_" data-name="&lt;Группа&gt;"><g id="_Группа_2" data-name="&lt;Группа&gt;"><g id="_Группа_3" data-name="&lt;Группа&gt;"><g id="_Группа_4" data-name="&lt;Группа&gt;"><path id="_Контур_" data-name="&lt;Контур&gt;" class="cls-1" d="M383.15 376.56s10.12-5.22 5.19-21.66c-.77-.81.35-1.22 2.17 3.36s5.79 18.8-5.06 23.47Z" transform="translate(-315.82 -304.94)"/><path id="_Контур_2" data-name="&lt;Контур&gt;" class="cls-2" d="M390.51 358.23a11.27 11.27 0 0 0-2-3.64 34.42 34.42 0 0 1 2.71 9.28 16.93 16.93 0 0 1-2.33 11.85c-1 1.84-3 2.35-4.81 3.16.25.57 1 2 1.37 2.82 10.84-4.7 6.88-18.88 5.06-23.47Z" transform="translate(-315.82 -304.94)"/><path id="_Контур_3" data-name="&lt;Контур&gt;" class="cls-3" d="M390.23 372.23c.47-.38 2.53-1.56 1.75-2.53s-2.05-1.29-2.77-2a16 16 0 0 1-1.37 3.74h.06a1.63 1.63 0 0 0 2.33.79Z" transform="translate(-315.82 -304.94)"/><path id="_Контур_4" data-name="&lt;Контур&gt;" d="M392 369.7a3.22 3.22 0 0 0-.7-.68 15.81 15.81 0 0 1-.61 2.89c.82-.59 1.95-1.39 1.31-2.21Z" transform="translate(-315.82 -304.94)" style="fill:#5b2c06"/><path id="_Контур_5" data-name="&lt;Контур&gt;" class="cls-5" d="M388.33 354.88a29.64 29.64 0 0 1 1.34 7.63 3.33 3.33 0 0 0 2.2.08 33.11 33.11 0 0 0-1.36-4.36c-1.83-4.58-2.94-4.16-2.18-3.35Z" transform="translate(-315.82 -304.94)"/><path id="_Контур_6" data-name="&lt;Контур&gt;" class="cls-6" d="M390.51 358.23a11.27 11.27 0 0 0-2-3.64 33 33 0 0 1 2.51 8.14 3.59 3.59 0 0 0 .86-.14 33.11 33.11 0 0 0-1.37-4.36Z" transform="translate(-315.82 -304.94)"/><path id="_Составной_контур_" data-name="&lt;Составной контур&gt;" class="cls-7" d="m385.39 381.83-2.39-5.34h.08a12.39 12.39 0 0 0 4.41-4.64c1.73-3 3.26-8.44.74-16.88-.21-.22-.3-.43-.24-.56a.17.17 0 0 1 .16-.1c.3 0 1.2.84 2.43 3.93.74 1.87 6.91 18.42-5.12 23.59Zm-2.12-5.25 2.22 5c11.75-5.14 5.66-21.45 4.93-23.3-1.2-3-2-3.73-2.23-3.8a.74.74 0 0 0 .21.34c2.55 8.52 1 14-.76 17.07a12.73 12.73 0 0 1-4.37 4.69Z" transform="translate(-315.82 -304.94)"/></g><g id="_Группа_5" data-name="&lt;Группа&gt;"><g id="_Группа_6" data-name="&lt;Группа&gt;"><path id="_Контур_7" data-name="&lt;Контур&gt;" class="cls-5" d="M344.8 392c-4-1.07-3.33-5.69 1.81-8 3.48-1.54 7.39.68 8.42 4.41.44 2.56-4.87 5.13-5.88 4.29-3.41 1.3-4.35-.7-4.35-.7Z" transform="translate(-315.82 -304.94)"/><path id="_Контур_8" data-name="&lt;Контур&gt;" class="cls-6" d="M355 388.44a7.45 7.45 0 0 0-.52-1.34c-.49 1.12-.79 2-1.86 2.32-.83.18-2.93 1.15-3.14-.17-1.35.59-4.18.47-3.15-1-2.72.81-3.54-.47-3.41-1.31-1.39 2.1-.78 4.37 1.85 5.08 0 0 .94 2 4.35.75 1.04.8 6.35-1.77 5.88-4.33Z" transform="translate(-315.82 -304.94)"/><path id="_Составной_контур_2" data-name="&lt;Составной контур&gt;" class="cls-8" d="M347.13 393.27a2.66 2.66 0 0 1-2.4-1.17 3.17 3.17 0 0 1-2.59-2.76c-.15-2 1.59-4.11 4.43-5.36a5.83 5.83 0 0 1 4.93.09 6.8 6.8 0 0 1 3.63 4.39c.24 1.42-1.2 2.8-2.64 3.63-1.23.72-2.75 1.2-3.36.79a6 6 0 0 1-2 .39Zm1.8-9.6a5.69 5.69 0 0 0-2.28.48c-2.77 1.22-4.46 3.25-4.32 5.18a3 3 0 0 0 2.5 2.59c0 .07.95 1.9 4.23.7h.05c.43.36 1.83 0 3.18-.76s2.77-2.12 2.55-3.43a6.64 6.64 0 0 0-3.52-4.26 5.8 5.8 0 0 0-2.39-.5Z" transform="translate(-315.82 -304.94)"/></g><g id="_Группа_7" data-name="&lt;Группа&gt;"><path id="_Контур_9" data-name="&lt;Контур&gt;" class="cls-8" d="M344.83 392.25a3 3 0 0 1-.12-2.76 2.18 2.18 0 0 1 1.65-1.28s-.83.11-1.48 1.37a2.78 2.78 0 0 0 .12 2.57Z" transform="translate(-315.82 -304.94)"/></g><g id="_Группа_8" data-name="&lt;Группа&gt;"><path id="_Контур_10" data-name="&lt;Контур&gt;" class="cls-8" d="M349.41 393a1.76 1.76 0 0 1-1.06-1.51 2.68 2.68 0 0 1 .24-1.43 2 2 0 0 1 .92-.81 2.39 2.39 0 0 0-1 2.21 1.56 1.56 0 0 0 .93 1.36Z" transform="translate(-315.82 -304.94)"/></g></g><g id="_Группа_9" data-name="&lt;Группа&gt;"><path id="_Контур_11" data-name="&lt;Контур&gt;" class="cls-1" d="M337.66 354.74c-3.37 4.92-6.35 11.4-3.63 20.46s-1.13 13-1.06 15.41c4.82 2.59 11.75 7 12.46-11.78.13-15.67-7.77-24.09-7.77-24.09Z" transform="translate(-315.82 -304.94)"/><path id="_Контур_12" data-name="&lt;Контур&gt;" class="cls-3" d="M335.46 389.12c1.55-1 .86-3.23 1-3.66s.6-.42 1-1.15-.9-2.37-2.26-3a1.26 1.26 0 0 1-.26-.13 20.37 20.37 0 0 1-1.69 7.76 2.35 2.35 0 0 0 2.21.18Z" transform="translate(-315.82 -304.94)"/><path id="_Контур_13" data-name="&lt;Контур&gt;" class="cls-2" d="M342.26 382.13c1 3.4-1.28 7.76-4.21 10.49 4 .93 6.94-2.19 7.38-13.79a41.48 41.48 0 0 0-2.35-14.37c-3.74 4.54-2.28 12-.82 17.67Z" transform="translate(-315.82 -304.94)"/><path id="_Составной_контур_3" data-name="&lt;Составной контур&gt;" class="cls-7" d="M339.29 393.09c-2 0-4.07-1.15-5.87-2.12l-.49-.27h-.05v-.05a7.22 7.22 0 0 1 .65-2.54 18.11 18.11 0 0 0 .41-12.85c-2.81-9.38.47-15.9 3.64-20.54l.07-.1.08.09c.08.08 7.92 8.62 7.8 24.15-.3 7.81-1.68 12.31-4.21 13.75a4.06 4.06 0 0 1-2.03.48Zm-6.22-2.53c.15.07.3.16.45.24 2.53 1.37 5.39 2.93 7.7 1.61 2.48-1.41 3.82-5.85 4.11-13.58.12-14.6-6.82-23-7.66-23.93-3.13 4.6-6.31 11-3.54 20.28a18.25 18.25 0 0 1-.42 13 7.8 7.8 0 0 0-.64 2.38Z" transform="translate(-315.82 -304.94)"/></g><g id="_Группа_10" data-name="&lt;Группа&gt;"><g id="_Группа_11" data-name="&lt;Группа&gt;"><path id="_Контур_14" data-name="&lt;Контур&gt;" class="cls-5" d="M329.37 397.79c-3.24-1-2.16-6.07 1.09-8.33 3.8-2.65 4.81-2.18 8.45-1.54s4.65 2.15 4.06 4.51c-.9 3.57-3.41 6.28-6.93 5.89a6.08 6.08 0 0 1-6.67-.53Z" transform="translate(-315.82 -304.94)"/><path id="_Контур_15" data-name="&lt;Контур&gt;" class="cls-6" d="M341.17 388.55c1.62 3.05-4.13 8.95-5.07 5.73-1.66 1.38-5.49 1.78-4.79-1.23-1.35.76-3.54.19-2.45-2.05-1.9 2.48-2.11 6 .51 6.79a6.08 6.08 0 0 0 6.67.53c3.52.39 6-2.32 6.93-5.89.46-1.84.03-3.18-1.8-3.88Z" transform="translate(-315.82 -304.94)"/><path id="_Составной_контур_4" data-name="&lt;Составной контур&gt;" class="cls-8" d="M333.1 399.17a6.4 6.4 0 0 1-3.78-1.29 2.78 2.78 0 0 1-1.95-2.37c-.32-2.07 1-4.71 3-6.13 3.54-2.46 4.68-2.26 7.71-1.7l.81.14c2 .36 3.31 1 3.9 1.89a3.36 3.36 0 0 1 .24 2.74c-1 4-3.74 6.31-7 6a6.41 6.41 0 0 1-2.93.72Zm2.28-11.65c-1.39 0-2.65.47-4.87 2a6.7 6.7 0 0 0-2.95 5.94 2.59 2.59 0 0 0 1.84 2.22 6 6 0 0 0 6.56.51h.05c3.17.35 5.85-1.93 6.82-5.82a3.13 3.13 0 0 0-.21-2.59c-.56-.86-1.79-1.45-3.77-1.8l-.81-.14a15.26 15.26 0 0 0-2.66-.32Z" transform="translate(-315.82 -304.94)"/></g><g id="_Группа_12" data-name="&lt;Группа&gt;"><path id="_Контур_16" data-name="&lt;Контур&gt;" class="cls-8" d="M329.68 398.13a1.87 1.87 0 0 1-.55-1.55 5 5 0 0 1 .86-2.4 3.24 3.24 0 0 1 1.35-1.16 5.17 5.17 0 0 0-2 3.57 1.69 1.69 0 0 0 .47 1.4Z" transform="translate(-315.82 -304.94)"/></g><g id="_Группа_13" data-name="&lt;Группа&gt;"><path id="_Контур_17" data-name="&lt;Контур&gt;" class="cls-8" d="M336.19 398.43A1.83 1.83 0 0 1 335 397a3.22 3.22 0 0 1 .12-1.47 2 2 0 0 1 1-1.22 3.2 3.2 0 0 0-.89 2.65 1.64 1.64 0 0 0 1.05 1.32Z" transform="translate(-315.82 -304.94)"/></g></g><g id="_Группа_14" data-name="&lt;Группа&gt;"><path id="_Контур_18" data-name="&lt;Контур&gt;" class="cls-5" d="M337.79 341.53c-.32 12.18-4 25.62 2.72 35 4.78 6.65 11.14 20.66 35.87 17.61 4.27-1.81 6-15.8 6-15.8s-25.77-9.45-27.46-17.35-4.66-18.78-4.66-18.78Z" transform="translate(-315.82 -304.94)"/><path id="_Контур_19" data-name="&lt;Контур&gt;" class="cls-6" d="M362.85 369c.06 1 .12 2 .19 3a10.64 10.64 0 0 0 .78 2.33c1.55 5.05-1.75 9.52-6.61 10.69s-9.2-.45-13-3.21c4.92 6.76 13 14.63 32.2 12.27 4.27-1.81 6-15.8 6-15.8S371 374.15 362.85 369Z" transform="translate(-315.82 -304.94)"/><path id="_Составной_контур_5" data-name="&lt;Составной контур&gt;" class="cls-7" d="M369.69 394.64c-6.75 0-12.39-1.47-17.09-4.45-5.24-3.32-8.24-7.81-10.65-11.41-.53-.8-1-1.55-1.52-2.22-5.11-7.1-4.23-16.69-3.38-26 .28-3 .56-6.1.64-9.07v-.1l12.61.66v.07c0 .11 3 11 4.67 18.78s27.13 17.19 27.39 17.28h.07v.07c-.07.58-1.74 14.07-6 15.88a54.71 54.71 0 0 1-6.74.51Zm-31.81-53c-.08 2.94-.36 6-.63 9-.85 9.23-1.73 18.78 3.34 25.82.48.68 1 1.43 1.52 2.23 4.81 7.2 12.09 18.08 34.24 15.35 4-1.73 5.74-14.53 5.88-15.64-.73-.28-6.83-2.57-13-5.7-8.86-4.46-13.71-8.39-14.41-11.7-1.6-7.48-4.39-17.77-4.64-18.7Z" transform="translate(-315.82 -304.94)"/></g><g id="_Группа_15" data-name="&lt;Группа&gt;"><path id="_Контур_20" data-name="&lt;Контур&gt;" class="cls-1" d="M347.37 348c2.07 4.27.65 15.67 1.69 18.65s17.74 24.86 33.28 19.94c2.84-.78 12.56-8.22-5.44-19.94-3.76-2.33-13.08-6.48-14.51-10.23-2.26-4.08-6.21-3.07-7.38-4.89a10.91 10.91 0 0 1-1.29-4.57Z" transform="translate(-315.82 -304.94)"/><path id="_Контур_21" data-name="&lt;Контур&gt;" class="cls-3" d="M360.52 361.15c2.38 2.5 1.33 5.71 3.47 7.36s4.37-1.48 6.82-1.92 5 3.06 6.8.78l.15-.14-.86-.57c-3.76-2.33-13.08-6.48-14.51-10.23l-.06-.11c-.02 1.75-4.19 2.33-1.81 4.83Z" transform="translate(-315.82 -304.94)"/><path id="_Контур_22" data-name="&lt;Контур&gt;" class="cls-2" d="M384.28 372.73c1.68 2.89 2.17 6.41.13 8.82-8 8.35-21-.26-21.07-8.76-1-.7-5.16 3.07-5.85 4.32 6.51 6.23 15.87 12.33 24.85 9.49 2.32-.6 9.18-5.69 1.94-13.87Z" transform="translate(-315.82 -304.94)"/><path id="_Составной_контур_6" data-name="&lt;Составной контур&gt;" class="cls-7" d="M377.64 387.41c-6.62 0-12.95-4-17.45-7.75-6.25-5.23-10.7-11.46-11.23-13-.43-1.25-.44-3.89-.45-7 0-4.31 0-9.19-1.23-11.68v-.12l6.58-1.07v.21a11.11 11.11 0 0 0 1.28 4.52 4.1 4.1 0 0 0 2.37 1.28 7.45 7.45 0 0 1 5 3.61c1.08 2.84 6.83 6 11 8.26 1.36.74 2.54 1.38 3.44 1.93 9.6 6.26 11.05 11.16 10.58 14.18a8 8 0 0 1-5.17 5.94 15.46 15.46 0 0 1-4.72.69Zm-30.13-39.33c1.17 2.56 1.19 7.39 1.2 11.65 0 3 0 5.68.44 6.9 1 2.92 17.72 24.76 33.16 19.88a7.84 7.84 0 0 0 5-5.79c.46-3-1-7.79-10.5-14-.88-.55-2.06-1.19-3.42-1.93-4.23-2.3-10-5.45-11.12-8.35a7.3 7.3 0 0 0-4.9-3.51 4.15 4.15 0 0 1-2.47-1.35 10.9 10.9 0 0 1-1.3-4.51Z" transform="translate(-315.82 -304.94)"/></g><g id="_Группа_16" data-name="&lt;Группа&gt;"><g id="_Группа_17" data-name="&lt;Группа&gt;"><path id="_Контур_23" data-name="&lt;Контур&gt;" class="cls-5" d="M378.39 387.48c-5.2-1.65-11.48.58-12.49 3.55s-.39 4.84 1.78 4.56c.92 1.5 3.92 1.29 4.9.45 1.72 2.12 7.66-3.23 10.94-3.58s4.75-1 1.65-4.45-6.78-.53-6.78-.53Z" transform="translate(-315.82 -304.94)"/><path id="_Контур_24" data-name="&lt;Контур&gt;" class="cls-6" d="m385.17 388-.24-.24a1.1 1.1 0 0 1-.33.38c-2.52 2.53-10 4.39-10.31 2.77-1.91 1.25-5 .91-3.74-1.06-2.62.73-3.79.2-3.33-.61a4.19 4.19 0 0 0-1.32 1.76c-1 3-.39 4.84 1.78 4.56.92 1.5 3.92 1.29 4.9.45 1.72 2.12 7.66-3.23 10.94-3.58s4.75-.96 1.65-4.43Z" transform="translate(-315.82 -304.94)"/><path id="_Составной_контур_7" data-name="&lt;Составной контур&gt;" class="cls-8" d="M370.27 396.79a4.87 4.87 0 0 1-.76-.06 2.66 2.66 0 0 1-1.88-1 1.94 1.94 0 0 1-1.82-.59c-.64-.78-.64-2.24 0-4.1 1-3 7.28-5.28 12.56-3.63.42-.31 3.92-2.7 6.87.58 1.4 1.56 1.93 2.62 1.66 3.33s-1.52 1.07-3.37 1.27a16 16 0 0 0-4.83 2.07c-2.58 1.41-5 2.75-6.13 1.56a4.1 4.1 0 0 1-2.3.57Zm-2.54-1.31v.06a2.5 2.5 0 0 0 1.78 1 4.23 4.23 0 0 0 3-.57l.07-.06.06.07c1 1.19 3.51-.19 6-1.53a15.9 15.9 0 0 1 4.89-2.09c1.74-.19 2.95-.46 3.22-1.15s-.29-1.65-1.63-3.13c-3-3.34-6.49-.64-6.64-.53h-.05c-5.2-1.65-11.37.57-12.37 3.49-.62 1.8-.63 3.19 0 3.91a1.75 1.75 0 0 0 1.71.52Z" transform="translate(-315.82 -304.94)"/></g><g id="_Группа_18" data-name="&lt;Группа&gt;"><path id="_Контур_25" data-name="&lt;Контур&gt;" class="cls-8" d="M367.81 395.92a3.3 3.3 0 0 1-.35-2.64 5.11 5.11 0 0 1 1-2.18 3.9 3.9 0 0 1 2.07-1.24 4.59 4.59 0 0 0-2.9 3.46 3.09 3.09 0 0 0 .3 2.46Z" transform="translate(-315.82 -304.94)"/></g><g id="_Группа_19" data-name="&lt;Группа&gt;"><path id="_Контур_26" data-name="&lt;Контур&gt;" class="cls-8" d="M372.57 396.18a2 2 0 0 1-.65-1.52 4.25 4.25 0 0 1 .93-2.66 3.87 3.87 0 0 1 1.44-1.08 4.54 4.54 0 0 0-2.18 3.73 2.35 2.35 0 0 0 .63 1.42Z" transform="translate(-315.82 -304.94)"/></g></g><g id="_Группа_20" data-name="&lt;Группа&gt;"><path id="_Контур_27" data-name="&lt;Контур&gt;" class="cls-1" d="m386.42 375.74-6.72-3c-1.6-3.89-7.34-7.23-11.61-4.19s-3.59 15 1.46 18.81c.76.95 2.72-.94 4.66 0s7.67 3.65 10.59 1 4.5-8.82 1.62-12.62Z" transform="translate(-315.82 -304.94)"/><path id="_Контур_28" data-name="&lt;Контур&gt;" class="cls-2" d="m386.4 375.7-1-.43c1.95 5.45.26 10-1.27 11.52s-2.87 1.73-5.54 1-6-2.15-8.65-.2c.92.24 2.61-1.05 4.28-.24 1.94.93 7.67 3.65 10.59 1s4.47-8.85 1.59-12.65Z" transform="translate(-315.82 -304.94)"/><path id="_Контур_29" data-name="&lt;Контур&gt;" class="cls-7" d="M381.47 389.56c-2.82 0-6-1.52-7.3-2.16a3.91 3.91 0 0 0-2.86.06c-.77.22-1.43.41-1.83-.07-3.06-2.34-4.36-7.41-4.3-11.39.06-3.51 1.13-6.34 2.85-7.57a6.76 6.76 0 0 1 5.94-.89 9.71 9.71 0 0 1 3.41 1.82 7.53 7.53 0 0 1 2.32 3.34 9.23 9.23 0 0 0-5.79-5 6.52 6.52 0 0 0-5.76.86c-1.68 1.19-2.72 4-2.77 7.41-.07 3.94 1.21 8.94 4.23 11.24.32.39.9.22 1.64 0a4.09 4.09 0 0 1 3 0c1.88.9 7.59 3.65 10.48 1s4.32-8.65 1.74-12.31l-.23-.34h.23l.11.14a8.78 8.78 0 0 1 1.3 6.71 10.6 10.6 0 0 1-3 5.92 4.91 4.91 0 0 1-3.41 1.23Z" transform="translate(-315.82 -304.94)"/></g><g id="_Группа_21" data-name="&lt;Группа&gt;"><path id="_Контур_30" data-name="&lt;Контур&gt;" class="cls-1" d="m363.34 372.79-12.29-18c-8.3 5.64.58 21 1 28a23.88 23.88 0 0 1-3.05 12.69l8.83 5.69c2.65-.67 3.82-3.55 3.95-11.71 0-1.86 2.79-7.8 1.56-16.67Z" transform="translate(-315.82 -304.94)"/><path id="_Контур_31" data-name="&lt;Контур&gt;" class="cls-3" d="M352 372.61c-.63-.76-.39-2.13.19-3.1.78-1.56-.92-3.05-2.09-3.22a3 3 0 0 0-2.14.32 79.9 79.9 0 0 0 2.42 9.06c1.51-.3 2.22-2.29 1.62-3.06Z" transform="translate(-315.82 -304.94)"/><path id="_Контур_32" data-name="&lt;Контур&gt;" class="cls-2" d="M363.34 372.79s-.24 7.48-2 11.09a29 29 0 0 0-2.38 10.4c-.25 3.45-2 4.21-4.75 4.55l3.64 2.34c2.65-.67 3.82-3.55 3.95-11.71-.02-1.86 2.77-7.8 1.54-16.67Z" transform="translate(-315.82 -304.94)"/><path id="_Контур_33" data-name="&lt;Контур&gt;" class="cls-7" d="m357.78 401.27-8.94-5.76.05-.08a24 24 0 0 0 3.05-12.58 38.92 38.92 0 0 0-1.92-7.91c-1.86-6.06-4.1-13.35-1.33-17.93a6.25 6.25 0 0 1 2.36-2.19c-5.8 3.94-3.05 12.88-.84 20.06a40 40 0 0 1 1.92 8 24.33 24.33 0 0 1-3 12.61l8.7 5.61c2.68-.69 3.72-3.85 3.84-11.6a11.82 11.82 0 0 1 .5-2.35 34.41 34.41 0 0 0 1.18-14.35 22 22 0 0 1 .5 4.9 37.29 37.29 0 0 1-1.5 9.5 12.39 12.39 0 0 0-.49 2.3c-.12 7.9-1.21 11.1-4 11.8Z" transform="translate(-315.82 -304.94)"/></g><g id="_Группа_22" data-name="&lt;Группа&gt;"><g id="_Группа_23" data-name="&lt;Группа&gt;"><path id="_Контур_34" data-name="&lt;Контур&gt;" class="cls-5" d="M348.83 402.62c-5-.63-4.95-6 .94-9.29a7.92 7.92 0 0 1 10.94 3.77c.94 2.83-5.12 6.53-6.48 5.73-3.94 1.92-5.4-.21-5.4-.21Z" transform="translate(-315.82 -304.94)"/><path id="_Контур_35" data-name="&lt;Контур&gt;" class="cls-6" d="M360.71 397.1a7.9 7.9 0 0 0-1.77-2.48c.2 5.71-5.47 6-4.92 4.23-1.75 1.83-5.55 1.44-3.84-.85-1.8.55-4.86 1.52-4.07-1.45-1.84 2.79-.84 5.62 2.72 6.07 0 0 1.46 2.13 5.4.21 1.36.8 7.42-2.9 6.48-5.73Z" transform="translate(-315.82 -304.94)"/><path id="_Составной_контур_8" data-name="&lt;Составной контур&gt;" class="cls-8" d="M351.26 403.72a3.13 3.13 0 0 1-2.49-1c-2-.26-3.3-1.28-3.6-2.81-.44-2.23 1.35-4.84 4.55-6.65a7.56 7.56 0 0 1 6.16-.57 8.15 8.15 0 0 1 4.92 4.38c.57 1.72-1.29 3.45-2.12 4.12-1.48 1.2-3.58 2.19-4.45 1.76a6.91 6.91 0 0 1-2.97.77Zm2.15-11.25a7.25 7.25 0 0 0-3.59.95c-3.13 1.76-4.88 4.29-4.46 6.44.29 1.45 1.56 2.42 3.48 2.67s1.46 2 5.28.17h.05c.67.39 2.66-.41 4.28-1.72.79-.64 2.59-2.31 2.06-3.9a8 8 0 0 0-4.8-4.27 7.79 7.79 0 0 0-2.3-.34Z" transform="translate(-315.82 -304.94)"/></g><g id="_Группа_24" data-name="&lt;Группа&gt;"><path id="_Контур_36" data-name="&lt;Контур&gt;" class="cls-8" d="M348.92 402.87a3.17 3.17 0 0 1-.61-3 2.61 2.61 0 0 1 .4-.8 2.17 2.17 0 0 1 1.47-1.06c-.8.21-1.41 1.27-1.68 1.92a3 3 0 0 0 .56 2.82Z" transform="translate(-315.82 -304.94)"/></g><g id="_Группа_25" data-name="&lt;Группа&gt;"><path id="_Контур_37" data-name="&lt;Контур&gt;" class="cls-8" d="M354.51 403a2 2 0 0 1-1.44-1.59 2.77 2.77 0 0 1 0-1.43 2.26 2.26 0 0 1 1-1.22 2.63 2.63 0 0 0-.84 2.6 1.82 1.82 0 0 0 1.33 1.46Z" transform="translate(-315.82 -304.94)"/></g></g></g></g><g id="_Группа_26" data-name="&lt;Группа&gt;"><path id="_Контур_38" data-name="&lt;Контур&gt;" class="cls-9" d="M327.73 328.55c-.15-4.88-.13-10.37-5.53-11.33.3-6.21 3.36-9.29 6.06-8.81s7.46.43 7.6 7.52-8.13 12.62-8.13 12.62Z" transform="translate(-315.82 -304.94)"/><path id="_Контур_39" data-name="&lt;Контур&gt;" class="cls-10" d="M332 315.51a7.63 7.63 0 0 1 3.52 3.26 9.59 9.59 0 0 0 .38-2.84c-.14-7.09-4.9-7-7.6-7.52s-5.76 2.6-6.06 8.81a6.22 6.22 0 0 1 2.42.93c1.66-2.27 4.34-3.75 7.34-2.64Z" transform="translate(-315.82 -304.94)"/><path id="_Составной_контур_9" data-name="&lt;Составной контур&gt;" class="cls-7" d="M327.64 328.73v-.65c-.14-4.84-.29-9.85-5.44-10.77h-.08v-.09c.18-3.63 1.34-6.56 3.18-8a3.69 3.69 0 0 1 3-.88l.83.13c2.67.4 6.72 1 6.85 7.49.14 7.07-8.09 12.65-8.18 12.7Zm-5.34-11.59c5.22 1 5.38 6.27 5.51 10.94v.29c1.11-.78 8.07-6 7.94-12.43s-3.91-6.89-6.68-7.3l-.84-.13a3.47 3.47 0 0 0-2.84.83c-1.78 1.42-2.9 4.26-3.09 7.8Z" transform="translate(-315.82 -304.94)"/></g><g id="_Группа_27" data-name="&lt;Группа&gt;"><path id="_Контур_40" data-name="&lt;Контур&gt;" class="cls-1" d="M337.5 315s-4.48-9.86-8.06-10-10.85 3.78-11.83 5.16-2.31 11.51-1.37 13.72 3.51 1.94 4.49-1.56 7.7-12.45 9.69-12.26 3.7 3.12 4.26 5 2.82-.06 2.82-.06Z" transform="translate(-315.82 -304.94)"/><path id="_Контур_41" data-name="&lt;Контур&gt;" class="cls-11" d="M329.75 305.62a5 5 0 0 1 2 .56 6.85 6.85 0 0 0-2.3-1.14c-3.58-.15-10.85 3.78-11.83 5.16a9.76 9.76 0 0 0-.85 2.86 5.83 5.83 0 0 1 2.87-3.33c3.27-2.04 7.16-3.79 10.11-4.11Z" transform="translate(-315.82 -304.94)"/><path id="_Контур_42" data-name="&lt;Контур&gt;" class="cls-2" d="M332 309.48c-4.27-2.91-7.77 1.95-10.88 4.86a3.59 3.59 0 0 1-3.69 0 2.12 2.12 0 0 1-.73-.76c-.64 3.58-1.06 8.82-.42 10.34.95 2.21 3.51 1.94 4.49-1.56s7.7-12.45 9.69-12.26 3.7 3.12 4.26 5c.36 1.19 1.42.83 2.13.43-1.6-2.16-2.57-4.66-4.85-6.05Z" transform="translate(-315.82 -304.94)"/><path id="_Составной_контур_10" data-name="&lt;Составной контур&gt;" class="cls-7" d="M318.05 325.43a2.14 2.14 0 0 1-1.9-1.47c-1-2.29.43-12.47 1.38-13.81s8.17-5.36 11.91-5.21 8 9.66 8.15 10.06v.07h-.06c-.05.05-1.33 1.11-2.25.83a1.1 1.1 0 0 1-.72-.84c-.56-1.86-2.28-4.71-4.18-4.9s-8.61 8.71-9.58 12.18c-.52 1.83-1.51 3-2.67 3.05Zm11.19-20.3c-3.66 0-10.65 3.86-11.55 5.13s-2.32 11.36-1.36 13.62a1.91 1.91 0 0 0 1.82 1.35c.82-.05 1.91-.84 2.49-2.9 1-3.65 7.73-12.52 9.79-12.32s3.75 3.07 4.34 5a1 1 0 0 0 .6.71c.71.21 1.75-.55 2-.75-.41-.87-4.62-9.74-7.94-9.88Z" transform="translate(-315.82 -304.94)"/></g><g id="_Группа_28" data-name="&lt;Группа&gt;"><path id="_Контур_43" data-name="&lt;Контур&gt;" class="cls-9" d="M363 331.67c1.74-4.56 3.54-9.76 9-8.89 1.76-6-.11-9.87-2.82-10.31s-7.18-2.05-9.65 4.61 3.47 14.59 3.47 14.59Z" transform="translate(-315.82 -304.94)"/><path id="_Контур_44" data-name="&lt;Контур&gt;" class="cls-10" d="M368.87 318.61a5.58 5.58 0 0 1 3.55 2.28c.89-4.89-.86-8-3.27-8.42-2.71-.43-7.18-2.05-9.65 4.61-1.77 4.76.8 10.18 2.4 12.88.64-5.16.85-12.34 6.97-11.35Z" transform="translate(-315.82 -304.94)"/><path id="_Составной_контур_11" data-name="&lt;Составной контур&gt;" class="cls-7" d="m363.05 331.87-.11-.14c-.06-.08-6-8.06-3.53-14.69 2.26-6.09 6.27-5.32 8.93-4.81l.83.15a3.69 3.69 0 0 1 2.54 1.81c1.26 2 1.39 5.13.36 8.62v.08H372c-5.17-.83-6.95 3.85-8.68 8.38Zm2.51-19.79c-2.17 0-4.44.91-6 5-2.24 6 2.62 13.25 3.4 14.36l.11-.28c1.66-4.36 3.55-9.3 8.8-8.52 1-3.4.86-6.45-.35-8.38a3.53 3.53 0 0 0-2.41-1.72l-.84-.15a14.66 14.66 0 0 0-2.71-.31Z" transform="translate(-315.82 -304.94)"/></g><g id="_Группа_29" data-name="&lt;Группа&gt;"><path id="_Контур_45" data-name="&lt;Контур&gt;" class="cls-1" d="M358.24 315.69s7.48-7.83 10.91-6.79 9 7.14 9.46 8.77-1.6 11.63-3.22 13.4-3.95.68-3.73-2.95-3.16-14.29-5.1-14.76-4.53 1.73-5.67 3.29-2.65-.96-2.65-.96Z" transform="translate(-315.82 -304.94)"/><path id="_Контур_46" data-name="&lt;Контур&gt;" class="cls-11" d="M369.24 309.84a20.81 20.81 0 0 1 7 4.55c-2-2.27-5-4.85-7.1-5.49-3.43-1-10.91 6.79-10.91 6.79s.12.2.31.45c2.84-3.14 8.46-7.14 10.7-6.3Z" transform="translate(-315.82 -304.94)"/><path id="_Контур_47" data-name="&lt;Контур&gt;" class="cls-2" d="M378.61 317.67a8.44 8.44 0 0 0-1.47-2.26 2.25 2.25 0 0 1-.21 2.2c-.75 1-4.47 1.54-5.83-.21-1.75-2.52-1.07-4.16-4-5s-5.91 1.93-7.81 4.49a1 1 0 0 0 1.58-.24c1.14-1.56 3.72-3.75 5.67-3.29s5.33 11.13 5.1 14.76 2.11 4.73 3.73 2.95 3.72-11.77 3.24-13.4Z" transform="translate(-315.82 -304.94)"/><path id="_Составной_контур_12" data-name="&lt;Составной контур&gt;" class="cls-7" d="M373.75 332a1.69 1.69 0 0 1-.66-.13c-1.07-.45-1.64-1.86-1.52-3.76.22-3.59-3.13-14.19-5-14.65s-4.42 1.67-5.56 3.25a1.11 1.11 0 0 1-1 .55c-.95 0-1.81-1.46-1.85-1.52v-.06l.05-.05c.31-.33 7.56-7.87 11-6.82s9.08 7.25 9.54 8.83-1.57 11.66-3.25 13.5a2.37 2.37 0 0 1-1.75.86ZM366 313.2a2.32 2.32 0 0 1 .59.07c2 .48 5.41 11.07 5.18 14.86-.13 2.13.64 3.24 1.4 3.56a1.92 1.92 0 0 0 2.16-.68c1.65-1.82 3.65-11.75 3.2-13.31s-6-7.66-9.4-8.71c-3.19-1-10.08 6-10.75 6.72.17.27.91 1.33 1.65 1.36a1 1 0 0 0 .8-.47c1.08-1.51 3.29-3.4 5.17-3.4Z" transform="translate(-315.82 -304.94)"/></g><g id="_Группа_30" data-name="&lt;Группа&gt;"><path id="_Контур_48" data-name="&lt;Контур&gt;" class="cls-1" d="M342.2 351.36c-14.11-1.3-25.42-9.48-16.59-23 6.94-10.64 4.92-21.18 24.36-19.53 18.26 3.49 14.76 15.62 16.18 24.31 4.3 27.62-23.95 18.22-23.95 18.22Z" transform="translate(-315.82 -304.94)"/><path id="_Контур_49" data-name="&lt;Контур&gt;" class="cls-3" d="M327.11 329.1c3.88 2.33 7.18 5.83 12 4.08a6 6 0 0 0 3.69-8c-1.94-4.27-2.72-9.71 1.36-13a19 19 0 0 1 5.31-3.42c-18.94-1.45-17 9-23.9 19.56q-.19.29-.36.57a2.59 2.59 0 0 1 1.9.21Z" transform="translate(-315.82 -304.94)"/><path id="_Контур_50" data-name="&lt;Контур&gt;" class="cls-2" d="M366.15 333.12c-.78-4.8-.07-10.65-2.35-15.51.09.33.13.67.21 1 1.21 4.6.66 8.56.91 12.6.35 5.7.69 11.07-3 15.88-1.88 2.41-9.23 7.18-29.72 1.05a19.87 19.87 0 0 1-5.44-2.53 5 5 0 0 1-.73-.46c3.6 3.48 9.6 5.6 16.21 6.21-.04 0 28.21 9.4 23.91-18.24Z" transform="translate(-315.82 -304.94)"/><path id="_Составной_контур_13" data-name="&lt;Составной контур&gt;" class="cls-7" d="M352.06 353a35.92 35.92 0 0 1-9.88-1.52c-9.25-.86-16.26-4.46-18.76-9.63-1.9-3.93-1.19-8.48 2.11-13.54a52.71 52.71 0 0 0 4-7.73c3.24-7.32 5.8-13.09 20.46-11.85 14.94 2.86 15.41 11.57 15.82 19.25a47.63 47.63 0 0 0 .46 5.15c1.23 7.89-.09 13.53-3.9 16.75-2.87 2.39-6.73 3.12-10.31 3.12Zm-5.88-44.25c-4.68 0-8.1.92-10.58 2.81-2.84 2.17-4.26 5.38-5.91 9.09a53.76 53.76 0 0 1-4 7.77c-3.26 5-4 9.48-2.09 13.34 2.47 5.12 9.42 8.67 18.61 9.52.13 0 13.11 4.27 20-1.55 3.76-3.18 5-8.76 3.84-16.58a48.24 48.24 0 0 1-.46-5.17c-.41-7.61-.88-16.24-15.65-19.06-1.33-.13-2.58-.19-3.76-.19Z" transform="translate(-315.82 -304.94)"/></g><g id="_Группа_31" data-name="&lt;Группа&gt;"><path id="_Контур_51" data-name="&lt;Контур&gt;" class="cls-5" d="M345 337.36s12.85 2.53 12.37 7.79c-.36 3.88-4.12 4.13-6.25 5.35s-5.59 3.84-8.67 3.56a7.91 7.91 0 0 1-6.65-4.72c-1.41-3.2-7.18-4.31-5-9.49 2.09-4.85 14.2-2.49 14.2-2.49Z" transform="translate(-315.82 -304.94)"/><path id="_Контур_52" data-name="&lt;Контур&gt;" class="cls-6" d="M349.64 350.28c-3.69 2.52-10.34 3.17-12.28-.31s-3.23-4.13-6.08-5.39c1.34 1.71 3.7 2.87 4.53 4.76a7.91 7.91 0 0 0 6.65 4.72c3.08.28 6.54-2.34 8.67-3.56s5.89-1.47 6.25-5.35a3.57 3.57 0 0 0 0-.57c-.44 3.07-5.24 4.03-7.74 5.7Z" transform="translate(-315.82 -304.94)"/><path id="_Составной_контур_14" data-name="&lt;Составной контур&gt;" class="cls-8" d="M342.92 354.18h-.47a8.06 8.06 0 0 1-6.73-4.78 8.5 8.5 0 0 0-2.52-2.81c-1.93-1.63-3.93-3.32-2.47-6.76 2.07-4.92 13.8-2.64 14.3-2.54s12.93 2.61 12.44 7.89c-.27 3-2.53 3.87-4.53 4.65a13.85 13.85 0 0 0-1.76.77c-.38.22-.81.49-1.26.77-1.92 1.18-4.57 2.81-7 2.81Zm-4.15-17.31c-3.28 0-6.85.6-7.87 3-1.39 3.31.46 4.87 2.43 6.53a8.78 8.78 0 0 1 2.57 2.89 7.88 7.88 0 0 0 6.57 4.66c2.5.22 5.3-1.52 7.35-2.79.45-.28.88-.55 1.26-.76a13.55 13.55 0 0 1 1.79-.79c1.94-.76 4.15-1.62 4.41-4.49.47-5.11-12.16-7.66-12.29-7.68a35.28 35.28 0 0 0-6.22-.57Z" transform="translate(-315.82 -304.94)"/></g><g id="_Группа_32" data-name="&lt;Группа&gt;"><path id="_Контур_53" data-name="&lt;Контур&gt;" d="M336.76 340.91c.95 1 1.32 8.66 6 9.13s7.66-5.51 9.07-6.15c-5.66-2.52-15.07-2.98-15.07-2.98Z" transform="translate(-315.82 -304.94)" style="fill:#490303"/><path id="_Составной_контур_15" data-name="&lt;Составной контур&gt;" class="cls-8" d="M343.27 350.16a4.53 4.53 0 0 1-.52 0c-3.45-.34-4.57-4.41-5.32-7.11a6.75 6.75 0 0 0-.74-2l-.17-.18h.24c.1 0 9.49.5 15.11 3l.19.09-.19.09a7.24 7.24 0 0 0-1.61 1.6c-1.56 1.78-3.89 4.51-6.99 4.51ZM337 341a9.9 9.9 0 0 1 .66 2c.73 2.65 1.84 6.64 5.15 7s5.72-2.57 7.35-4.48a9.53 9.53 0 0 1 1.49-1.56c-5.17-2.27-13.3-2.86-14.65-2.96Z" transform="translate(-315.82 -304.94)"/></g><g id="_Группа_33" data-name="&lt;Группа&gt;"><path id="_Контур_54" data-name="&lt;Контур&gt;" class="cls-5" d="M334.28 339.08c-1.46 2.6 3.4 6.71 9.86 4.89 4.3 3 9.65 2.23 10.27-.73Z" transform="translate(-315.82 -304.94)"/><path id="_Контур_55" data-name="&lt;Контур&gt;" class="cls-6" d="M344.33 343.06c-1.15-.21-6.49 1.79-10-1.74 1.15 2.14 5.16 4 9.82 2.65 3.46 2.41 7.61 2.38 9.41.74-3.74 1.71-8.07-1.44-9.23-1.65Z" transform="translate(-315.82 -304.94)"/><path id="_Контур_56" data-name="&lt;Контур&gt;" class="cls-8" d="M350 346a10.49 10.49 0 0 1-5.85-1.89c-4.4 1.22-8-.27-9.54-2.19a3.45 3.45 0 0 1-.63-1.17 1.65 1.65 0 0 1 .33-1.64 2.39 2.39 0 0 0 .45 2.69c1.53 1.93 5.24 3.28 9.38 2.11 3.16 2.19 6.76 2.29 8.68 1.26a2.86 2.86 0 0 0 1.54-1.91 2.52 2.52 0 0 1-1.44 2.08 6.4 6.4 0 0 1-2.92.66Z" transform="translate(-315.82 -304.94)"/></g><g id="_Группа_34" data-name="&lt;Группа&gt;"><path id="_Контур_57" data-name="&lt;Контур&gt;" class="cls-9" d="M343.74 346.54c.83-.61 4.1.06 4.45 1.16.25.76-.57 5-2.65 6.67s-4.64 1-6.17-1.52c-1.07-1.74-.94-5.53-.48-6.23.67-1.04 4.35-.75 4.85-.08Z" transform="translate(-315.82 -304.94)"/><path id="_Контур_58" data-name="&lt;Контур&gt;" class="cls-10" d="M348.19 347.7c-.12-.39-.2-.42-.8-.66.6 2.29-1.22 6.89-4.26 6.89s-4.3-4.23-3.74-7.7a1.07 1.07 0 0 0-.5.39c-.46.7-.59 4.49.48 6.23 1.53 2.48 4.19 3.06 6.17 1.52s2.9-5.91 2.65-6.67Z" transform="translate(-315.82 -304.94)"/><path id="_Составной_контур_16" data-name="&lt;Составной контур&gt;" class="cls-13" d="M343.15 355.32a3.79 3.79 0 0 1-.67-.06 4.85 4.85 0 0 1-3.19-2.35c-1.1-1.8-.94-5.65-.49-6.34s1.54-.71 2.19-.73a4.86 4.86 0 0 1 2.76.57 4.49 4.49 0 0 1 2.92.11c.52.17 1.42.54 1.62 1.15.28.86-.63 5.17-2.69 6.78a4 4 0 0 1-2.45.87ZM341.2 346h-.2c-1 0-1.78.26-2 .63a8.91 8.91 0 0 0 .49 6.13 4.62 4.62 0 0 0 3.05 2.27 3.73 3.73 0 0 0 3-.78c2.09-1.63 2.85-5.86 2.62-6.56-.12-.38-.67-.76-1.49-1a4 4 0 0 0-2.82-.09l-.08.05v-.07a4 4 0 0 0-2.57-.58Z" transform="translate(-315.82 -304.94)"/></g><g id="_Группа_35" data-name="&lt;Группа&gt;"><path id="_Контур_59" data-name="&lt;Контур&gt;" class="cls-13" d="M343.59 349.1a4.83 4.83 0 0 0 .05-2.53l.19-.06a4.21 4.21 0 0 1 .14 1 3.15 3.15 0 0 1-.38 1.59Z" transform="translate(-315.82 -304.94)"/></g><g id="_Группа_36" data-name="&lt;Группа&gt;"><path id="_Контур_60" data-name="&lt;Контур&gt;" d="M349.47 339.09c-.64 1.85-4.26 2.49-5.23 2.29s-4.08-2.19-3.94-4.12 2.67-2 5.2-1.47 4.55 1.59 3.97 3.3Z" transform="translate(-315.82 -304.94)" style="fill:#592e12"/><path id="_Контур_61" data-name="&lt;Контур&gt;" d="M340.36 336.93a1.61 1.61 0 0 0-.06.33c-.14 1.93 3 4.07 3.94 4.12s4.59-.44 5.23-2.29c0-.11.06-.21.08-.32-1.11 1.67-8.14 1.75-9.19-1.84Z" transform="translate(-315.82 -304.94)" style="fill:#2d1305"/><path id="_Составной_контур_17" data-name="&lt;Составной контур&gt;" d="M344.7 341.52a3.08 3.08 0 0 1-.48 0 6.19 6.19 0 0 1-3.05-2 3.19 3.19 0 0 1-1-2.23 1.57 1.57 0 0 1 .65-1.21c.84-.64 2.54-.77 4.66-.34s3.41 1.11 3.92 2a1.7 1.7 0 0 1 .12 1.43c-.52 1.64-3.42 2.35-4.82 2.35Zm-1.46-5.88a3.89 3.89 0 0 0-2.27.55 1.45 1.45 0 0 0-.57 1.08 3.08 3.08 0 0 0 .92 2.08 6.08 6.08 0 0 0 2.93 1.94c1 .2 4.51-.45 5.12-2.23a1.48 1.48 0 0 0-.1-1.27c-.48-.83-1.82-1.51-3.79-1.9a11.19 11.19 0 0 0-2.24-.25Z" transform="translate(-315.82 -304.94)"/></g><g id="_Группа_37" data-name="&lt;Группа&gt;"><path id="_Контур_62" data-name="&lt;Контур&gt;" class="cls-1" d="M343.88 308.35c2.44-.55 3.13.42 3.13.42a3.67 3.67 0 0 0-3.46 2.86c2.05-1.49 3.21-1 3.21-1s-2.73 1.13-2.36 3.78a3.63 3.63 0 0 1 3.06-1.6 1.86 1.86 0 0 0-.55 1.85 2.85 2.85 0 0 1 3.19-.51l3.16-3.11s-3.04-6.15-9.38-2.69Z" transform="translate(-315.82 -304.94)"/><path id="_Контур_63" data-name="&lt;Контур&gt;" class="cls-11" d="M348.84 312.41a5.43 5.43 0 0 0-2.7-.4c.58-1 1.41-1 2.38-1.41a3.67 3.67 0 0 0-3-.65 4.7 4.7 0 0 1 2.65-.85 2.4 2.4 0 0 0-1.41-1.23 8 8 0 0 1 6.54 3.15c-1-2-4.25-5.48-9.38-2.67 2.44-.55 3.13.42 3.13.42a3.67 3.67 0 0 0-3.46 2.86c2.05-1.49 3.21-1 3.21-1s-2.73 1.13-2.36 3.78a3.63 3.63 0 0 1 3.06-1.6 1.86 1.86 0 0 0-.55 1.85c.05-.06.79-1.8 1.89-2.25Z" transform="translate(-315.82 -304.94)"/><path id="_Контур_64" data-name="&lt;Контур&gt;" class="cls-7" d="M346.85 314.81v-.15a2 2 0 0 1 .4-1.77 3.59 3.59 0 0 0-2.74 1.56l-.14.19v-.24a3.78 3.78 0 0 1 2.15-3.76 4.35 4.35 0 0 0-2.85 1.06l-.21.16.06-.26a3.71 3.71 0 0 1 3.32-2.91c-.3-.23-1.13-.64-2.88-.25l-.67.15.6-.33a7 7 0 0 1 5.5-.82 6.75 6.75 0 0 1 2.61 1.59 5.37 5.37 0 0 1 1.32 2 7.54 7.54 0 0 0-4-3.39 6.51 6.51 0 0 0-4.76.5c1.95-.26 2.55.55 2.58.59l.11.15H347a3.53 3.53 0 0 0-3.3 2.53c1.94-1.32 3-.9 3.08-.88l.22.08-.22.1s-2.48 1.07-2.31 3.44a3.72 3.72 0 0 1 3-1.45h.25l-.21.15a1.73 1.73 0 0 0-.52 1.6c2-1.38 3.11-.34 3.11-.34a3 3 0 0 0-3.13.59Z" transform="translate(-315.82 -304.94)"/></g><g id="_Группа_38" data-name="&lt;Группа&gt;"><path id="_Контур_65" data-name="&lt;Контур&gt;" class="cls-5" d="M359.06 330.87c-.42 2.64-2.32 4.53-4.23 4.22s-3.12-2.69-2.69-5.33 2.31-4.53 4.23-4.22 3.11 2.69 2.69 5.33Z" transform="translate(-315.82 -304.94)"/><path id="_Контур_66" data-name="&lt;Контур&gt;" class="cls-16" d="M358.38 331.63c-2.17 1.17-5.05.9-6.32-1.17-.12 2.35 1 4.36 2.77 4.63 1.91.31 3.81-1.58 4.23-4.22a2.16 2.16 0 0 1-.68.76Z" transform="translate(-315.82 -304.94)"/><path id="_Составной_контур_18" data-name="&lt;Составной контур&gt;" d="M355.24 335.22h-.42c-2-.31-3.21-2.76-2.78-5.45a6 6 0 0 1 1.58-3.27 3.2 3.2 0 0 1 2.76-1c2 .32 3.21 2.76 2.78 5.45-.4 2.43-2.11 4.27-3.92 4.27Zm.71-9.62a3.13 3.13 0 0 0-2.19 1 5.81 5.81 0 0 0-1.53 3.17c-.41 2.58.76 4.92 2.62 5.22s3.7-1.56 4.12-4.14c.41-2.59-.76-4.93-2.62-5.23a2.6 2.6 0 0 0-.35-.02Z" transform="translate(-315.82 -304.94)"/></g><g id="_Группа_39" data-name="&lt;Группа&gt;"><path id="_Контур_67" data-name="&lt;Контур&gt;" class="cls-17" d="M358.35 331.2c-.34 2.1-1.84 3.6-3.36 3.36s-2.48-2.14-2.14-4.24 1.84-3.6 3.36-3.35 2.47 2.14 2.14 4.23Z" transform="translate(-315.82 -304.94)"/><path id="_Контур_68" data-name="&lt;Контур&gt;" d="M352.79 331.32c0 1.67.93 3 2.2 3.24s2.78-1 3.25-2.86a5 5 0 0 1-5.45-.38Z" transform="translate(-315.82 -304.94)" style="fill:#2b83ba"/><path id="_Контур_69" data-name="&lt;Контур&gt;" class="cls-19" d="M357.39 331.7c-.29 1.44-1.37 2.43-2.41 2.22s-1.64-1.54-1.35-3 1.36-2.42 2.4-2.21 1.65 1.56 1.36 2.99Z" transform="translate(-315.82 -304.94)"/><path id="_Составной_контур_19" data-name="&lt;Составной контур&gt;" class="cls-20" d="M355.31 334.66h-.33c-1.56-.25-2.55-2.19-2.21-4.32a4.76 4.76 0 0 1 1.26-2.6 2.54 2.54 0 0 1 2.19-.82c1.56.25 2.55 2.19 2.2 4.33-.31 1.95-1.67 3.41-3.11 3.41Zm.57-7.64a2.5 2.5 0 0 0-1.74.8 4.6 4.6 0 0 0-1.21 2.51c-.33 2.05.6 3.92 2.07 4.15s2.94-1.24 3.27-3.29c.33-2.05-.6-3.91-2.07-4.15Z" transform="translate(-315.82 -304.94)"/></g><g id="_Группа_40" data-name="&lt;Группа&gt;"><path id="_Контур_70" data-name="&lt;Контур&gt;" class="cls-5" d="M340.64 328.18c-.71 2.58-2.79 4.26-4.66 3.75s-2.81-3-2.1-5.6 2.79-4.25 4.65-3.74 2.81 3.01 2.11 5.59Z" transform="translate(-315.82 -304.94)"/><path id="_Контур_71" data-name="&lt;Контур&gt;" class="cls-16" d="M336.62 329.1a3.61 3.61 0 0 1-2.87-2.22c-.44 2.37.49 4.57 2.23 5.05s3.77-1 4.56-3.42a7.83 7.83 0 0 1-3.92.59Z" transform="translate(-315.82 -304.94)"/><path id="_Составной_контур_20" data-name="&lt;Составной контур&gt;" d="M336.67 332.11a3 3 0 0 1-.67-.11 3.21 3.21 0 0 1-2.08-2.08 6.3 6.3 0 0 1 1.84-6.71 3 3 0 0 1 4.93 1.35 5.88 5.88 0 0 1 .09 3.63 6 6 0 0 1-1.92 3.08 3.46 3.46 0 0 1-2.19.84Zm1.18-9.52a3.23 3.23 0 0 0-2 .79 6.13 6.13 0 0 0-1.78 6.49 2.79 2.79 0 0 0 4.63 1.27 6.09 6.09 0 0 0 1.78-6.5 3 3 0 0 0-1.95-2 2.5 2.5 0 0 0-.68-.05Z" transform="translate(-315.82 -304.94)"/></g><g id="_Группа_41" data-name="&lt;Группа&gt;"><path id="_Контур_72" data-name="&lt;Контур&gt;" class="cls-17" d="M339.74 328.65c-.61 2-2.25 3.17-3.66 2.73s-2.06-2.38-1.45-4.33 2.24-3.16 3.66-2.72 2.06 2.38 1.45 4.32Z" transform="translate(-315.82 -304.94)"/><path id="_Контур_73" data-name="&lt;Контур&gt;" class="cls-20" d="M336.62 329.1a3.5 3.5 0 0 1-2.18-1.14c-.2 1.61.45 3.05 1.64 3.42 1.36.43 2.94-.71 3.59-2.55a8.42 8.42 0 0 1-3.05.27Z" transform="translate(-315.82 -304.94)"/><path id="_Контур_74" data-name="&lt;Контур&gt;" class="cls-19" d="M338.51 329.13c-.37 1.19-1.37 1.94-2.24 1.67s-1.26-1.46-.88-2.65 1.37-1.94 2.23-1.67 1.26 1.46.89 2.65Z" transform="translate(-315.82 -304.94)"/><path id="_Составной_контур_21" data-name="&lt;Составной контур&gt;" class="cls-20" d="M336.6 331.54a2 2 0 0 1-.54-.09 2.43 2.43 0 0 1-1.53-1.64 4.81 4.81 0 0 1 1.58-5.07 2.27 2.27 0 0 1 3.73 1.16 4.81 4.81 0 0 1-1.59 5.07 2.59 2.59 0 0 1-1.65.57Zm1.16-7.23a2.44 2.44 0 0 0-1.56.55 4.66 4.66 0 0 0-1.53 4.9 2.11 2.11 0 0 0 3.49 1.09 4.64 4.64 0 0 0 1.54-4.9 2.31 2.31 0 0 0-1.44-1.55 2.1 2.1 0 0 0-.5-.09Z" transform="translate(-315.82 -304.94)"/></g><g id="_Группа_42" data-name="&lt;Группа&gt;"><path id="_Контур_75" data-name="&lt;Контур&gt;" class="cls-8" d="M355.82 344.85a2.22 2.22 0 0 0-1-1.7 4.19 4.19 0 0 0-2.2-.58 2.92 2.92 0 0 1 2.3.43 2.05 2.05 0 0 1 .9 1.85Z" transform="translate(-315.82 -304.94)"/></g><g id="_Группа_43" data-name="&lt;Группа&gt;"><path id="_Контур_76" data-name="&lt;Контур&gt;" class="cls-8" d="M332.48 339.51a2.84 2.84 0 0 1 1.92-1 2.3 2.3 0 0 1 2 .65 3.44 3.44 0 0 0-3.92.35Z" transform="translate(-315.82 -304.94)"/></g><g id="_Группа_44" data-name="&lt;Группа&gt;"><path id="_Контур_77" data-name="&lt;Контур&gt;" class="cls-3" d="M361.21 323.89s-1.8-3.35-4.66-2.88c-3.09.5-2.14-1.87-.45-2.1 4.3-.6 5.11 4.98 5.11 4.98Z" transform="translate(-315.82 -304.94)"/><path id="_Составной_контур_22" data-name="&lt;Составной контур&gt;" d="m361.38 324.42-.26-.49s-1.8-3.28-4.56-2.83c-1.25.21-1.76-.06-2-.33a.77.77 0 0 1-.08-.82 2 2 0 0 1 1.57-1.14c4.35-.6 5.21 5 5.22 5.06Zm-4.29-3.55c1.94 0 3.34 1.68 3.91 2.51-.33-1.35-1.51-4.85-4.89-4.38a1.84 1.84 0 0 0-1.42 1 .61.61 0 0 0 .05.63c.15.18.57.46 1.79.26a3.6 3.6 0 0 1 .56-.02Z" transform="translate(-315.82 -304.94)"/></g><g id="_Группа_45" data-name="&lt;Группа&gt;"><path id="_Контур_78" data-name="&lt;Контур&gt;" class="cls-3" d="M334.56 319.86s2.69-2.68 5.29-1.4c2.81 1.38 2.59-1.17 1-1.88-3.85-1.82-6.29 3.28-6.29 3.28Z" transform="translate(-315.82 -304.94)"/><path id="_Составной_контур_23" data-name="&lt;Составной контур&gt;" d="m334.24 320.32.23-.5c0-.05 2.48-5.17 6.47-3.33a2 2 0 0 1 1.17 1.55.81.81 0 0 1-.31.77c-.28.19-.85.3-2-.26-2.51-1.23-5.15 1.36-5.18 1.38Zm5-4c-2.22 0-3.75 2.17-4.33 3.15.87-.69 3-2.06 5-1.07 1.1.55 1.59.41 1.79.28a.64.64 0 0 0 .23-.6 1.85 1.85 0 0 0-1.06-1.38 3.81 3.81 0 0 0-1.64-.41Z" transform="translate(-315.82 -304.94)"/></g><g id="_Группа_46" data-name="&lt;Группа&gt;" class="cls-21"><path id="_Контур_79" data-name="&lt;Контур&gt;" class="cls-22" d="M355.77 328a1 1 0 1 1-1-1.17 1.08 1.08 0 0 1 1 1.17Z" transform="translate(-315.82 -304.94)"/><path id="_Контур_80" data-name="&lt;Контур&gt;" class="cls-22" d="M356.28 329.69a.41.41 0 0 1-.36.44.46.46 0 1 1 .36-.44Z" transform="translate(-315.82 -304.94)"/></g><g id="_Группа_47" data-name="&lt;Группа&gt;" class="cls-21"><path id="_Контур_81" data-name="&lt;Контур&gt;" class="cls-22" d="M337.37 325.51a1 1 0 1 1-.72-1.33 1.07 1.07 0 0 1 .72 1.33Z" transform="translate(-315.82 -304.94)"/><path id="_Контур_82" data-name="&lt;Контур&gt;" class="cls-22" d="M337.57 327.23a.42.42 0 0 1-.44.37.46.46 0 0 1 .16-.88.42.42 0 0 1 .28.51Z" transform="translate(-315.82 -304.94)"/></g><g id="_Группа_48" data-name="&lt;Группа&gt;"><path id="_Контур_83" data-name="&lt;Контур&gt;" class="cls-7" d="M350 334a11.25 11.25 0 0 0-8.41-1.35 3 3 0 0 1 1.34-.42 11.72 11.72 0 0 1 5.4.69A3.66 3.66 0 0 1 350 334Z" transform="translate(-315.82 -304.94)"/></g><g id="_Группа_49" data-name="&lt;Группа&gt;"><path id="_Контур_84" data-name="&lt;Контур&gt;" class="cls-8" d="M350.16 340.8a.25.25 0 0 1-.25.25.25.25 0 0 1 0-.5.25.25 0 0 1 .25.25Z" transform="translate(-315.82 -304.94)"/><path id="_Контур_85" data-name="&lt;Контур&gt;" class="cls-8" d="M351.86 341.53a.25.25 0 1 1-.25-.24.25.25 0 0 1 .25.24Z" transform="translate(-315.82 -304.94)"/><path id="_Контур_86" data-name="&lt;Контур&gt;" class="cls-8" d="M350.66 342a.25.25 0 1 1-.25-.25.25.25 0 0 1 .25.25Z" transform="translate(-315.82 -304.94)"/><path id="_Контур_87" data-name="&lt;Контур&gt;" class="cls-8" d="M338.2 339a.25.25 0 1 1-.25-.25.25.25 0 0 1 .25.25Z" transform="translate(-315.82 -304.94)"/><path id="_Контур_88" data-name="&lt;Контур&gt;" class="cls-8" d="M339.71 339.17a.25.25 0 0 1-.25.25.25.25 0 0 1 0-.5.25.25 0 0 1 .25.25Z" transform="translate(-315.82 -304.94)"/><path id="_Контур_89" data-name="&lt;Контур&gt;" class="cls-8" d="M338.89 339.83a.25.25 0 1 1-.5 0 .25.25 0 0 1 .5 0Z" transform="translate(-315.82 -304.94)"/></g></g></svg>