<svg id="Layer_1" data-name="Layer 1" xmlns="http://www.w3.org/2000/svg" width="804.53" height="306.62"><defs><linearGradient id="linear-gradient" x1="1536.94" y1="2319.5" x2="1536.94" y2="2187.34" gradientUnits="userSpaceOnUse"><stop offset="0" stop-color="#2e3b4b"/><stop offset=".22" stop-color="#304052"/><stop offset="1" stop-color="#374e69"/></linearGradient><style>.cls-3{fill:#374e69}.cls-6{fill:#1d2630}.cls-11{fill:#fff}.cls-12{fill:#9dcdeb}.cls-15{fill:#6b99b5}.cls-19{fill:#c4e9ff}.cls-20{fill:#81a3b8}.cls-22{fill:#4c7591}</style></defs><path d="M1858.73 2274.6c-10.68.54-21.36 1.09-32 2.21s-21.15 2.79-31.86 3.09c-21.87.62-44.42-4.42-65.37.62-5.07 4.89-11.7 15.33-10.68 25.57a9.07 9.07 0 0 0 2.52 5.82c2.58 2.38 7 2.82 11 2.68 13.44-.41 25.92-5.24 38.71-8.53 34.51-8.88 73.18-6.74 105.59-19.63 3.88-1.56 8.09-3.91 8.09-7.34-6.52-5.09-16.85-4.97-26-4.49Z" transform="translate(-1080.22 -2156.65)" style="fill:#ad5a70"/><path d="M1239.61 2243.45q-32.29-25.87-64.61-51.7c-24.63-19.69-54.08-40.63-82.88-33.77-5.41 1.3-11.19 4.43-11.84 10.1-.34 2.79.72 5.65 1.74 8.37a380.68 380.68 0 0 0 42.27 80.09c3.13 4.49 6.49 10.2 4.22 14.79-1.19 2.38-3.64 3.78-5.85 5.21-24.56 16.05-28 51-29.15 81.68 32.92 6 67-1.63 92.84-20.77 17.72-13.17 31.8-31.53 51.9-40.88 3.47-11.12 7.62-22.31 9.39-34 .54-3.75.78-7.76-.89-11.33-1.49-3.24-4.38-5.58-7.14-7.79Z" transform="translate(-1080.22 -2156.65)" style="fill:#2e3b4a"/><path class="cls-3" d="M1214.07 2269.7c-5.44 1-10.85 0-16.32-.47-6.67-.52-13.4-.28-20.07-.58a356.41 356.41 0 0 1-42.34-4.66c-2.31-.41-2.41 3-.13 3.33a357.87 357.87 0 0 0 43.93 4.83c6.57.34 13.2 0 19.73.61 5.17.44 11.56 1.87 16.46-.13 1.77-.75.61-3.27-1.26-2.93ZM1199.31 2259.36c-7.92-1.32-15.74-3.06-23.6-4.79-17.31-3.81-34.59-7.93-51.62-12.72-2-.58-3.07 2.28-1 2.86 16.49 4.72 33.16 8.8 49.92 12.65 7.48 1.7 15 3.6 22.52 4.89 6.73 1.16 12.78 2.32 18.84 5.44 1.59.89 3.64-1 2.17-2.38-4.31-4.01-11.48-4.96-17.23-5.95ZM1214 2257.42c-2.14-1.7-4.83-2.65-7.38-3.74-3.4-1.42-6.9-2.72-10.34-4.08-9.28-3.7-18.57-7.34-28.06-10.64-20.3-7.08-40.87-13.33-61-20.75a2 2 0 1 0-1.33 3.81c19.63 7.28 39.66 13.5 59.45 20.41 9.59 3.36 19 6.93 28.43 10.68 5.92 2.34 12 4.38 17.82 7 1.7.78 4.25-1.22 2.41-2.69ZM1196.05 2237.56c-7.76-3.43-15.58-6.8-23.33-10.2-8.57-3.77-16.84-8.06-25.41-11.87-7.92-3.53-16-6.77-24-10.1a256.77 256.77 0 0 1-27.75-13.09c-2.45-1.4-4.8 2-2.38 3.37 15.06 8.63 31.56 14.72 47.51 21.69 8.36 3.64 16.35 7.89 24.62 11.67s16.7 7.34 25.06 11c7.55 3.29 15.44 6.15 22.07 10.95 1.84 1.29 4.19-1.3 2.59-2.83-5.21-4.8-12.45-7.7-18.98-10.59ZM1220.94 2241.92c-8.57-2.89-15.27-9.36-22.45-14.29-8.09-5.57-17.14-10.1-25.64-15.1-17.82-10.5-35.64-21.08-54.1-30.57-10.38-5.3-21-10.24-31.8-14.62-2.45-1-3.64 2.55-1.23 3.57 19.59 8.13 38.06 18.19 56.22 28.73 8.88 5.14 17.68 10.44 26.53 15.65 8.6 5.1 17.68 9.72 26.08 15.13 8.13 5.24 15.54 12.31 25.13 15.27a2 2 0 1 0 1.26-3.77ZM1207.71 2219c-6.49-6.16-13.81-11.09-21.42-16-8.13-5.3-16.43-10.44-25-15.06-8.74-4.73-17.11-10-25.91-14.56-9.59-4.93-20.31-7.48-29.83-12.45-2.21-1.15-4.28 1.81-2.11 3 8.16 4.35 17.18 6.87 25.58 10.71 8.84 4 16.73 9.62 25.16 14.28s17 9.63 25.17 14.93c7.72 5 15.68 9.9 22.41 16s12.51 13 19.38 19c2.25 1.87 5.72-.92 3.51-3-5.85-5.39-11.12-11.31-16.94-16.85ZM1217.54 2275.31c-3 1.3-6 1.06-9.25 1.12a108.51 108.51 0 0 0-11.53 1 248.82 248.82 0 0 1-25.2 1.56c-16.8.41-33.6.85-50.16 3.33-3.16.48-2 4.93 1.15 4.46 17.35-2.45 35-2.69 52.58-3.23a235.57 235.57 0 0 0 24.79-2c3.85-.55 7.65-.79 11.57-1 2.89-.13 6.22-.34 8.26-2.38a1.84 1.84 0 0 0-2.21-2.86ZM1225 2281c-10.44 3.5-20.44 7.85-31 11a157.73 157.73 0 0 1-29.65 5.62c-20.41 2-41.26 1.8-61 7.48a2 2 0 1 0 1 3.77c20-5.64 41.22-5.57 61.93-7.72a169.3 169.3 0 0 0 30.67-6c10.14-3 20.72-6.12 30-10.85 2.32-1.17.45-4.06-1.95-3.3Z" transform="translate(-1080.22 -2156.65)"/><path class="cls-3" d="M1226 2286.09c-14.35 9.93-31.39 15.68-48.56 20.44-9.15 2.52-18.37 4.76-27.51 7.28-8.68 2.38-17.25 5.17-25.92 7.58-8.84 2.45-17.92 4.7-25.74 9.22a2.05 2.05 0 0 0 2.07 3.54c7.18-4.08 15.3-6.19 23.4-8.37 9-2.41 17.79-5.24 26.76-7.65 18-4.83 36.09-9.05 53.4-15.58 8.91-3.36 18.16-7.27 25.26-13.36 2.15-1.84-.84-4.66-3.16-3.1ZM1231.75 2292.21c-7.51 4.77-13.63 11.06-21 16-8 5.3-17.17 9.52-26 13.5-17.71 8-36.73 12.92-55.67 17.92-10.57 2.79-21.42 5.27-32.51 5.75-2.86.14-3.06 4.25-.17 4.11 19.93-.85 38.67-7.38 57.54-12.41a234.34 234.34 0 0 0 55.4-23c9.18-5.21 16.7-12.45 24.93-18.77 1.63-1.31-.58-4.31-2.52-3.1Z" transform="translate(-1080.22 -2156.65)"/><path d="M1357.92 2208.49c-4-2.11-8.46-3.88-13-3.71a25.7 25.7 0 0 0-9.45 2.62c-4.63 2.07-9.25 4.76-11.3 9a15.53 15.53 0 0 0 .24 13.64c6.12 11.53 10.78 12.61 13.37 20.13 3.3 9.59 8.36 4.12 46.15 18.84 3.64 1.4 5.64-14.11 3.23-19.49-8.86-19.64-8.76-30.12-29.24-41.03Z" transform="translate(-1080.22 -2156.65)" style="fill:#273a4f"/><path d="M1334.8 2339.66c-12.11 13.23-14.35 7.82-23.87 15.06-7.76 5.88 3 31.8 12 33.06 25.81 3.6 31.9-18.81 46.86-29.66 6.06-4.42-30.16-23.77-34.99-18.46Z" transform="translate(-1080.22 -2156.65)" style="fill:#293c52"/><path class="cls-6" d="M1574.59 2383.32a6.21 6.21 0 0 0-1.8-3.53 5.66 5.66 0 0 0-3-.89c-8.57-.71-17.48 2.21-23.37 5.34a298.07 298.07 0 0 0-1.43 35.57c.11 5 .38 10.14 2.89 14.32 20.37 33.74 41.32 1.67 38.77-16.32-1.28-9.12-9.65-24.81-12.06-34.49ZM1711.41 2338.4a14 14 0 0 0-5.11-2.69c-3.67-.78-7.75 1.26-10.33 4.22s-4 6.66-5.85 9c3.67 14.15 3.7 22 10.78 34.62 6 10.78 19.93 22.79 39.79 8.13 3.47-2.59 7.21-5.48 8.33-9.52 1.43-5.14-1.87-9.93-5.17-13.78a188.93 188.93 0 0 0-32.44-29.98Z" transform="translate(-1080.22 -2156.65)"/><path d="M1760.58 2292.93c-8.06 1.9-16.29 5.64-14.66-2.76 1.16-5.88 21.9-16 70.77-31 29.12-9 63.26-40.91 63.77-50.81-69.79 10.34-89.51 22.82-148.11 14-60.73-9.15-166 45.6-202 50-25.71 3.17-51.87 3-77.34-1.63-24.48-4.45-48-13-71.93-20.23-39-11.84-99.5 15.37-133.07-2.93-20.74-11.29-27.61-19.31-27.61-19.31s-26.94 3.06-26.94 46.65c0 18.84 19.22 39.32 19.22 39.32s23.33-18.77 30-19.93c37.92-6.63 52.2 31.25 106.89 55.33 45.37 20 87.67 35.5 136.13 44.82 60.67 11.67 126.75 20.58 181.23-9.42 30.13-16.59 57.92-38.77 87.88-55.67 26.87-15.17 77-25.88 106.48-34.14 11-3.06 24.28-9.93 23.16-21.63-43.85 19.51-85.71 10.29-123.87 19.34Z" transform="translate(-1080.22 -2156.65)" style="fill:#9dc1eb"/><path d="M1816.69 2259.23c29.11-9 63.26-40.92 63.77-50.81-69.79 10.34-89.51 22.82-148.11 14-60.73-9.15-166 45.6-202 50-25.71 3.16-51.87 3-77.34-1.63-24.48-4.46-48-13-71.93-20.24-39.07-11.83-99.54 15.38-133.1-2.89-20.75-11.29-27.62-19.31-27.62-19.31s-26.93 3.06-26.93 46.66a37.3 37.3 0 0 0 2.21 11.87c14.38-7.62 24.86-17.35 42.44-14.73 15.61 2.35 23.36 11.8 33.74 21 10.61 4.15 21 7.89 31.32 13.54 11.66 6.42 21.83 15.54 33.7 21.52 13.74 6.94 29.08 11.67 43.26 17.69 13.16 5.57 24.38 15 37.82 19.55 26.86 9.08 56.35 6.19 83.35 14.46 15.4 4.69 30.27 12.54 46.86 12.07 14.69-.41 29.22-4.59 44.14-4.66 7.08 0 15.89 2.41 22.76 1.36 5.3-.82 10.13-4.56 14.76-6.9 14.48-7.32 29.65-12.52 43.49-21 11-6.77 20.13-16.12 31.46-22.41 13.33-7.38 27.34-13.06 40.67-20.71 14.15-8.13 28.4-17.62 44.15-22.35a100 100 0 0 1 25.2-4.21c7.38-.24 15.27 2.17 22.58 1.08 10.81-1.59 26.12-8.06 35.6-13.39.85-.48 1.67-1.06 2.49-1.57-40.58 14.73-79.35 7.31-114.85 15.75-8.06 1.9-16.29 5.64-14.66-2.76 1.16-5.85 21.9-15.95 70.77-30.98Z" transform="translate(-1080.22 -2156.65)" style="opacity:.85;isolation:isolate;fill:url(#linear-gradient)"/><path class="cls-3" d="M1554.66 2398.42c-7.11-5.1-16.29-7.11-22.92-7.38a309.26 309.26 0 0 0-17.82 32.07c-2.24 4.63-4.39 9.56-4.15 14.73 2.08 41.9 35.37 23.43 41.52 5.44 3.1-9.12 3.1-28.06 5.51-38.23a6.82 6.82 0 0 0 .07-4.21 6.26 6.26 0 0 0-2.21-2.42ZM1709.19 2346.32a15.84 15.84 0 0 0-4.14-4.83c-3.34-2.28-7.86-1.73-11.23.31s-5.85 5.37-8.33 7.07c-.65 16.29-3 24.49.1 40.57 2.59 13.71 12.45 31.8 36 24.32 4.11-1.33 8.6-2.89 10.88-6.67 2.93-4.79 1.16-11.15-.88-16.49a238.17 238.17 0 0 0-22.4-44.28Z" transform="translate(-1080.22 -2156.65)"/><path class="cls-6" d="M1676.17 2311.33c-5.78-8.74-9.38-18.71-12.58-28.67-1.12-3.54-2.24-7.14-2-10.85.82-14.08 19.62-23.77 16.19-40.71-5 8.06-11.63 15-16.84 23s-9 17.48-7.24 26.8c1 5.64 4 10.71 7 15.67 2.76 4.66 5.54 9.32 8.3 14 3.47 5.82 7 11.77 12.28 16s12.61 6.6 18.94 4.11c-10.07-3.16-18.22-10.68-24.05-19.35ZM1726.64 2306.6c-2.45-1.8-5.3-3.06-7.62-5.07-2.51-2.14-4.25-5-6-7.82-3.06-5-6.12-10.07-8.16-15.54a46.81 46.81 0 0 1 3.77-40c1.81-3 4-6.84 1.77-10.58-2 8.71-6.56 16.63-9.76 25s-5 17.92-1.46 26.15c1.33 3.1 3.33 5.85 4.42 9 .89 2.55 1.19 5.38 2.69 7.69a16.46 16.46 0 0 0 4.73 4.32l20.13 14.32c.12-3.01-2.06-5.67-4.51-7.47Z" transform="translate(-1080.22 -2156.65)"/><path class="cls-6" d="M1781.09 2298c-4.87 1.05-9.42 3.43-14.35 4.14-4.19.62-8.61 0-12.48 1.64-3.07 1.29-5.45 3.81-8.06 5.85-13 10.2-32.48 8.67-43.13 18.29 10.14 3.74 20.51-5.27 31.29-5.91 2.55-.17 5.27.13 7.52-1.09 1.9-1.06 3.09-3 4.52-4.73 5.78-6.94 15.44-8.91 24.35-10.44l24-4.18c-2.92-4.02-8.75-4.63-13.66-3.57ZM1803.64 2239c3.8 2.41 8.94-1.16 9.42-5.85a9.72 9.72 0 0 0-9.42 5.85ZM1770.61 2268c-11.76 4-24.58 8.8-30.57 19.69-4.93 2.58-6 13.4-.1 18.23-1.29-9.59 4.79-18.91 12.79-24.35s17.58-7.79 26.93-10.24c14.45-3.77 28.91-8 42.14-14.93 18.8-9.83 34.51-24.62 49.92-39.21 2.35-2.25 4.86-4.8 5-8.06-26.6 31.15-67.3 45.71-106.11 58.87Z" transform="translate(-1080.22 -2156.65)"/><path class="cls-6" d="M1834.79 2288.78c-16.43 1.67-33 1.33-49.38 2.92a148 148 0 0 0-36.77 8c27.72-1.49 53.5-5.37 79.41-7.24a200 200 0 0 0 20.2-2c9.36-1.67 18.3-5 27.21-8.23 3.54-1.29 7.89-4.46 6.16-7.79-13.81 8.93-30.44 12.71-46.83 14.34Z" transform="translate(-1080.22 -2156.65)"/><path d="M1752.21 2229.91a8.68 8.68 0 1 0 8.68 8.67 8.67 8.67 0 0 0-8.68-8.67Z" transform="translate(-1080.22 -2156.65)" style="fill:#0a1638"/><path d="M1752.21 2230.93a7.67 7.67 0 1 0 7.21 7.65 7.44 7.44 0 0 0-7.21-7.65Z" transform="translate(-1080.22 -2156.65)" style="fill:#7db8d1"/><path d="M1752.21 2232.63a6 6 0 1 0 5.51 5.95 5.74 5.74 0 0 0-5.51-5.95Z" transform="translate(-1080.22 -2156.65)"/><path class="cls-11" d="M1749.43 2233a1.87 1.87 0 1 0 1.87 1.87 1.87 1.87 0 0 0-1.87-1.87ZM1755 2241.13a1.38 1.38 0 1 0 1.19 1.36 1.28 1.28 0 0 0-1.19-1.36Z" transform="translate(-1080.22 -2156.65)"/><path class="cls-12" d="M1565.48 2330.68a3.34 3.34 0 0 0-2-1.53l-.88-.14a3.31 3.31 0 0 0-1.7.48c-1.64.78-3.24 1.56-4.87 2.31a2.67 2.67 0 0 0-1 .88 2.57 2.57 0 0 0-.62 1.19 2.77 2.77 0 0 0-.06 1.4 2.91 2.91 0 0 0 .4 1.29 3.48 3.48 0 0 0 2.08 1.6 7.59 7.59 0 0 1 .92.14 3.44 3.44 0 0 0 1.73-.48c1.6-.82 3.2-1.67 4.76-2.48a3.37 3.37 0 0 0 1.53-2 2.51 2.51 0 0 0 .07-1.33 2.16 2.16 0 0 0-.36-1.33ZM1607.37 2342.14l-.44.17a1.24 1.24 0 0 0-.2.1c.2-.1.44-.17.64-.27Z" transform="translate(-1080.22 -2156.65)"/><path class="cls-12" d="m1609.24 2342.07-.88-.1a3.1 3.1 0 0 0-1.43.34l.44-.17c-.2.1-.44.17-.64.27a1.24 1.24 0 0 1 .2-.1 18.92 18.92 0 0 1-4 1.05l-1 .1a3.72 3.72 0 0 0-2.41 1 3.44 3.44 0 0 0 0 4.83 3.23 3.23 0 0 0 2.41 1 24.81 24.81 0 0 0 4.19-.72 26.24 26.24 0 0 0 3.87-1.46 3.23 3.23 0 0 0 1.5-1.94 3.34 3.34 0 0 0-.31-2.58 3.13 3.13 0 0 0-1.94-1.52ZM1630.13 2323.84a3.52 3.52 0 0 0-2.62-.34 46.52 46.52 0 0 1-6.46 1.5 3.36 3.36 0 0 0-2.08 1.6 3.52 3.52 0 0 0-.34 2.68 3.39 3.39 0 0 0 1.6 2.08c.27.1.54.24.85.34a3.49 3.49 0 0 0 1.87 0 45.86 45.86 0 0 0 6.39-1.7 3.56 3.56 0 0 0 2-1.57 3.28 3.28 0 0 0 .34-2.58 3.42 3.42 0 0 0-1.55-2.01ZM1618.73 2299.46c-3.7 1-7.58 1.26-11.29 2.28a3.45 3.45 0 1 0 1.84 6.66c3.67-1.09 7.55-1.32 11.22-2.55a3.32 3.32 0 0 0-1.77-6.39ZM1532.86 2316.19c-3.77.07-7.48.48-11.25.68a3.47 3.47 0 1 0 0 6.94c3.74-.21 7.48-.68 11.25-.92a3.35 3.35 0 0 0 0-6.7ZM1445.33 2304.49a19.41 19.41 0 0 0-7.25-.92 3.28 3.28 0 0 0-2.21.92 3.11 3.11 0 0 0 0 4.42 3 3 0 0 0 2.21.92 18.9 18.9 0 0 1 3.1.1 16.33 16.33 0 0 1 2.51.58 3.21 3.21 0 0 0 2.38-.3 3.18 3.18 0 0 0 1.43-1.88 3.15 3.15 0 0 0-2.17-3.84ZM1394.72 2286.74c-.47 0-.92-.07-1.39-.1a17.73 17.73 0 0 1-2.62-.58 3.1 3.1 0 0 0-2.35.31 3 3 0 0 0-1.39 1.83 3.14 3.14 0 0 0 .3 2.35 3.33 3.33 0 0 0 1.84 1.39 21.06 21.06 0 0 0 5.65.92 3 3 0 0 0 3.06-3.06 3.51 3.51 0 0 0-.92-2.18 3.23 3.23 0 0 0-2.18-.88Z" transform="translate(-1080.22 -2156.65)"/><path d="M1324.9 2270.65a73.55 73.55 0 0 0-8.06-1 3.24 3.24 0 0 0-3.26 3.26 3.32 3.32 0 0 0 3.26 3.27c1.91.1 3.81.27 5.68.51l.68.1a2.57 2.57 0 0 0 1.26.07 2.6 2.6 0 0 0 1.19-.38 3.24 3.24 0 0 0 1.46-1.9 3.5 3.5 0 0 0-.3-2.48 3.16 3.16 0 0 0-1.91-1.45Z" transform="translate(-1080.22 -2156.65)" style="fill:#6391ad"/><path class="cls-12" d="m1343.34 2294.87-3.2-.82a2.7 2.7 0 0 0-1.23-.07 2.49 2.49 0 0 0-1.15.38 2 2 0 0 0-.85.78 2.59 2.59 0 0 0-.55 1.05c0 .28-.06.55-.1.82a3.08 3.08 0 0 0 2.25 3l3.19.82a2.7 2.7 0 0 0 1.23.07 2.45 2.45 0 0 0 1.15-.38 2 2 0 0 0 .85-.78 2.37 2.37 0 0 0 .55-1.05c0-.28.07-.55.1-.82a3.05 3.05 0 0 0-.41-1.56 3.17 3.17 0 0 0-1.83-1.44Z" transform="translate(-1080.22 -2156.65)"/><path d="M1361.8 2276.84a52.33 52.33 0 0 1-7.62-.3c-.91-.14-1.8-.28-2.72-.48a3.5 3.5 0 0 0-4.21 2.38c-.38 1.7.51 3.84 2.38 4.22a41.62 41.62 0 0 0 12.14.81 3.35 3.35 0 0 0 2.34-1 3.43 3.43 0 0 0 1-2.35 3.38 3.38 0 0 0-3.31-3.28Z" transform="translate(-1080.22 -2156.65)" style="fill:#79abc9"/><path class="cls-12" d="M1381.12 2310c-3.23-.74-6.43-1.66-9.63-2.44a3.22 3.22 0 0 0-3.94 2.24 3.27 3.27 0 0 0 2.24 4c3.23.74 6.43 1.63 9.66 2.34a3.21 3.21 0 0 0 3.91-2.21 3.28 3.28 0 0 0-2.24-3.93Z" transform="translate(-1080.22 -2156.65)"/><path class="cls-15" d="M1412.61 2274.8h.06a2.65 2.65 0 0 1 .38 0c-.13.04-.3.04-.44 0Z" transform="translate(-1080.22 -2156.65)"/><path class="cls-15" d="M1423 2276a70.81 70.81 0 0 0-7.11-.89c-.51 0-1-.1-1.5-.13a12 12 0 0 1-1.67-.19h-.09l-.75-.1c-.58-.1-1.16-.2-1.7-.34a3.51 3.51 0 0 0-1.87 6.77c4.52 1 9.18 1.12 13.77 1.66a3.37 3.37 0 0 0 2.45-1 3.65 3.65 0 0 0 1-2 3.47 3.47 0 0 0-2.53-3.78Z" transform="translate(-1080.22 -2156.65)"/><path class="cls-12" d="M1421.28 2313.16a31.73 31.73 0 0 1-6.39-1.7 3.34 3.34 0 0 0-4.12 2.35 3.48 3.48 0 0 0 .34 2.58 3.76 3.76 0 0 0 2 1.53 31.86 31.86 0 0 0 7.31 1.6 3 3 0 0 0 2.28-.95 3.37 3.37 0 0 0 .88-1.87 3.08 3.08 0 0 0-.37-2 3.19 3.19 0 0 0-1.93-1.54Z" transform="translate(-1080.22 -2156.65)"/><path d="M1465.39 2286.67a21.57 21.57 0 0 0-5.68.89 3.2 3.2 0 0 0-1.9 1.46 3.1 3.1 0 0 0-.31 2.45 3 3 0 0 0 1.46 1.9 3.11 3.11 0 0 0 2.45.31 18.15 18.15 0 0 1 2.72-.62c.41 0 .85-.1 1.26-.1a3.43 3.43 0 0 0 2.24-.92 3.19 3.19 0 0 0 .92-2.24 3.08 3.08 0 0 0-.91-2.21 3.32 3.32 0 0 0-2.25-.92Z" transform="translate(-1080.22 -2156.65)" style="fill:#75a3bf"/><path class="cls-12" d="M1477.5 2318.06c-2.66-.48-5.38-.78-8.06-1a3.26 3.26 0 0 0-3.23 3.24 3.32 3.32 0 0 0 3.23 3.23c1.83.1 3.7.27 5.54.51a6.24 6.24 0 0 1 .85.13 3.59 3.59 0 0 0 2.45-.3 3.24 3.24 0 0 0 1.46-1.87 3.51 3.51 0 0 0-.37-2.49 3.13 3.13 0 0 0-1.87-1.45ZM1505.59 2296.36c-2.69-.44-5.38-.78-8.06-1a3.23 3.23 0 0 0-2.28 1 3.22 3.22 0 0 0 2.28 5.51c1.8.11 3.6.28 5.37.51.34 0 .68.11 1 .14a3.52 3.52 0 0 0 2.45-.31 3.28 3.28 0 0 0 1.46-1.9 3.15 3.15 0 0 0-.31-2.48 3.09 3.09 0 0 0-1.91-1.47ZM1506.34 2337.34a7.91 7.91 0 0 1-.85-.06 10.89 10.89 0 0 1-2.35-.65 2.42 2.42 0 0 0-1.22-.07 2.37 2.37 0 0 0-1.13.37 2.48 2.48 0 0 0-.85.79 2.34 2.34 0 0 0-.54 1.05 3.14 3.14 0 0 0 .3 2.35c.17.2.31.41.48.61a2.85 2.85 0 0 0 1.36.78 13.8 13.8 0 0 0 4.83.92 3.31 3.31 0 0 0 2.18-.88 2.45 2.45 0 0 0 .64-1 2.3 2.3 0 0 0 .28-1.19 3.37 3.37 0 0 0-1-2.14 3.17 3.17 0 0 0-2.13-.88ZM1577.14 2294.6a25.25 25.25 0 0 0-9.73-1.09 3.72 3.72 0 0 0-2.48 1 3.41 3.41 0 0 0-1 2.48 3.51 3.51 0 0 0 1 2.48 3.31 3.31 0 0 0 2.48 1 26.68 26.68 0 0 1 5.65.1 17.34 17.34 0 0 1 2.28.45 3.46 3.46 0 0 0 2.58-.34 3.34 3.34 0 0 0 1.53-2 3.4 3.4 0 0 0-2.31-4.08ZM1594.11 2318.88a3.62 3.62 0 0 0-1.8-.48 25.85 25.85 0 0 0-9 .75 4 4 0 0 0-2.25 1.7 3.75 3.75 0 0 0-.37 2.89 3.72 3.72 0 0 0 4.59 2.62 28.53 28.53 0 0 1 2.92-.61 33 33 0 0 1 4.12-.24 3.6 3.6 0 0 0 3.57-3.57 3.85 3.85 0 0 0-1.05-2.52ZM1652.91 2307.48a3.36 3.36 0 0 0-1.16-1.15l-.74-.31a3.75 3.75 0 0 0-1.7 0l-2.42.78a2.73 2.73 0 0 0-1.09.58 2.66 2.66 0 0 0-.81.92 2.2 2.2 0 0 0-.38 1.19 2.47 2.47 0 0 0 .07 1.29c.1.28.21.51.34.79a3.12 3.12 0 0 0 1.16 1.15c.27.1.51.21.78.34a2.9 2.9 0 0 0 1.7 0c.82-.27 1.6-.54 2.41-.85a2.19 2.19 0 0 0 1.09-.58 2.57 2.57 0 0 0 .82-.88 2.14 2.14 0 0 0 .37-1.19 5.61 5.61 0 0 0-.13-1.33Z" transform="translate(-1080.22 -2156.65)"/><path d="m1636.62 2272.52-1.22-.51a5 5 0 0 0-2.25-.06c-2.38.3-4.76.54-7.14.68a5.27 5.27 0 0 0-3.6 1.49 5.08 5.08 0 0 0 0 7.21 5.05 5.05 0 0 0 3.6 1.5c3.13-.17 6.26-.55 9.39-1a3.76 3.76 0 0 0 1.73-.92 4.41 4.41 0 0 0 1.33-1.42 5.1 5.1 0 0 0 .51-3.92 5.32 5.32 0 0 0-2.35-3.05Z" transform="translate(-1080.22 -2156.65)" style="fill:#71a1bf"/><path class="cls-12" d="M1591.56 2278.51h.24ZM1593.77 2273.1c-.2-.17-.44-.34-.64-.51a3.41 3.41 0 0 0-1.6-.44 12.86 12.86 0 0 0-4.08.92 3.29 3.29 0 0 0-1.43.81c-.17.21-.34.45-.51.65a3.05 3.05 0 0 0-.44 1.63 2.44 2.44 0 0 0 .27 1.23 2.25 2.25 0 0 0 .64 1 2.44 2.44 0 0 0 1 .64 2.19 2.19 0 0 0 1.23.28 3.41 3.41 0 0 0 1.32-.31c-.13.07-.23.1-.37.17a11.89 11.89 0 0 1 2.53-.7h-.15.24-.09a2.23 2.23 0 0 0 .94-.22 2.8 2.8 0 0 0 1.67-1.67 2.22 2.22 0 0 0 .27-1.22v-.88a2.81 2.81 0 0 0-.8-1.38ZM1639.75 2249.26a3.63 3.63 0 0 0-2.52-.34 26.48 26.48 0 0 0-7.24 2.69 3.35 3.35 0 0 0-1.53 2 3.41 3.41 0 0 0 .34 2.58 3.38 3.38 0 0 0 2 1.53 3.63 3.63 0 0 0 2.58-.34c.65-.34 1.29-.65 1.94-.95a25.77 25.77 0 0 1 3.67-1.19 3.34 3.34 0 0 0 1.94-1.5 3.78 3.78 0 0 0 .31-2.55 3.37 3.37 0 0 0-1.49-1.93Z" transform="translate(-1080.22 -2156.65)"/><path d="M1535.34 2287.32a3.4 3.4 0 0 0-2.48-1c-2.65.27-5.34.47-8 .61a3.93 3.93 0 0 0-2.62 1.09 3.69 3.69 0 0 0 0 5.24 3.65 3.65 0 0 0 2.62 1.08 71.6 71.6 0 0 0 9-1.12 3.51 3.51 0 0 0 2.11-1.6 3.62 3.62 0 0 0 .41-2.24 3.46 3.46 0 0 0-1.04-2.06Z" transform="translate(-1080.22 -2156.65)" style="fill:#73a0bd"/><path class="cls-12" d="M1561.29 2277a2.87 2.87 0 0 0-1.12-1.12l-.75-.31a3.33 3.33 0 0 0-1.66 0l-2.42.78a2.32 2.32 0 0 0-1.09.58 2.48 2.48 0 0 0-.81.89 2.1 2.1 0 0 0-.38 1.19 2.32 2.32 0 0 0 .07 1.25l.31.75a2.87 2.87 0 0 0 1.12 1.12c.24.11.51.21.75.31a3.49 3.49 0 0 0 1.7 0l2.41-.82a2.25 2.25 0 0 0 1.09-.57 2.6 2.6 0 0 0 .82-.89 2.38 2.38 0 0 0 .37-1.19 2.43 2.43 0 0 0-.1-1.22ZM1558.33 2314.15c-.2-.17-.4-.31-.61-.48a3 3 0 0 0-1.53-.4h-2.41a2.36 2.36 0 0 0-1.19.27 2.33 2.33 0 0 0-1 .64 2.45 2.45 0 0 0-.64 1 2.3 2.3 0 0 0-.28 1.19c0 .27.07.54.11.82a3.12 3.12 0 0 0 .78 1.36c.2.17.41.3.61.47a3.08 3.08 0 0 0 1.53.41h2.41a2.47 2.47 0 0 0 1.19-.27 2.35 2.35 0 0 0 1-.65 2.38 2.38 0 0 0 .65-1 2.42 2.42 0 0 0 .27-1.19c0-.28-.07-.55-.1-.82a3.25 3.25 0 0 0-.79-1.35ZM1543.47 2350.67a3.4 3.4 0 0 0-2.58-1.05 53.56 53.56 0 0 1-10.44.34 4.16 4.16 0 0 0-2.89 1.19 4 4 0 0 0-1.19 2.89 4.16 4.16 0 0 0 4.08 4.08 36 36 0 0 0 11.42-1.39 3.66 3.66 0 0 0 2.62-4 3.55 3.55 0 0 0-1.02-2.06ZM1644 2349.25a3.33 3.33 0 0 0-1.87-1.47l-.85-.1a3 3 0 0 0-1.59.44 34.85 34.85 0 0 0-4 2.38 2.32 2.32 0 0 0-.88.82 2.62 2.62 0 0 0-.58 1.09 2.57 2.57 0 0 0-.07 1.26 2.64 2.64 0 0 0 .38 1.19 3.27 3.27 0 0 0 1.9 1.46 3.22 3.22 0 0 0 2.45-.31 32.77 32.77 0 0 1 4-2.41 2.5 2.5 0 0 0 .89-.82 2.33 2.33 0 0 0 .57-1.09 2.53 2.53 0 0 0 .07-1.25 3.36 3.36 0 0 0-.42-1.19ZM1667.6 2328.47c-.24.13-.51.24-.75.34a32.57 32.57 0 0 1-7.85 2 3.62 3.62 0 0 0-2 .55c-.27.2-.54.41-.78.61a3.94 3.94 0 0 0 .41 5.88 4.1 4.1 0 0 0 3.43.72 29.93 29.93 0 0 0 11.19-4 3.61 3.61 0 0 0 1.23-4.86 3.66 3.66 0 0 0-4.88-1.24ZM1577.07 2357.78a3.7 3.7 0 0 0-1.36-1.36c-.3-.13-.61-.24-.88-.37a4 4 0 0 0-2 0c-1.09.24-2.17.44-3.23.68a3.07 3.07 0 0 0-1.33.68 3 3 0 0 0-1 1.09 3.16 3.16 0 0 0-.48 1.46 3.08 3.08 0 0 0 .07 1.56l.41.92a3.89 3.89 0 0 0 1.39 1.4l.92.4a4.31 4.31 0 0 0 2.08 0l3.16-.91a2.88 2.88 0 0 0 1.29-.68 2.62 2.62 0 0 0 1-1.06 2.88 2.88 0 0 0 .44-1.39 2.85 2.85 0 0 0-.06-1.53ZM1477.5 2354.93a39.08 39.08 0 0 0-12.11-1.77 3.3 3.3 0 1 0 0 6.59 49 49 0 0 1 5.44.31 30.61 30.61 0 0 1 4.93 1.12 3.24 3.24 0 1 0 1.74-6.25ZM1437.06 2339c-.2-.17-.41-.3-.61-.47a3.11 3.11 0 0 0-1.56-.41h-2.42a3.38 3.38 0 0 0-2.18.92 2.35 2.35 0 0 0-.64 1 2.32 2.32 0 0 0-.27 1.19c0 .28.06.55.1.82a3 3 0 0 0 .78 1.36c.2.17.41.31.61.48a3.12 3.12 0 0 0 1.57.41h2.41a2.37 2.37 0 0 0 1.19-.28 2.33 2.33 0 0 0 1-.64 2.45 2.45 0 0 0 .64-1 2.3 2.3 0 0 0 .28-1.19c0-.27-.07-.54-.11-.82a3 3 0 0 0-.79-1.37ZM1360.24 2319.46a3.4 3.4 0 0 0-1.53-.89c-2-.75-4-1.5-5.92-2.31a3.31 3.31 0 0 0-1.43-.34c-.3 0-.64.1-.95.13a3.49 3.49 0 0 0-2.35 2.08 3.32 3.32 0 0 0 0 2.79 2.87 2.87 0 0 0 .75 1.15 3.53 3.53 0 0 0 1.6.92c2.11.85 4.28 1.63 6.46 2.28a3.58 3.58 0 0 0 2.69-.34 3.43 3.43 0 0 0 1.22-4.76c-.17-.24-.37-.48-.54-.71ZM1539.63 2374.14a16.34 16.34 0 0 0-1.94-.88 15.39 15.39 0 0 0-3-.92 18.29 18.29 0 0 0-7.55.13 3.37 3.37 0 0 0-2.35 4.15 3.44 3.44 0 0 0 4.21 2.38 7.56 7.56 0 0 1 1-.17 16.7 16.7 0 0 1 3.74 0 30.55 30.55 0 0 1 4.86 1.29 2.9 2.9 0 0 0 3.23-1.29 3 3 0 0 0 .38-1.43 2.87 2.87 0 0 0-.85-2 12.08 12.08 0 0 0-1.73-1.26ZM1596.32 2373.15h-6.43a3.42 3.42 0 0 0-2.41 5.82 3.59 3.59 0 0 0 2.41 1h6.43a3.42 3.42 0 0 0 2.42-5.82 3.6 3.6 0 0 0-2.42-1ZM1637.13 2365.43a4.2 4.2 0 0 0-.61-.06 2.42 2.42 0 0 0-1.16.3s0 0-.07 0h-.07a18.77 18.77 0 0 1-4.28 1.22 2.54 2.54 0 0 0-1.5 1.16 2.49 2.49 0 0 0-.24 1.9 2.61 2.61 0 0 0 1.16 1.5 2.66 2.66 0 0 0 1.9.24 21.33 21.33 0 0 0 5.34-2 2.45 2.45 0 0 0 1.09-1.39 2.32 2.32 0 0 0-1.6-2.93ZM1672 2352.24a2.16 2.16 0 0 0-1.23-.95 2 2 0 0 0-1.56.2l-2.42 1.6a1.7 1.7 0 0 0-.58.51 1.89 1.89 0 0 0-.37.68 1.63 1.63 0 0 0 0 .82 1.5 1.5 0 0 0 .23.74 2.18 2.18 0 0 0 1.23 1 2.06 2.06 0 0 0 1.56-.21l2.42-1.6a1.6 1.6 0 0 0 .58-.51 1.89 1.89 0 0 0 .37-.68 1.32 1.32 0 0 0 0-.81 1.15 1.15 0 0 0-.23-.79ZM1502.29 2371a2.17 2.17 0 0 0-1-.55c-.82-.27-1.6-.54-2.42-.85a1.55 1.55 0 0 0-.88 0 1.39 1.39 0 0 0-.82.27 1.49 1.49 0 0 0-.61.58 1.68 1.68 0 0 0-.41.75 4.34 4.34 0 0 0-.07.58 2.2 2.2 0 0 0 .31 1.12c.1.13.24.3.34.44a2.21 2.21 0 0 0 1 .58l2.41.78a1.59 1.59 0 0 0 .89 0 1.45 1.45 0 0 0 .81-.27 1.87 1.87 0 0 0 .61-.58 1.39 1.39 0 0 0 .38-.74l.07-.58a3.17 3.17 0 0 0-.31-1.09ZM1508.78 2359c-.61 0-1.25-.1-1.87-.17a23.67 23.67 0 0 1-3.12-.65 2.36 2.36 0 0 0-2.89 1.64 2.34 2.34 0 0 0 .23 1.8 2.47 2.47 0 0 0 1.4 1.09 32 32 0 0 0 6.25.81 2.28 2.28 0 0 0 2.28-2.27 2.31 2.31 0 0 0-2.28-2.25ZM1444.37 2357.31a19.67 19.67 0 0 0-8.67-1 2.54 2.54 0 0 0-2.55 2.55 2.56 2.56 0 0 0 2.55 2.55 21.08 21.08 0 0 1 4.63 0 25.24 25.24 0 0 1 2.75.55 2.5 2.5 0 0 0 3-1.71 2.53 2.53 0 0 0-1.71-2.94ZM1459.78 2335.17c-2.62 0-2.62 4.08 0 4.08s2.62-4.08 0-4.08ZM1408.19 2339c-1.84-.65-3.71-1.23-5.58-1.7a2.58 2.58 0 0 0-1.87.23 2.44 2.44 0 0 0 .58 4.46c1.9.41 3.77.92 5.64 1.49a2.33 2.33 0 0 0 2.62-3.43 2.41 2.41 0 0 0-1.39-1.05ZM1384.25 2331.9h-2.42a1.74 1.74 0 0 0-.81.17 1.46 1.46 0 0 0-.68.44 1.92 1.92 0 0 0-.45.68 1.4 1.4 0 0 0-.17.82 2.25 2.25 0 0 0 .62 1.5 2.18 2.18 0 0 0 1.49.61h2.42a2.26 2.26 0 0 0 1.49-.61 1.92 1.92 0 0 0 .45-.68 1.4 1.4 0 0 0 .17-.82 2 2 0 0 0-.62-1.5 2.18 2.18 0 0 0-1.49-.61ZM1320.21 2304.36a15.17 15.17 0 0 0-4.29-1.91 2.71 2.71 0 0 0-3.33 1.91 2.64 2.64 0 0 0 .27 2.07 2.78 2.78 0 0 0 1.64 1.26 13.53 13.53 0 0 1 1.63.54 14.67 14.67 0 0 1 2.69 1.57c.3.23.57.47.88.71l-.51-.41a8.07 8.07 0 0 1 .75.68 2.43 2.43 0 0 0 3.16.21 2.46 2.46 0 0 0 .61-3.13 10.37 10.37 0 0 0-3.5-3.5ZM1293.51 2288.58c-2.62 0-2.62 4.08 0 4.08s2.62-4.08 0-4.08ZM1284.43 2284.29a42.35 42.35 0 0 0-5.06-2.48 49.89 49.89 0 0 1-5.17-2.72 3.11 3.11 0 0 0-3.13 5.37 50.47 50.47 0 0 0 5.27 2.72 23.34 23.34 0 0 0 6 2 2.77 2.77 0 0 0 2-.27 2.58 2.58 0 0 0 1.09-1.26 2.66 2.66 0 0 0-1-3.36ZM1309.16 2313.5a28.75 28.75 0 0 1-5.44-3.29 3 3 0 0 1 .4.34 1.86 1.86 0 0 0-.81-.52 1.59 1.59 0 0 0-1-.2 2.45 2.45 0 0 0-1.77.75 2.64 2.64 0 0 0-.75 1.77 2.47 2.47 0 0 0 .75 1.77 20.72 20.72 0 0 0 3.23 2.17 21.15 21.15 0 0 0 3.53 1.5 2.32 2.32 0 0 0 2.76-1.36 2.19 2.19 0 0 0 .1-1.53 2.43 2.43 0 0 0-1-1.4Z" transform="translate(-1080.22 -2156.65)"/><path class="cls-19" d="M1420.43 2356.42a2.33 2.33 0 0 0-1-.58.37.37 0 0 0 .2.07l-.2-.1h-.11c-.64-.28-1.32-.58-2-.85.21.06.38.17.58.23-.65-.27-1.26-.54-1.87-.85a2 2 0 0 0-.92-.3 2 2 0 0 0-1 0 2.58 2.58 0 0 0-1.46 1.12 2.54 2.54 0 0 0-.24 1.91 2.23 2.23 0 0 0 1.13 1.46c.85.37 1.7.75 2.55 1a13.92 13.92 0 0 0 2.11.65 2.4 2.4 0 0 0 1.76-.24 2.31 2.31 0 0 0 1.06-1.39 2.37 2.37 0 0 0-.27-1.7ZM1395.33 2352.61c-1.93-.68-3.87-1.26-5.78-2-.27-.1-.51-.24-.78-.34a3 3 0 0 0-2-.27 2.78 2.78 0 0 0-1.56 1.19 2.71 2.71 0 0 0-.27 2 2.59 2.59 0 0 0 1.19 1.56 24.29 24.29 0 0 0 8.53 2.52 2.35 2.35 0 0 0 2.32-2 2.28 2.28 0 0 0-1.65-2.66ZM1351 2335.92a45.28 45.28 0 0 0-6.93-2.9 2.67 2.67 0 0 0-2 .28 2.75 2.75 0 0 0-1.23 1.59 2.69 2.69 0 0 0 1.87 3.27c1.09.37 2.18.78 3.27 1.12s2.14.72 3.23 1.06a2.4 2.4 0 0 0 2.85-1.4 2.38 2.38 0 0 0-1.06-3.02ZM1320.38 2323.81l-.52-.43a7 7 0 0 0 .52.43ZM1321.64 2317.52c-1.19-1.09-2.42-2.15-3.61-3.23a3 3 0 0 0-2-.85 2.9 2.9 0 0 0-2.89 2.89 2.88 2.88 0 0 0 .85 2c1.91 1.75 3.88 3.41 5.91 5 .5.41 1 .81 1.54 1.21a2.91 2.91 0 0 0 1.84.78 2.51 2.51 0 0 0 1.83-.78 2.66 2.66 0 0 0 0-3.71c-1.11-1.1-2.28-2.26-3.47-3.31ZM1298.82 2305.27q-3.06-2.19-6.33-4.18a2.8 2.8 0 0 0-3.81 1 2.84 2.84 0 0 0 1 3.81c2.21 1.22 4.39 2.51 6.53 3.84a2.61 2.61 0 0 0 3.54-.92 2.49 2.49 0 0 0 .27-2 2.82 2.82 0 0 0-1.2-1.55ZM1435.94 2371.52a10.57 10.57 0 0 0-2.86-.95 12.77 12.77 0 0 0-3-.17 2.38 2.38 0 0 0-1.5.61 2.12 2.12 0 0 0-.61 1.5 2.15 2.15 0 0 0 .61 1.49 1.94 1.94 0 0 0 1.5.62 8.9 8.9 0 0 1 1.93 0 8.43 8.43 0 0 1 2 .54l-.14-.06a2.29 2.29 0 0 0 1.57.2 2.23 2.23 0 0 0 1.26-.95 1.88 1.88 0 0 0 .2-1.6 2.1 2.1 0 0 0-.96-1.23ZM1479.67 2379.11a47.68 47.68 0 0 1-11.18-3.41 2.45 2.45 0 0 0-1.94.28 2.68 2.68 0 0 0-1.16 1.49 2.58 2.58 0 0 0 .27 1.94 3.18 3.18 0 0 0 1.5 1.16 40.33 40.33 0 0 0 11.9 3.13 2.34 2.34 0 0 0 2.31-2 2.31 2.31 0 0 0-1.7-2.59ZM1510.55 2387.61a2.27 2.27 0 0 0-1.12-.65 47.56 47.56 0 0 0-5.58-1.77 2.85 2.85 0 0 0-2.1.27 2.71 2.71 0 0 0-1.26 1.64 2.68 2.68 0 0 0 .27 2.11 2.72 2.72 0 0 0 1.63 1.25c1.91.41 3.81.89 5.68 1.43a2.65 2.65 0 0 0 2-.27 2.51 2.51 0 0 0 1.16-1.53 2.46 2.46 0 0 0-.24-2ZM1590.2 2396.35a2.22 2.22 0 0 0-1.67-.21c-1.08.28-2.14.51-3.23.79a2.18 2.18 0 0 0-1.32 1 1.83 1.83 0 0 0-.28.81 1.69 1.69 0 0 0 0 .89 2.22 2.22 0 0 0 1 1.32 2.46 2.46 0 0 0 1.7.24c1-.27 2.14-.54 3.2-.85a2.32 2.32 0 0 0 1.29-1 1.6 1.6 0 0 0 .27-.81 1.68 1.68 0 0 0 0-.92 2.22 2.22 0 0 0-.96-1.26ZM1629.24 2388.53a28.87 28.87 0 0 0-7.11.78 2.59 2.59 0 0 0-1.8 3.16 2.63 2.63 0 0 0 3.16 1.8 24.87 24.87 0 0 1 2.86-.54 25.66 25.66 0 0 1 2.89-.27 2.73 2.73 0 0 0 1.74-.72 2.43 2.43 0 0 0 .71-1.73 2.48 2.48 0 0 0-2.45-2.48ZM1655 2370.16l.44-.2-.68.3Z" transform="translate(-1080.22 -2156.65)"/><path class="cls-19" d="M1657.43 2369.17c-.85.31-1.7.65-2.51 1l-7.08 3.06a2.94 2.94 0 0 0-1.32 1.73 2.89 2.89 0 0 0 .3 2.24 2.94 2.94 0 0 0 1.74 1.33 3.41 3.41 0 0 0 2.24-.3c3-1.33 5.89-2.66 8.71-4.22a2.67 2.67 0 0 0-2.08-4.87ZM1655.63 2383.22a2.55 2.55 0 0 0-1-.95l-.65-.27a2.49 2.49 0 0 0-1.43 0c-.81.23-1.63.47-2.44.68a2 2 0 0 0-1 .51 2 2 0 0 0-.71.78 2.1 2.1 0 0 0-.34 1 2.49 2.49 0 0 0 0 1.12l.28.65a2.56 2.56 0 0 0 1 1c.21.11.44.17.65.28a2.78 2.78 0 0 0 1.46 0l2.38-.92a2 2 0 0 0 .92-.48 2 2 0 0 0 .68-.75 1.77 1.77 0 0 0 .31-1 1.17 1.17 0 0 0 .06-1c0-.21-.07-.41-.17-.65ZM1668.59 2366.49c-2.62 0-2.62 4.08 0 4.08a2 2 0 0 0 0-4.08ZM1227.3 2289.39a2.31 2.31 0 0 0-.85-.85c-.2-.07-.37-.17-.58-.24a2.68 2.68 0 0 0-1.26 0c-.81.24-1.63.51-2.41.75a2 2 0 0 0-.82.44 2.23 2.23 0 0 0-1 1.6 2 2 0 0 0 0 1c.07.2.17.37.24.58a2.5 2.5 0 0 0 .89.88c.2.07.37.17.57.24a2.85 2.85 0 0 0 1.3 0l2.38-.85a1.66 1.66 0 0 0 .81-.44 1.51 1.51 0 0 0 .62-.68 1.71 1.71 0 0 0 .27-.89 1.54 1.54 0 0 0 0-1c.01-.16-.09-.33-.16-.54ZM1250.46 2283.07a13.85 13.85 0 0 0-3.67-1.09 14.84 14.84 0 0 0-3.88-.07 2.32 2.32 0 0 0-1.16.31c-.17.1-.3.23-.47.34a2.08 2.08 0 0 0-.62 1.9 2.27 2.27 0 0 0 .86 1.5 1.5 1.5 0 0 0 .78.4 2.19 2.19 0 0 0 1.19 0c-.17 0-.31 0-.48.07a11 11 0 0 1 5.71.68 2.14 2.14 0 0 0 1.71-.23 2.59 2.59 0 0 0 .91-1.06 2 2 0 0 0 .14-1.43 2.19 2.19 0 0 0-1.02-1.32ZM1207.57 2288.54c-2.65 0-2.65 4.12 0 4.12s2.66-4.12 0-4.12ZM1315.82 2286.06a2.25 2.25 0 0 0-2.72 1.56 2.16 2.16 0 0 0 .24 1.7 2.1 2.1 0 0 0 1.33 1 8.39 8.39 0 0 1 1.12.34 6.86 6.86 0 0 1 1.33.79s0 0-.07 0a1.44 1.44 0 0 0 .61.38 1.9 1.9 0 0 0 .85.2 2.16 2.16 0 0 0 1.53-.65 2.18 2.18 0 0 0 .65-1.53 2.83 2.83 0 0 0-.72-1.56 9.61 9.61 0 0 0-4.15-2.23ZM1299.77 2289.12a1.81 1.81 0 0 0-1 0 1.3 1.3 0 0 0-.61.2s0 0-.07 0a2.25 2.25 0 0 0-1.74.23 2.42 2.42 0 0 0-1.05 1.36 2.21 2.21 0 0 0 .24 1.74 2.32 2.32 0 0 0 1.36 1c.88.28 1.77.58 2.65.92.27.14.58.24.85.38a2.8 2.8 0 0 1 .38.13c.37.27.78.51 1.15.78a1.62 1.62 0 0 0 .89.28 1.76 1.76 0 0 0 .91 0 2.74 2.74 0 0 0 1.23-.85 2.49 2.49 0 0 0 .51-1.43 2.55 2.55 0 0 0-.72-1.63 14.33 14.33 0 0 0-4.98-3.11ZM1253.35 2263.58a18.92 18.92 0 0 1-2.38-.07 13.67 13.67 0 0 1-2.65-.64 2.35 2.35 0 0 0-1.67.2 2.24 2.24 0 0 0-1 1.29 2.2 2.2 0 0 0 .21 1.67 2.31 2.31 0 0 0 1.29 1 15.2 15.2 0 0 0 6.19.85 2.31 2.31 0 0 0 1.53-.61 2.1 2.1 0 0 0 .61-1.53 2.07 2.07 0 0 0-.61-1.53 2 2 0 0 0-1.52-.63ZM1217.71 2264.6l-.58.27a.1.1 0 0 1-.07 0 8.76 8.76 0 0 1-1 .4c-.68.24-1.4.48-2.08.65s-1.42.34-2.14.44c-.17 0-.3 0-.47.07a.51.51 0 0 0-.21 0l-1.12.11a2.32 2.32 0 0 0-2.31 2.31 2.35 2.35 0 0 0 2.31 2.31 26.63 26.63 0 0 0 10-2.82 2.21 2.21 0 1 0-2.24-3.81ZM1292.73 2271.64c-.78 0-1.56-.07-2.31-.14a17.85 17.85 0 0 1-2.72-.61 2.13 2.13 0 0 0-1.12 4.12 21.61 21.61 0 0 0 6.19.85 2.14 2.14 0 0 0 2.1-2.11 2.21 2.21 0 0 0-2.14-2.11ZM1424.24 2297.21a57.76 57.76 0 0 1-8-1.73 2.43 2.43 0 1 0-1.29 4.69 54.37 54.37 0 0 0 8.67 1.57 2.18 2.18 0 0 0 1.63-.68 2.49 2.49 0 0 0 .65-1.33 2.35 2.35 0 0 0-1.66-2.52ZM1367.92 2299.76h.09l.19.07Z" transform="translate(-1080.22 -2156.65)"/><path class="cls-19" d="M1370.13 2295.92a11.34 11.34 0 0 0-6-1.16 2.38 2.38 0 0 0-1.6.69 2.44 2.44 0 0 0-.68 1.59 2.27 2.27 0 0 0 .68 1.6 2.19 2.19 0 0 0 1.6.68 9.65 9.65 0 0 1 2 0 8.28 8.28 0 0 1 1.82.48h-.09l.28.11-.19-.07a1.48 1.48 0 0 0 .7.2 1.56 1.56 0 0 0 .88 0 2.41 2.41 0 0 0 1.33-1 2.29 2.29 0 0 0 .23-1.7 2.24 2.24 0 0 0-.96-1.42ZM1499.13 2319.83a7.75 7.75 0 0 1-1-.07 10.62 10.62 0 0 1-2.51-.68 2.16 2.16 0 0 0-1.63.2 2.13 2.13 0 0 0-.75 2.9c.1.13.2.27.34.44a2.12 2.12 0 0 0 .92.54 13.15 13.15 0 0 0 4.59.89 2.24 2.24 0 0 0 1.49-.62 2 2 0 0 0 .61-1.49 2.18 2.18 0 0 0-.61-1.5 2.22 2.22 0 0 0-1.45-.61ZM1486.27 2343c-1 0-1.9-.1-2.86-.21a28.42 28.42 0 0 1-2.92-.57 2.29 2.29 0 1 0-1.22 4.42 30.85 30.85 0 0 0 7 .81 2.26 2.26 0 0 0 2.24-2.24 2.31 2.31 0 0 0-2.24-2.21ZM1441.79 2324.69a2.86 2.86 0 0 0-1.29-.75l-2.38-1a2.7 2.7 0 0 0-1.23-.07 2.45 2.45 0 0 0-1.15.38 2.7 2.7 0 0 0-.89.78 2.08 2.08 0 0 0-.54 1.05c0 .28-.07.55-.11.82a3.16 3.16 0 0 0 .41 1.56c.17.21.34.41.48.62a3.09 3.09 0 0 0 1.36.78c.82.2 1.63.44 2.45.65a2.25 2.25 0 0 0 1.15.06 2.4 2.4 0 0 0 1.09-.34 2.25 2.25 0 0 0 .82-.74 1.93 1.93 0 0 0 .51-1l.1-.78a2.28 2.28 0 0 0-.34-1.5c-.14-.14-.31-.35-.44-.52Z" transform="translate(-1080.22 -2156.65)"/><path class="cls-20" d="M1384.86 2275.35a30.82 30.82 0 0 0-4.93-1.77 42 42 0 0 0-4.8-.95 2.69 2.69 0 0 0-2 .27 2.61 2.61 0 0 0-.92 3.57 2.41 2.41 0 0 0 1.56 1.19 43.84 43.84 0 0 1 4.7.92c1.49.37 3 .75 4.52 1.22a2.44 2.44 0 0 0 1.87-4.45ZM1359 2260.38c-2.65-.47-5.3-.88-8-1.26a2.91 2.91 0 0 0-1.84.24 2.29 2.29 0 0 0-1.12 1.74 2.14 2.14 0 0 0 .48 1.73 2.48 2.48 0 0 0 1.87.92l2.31.31-.61-.07c2.11.27 4.22.58 6.32.81a2.18 2.18 0 0 0 2.22-1.93 2.21 2.21 0 0 0-1.63-2.49Z" transform="translate(-1080.22 -2156.65)"/><path d="M1479.81 2302.25a11.84 11.84 0 0 0-1-.82 9.79 9.79 0 0 0-2.08-1 12.57 12.57 0 0 0-4.18-.78 2.48 2.48 0 0 0 0 5c.3 0 .61 0 1 .07a10.72 10.72 0 0 1 2.07.55 8.39 8.39 0 0 1 1.5.81 2.29 2.29 0 0 0 1.59.64 2.33 2.33 0 0 0 1.4-.51 2.21 2.21 0 0 0 .61-2.92 5.75 5.75 0 0 0-.91-1.04Z" transform="translate(-1080.22 -2156.65)" style="fill:#39596e"/><path class="cls-22" d="M1493.65 2286.3a18.06 18.06 0 0 0-4.25-1.26c-1.29-.27-2.62-.48-3.94-.68a2.89 2.89 0 0 0-2 .27 2.5 2.5 0 0 0-1.15 1.53 2.6 2.6 0 0 0 .27 2 2.39 2.39 0 0 0 1.53 1.16c1.33.17 2.62.41 3.94.68a32 32 0 0 0 4.42.78 2.36 2.36 0 0 0 2.28-1.73 2.45 2.45 0 0 0 0-1.26 2.71 2.71 0 0 0-1.1-1.49ZM1539.94 2298.27a25.47 25.47 0 0 0-8.34.68 2.53 2.53 0 0 0-1.76 3.09 2.57 2.57 0 0 0 3.09 1.77 24.19 24.19 0 0 1 2.82-.54c1.4-.17 2.79-.27 4.19-.31a2.35 2.35 0 0 0 2.34-2.35 2.5 2.5 0 0 0-.68-1.66 2.71 2.71 0 0 0-1.66-.68ZM1609.18 2256.34c-.89.54-1.77 1-2.69 1.56a23.51 23.51 0 0 1-2.89 1.43l-.82.3a2.92 2.92 0 0 0-1.63 1.26 2.83 2.83 0 0 0-.27 2.11 2.7 2.7 0 0 0 1.26 1.63 2.74 2.74 0 0 0 2.11.28 31.09 31.09 0 0 0 4.35-2 14 14 0 0 0 3.54-2.72 2.44 2.44 0 0 0 .23-3.2 2.5 2.5 0 0 0-3.19-.65ZM1599 2282.79a51.86 51.86 0 0 1-5.85 1.3h.37a2.94 2.94 0 0 0-1.39.38 5.3 5.3 0 0 0-.55.44 2.56 2.56 0 0 0-.74 2.31 2.6 2.6 0 0 0 1.05 1.8 2.3 2.3 0 0 0 .95.51 2.62 2.62 0 0 0 1.47 0 23.16 23.16 0 0 0 6.7-2 2.57 2.57 0 0 0 1.19-1.53 2.91 2.91 0 0 0-.18-1.7 2.6 2.6 0 0 0-3.02-1.51ZM1657.6 2238.28c-.23.13-.51.24-.78.37a11.89 11.89 0 0 1-2.82.75c-.24 0-.44 0-.68.07a2.2 2.2 0 0 0-2.18 2.17 2.2 2.2 0 0 0 2.18 2.18 15.36 15.36 0 0 0 6.43-1.87 2.13 2.13 0 1 0-2.15-3.67ZM1641.62 2248.55c-.1-.07-.27-.1-.37-.17a3.41 3.41 0 0 0-.92-.44 4.15 4.15 0 0 0-1.16-.11 14.58 14.58 0 0 0-1.73.21l.78-.1a17.4 17.4 0 0 0-2.69.47 20.68 20.68 0 0 0-2.38.89 17 17 0 0 0-4 2.55 2.77 2.77 0 0 0-.85 2 3.08 3.08 0 0 0 .54 1.63 2.88 2.88 0 0 0-1.06 1.5 2.73 2.73 0 0 0 1.91 3.33l.71.1a2.67 2.67 0 0 0 1.36-.37c1.26-.55 2.49-1.09 3.71-1.7a20.72 20.72 0 0 0 2.76-1.57 7.92 7.92 0 0 0 1.19-.34 5.65 5.65 0 0 0 2.68-1.63 3.67 3.67 0 0 0 .65-1.09 2.62 2.62 0 0 0-.17-1.6 2.58 2.58 0 0 0 .37-1.32 2.71 2.71 0 0 0-1.33-2.24ZM1229.31 2246.47a25.61 25.61 0 0 0-3.1-1.29 16.52 16.52 0 0 0-2.79-.61 1.92 1.92 0 0 0-1 0 1.51 1.51 0 0 0-.92.3 2.39 2.39 0 0 0-1.12 1.5 2.59 2.59 0 0 0 .23 1.9 2.18 2.18 0 0 0 1.5 1.12 21.84 21.84 0 0 1 5.41 1.43 2.19 2.19 0 0 0 1.8-.24 2.31 2.31 0 0 0 1-1.12 2.4 2.4 0 0 0-1.01-2.99ZM1240.22 2258.48c-1.49-.41-3-.78-4.49-1.12s-3.06-.55-4.62-.79a3.18 3.18 0 0 0-2.11.28 2.75 2.75 0 0 0-1.33 2 2.61 2.61 0 0 0 .55 2 2.83 2.83 0 0 0 2.17 1.09 3.69 3.69 0 0 0 .65.07c2.86.37 5.68.82 8.57 1.09a2.37 2.37 0 0 0 2.35-2.08 2.4 2.4 0 0 0-1.74-2.54ZM1317.76 2259.12a39.73 39.73 0 0 0-9.11 1.47 2.54 2.54 0 0 0-1.77 3.13 2.57 2.57 0 0 0 3.13 1.76 47.46 47.46 0 0 1 6.77-1.46l1-.1a2.66 2.66 0 0 0 1.7-.71 2.58 2.58 0 0 0 .72-1.7 2.5 2.5 0 0 0-2.44-2.39ZM1333.06 2259.5c-2.61 0-2.61 4.08 0 4.08s2.66-4.08 0-4.08ZM1283.28 2259a25.27 25.27 0 0 0-8.4.68 2.81 2.81 0 0 0-1.94 3.41 2.85 2.85 0 0 0 3.4 1.93c.88-.2 1.77-.37 2.65-.51 1.43-.17 2.86-.3 4.29-.34a2.59 2.59 0 0 0 2.58-2.58 2.77 2.77 0 0 0-.75-1.84 3.08 3.08 0 0 0-1.83-.75ZM1336.13 2281.71c-.51 0-1-.07-1.47-.11a16.28 16.28 0 0 1-2.58-.57 2.07 2.07 0 0 0-2.52 1.42 2.1 2.1 0 0 0 1.44 2.55 20.39 20.39 0 0 0 5.14.85 2 2 0 0 0 1.42-.61 2.2 2.2 0 0 0 .62-1.43 2.07 2.07 0 0 0-2.05-2.1ZM1397.17 2264a32.12 32.12 0 0 0-11.26-4.32 3.12 3.12 0 0 0-2.14.28 2.71 2.71 0 0 0-1.26 1.66 2.8 2.8 0 0 0 1.94 3.4 37.76 37.76 0 0 1 5.44 1.4c.85.27 1.7.58 2.55.92l.21.1h.07c.07 0 .34.17.54.24.48.2.92.44 1.39.68a2.54 2.54 0 0 0 3.44-.92 2.62 2.62 0 0 0-.92-3.44ZM1441.11 2278.58h-3.06a2.21 2.21 0 0 0-1.53.65 1.51 1.51 0 0 0-.44.68 1.34 1.34 0 0 0-.17.82 2.22 2.22 0 0 0 .64 1.53 2.33 2.33 0 0 0 1.53.64h3.06a2.21 2.21 0 0 0 1.5-.61 1.9 1.9 0 0 0 .44-.68 1.32 1.32 0 0 0 .17-.82 2.05 2.05 0 0 0-.65-1.53 2.18 2.18 0 0 0-1.49-.68ZM1441.86 2292.93c-.85 0-1.74-.1-2.59-.21s-1.94-.34-2.92-.57a2.51 2.51 0 0 0-1.84.23 2.32 2.32 0 0 0-1.09 1.43 2.46 2.46 0 0 0 1.67 3 28.51 28.51 0 0 0 6.77.75 2.3 2.3 0 1 0 0-4.59ZM1647.16 2292.69a2.91 2.91 0 0 0-1.49-.41c-.78-.07-1.53-.17-2.32-.2l-2.31-.1a2.65 2.65 0 0 0-1.26.27 2.36 2.36 0 0 0-1 .68 2.76 2.76 0 0 0-.68 1.05 2.28 2.28 0 0 0-.27 1.26 3.26 3.26 0 0 0 3.26 3.27l2.31-.11c.79 0 1.54-.1 2.32-.2a2.32 2.32 0 0 0 1.15-.27 2.67 2.67 0 0 0 1-.61 3.06 3.06 0 0 0 .88-2.11 3.14 3.14 0 0 0-.88-2ZM1691.2 2237.46a2 2 0 0 0-1.66-.2c-.78.24-1.53.51-2.31.75a1.52 1.52 0 0 0-.75.4 2 2 0 0 0-.58.62 2.47 2.47 0 0 0-.24 1.7 2.08 2.08 0 0 0 1 1.29 2.11 2.11 0 0 0 1.7.2c.75-.27 1.53-.51 2.28-.78a2 2 0 0 0 .75-.37 1.32 1.32 0 0 0 .54-.62 1.6 1.6 0 0 0 .27-.81 1.58 1.58 0 0 0 0-.89 2.32 2.32 0 0 0-1-1.29ZM1677.91 2260.55a45.7 45.7 0 0 1-5.72 1.19c-.17 0-.34 0-.51.07a2.93 2.93 0 0 0-1.42.38c-.21.13-.38.3-.58.44a2.77 2.77 0 0 0-.78 2.38 2.66 2.66 0 0 0 1 1.83 2.3 2.3 0 0 0 1 .51 2.73 2.73 0 0 0 1.5 0 33.37 33.37 0 0 0 6.83-1.73 2.91 2.91 0 0 0 1.57-1.19 2.48 2.48 0 0 0 .34-2 2.68 2.68 0 0 0-3.23-1.88ZM1682.6 2284.6a31 31 0 0 1-5.82 1.36h.31a2.27 2.27 0 0 0-1.22.34c-.17.14-.34.24-.51.38a2.45 2.45 0 0 0 .23 3.64 2 2 0 0 0 .82.44 2.81 2.81 0 0 0 1.29 0 25.23 25.23 0 0 0 6.09-1.67 2.71 2.71 0 0 0 1.39-1.05 2.36 2.36 0 0 0 .24-1.8 2.32 2.32 0 0 0-2.82-1.64ZM1693.82 2249.94a1.76 1.76 0 0 0-.4-.07c.13.04.27.04.4.07Z" transform="translate(-1080.22 -2156.65)"/><path class="cls-22" d="M1698.14 2250.11a1.1 1.1 0 0 0-.44-.44 2 2 0 0 0-.82-.44 2.34 2.34 0 0 0-1.87.24c-.13.1-.3.17-.44.27s-.31.1-.44.13a4.21 4.21 0 0 1-.71 0 1.76 1.76 0 0 1 .4.07c-.13 0-.27 0-.41-.07a2 2 0 0 0-.55 0 1.67 1.67 0 0 0-.95.3 2 2 0 0 0-.72.65 1.83 1.83 0 0 0-.44.85 2.63 2.63 0 0 0 .27 1.94l.41.51a2.39 2.39 0 0 0 1.12.65 8 8 0 0 0 1.53.17 1.83 1.83 0 0 0 .45 0 5.47 5.47 0 0 0 1-.17 5.84 5.84 0 0 0 2.48-1.43 2.65 2.65 0 0 0 .72-1.73 2 2 0 0 1-.21-.68 1.78 1.78 0 0 0-.38-.82ZM1733.71 2236.27a2.09 2.09 0 0 0-.91-.54c-.75-.27-1.53-.51-2.32-.79a1.45 1.45 0 0 0-.85 0 1.58 1.58 0 0 0-.78.24 1.74 1.74 0 0 0-.61.54 1.47 1.47 0 0 0-.37.72c0 .2 0 .37-.07.58a2.12 2.12 0 0 0 .3 1.08 4.07 4.07 0 0 1 .34.45 2.09 2.09 0 0 0 1 .54c.78.24 1.53.51 2.31.75a1.45 1.45 0 0 0 .85 0 1.58 1.58 0 0 0 .78-.24 1.44 1.44 0 0 0 .58-.54 1.79 1.79 0 0 0 .37-.71c0-.21 0-.38.07-.58a2 2 0 0 0-.31-1.06c-.09-.13-.24-.27-.38-.44ZM1728 2225.18a2.15 2.15 0 0 0-1.7-.2c-.79.24-1.53.48-2.32.75a2.31 2.31 0 0 0-1.32 1 1.73 1.73 0 0 0-.27.82 1.56 1.56 0 0 0 0 .88c.07.17.14.34.24.54a2.11 2.11 0 0 0 .78.79 4.58 4.58 0 0 1 .54.23 2.19 2.19 0 0 0 1.19 0c.75-.27 1.53-.54 2.28-.78a1.59 1.59 0 0 0 .75-.41 2 2 0 0 0 .58-.61 1.63 1.63 0 0 0 .27-.81 1.68 1.68 0 0 0 0-.92 2.07 2.07 0 0 0-1.02-1.28ZM1720 2248.92a14.72 14.72 0 0 0-5.89 1.36 19.94 19.94 0 0 0-4.62 3.06 3 3 0 0 0 0 4.15 2.89 2.89 0 0 0 2.07.85 3.4 3.4 0 0 0 2.08-.85 1.14 1.14 0 0 1 .23-.17 21.12 21.12 0 0 1 3.85-2.31 15.27 15.27 0 0 1 3-.85 2.72 2.72 0 0 0 1.6-1.22 2.72 2.72 0 0 0-2.31-4ZM1717 2272.9c-1.23.34-2.42.75-3.61 1.19-1.39.54-2.72 1.19-4.08 1.83a3 3 0 0 0-1.33 1.74 2.82 2.82 0 0 0 .31 2.21 3 3 0 0 0 1.73 1.33 3.18 3.18 0 0 0 2.22-.31c1.12-.58 2.27-1.09 3.4-1.67s2.21-1.12 3.33-1.7a2.54 2.54 0 0 0 1-3.16 2.48 2.48 0 0 0-2.97-1.46ZM1716.91 2287.83c-2.65 0-2.65 4.11 0 4.11s2.66-4.11 0-4.11ZM1722.12 2236.34a4.39 4.39 0 0 0-.61-.07 2.22 2.22 0 0 0-1.16.31 5.24 5.24 0 0 1-.65.27 21.38 21.38 0 0 1-2.65.92 2.56 2.56 0 0 0-1.43 1.09 2.34 2.34 0 0 0-.24 1.83 2.61 2.61 0 0 0 1.09 1.43 2.33 2.33 0 0 0 1.84.24 28.23 28.23 0 0 0 4.35-1.84 2.31 2.31 0 0 0 1.06-1.39 2.22 2.22 0 0 0-.21-1.74 2.33 2.33 0 0 0-1.39-1.05ZM1690.39 2299.56a2 2 0 0 0-1.63-.2c-.79.23-1.53.51-2.32.74a1.81 1.81 0 0 0-.71.38 1.37 1.37 0 0 0-.55.61 1.32 1.32 0 0 0-.23.78 1.75 1.75 0 0 0 0 .85 2.05 2.05 0 0 0 1 1.26 2 2 0 0 0 1.63.21c.78-.28 1.53-.51 2.31-.79a1.77 1.77 0 0 0 .72-.37 1.59 1.59 0 0 0 .54-.58 1.33 1.33 0 0 0 .24-.78 1.38 1.38 0 0 0 0-.85 2 2 0 0 0-1-1.26ZM1705.08 2312.35c-.2-.07-.37-.17-.58-.24a2.68 2.68 0 0 0-1.26 0 15.62 15.62 0 0 0-7.31 3.5 2.65 2.65 0 0 0-.75 1.8 2.53 2.53 0 0 0 .75 1.81 2.58 2.58 0 0 0 1.8.75l.68-.11a2.38 2.38 0 0 0 1.09-.64 19.31 19.31 0 0 1 3.6-2.14 10.68 10.68 0 0 1 1.43-.51 2.53 2.53 0 0 0 1.43-1.09 2 2 0 0 0 .24-1.73 2.41 2.41 0 0 0-1.12-1.4ZM1713.85 2313.13c-2.65 0-2.65 4.11 0 4.11s2.66-4.11 0-4.11ZM1721.74 2261.06a41.4 41.4 0 0 1-6.12 1.5 2.16 2.16 0 0 0-.51 3.94 2.36 2.36 0 0 0 1.67.21 43.61 43.61 0 0 0 6.12-1.57 2.12 2.12 0 0 0 1.26-1 2.51 2.51 0 0 0 .17-1.63 2.12 2.12 0 0 0-2.59-1.45ZM1617.71 2360a2.56 2.56 0 0 0-1.73-.24 44.42 44.42 0 0 0-6.16 1.46 2.33 2.33 0 0 0-1.39 1.09 2.36 2.36 0 0 0-.24 1.8 2.41 2.41 0 0 0 2.89 1.64c2-.62 4.05-1.16 6.12-1.6a2.3 2.3 0 0 0 .51-4.15ZM1394.25 2319.66a2.94 2.94 0 0 0-1.94.24 2.68 2.68 0 0 0-1.16 1.49 2.72 2.72 0 0 0 .24 1.94 2.51 2.51 0 0 0 1.5 1.16 10.48 10.48 0 0 1 2.34.68 14 14 0 0 1 2.52 1.46l.24.21a2.39 2.39 0 0 0 3.4 0 2.4 2.4 0 0 0 0-3.41 12.65 12.65 0 0 0-7.14-3.77Z" transform="translate(-1080.22 -2156.65)"/></svg>