<svg width="24" height="24" viewBox="0 0 24 24" fill="none" xmlns="http://www.w3.org/2000/svg">
<path d="M4.75 8.125H20.4303L20.9928 5.875H7V3.625H22.435C22.606 3.625 22.7748 3.66399 22.9284 3.739C23.0821 3.81401 23.2167 3.92307 23.3219 4.05788C23.4271 4.1927 23.5002 4.34972 23.5356 4.51702C23.571 4.68432 23.5678 4.85749 23.5263 5.02338L20.7138 16.2734C20.6528 16.5167 20.5123 16.7326 20.3146 16.8869C20.1169 17.0412 19.8733 17.125 19.6225 17.125H3.625C3.32663 17.125 3.04048 17.0065 2.8295 16.7955C2.61853 16.5845 2.5 16.2984 2.5 16V2.5H0.25V0.25H3.625C3.92337 0.25 4.20952 0.368526 4.4205 0.579505C4.63147 0.790483 4.75 1.07663 4.75 1.375V8.125ZM4.75 23.875C4.15326 23.875 3.58097 23.6379 3.15901 23.216C2.73705 22.794 2.5 22.2217 2.5 21.625C2.5 21.0283 2.73705 20.456 3.15901 20.034C3.58097 19.6121 4.15326 19.375 4.75 19.375C5.34674 19.375 5.91903 19.6121 6.34099 20.034C6.76295 20.456 7 21.0283 7 21.625C7 22.2217 6.76295 22.794 6.34099 23.216C5.91903 23.6379 5.34674 23.875 4.75 23.875ZM18.25 23.875C17.6533 23.875 17.081 23.6379 16.659 23.216C16.2371 22.794 16 22.2217 16 21.625C16 21.0283 16.2371 20.456 16.659 20.034C17.081 19.6121 17.6533 19.375 18.25 19.375C18.8467 19.375 19.419 19.6121 19.841 20.034C20.2629 20.456 20.5 21.0283 20.5 21.625C20.5 22.2217 20.2629 22.794 19.841 23.216C19.419 23.6379 18.8467 23.875 18.25 23.875Z" fill="url(#paint0_linear_1079_2024)"/>
<defs>
<linearGradient id="paint0_linear_1079_2024" x1="19.3331" y1="0.249999" x2="-2.46014" y2="12.8022" gradientUnits="userSpaceOnUse">
<stop stop-color="#F39C12"/>
<stop offset="1" stop-color="#FFC700"/>
</linearGradient>
</defs>
</svg>
