<svg width="17" height="16" viewBox="0 0 17 16" fill="none" xmlns="http://www.w3.org/2000/svg">
<path d="M9.18564 1.37505L16.7271 14.4375C16.7965 14.5579 16.8331 14.6944 16.8331 14.8334C16.8331 14.9723 16.7965 15.1089 16.7271 15.2292C16.6576 15.3496 16.5576 15.4495 16.4373 15.519C16.317 15.5885 16.1804 15.625 16.0415 15.625H0.958639C0.819674 15.625 0.683158 15.5885 0.562813 15.519C0.442467 15.4495 0.342531 15.3496 0.27305 15.2292C0.203569 15.1089 0.166991 14.9723 0.166992 14.8334C0.166993 14.6944 0.203573 14.5579 0.273055 14.4375L7.81447 1.37505C7.88396 1.25471 7.98389 1.15478 8.10424 1.0853C8.22458 1.01582 8.3611 0.979248 8.50006 0.979248C8.63902 0.979248 8.77553 1.01582 8.89587 1.0853C9.01622 1.15478 9.11615 1.25471 9.18564 1.37505ZM7.70839 11.6667V13.25H9.29172V11.6667H7.70839ZM7.70839 6.12505V10.0834H9.29172V6.12505H7.70839Z" fill="#FF521C"/>
</svg>
