<svg width="32" height="32" viewBox="0 0 32 32" fill="none" xmlns="http://www.w3.org/2000/svg">
<path d="M21 26.6667H24.3334C25.2174 26.6667 26.0653 26.3155 26.6904 25.6903C27.3155 25.0652 27.6667 24.2174 27.6667 23.3333V9.71666C28.7792 9.32348 29.7169 8.54966 30.314 7.53198C30.9111 6.5143 31.1292 5.31828 30.9297 4.15534C30.7303 2.9924 30.1261 1.93742 29.224 1.17687C28.3219 0.416319 27.18 -0.000823975 26 -0.000823975C24.8201 -0.000823975 23.6782 0.416319 22.7761 1.17687C21.874 1.93742 21.2698 2.9924 21.0703 4.15534C20.8709 5.31828 21.089 6.5143 21.6861 7.53198C22.2832 8.54966 23.2209 9.32348 24.3334 9.71666V23.3333H21V18.3333L13.5 25L21 31.6667V26.6667ZM4.33336 20.2833C3.22087 20.6765 2.28321 21.4503 1.6861 22.468C1.08899 23.4857 0.870885 24.6817 1.07034 25.8446C1.2698 27.0076 1.87398 28.0626 2.77608 28.8231C3.67817 29.5837 4.82011 30.0008 6.00003 30.0008C7.17995 30.0008 8.32188 29.5837 9.22398 28.8231C10.1261 28.0626 10.7303 27.0076 10.9297 25.8446C11.1292 24.6817 10.9111 23.4857 10.314 22.468C9.71685 21.4503 8.77918 20.6765 7.6667 20.2833V9.71666C8.77918 9.32348 9.71685 8.54966 10.314 7.53198C10.9111 6.5143 11.1292 5.31828 10.9297 4.15534C10.7303 2.9924 10.1261 1.93742 9.22398 1.17687C8.32188 0.416319 7.17995 -0.000823975 6.00003 -0.000823975C4.82011 -0.000823975 3.67817 0.416319 2.77608 1.17687C1.87398 1.93742 1.2698 2.9924 1.07034 4.15534C0.870885 5.31828 1.08899 6.5143 1.6861 7.53198C2.28321 8.54966 3.22087 9.32348 4.33336 9.71666V20.2833Z" fill="url(#paint0_linear_1010_2149)"/>
<defs>
<linearGradient id="paint0_linear_1010_2149" x1="16" y1="31.6667" x2="16" y2="-0.000823975" gradientUnits="userSpaceOnUse">
<stop stop-color="white"/>
<stop offset="1" stop-color="white" stop-opacity="0.78"/>
</linearGradient>
</defs>
</svg>
