<svg width="37" height="36" viewBox="0 0 37 36" fill="none" xmlns="http://www.w3.org/2000/svg">
<path d="M0.333344 35.6667C0.333344 32.1304 1.7381 28.739 4.23859 26.2386C6.73907 23.7381 10.1305 22.3333 13.6667 22.3333C17.2029 22.3333 20.5943 23.7381 23.0948 26.2386C25.5953 28.739 27 32.1304 27 35.6667H0.333344ZM13.6667 20.6667C8.14168 20.6667 3.66668 16.1917 3.66668 10.6667C3.66668 5.14166 8.14168 0.666656 13.6667 0.666656C19.1917 0.666656 23.6667 5.14166 23.6667 10.6667C23.6667 16.1917 19.1917 20.6667 13.6667 20.6667ZM30.3333 27.3333H37V30.6667H30.3333V27.3333ZM25.3333 19H37V22.3333H25.3333V19ZM28.6667 10.6667H37V14H28.6667V10.6667Z" fill="url(#paint0_linear_1010_2139)"/>
<defs>
<linearGradient id="paint0_linear_1010_2139" x1="18.6667" y1="0.666656" x2="18.6667" y2="35.6667" gradientUnits="userSpaceOnUse">
<stop stop-color="white"/>
<stop offset="1" stop-color="white" stop-opacity="0.78"/>
</linearGradient>
</defs>
</svg>
