<svg width="54" height="54" viewBox="0 0 54 54" fill="none" xmlns="http://www.w3.org/2000/svg">
<path d="M27.0002 53.6667C12.2722 53.6667 0.333496 41.728 0.333496 27C0.333496 12.272 12.2722 0.333328 27.0002 0.333328C41.7282 0.333328 53.6668 12.272 53.6668 27C53.6668 41.728 41.7282 53.6667 27.0002 53.6667ZM13.6668 29.6667C13.6668 33.2029 15.0716 36.5943 17.5721 39.0947C20.0726 41.5952 23.4639 43 27.0002 43C30.5364 43 33.9278 41.5952 36.4282 39.0947C38.9287 36.5943 40.3335 33.2029 40.3335 29.6667H35.0002C35.0002 31.7884 34.1573 33.8232 32.657 35.3235C31.1567 36.8238 29.1219 37.6667 27.0002 37.6667C24.8784 37.6667 22.8436 36.8238 21.3433 35.3235C19.843 33.8232 19.0002 31.7884 19.0002 29.6667H13.6668ZM16.3335 24.3333C17.3944 24.3333 18.4118 23.9119 19.1619 23.1618C19.9121 22.4116 20.3335 21.3942 20.3335 20.3333C20.3335 19.2725 19.9121 18.255 19.1619 17.5049C18.4118 16.7548 17.3944 16.3333 16.3335 16.3333C15.2726 16.3333 14.2552 16.7548 13.5051 17.5049C12.7549 18.255 12.3335 19.2725 12.3335 20.3333C12.3335 21.3942 12.7549 22.4116 13.5051 23.1618C14.2552 23.9119 15.2726 24.3333 16.3335 24.3333ZM37.6668 24.3333C38.7277 24.3333 39.7451 23.9119 40.4953 23.1618C41.2454 22.4116 41.6668 21.3942 41.6668 20.3333C41.6668 19.2725 41.2454 18.255 40.4953 17.5049C39.7451 16.7548 38.7277 16.3333 37.6668 16.3333C36.606 16.3333 35.5885 16.7548 34.8384 17.5049C34.0883 18.255 33.6668 19.2725 33.6668 20.3333C33.6668 21.3942 34.0883 22.4116 34.8384 23.1618C35.5885 23.9119 36.606 24.3333 37.6668 24.3333Z" fill="url(#paint0_linear_1079_3188)"/>
<defs>
<linearGradient id="paint0_linear_1079_3188" x1="27.0002" y1="0.333328" x2="27.0002" y2="53.6667" gradientUnits="userSpaceOnUse">
<stop stop-color="white"/>
<stop offset="1" stop-color="white" stop-opacity="0.78"/>
</linearGradient>
</defs>
</svg>
