<svg width="60" height="53" viewBox="0 0 60 53" fill="none" xmlns="http://www.w3.org/2000/svg">
<path d="M3.33366 21.0001H11.3337V53H3.33366C2.62641 53 1.94814 52.7191 1.44804 52.219C0.947944 51.7189 0.666992 51.0406 0.666992 50.3334V23.6667C0.666992 22.9595 0.947944 22.2812 1.44804 21.7811C1.94814 21.281 2.62641 21.0001 3.33366 21.0001ZM17.4483 17.5521L34.515 0.485386C34.7418 0.257904 35.0432 0.119965 35.3636 0.0969375C35.684 0.0739102 36.002 0.167343 36.259 0.360053L38.5337 2.06672C39.1654 2.54097 39.6426 3.19166 39.905 3.93673C40.1674 4.68181 40.2034 5.48791 40.0083 6.25339L36.9337 18.3334H54.0003C55.4148 18.3334 56.7714 18.8953 57.7716 19.8955C58.7718 20.8957 59.3337 22.2522 59.3337 23.6667V29.2774C59.3344 29.9743 59.1985 30.6647 58.9337 31.3094L50.6803 51.3494C50.479 51.838 50.137 52.2557 49.6979 52.5496C49.2587 52.8435 48.7421 53.0003 48.2137 53H19.3337C18.6264 53 17.9481 52.7191 17.448 52.219C16.9479 51.7189 16.667 51.0406 16.667 50.3334V19.4374C16.6671 18.7302 16.9482 18.052 17.4483 17.5521Z" fill="url(#paint0_linear_1190_1764)"/>
<defs>
<linearGradient id="paint0_linear_1190_1764" x1="30.0003" y1="0.0935059" x2="30.0003" y2="53" gradientUnits="userSpaceOnUse">
<stop stop-color="white"/>
<stop offset="1" stop-color="white" stop-opacity="0.78"/>
</linearGradient>
</defs>
</svg>
